<?xml version="1.0" encoding="utf-8"?>
<!-- Generator: Adobe Illustrator 16.0.0, SVG Export Plug-In . SVG Version: 6.00 Build 0)  -->
<!DOCTYPE svg PUBLIC "-//W3C//DTD SVG 1.1//EN" "http://www.w3.org/Graphics/SVG/1.1/DTD/svg11.dtd">
<svg version="1.1" id="Ebene_1" xmlns="http://www.w3.org/2000/svg" xmlns:xlink="http://www.w3.org/1999/xlink" x="0px" y="0px"
	 width="1200px" height="1200px" viewBox="0 0 1200 1200" enable-background="new 0 0 1200 1200" xml:space="preserve">
<g>
	<path style="fill: #FFFFFF" d="M946.639,958.905l-84.406-339.912l120.022-53.35l197.558,282.948v-32.166L893.861,406.889
		c-0.388-0.569-0.843-1.086-1.353-1.541L713.386,242.32H686.02l193.331,175.955l92.161,131.992L857.721,600.84L821.01,453.005
		c0-0.012,0-0.012-0.008-0.012l-0.043-0.2c-0.012-0.062-0.059-0.122-0.082-0.192c-0.188-0.686-0.471-1.345-0.815-1.991
		c-0.103-0.173-0.196-0.349-0.306-0.518c-0.086-0.142-0.142-0.294-0.235-0.428c-0.388-0.537-0.823-1.011-1.294-1.446
		c-0.004,0-0.008-0.012-0.02-0.02L591.163,242.316h-27.416l233.362,211.609c-26.414,16.746-77.693,42.678-107.118,29.806
		c-16.252-7.108-35.737-25.261-56.364-44.461c-35.409-32.974-72.028-67.064-106.596-58.933
		c-36.953,8.692-60.604,12.378-69.35,13.589l-1.226-4.469c-10.178-37.149-45.475-62.304-83.921-59.803l-77.574,5.05l-8.396-92.388
		h-18.496l8.504,93.584l-109.314,7.112c-0.566-0.067-1.143-0.091-1.735-0.04c-0.461,0.04-0.9,0.129-1.343,0.235l-143.728,9.363
		v18.451l137.347-8.936l12.415,156.21L20.453,541.496v18.635l151.225-23.426l10.398,130.768L20.453,713.655v19.157l163.104-46.61
		l7.45,93.694c-51.746,65.586-99.485,108.361-170.554,146.467v20.831c77.974-40.497,129.624-86.253,184.533-155.524
		c2.145-1.191,3.725-3.211,4.389-5.618c17.379-22.246,35.185-46.892,54.312-74.49l14.505,93.6
		c8.194,52.923,56.268,89.452,109.447,83.163l126.512-14.949c53.312-6.297,102.243,28.483,113.817,80.9l1.02,4.63h18.867
		l-1.898-8.603c-13.628-61.7-71.218-102.637-133.968-95.219l-126.512,14.954c-43.285,5.116-82.419-24.614-89.083-67.691
		l-17.499-112.925c5.816-8.536,11.753-17.299,17.861-26.387C350.14,583.69,422.201,561.594,473.249,557.03
		c58.509-5.23,120.327,10.515,169.258,41.368c0.941,1.016,2.055,1.897,3.438,2.411c0.102,0.043,0.216,0.051,0.313,0.09
		c14.354,9.406,27.583,20.07,39.146,31.978c64.931,66.903,130.894,233.437,164.212,326.028h19.697
		c-32.809-92.364-101.057-267.104-170.688-338.85c-11.383-11.724-24.273-22.321-38.192-31.801l31.421-84.583
		c39.129,9.453,91.663-19.513,114.376-33.781l121.433,489.014H946.639z M281.481,652.755c-6.108,9.084-12.025,17.827-17.813,26.327
		c-1.667,1.235-2.866,2.992-3.407,4.999c-18.747,27.445-35.977,51.946-52.511,74.016l-31.562-397.206l197.54-12.855
		c29.761-1.945,57.086,17.533,64.967,46.288l39.442,143.981c-2.176,0.137-4.361,0.191-6.528,0.388
		C416.568,543.609,338.907,567.393,281.481,652.755z M644.515,578.218c-43.76-25.587-95.988-40.18-147.438-40.47l-34.491-125.911
		c10.613-1.537,33.687-5.344,68.66-13.573c24.999-5.885,59.44,26.187,89.83,54.49c18.875,17.569,36.848,34.279,53.738,43.885
		L644.515,578.218z"/>
	<path style="fill: #FFFFFF" d="M1042.771,452.958L820.548,242.32h-26.771l240.498,227.955c2.56,2.419,6.265,3.172,9.555,1.945l135.982-50.789v-19.663
		L1042.771,452.958z"/>
</g>
</svg>
