<svg aria-hidden="true" style="position: absolute; width: 0; height: 0; overflow: hidden;" version="1.1" xmlns="http://www.w3.org/2000/svg" xmlns:xlink="http://www.w3.org/1999/xlink">
<defs>
<symbol id="icon-alert" viewBox="0 0 32 32">
<title>alert</title>
<path d="M28.219 12.331c-0.1-0.231-0.326-0.38-0.577-0.38h-9.789l0.042-0.1 4.601-10.978c0.118-0.283 0.017-0.607-0.24-0.772-0.101-0.066-0.219-0.101-0.341-0.101-0.174 0-0.342 0.072-0.461 0.199l-17.557 18.79c-0.171 0.184-0.218 0.453-0.115 0.68 0.098 0.232 0.324 0.38 0.575 0.38h9.789l-0.042 0.1-4.601 10.98c-0.118 0.282-0.017 0.607 0.239 0.772 0.252 0.164 0.6 0.119 0.805-0.098l17.555-18.791c0.174-0.184 0.219-0.452 0.118-0.681zM26.077 13.334l-14.054 15.039 3.651-8.711c0.080-0.196 0.059-0.416-0.058-0.59-0.115-0.176-0.311-0.282-0.522-0.282h-9.287l0.114-0.121 14.053-15.041-3.65 8.711c-0.083 0.194-0.062 0.416 0.056 0.593 0.118 0.176 0.313 0.281 0.524 0.281h9.285l-0.113 0.122z"></path>
</symbol>
<symbol id="icon-write_active" viewBox="0 0 32 32">
<title>write_active</title>
<path d="M30.754 1.241c-0.801-0.8-1.866-1.241-3.004-1.241s-2.205 0.441-3.004 1.241l-1.66 1.663-21.007 21.004c-0.007 0.008-0.010 0.020-0.018 0.027-0.046 0.043-0.071 0.102-0.104 0.156-0.009 0.019-0.024 0.033-0.031 0.053-0.020 0.040-0.055 0.070-0.068 0.115l-1.839 6.866c-0.064 0.24 0.003 0.495 0.179 0.671 0.132 0.132 0.31 0.205 0.491 0.205 0.061 0 0.12-0.009 0.18-0.024l6.867-1.841c0.044-0.011 0.074-0.045 0.113-0.064 0.016-0.006 0.028-0.019 0.045-0.026 0.058-0.034 0.12-0.061 0.166-0.11 0.008-0.009 0.018-0.011 0.026-0.019l22.666-22.665c0.798-0.8 1.239-1.866 1.239-3.004 0-1.14-0.44-2.206-1.238-3.006zM1.672 30.322l1.218-4.546 3.326 3.328-4.544 1.218zM29.771 6.268l-1.169 1.171-4.045-4.046 1.171-1.169c0.537-0.538 1.254-0.832 2.022-0.832 0.767 0 1.485 0.295 2.022 0.832 1.115 1.115 1.115 2.93 0 4.045z"></path>
</symbol>
<symbol id="icon-write" viewBox="0 0 32 32">
<title>write</title>
<path d="M1.896 24.313c-0.009 0.013-0.019 0.025-0.022 0.032l-1.853 6.917c-0.054 0.202 0.003 0.417 0.151 0.565 0.144 0.145 0.337 0.21 0.565 0.151l6.916-1.854c0.009-0.002 0.023-0.013 0.032-0.019 0.021-0.015 0.040-0.027 0.063-0.039 0.018-0.013 0.031-0.021 0.043-0.025l0.034-0.019c0.041-0.023 0.077-0.041 0.101-0.068l22.857-22.849c0.785-0.783 1.215-1.83 1.215-2.944 0-1.117-0.431-2.162-1.215-2.944-0.785-0.784-1.831-1.216-2.944-1.216-1.117 0-2.162 0.432-2.944 1.216l-22.83 22.828c0.001 0 0.001-0.001 0.002-0.001 0.002 0-0.006 0.016-0.021 0.029-0.024 0.024-0.042 0.056-0.063 0.094l-0.040 0.069c-0.021 0.040-0.033 0.060-0.047 0.079zM25.721 2.043c0.562-0.562 1.315-0.873 2.119-0.873s1.555 0.31 2.119 0.873c1.168 1.168 1.168 3.068 0 4.236l-1.26 1.26-4.236-4.236 1.259-1.26zM3.386 24.379l20.248-20.25 4.237 4.236-20.329 20.329-4.237-4.235 0.081-0.080zM2.741 25.627l3.632 3.633-4.961 1.329 1.33-4.961z"></path>
</symbol>
<symbol id="icon-arrow_back" viewBox="0 0 32 32">
<title>arrow_back</title>
<path d="M7.569 16.164c0-0.178 0.069-0.358 0.206-0.495l15.463-15.465c0.272-0.273 0.715-0.273 0.989 0 0.273 0.274 0.273 0.717 0 0.99l-14.969 14.97 14.641 14.643c0.272 0.272 0.272 0.714 0 0.989-0.274 0.272-0.717 0.272-0.989 0l-15.135-15.138c-0.137-0.135-0.206-0.314-0.206-0.494z"></path>
</symbol>
<symbol id="icon-arrow_down" viewBox="0 0 32 32">
<title>arrow_down</title>
<path d="M16.164 24.435c-0.178 0-0.358-0.069-0.495-0.206l-15.472-15.47c-0.273-0.272-0.273-0.715 0-0.989 0.274-0.273 0.717-0.273 0.99 0l14.977 14.977 14.651-14.649c0.272-0.272 0.714-0.272 0.989 0 0.272 0.274 0.272 0.717 0 0.989l-15.146 15.143c-0.136 0.137-0.314 0.205-0.494 0.205z"></path>
</symbol>
<symbol id="icon-arrow_next" viewBox="0 0 32 32">
<title>arrow_next</title>
<path d="M24.431 15.836c0 0.178-0.069 0.358-0.206 0.495l-15.463 15.465c-0.272 0.273-0.715 0.273-0.989 0-0.273-0.274-0.273-0.717 0-0.99l14.97-14.969-14.643-14.643c-0.272-0.273-0.272-0.714 0-0.99 0.274-0.272 0.717-0.272 0.989 0l15.135 15.138c0.138 0.136 0.207 0.314 0.207 0.494z"></path>
</symbol>
<symbol id="icon-arrow_up" viewBox="0 0 32 32">
<title>arrow_up</title>
<path d="M15.836 7.564c0.178 0 0.358 0.069 0.495 0.206l15.472 15.471c0.273 0.272 0.273 0.715 0 0.989-0.274 0.273-0.717 0.273-0.99 0l-14.977-14.977-14.651 14.649c-0.272 0.272-0.714 0.272-0.989 0-0.272-0.274-0.272-0.717 0-0.989l15.146-15.143c0.135-0.138 0.313-0.206 0.494-0.206z"></path>
</symbol>
<symbol id="icon-block" viewBox="0 0 32 32">
<title>block</title>
<path d="M27.316 4.686c-3.023-3.023-7.040-4.686-11.313-4.686-4.277 0-8.293 1.664-11.315 4.686-3.025 3.023-4.689 7.041-4.689 11.315s1.664 8.291 4.689 11.314c3.020 3.022 7.038 4.686 11.315 4.686 4.273 0 8.29-1.664 11.313-4.686 3.019-3.023 4.685-7.040 4.685-11.314 0-4.275-1.666-8.292-4.686-11.315zM26.423 5.577c2.783 2.784 4.317 6.486 4.317 10.424 0 3.726-1.387 7.228-3.894 9.953l-20.801-20.801c2.726-2.506 6.23-3.894 9.957-3.894 3.936 0 7.638 1.535 10.42 4.318zM5.578 26.423c-2.783-2.786-4.317-6.487-4.317-10.422 0-3.725 1.388-7.231 3.893-9.956l20.803 20.802c-2.727 2.507-6.23 3.893-9.953 3.893-3.939 0-7.642-1.533-10.426-4.316z"></path>
</symbol>
<symbol id="icon-calendar_main_active" viewBox="0 0 32 32">
<title>calendar_main_active</title>
<path d="M16.029 19.588c0.514 0 0.933-0.165 1.259-0.496 0.326-0.331 0.491-0.77 0.491-1.32 0-0.534-0.167-0.974-0.501-1.325-0.333-0.351-0.754-0.526-1.264-0.526-0.519 0-0.938 0.168-1.259 0.508-0.321 0.336-0.481 0.785-0.481 1.344 0 0.549 0.161 0.989 0.485 1.32s0.748 0.496 1.271 0.496z"></path>
<path d="M16.014 20.735c-0.606 0-1.099 0.191-1.477 0.57-0.377 0.38-0.566 0.867-0.566 1.458 0 0.609 0.188 1.090 0.563 1.439 0.376 0.348 0.875 0.52 1.496 0.52 0.608 0 1.102-0.173 1.482-0.524s0.572-0.827 0.572-1.434c0-0.591-0.196-1.078-0.587-1.458-0.39-0.378-0.885-0.57-1.483-0.57z"></path>
<path d="M29.101 3h-4.404v-2.299c0-0.387-0.313-0.701-0.7-0.701-0.389 0-0.703 0.314-0.703 0.701v2.299h-14.588v-2.299c0-0.387-0.314-0.701-0.701-0.701-0.389 0-0.703 0.314-0.703 0.701v2.299h-4.401c-1.033 0-1.871 0.841-1.871 1.87v25.26c0 1.032 0.838 1.87 1.871 1.87h26.202c1.031 0 1.871-0.838 1.871-1.87v-25.26c0-1.030-0.841-1.87-1.871-1.87zM18.559 25.082c-0.649 0.527-1.493 0.788-2.53 0.788-1.058 0-1.908-0.262-2.552-0.788-0.645-0.526-0.967-1.288-0.967-2.287 0-0.607 0.184-1.143 0.548-1.609 0.366-0.462 0.86-0.804 1.483-1.022-0.539-0.207-0.96-0.522-1.268-0.942-0.306-0.424-0.458-0.918-0.458-1.479 0-0.949 0.291-1.681 0.877-2.197s1.359-0.775 2.322-0.775c0.949 0 1.724 0.259 2.325 0.775 0.599 0.515 0.899 1.248 0.899 2.197 0 0.562-0.16 1.056-0.474 1.479-0.316 0.42-0.745 0.735-1.284 0.942 0.622 0.218 1.12 0.56 1.493 1.022 0.372 0.466 0.56 1.001 0.56 1.609 0 0.999-0.325 1.762-0.975 2.287zM29.569 8.6h-27.138v-3.73c0-0.257 0.21-0.467 0.468-0.467h4.402v2.478c0 0.387 0.315 0.701 0.703 0.701 0.386 0 0.701-0.314 0.701-0.701v-2.478h14.589v2.478c0 0.387 0.315 0.701 0.703 0.701 0.387 0 0.7-0.314 0.7-0.701v-2.478h4.404c0.257 0 0.468 0.211 0.468 0.467v3.73z"></path>
</symbol>
<symbol id="icon-calendar_main" viewBox="0 0 32 32">
<title>calendar_main</title>
<path d="M29.095 3h-4.396v-2.298c0-0.389-0.315-0.702-0.701-0.702-0.389 0-0.703 0.314-0.703 0.702v2.298h-14.589v-2.298c0-0.389-0.314-0.702-0.701-0.702s-0.703 0.314-0.703 0.702v2.298h-4.394c-1.034 0-1.872 0.84-1.872 1.872v25.258c0 1.033 0.839 1.87 1.872 1.87h26.187c1.032 0 1.872-0.838 1.872-1.87v-25.258c0.002-1.032-0.839-1.872-1.87-1.872zM2.907 4.405h4.394v2.475c0 0.389 0.315 0.702 0.703 0.702 0.388 0 0.701-0.314 0.701-0.702v-2.475h14.588v2.475c0 0.389 0.315 0.702 0.703 0.702 0.386 0 0.701-0.314 0.701-0.702v-2.475h4.396c0.258 0 0.468 0.209 0.468 0.467v3.729h-27.124v-3.729c0-0.258 0.21-0.467 0.468-0.467zM29.095 30.599h-26.187c-0.259 0-0.468-0.211-0.468-0.469v-20.123h27.124v20.123c0 0.259-0.21 0.469-0.468 0.469z"></path>
<path d="M17.483 20.166c0.538-0.208 0.966-0.522 1.282-0.943 0.315-0.423 0.474-0.916 0.474-1.478 0-0.949-0.3-1.681-0.9-2.198-0.6-0.516-1.374-0.775-2.324-0.775-0.963 0-1.736 0.259-2.322 0.775s-0.877 1.249-0.877 2.198c0 0.563 0.152 1.056 0.458 1.478 0.308 0.422 0.728 0.735 1.267 0.943-0.623 0.218-1.116 0.559-1.482 1.022-0.365 0.465-0.548 1.001-0.548 1.608 0 0.999 0.323 1.761 0.967 2.288 0.644 0.527 1.496 0.79 2.554 0.79 1.038 0 1.881-0.263 2.531-0.79 0.649-0.526 0.974-1.289 0.974-2.288 0-0.607-0.188-1.143-0.559-1.608-0.374-0.462-0.873-0.803-1.494-1.022zM14.275 17.772c0-0.558 0.16-1.007 0.481-1.344 0.322-0.338 0.74-0.508 1.258-0.508 0.509 0 0.931 0.176 1.265 0.525 0.333 0.352 0.5 0.793 0.5 1.326 0 0.549-0.164 0.989-0.49 1.319s-0.745 0.498-1.259 0.498c-0.523 0-0.947-0.166-1.272-0.498s-0.483-0.768-0.483-1.318zM17.512 24.199c-0.38 0.351-0.874 0.525-1.482 0.525-0.623 0-1.12-0.174-1.497-0.522-0.375-0.347-0.563-0.828-0.563-1.438 0-0.592 0.189-1.080 0.567-1.458 0.378-0.38 0.87-0.569 1.476-0.569 0.598 0 1.093 0.19 1.483 0.569 0.39 0.378 0.585 0.866 0.585 1.458 0 0.605-0.191 1.082-0.57 1.434z"></path>
</symbol>
<symbol id="icon-calendar_sub_active" viewBox="0 0 32 32">
<title>calendar_sub_active</title>
<path d="M27.509 2.971h-3.822v-2.27c0-0.387-0.313-0.701-0.701-0.701-0.388 0-0.703 0.313-0.703 0.701v2.27h-12.466v-2.27c0-0.387-0.313-0.701-0.7-0.701-0.388 0-0.703 0.313-0.703 0.701v2.27h-3.923c-1.657 0-3.006 1.348-3.006 3.006v23.018c0 1.657 1.348 3.006 3.006 3.006h23.017c1.658 0 3.006-1.349 3.006-3.006v-23.018c0.001-1.658-1.347-3.006-3.005-3.006zM11.968 25.44h-5.185v-5.185h5.185v5.185zM11.968 18.814h-5.185v-5.185h5.185v5.185zM18.593 25.44h-5.185v-5.185h5.185v5.185zM18.593 18.815h-5.185v-5.185h5.185v5.185zM25.22 25.44h-5.185v-5.185h5.185v5.185zM25.22 18.815h-5.185v-5.185h5.185v5.185z"></path>
</symbol>
<symbol id="icon-calendar_sub" viewBox="0 0 32 32">
<title>calendar_sub</title>
<path d="M25.94 12.189h-19.878c-0.397 0-0.72 0.323-0.72 0.72v13.252c0 0.398 0.323 0.722 0.72 0.722h19.878c0.397 0 0.72-0.324 0.72-0.722v-13.252c0-0.397-0.323-0.72-0.72-0.72zM25.22 18.815h-5.185v-5.185h5.185v5.185zM18.593 18.815h-5.185v-5.185h5.185v5.185zM6.783 13.629h5.185v5.185h-5.185v-5.185zM6.783 20.256h5.185v5.185h-5.185v-5.185zM13.408 20.256h5.185v5.185h-5.185v-5.185zM25.22 25.441h-5.185v-5.185h5.185v5.185z"></path>
<path d="M27.509 2.971h-3.822v-2.27c0-0.387-0.313-0.701-0.701-0.701-0.388 0-0.703 0.313-0.703 0.701v2.27h-12.466v-2.27c0-0.387-0.313-0.701-0.7-0.701-0.388 0-0.703 0.313-0.703 0.701v2.27h-3.923c-1.657 0-3.006 1.348-3.006 3.006v23.018c0 1.657 1.348 3.006 3.006 3.006h23.017c1.658 0 3.006-1.349 3.006-3.006v-23.017c0.001-1.658-1.347-3.007-3.005-3.007zM29.074 28.995c0 0.863-0.702 1.565-1.565 1.565h-23.017c-0.863 0-1.565-0.702-1.565-1.565v-23.018c0-0.863 0.702-1.565 1.565-1.565h3.923v2.462c0 0.387 0.315 0.7 0.703 0.7 0.386 0 0.7-0.313 0.7-0.7v-2.462h12.466v2.462c0 0.387 0.315 0.7 0.703 0.7 0.387 0 0.701-0.313 0.701-0.7v-2.462h3.822c0.863 0 1.565 0.702 1.565 1.565v23.018z"></path>
</symbol>
<symbol id="icon-check" viewBox="0 0 32 32">
<title>check</title>
<path d="M10.491 26.664c0.255 0.253 0.67 0.253 0.922 0l20.404-20.404c0.255-0.255 0.255-0.67 0-0.924-0.254-0.253-0.667-0.253-0.922 0l-19.95 19.953-9.841-9.841c-0.253-0.253-0.665-0.253-0.919 0-0.129 0.128-0.193 0.294-0.193 0.461s0.065 0.334 0.193 0.463l9.838 9.836 0.468 0.454z"></path>
</symbol>
<symbol id="icon-Checkbox_unchecked" viewBox="0 0 32 32">
<title>Checkbox_unchecked</title>
<path d="M3.313 0c-1.827 0-3.313 1.487-3.313 3.314v25.374c0 1.826 1.487 3.313 3.313 3.313h25.375c1.825 0 3.311-1.487 3.311-3.313v-25.374c0-1.827-1.487-3.314-3.311-3.314h-25.375zM28.688 1.59c0.95 0 1.724 0.772 1.724 1.725v25.374c0 0.951-0.774 1.724-1.724 1.724h-25.375c-0.953 0-1.726-0.772-1.726-1.724v-25.374c0-0.951 0.774-1.725 1.726-1.725h25.375z"></path>
</symbol>
<symbol id="icon-Checkbox" viewBox="0 0 32 32">
<title>Checkbox</title>
<path fill="#3c3c3b" style="fill: var(--color1, #3c3c3b)" d="M3.313 0c-1.827 0-3.313 1.487-3.313 3.314v25.374c0 1.826 1.487 3.313 3.313 3.313h25.375c1.825 0 3.311-1.487 3.311-3.313v-25.374c0-1.827-1.487-3.314-3.311-3.314h-25.375zM28.688 1.59c0.95 0 1.724 0.772 1.724 1.725v25.374c0 0.951-0.774 1.724-1.724 1.724h-25.375c-0.953 0-1.726-0.772-1.726-1.724v-25.374c0-0.951 0.774-1.725 1.726-1.725h25.375z"></path>
<path fill="#1d1d1b" style="fill: var(--color2, #1d1d1b)" d="M28.392 7.567c-0.285-0.281-0.778-0.284-1.064 0l-16.364 16.368-5.284-5.283c-0.284-0.285-0.78-0.282-1.061-0.001-0.142 0.142-0.22 0.331-0.221 0.531 0 0.2 0.078 0.39 0.221 0.531l5.814 5.817c0.143 0.14 0.333 0.219 0.533 0.219 0.196 0 0.39-0.081 0.53-0.22l16.896-16.896c0.293-0.293 0.293-0.77 0-1.065z"></path>
</symbol>
<symbol id="icon-close" viewBox="0 0 32 32">
<title>close</title>
<path d="M16.001 17.489l14.092 14.093c0.373 0.371 0.977 0.371 1.35 0 0.37-0.373 0.37-0.977 0-1.347l-14.095-14.095 14.381-14.378c0.373-0.373 0.373-0.979 0-1.35-0.371-0.37-0.974-0.37-1.347 0l-14.381 14.384-14.382-14.384c-0.37-0.37-0.973-0.37-1.345 0-0.188 0.188-0.281 0.432-0.281 0.676s0.093 0.488 0.281 0.676l14.379 14.378-14.095 14.095c-0.183 0.185-0.277 0.429-0.277 0.674s0.093 0.488 0.277 0.674c0.374 0.371 0.979 0.371 1.349 0l14.095-14.096z"></path>
</symbol>
<symbol id="icon-crop_rotate" viewBox="0 0 32 32">
<title>crop_rotate</title>
<path d="M27.2 0.698c-0.093-0.405-0.458-0.698-0.873-0.698-0.224 0-0.435 0.088-0.597 0.248l-2.691 2.688-0.103-0.056c-2.133-1.131-4.533-1.731-6.937-1.731-8.161 0-14.801 6.64-14.801 14.802 0 1.162 0.136 2.317 0.402 3.432 0.062 0.261 0.299 0.448 0.563 0.448 0.038 0 0.081-0.004 0.144-0.017 0.305-0.074 0.497-0.39 0.423-0.7-0.242-1.027-0.366-2.092-0.366-3.163 0-7.519 6.116-13.636 13.636-13.636 2.057 0 4.126 0.478 5.98 1.383l0.199 0.098-0.156 0.155-2.325 2.327c-0.216 0.218-0.298 0.543-0.211 0.845 0.090 0.312 0.343 0.551 0.663 0.623l7.769 1.743c0.065 0.017 0.127 0.023 0.199 0.023 0.259 0 0.502-0.116 0.666-0.318 0.158-0.199 0.218-0.465 0.162-0.727l-1.745-7.771zM27.619 8.233l-6.715-1.511 0.203-0.201 5.068-5.071 0.021 0.094 1.506 6.708-0.082-0.019z"></path>
<path d="M30.41 12.555c-0.062-0.259-0.304-0.447-0.577-0.447-0.041 0-0.084 0.005-0.127 0.015-0.31 0.073-0.504 0.387-0.429 0.699 0.239 1.015 0.36 2.068 0.36 3.131 0 7.519-6.117 13.636-13.636 13.636-1.996 0-4.007-0.448-5.814-1.297l-0.202-0.095 2.476-2.477c0.221-0.22 0.301-0.543 0.21-0.842-0.090-0.316-0.343-0.554-0.66-0.627l-7.771-1.743c-0.065-0.017-0.129-0.024-0.198-0.024-0.259 0-0.502 0.115-0.664 0.316-0.161 0.205-0.222 0.47-0.164 0.727l1.745 7.775c0.093 0.405 0.458 0.698 0.87 0.698 0.228 0 0.442-0.088 0.599-0.248l2.695-2.696 0.103 0.052c2.090 1.078 4.434 1.647 6.774 1.647 8.161 0 14.803-6.639 14.803-14.801 0-1.137-0.134-2.28-0.392-3.398zM8.69 27.835c-0.090 0.052-0.162 0.119-0.201 0.189l-0.021 0.026-2.485 2.499-0.021-0.093-1.507-6.709 0.081 0.019 6.719 1.51-0.203 0.201-2.363 2.357z"></path>
<path d="M24.036 19.816h-2.557v-6.346c0-1.715-1.394-3.109-3.109-3.109h-6.599l-0.005-2.234c0-0.344-0.28-0.625-0.623-0.625s-0.623 0.281-0.623 0.625v2.234h-2.152l-0.097 0.017h-0.305c-0.344 0-0.623 0.281-0.623 0.625 0 0.343 0.28 0.622 0.623 0.622h2.555v6.347c0 1.714 1.395 3.108 3.111 3.108h6.598l0.006 2.795c0 0.343 0.28 0.622 0.622 0.622s0.622-0.28 0.622-0.622v-2.795h2.154l0.097-0.017h0.306c0.343 0 0.622-0.28 0.622-0.625-0.002-0.343-0.281-0.622-0.623-0.622zM20.228 19.827h-6.598c-1.026 0-1.86-0.832-1.86-1.856v-6.357h6.599c1.025 0 1.859 0.833 1.859 1.857v6.356z"></path>
</symbol>
<symbol id="icon-crop" viewBox="0 0 32 32">
<title>crop</title>
<path d="M31.39 24.093h-6.082v-16.539l6.512-6.513c0.116-0.116 0.178-0.268 0.178-0.431s-0.064-0.315-0.178-0.429c-0.116-0.116-0.267-0.178-0.43-0.178s-0.315 0.064-0.43 0.178l-6.512 6.512h-16.539v-6.082c0-0.336-0.273-0.61-0.609-0.61s-0.609 0.274-0.609 0.61v6.082h-6.084c-0.336 0-0.609 0.273-0.609 0.609s0.273 0.609 0.609 0.609h6.084v16.79c0 0.079 0.017 0.16 0.047 0.237 0.005 0.010 0.016 0.024 0.025 0.037 0.008 0.012 0.018 0.024 0.025 0.035 0.008 0.014 0.017 0.025 0.024 0.040 0.018 0.030 0.034 0.061 0.057 0.082 0.014 0.014 0.031 0.024 0.052 0.035 0.016 0.010 0.029 0.017 0.043 0.025 0.013 0.010 0.025 0.019 0.036 0.028 0.023 0.017 0.043 0.032 0.066 0.042 0.075 0.030 0.154 0.047 0.234 0.047h16.79v6.082c0 0.336 0.274 0.609 0.61 0.609s0.609-0.273 0.609-0.609v-6.082h6.082c0.336 0 0.61-0.273 0.61-0.609s-0.276-0.607-0.611-0.607zM7.908 7.908h15.322l-0.104 0.102-15.219 15.221v-15.323zM24.090 24.093h-15.32l15.32-15.322v15.322z"></path>
</symbol>
<symbol id="icon-dot" viewBox="0 0 32 32">
<title>dot</title>
<path d="M6.401 32c-3.536 0-6.399-2.863-6.399-6.399v-19.201c0-3.536 2.863-6.399 6.399-6.399h19.201c3.529 0 6.399 2.863 6.396 6.399v19.201c0 3.536-2.867 6.399-6.399 6.399h-19.198z"></path>
</symbol>
<symbol id="icon-eye_active" viewBox="0 0 32 32">
<title>eye_active</title>
<path d="M31.656 15.008c-1.757-2.15-8.078-9.163-15.656-9.163s-13.901 7.014-15.656 9.163c-0.468 0.576-0.468 1.408 0 1.983 1.757 2.151 8.079 9.164 15.656 9.164 7.579 0 13.901-7.014 15.656-9.164 0.469-0.575 0.469-1.407 0-1.983zM15.999 21.515c-3.042 0-5.517-2.474-5.517-5.515 0-3.041 2.474-5.516 5.517-5.516 3.040 0 5.514 2.474 5.514 5.516 0 3.040-2.473 5.515-5.514 5.515z"></path>
</symbol>
<symbol id="icon-eye_invisible_active" viewBox="0 0 32 32">
<title>eye_invisible_active</title>
<path d="M31.655 15.007c-1.756-2.149-8.078-9.163-15.656-9.163-2.198 0-4.284 0.6-6.189 1.489l3.746 3.746c0.74-0.369 1.561-0.597 2.444-0.597 3.040 0 5.513 2.474 5.513 5.516 0 0.88-0.227 1.703-0.595 2.443l4.413 4.413c3.089-2.127 5.375-4.703 6.324-5.864 0.47-0.575 0.47-1.407 0-1.983z"></path>
<path d="M18.765 20.742c-0.815 0.479-1.752 0.772-2.765 0.772-3.042 0-5.517-2.474-5.517-5.515 0-1.013 0.294-1.95 0.772-2.767l-4.293-4.293c-3.241 2.163-5.641 4.871-6.62 6.068-0.468 0.576-0.468 1.408 0 1.983 1.757 2.151 8.079 9.164 15.656 9.164 2.329 0 4.537-0.665 6.534-1.645l-3.768-3.768z"></path>
</symbol>
<symbol id="icon-eye_invisible" viewBox="0 0 32 32">
<title>eye_invisible</title>
<path d="M31.657 15.008c-1.758-2.15-8.080-9.163-15.657-9.163-2.618 0-5.078 0.846-7.259 2.028l-3.309-3.309c-0.239-0.239-0.626-0.24-0.867 0s-0.24 0.627 0 0.868l3.077 3.077c-3.583 2.221-6.253 5.218-7.299 6.498-0.469 0.575-0.469 1.408 0 1.983 1.757 2.15 8.078 9.162 15.655 9.162 2.617 0 5.077-0.845 7.258-2.028l3.31 3.31c0.24 0.24 0.627 0.239 0.868-0.001 0.239-0.239 0.239-0.626 0-0.866l-3.079-3.079c3.583-2.221 6.255-5.217 7.301-6.497 0.468-0.575 0.468-1.408 0-1.983zM16 24.978c-7.061 0-13.072-6.684-14.745-8.732-0.117-0.143-0.117-0.352 0-0.493 1.028-1.259 3.697-4.262 7.236-6.395l3.218 3.218c-0.754 0.943-1.225 2.124-1.225 3.422 0 3.040 2.473 5.514 5.513 5.514 1.3 0 2.479-0.47 3.423-1.225l2.974 2.974c-1.948 1.013-4.115 1.715-6.396 1.715zM13.409 12.541c0.726-0.544 1.615-0.879 2.59-0.879 2.393 0 4.34 1.944 4.34 4.338 0 0.975-0.335 1.865-0.879 2.591l-6.050-6.049zM18.59 19.458c-0.725 0.544-1.616 0.879-2.592 0.879-2.391 0-4.337-1.945-4.337-4.338 0-0.976 0.335-1.866 0.879-2.592l6.049 6.050zM30.747 16.247c-1.029 1.259-3.698 4.262-7.237 6.394l-3.219-3.218c0.754-0.944 1.225-2.124 1.225-3.422 0-3.041-2.474-5.515-5.516-5.515-1.299 0-2.477 0.47-3.421 1.225l-2.973-2.973c1.95-1.013 4.117-1.714 6.397-1.714 7.060 0 13.069 6.684 14.745 8.732 0.117 0.141 0.117 0.351 0.001 0.493z"></path>
</symbol>
<symbol id="icon-eye" viewBox="0 0 32 32">
<title>eye</title>
<path d="M0.344 16.992c1.757 2.151 8.078 9.163 15.656 9.163s13.901-7.013 15.657-9.163c0.468-0.575 0.468-1.408 0-1.983-1.757-2.151-8.079-9.164-15.657-9.164-7.579 0-13.901 7.014-15.656 9.164-0.469 0.575-0.469 1.409 0 1.983zM1.254 15.754c1.674-2.048 7.685-8.732 14.746-8.732s13.070 6.684 14.746 8.732c0.116 0.143 0.116 0.351 0 0.493-1.676 2.048-7.686 8.732-14.746 8.732-7.062 0-13.072-6.684-14.746-8.732-0.117-0.142-0.117-0.351 0-0.493z"></path>
<path d="M15.999 21.516c3.042 0 5.517-2.474 5.517-5.515 0-3.041-2.474-5.516-5.517-5.516-3.040 0-5.514 2.474-5.514 5.516 0 3.040 2.473 5.515 5.514 5.515zM15.999 11.663c2.393 0 4.339 1.945 4.339 4.338 0 2.392-1.946 4.337-4.339 4.337-2.391 0-4.337-1.945-4.337-4.337s1.946-4.338 4.337-4.338z"></path>
</symbol>
<symbol id="icon-favorite_active" viewBox="0 0 32 32">
<title>favorite_active</title>
<path d="M31.508 13.959c0.453-0.441 0.613-1.091 0.418-1.693-0.196-0.603-0.705-1.034-1.333-1.123l-8.846-1.287c-0.134-0.021-0.249-0.104-0.311-0.224l-3.954-8.015c-0.281-0.569-0.847-0.922-1.481-0.922s-1.201 0.352-1.481 0.922l-3.955 8.015c-0.061 0.12-0.176 0.204-0.31 0.224l-8.847 1.287c-0.626 0.089-1.137 0.52-1.333 1.122-0.196 0.603-0.037 1.252 0.417 1.693l6.401 6.239c0.098 0.096 0.141 0.232 0.118 0.366l-1.512 8.81c-0.082 0.481 0.049 0.97 0.362 1.34 0.316 0.377 0.779 0.591 1.267 0.591 0.267 0 0.526-0.064 0.768-0.191l7.912-4.16c0.117-0.063 0.267-0.063 0.384 0l7.913 4.16c0.243 0.127 0.501 0.191 0.768 0.191 0.488 0 0.949-0.213 1.267-0.591 0.311-0.372 0.444-0.859 0.36-1.34l-1.51-8.81c-0.023-0.134 0.021-0.27 0.118-0.366l6.4-6.238z"></path>
</symbol>
<symbol id="icon-favorite" viewBox="0 0 32 32">
<title>favorite</title>
<path d="M31.507 13.957c0.455-0.441 0.614-1.091 0.42-1.692s-0.707-1.033-1.334-1.123l-8.844-1.286c-0.136-0.019-0.251-0.104-0.311-0.224l-3.957-8.016c-0.28-0.568-0.847-0.92-1.481-0.92-0.632 0-1.201 0.352-1.481 0.92l-3.956 8.016c-0.061 0.12-0.176 0.205-0.31 0.224l-8.846 1.286c-0.626 0.090-1.137 0.522-1.333 1.123-0.197 0.602-0.038 1.252 0.417 1.693l6.401 6.24c0.098 0.096 0.142 0.232 0.118 0.366l-1.511 8.809c-0.083 0.48 0.049 0.969 0.362 1.341 0.317 0.376 0.779 0.591 1.266 0.591 0.268 0 0.526-0.063 0.769-0.191l7.912-4.16c0.118-0.062 0.266-0.062 0.383 0l7.912 4.16c0.242 0.128 0.501 0.191 0.768 0.191 0.489 0 0.95-0.215 1.269-0.591 0.31-0.373 0.442-0.861 0.359-1.341l-1.51-8.809c-0.023-0.134 0.023-0.271 0.119-0.366l6.399-6.241zM23.768 20.77l1.511 8.812c0.027 0.156-0.032 0.266-0.087 0.331-0.123 0.147-0.334 0.199-0.513 0.102l-7.911-4.157c-0.237-0.125-0.503-0.19-0.769-0.19-0.267 0-0.533 0.066-0.769 0.19l-7.912 4.157c-0.177 0.097-0.387 0.045-0.511-0.102-0.055-0.064-0.114-0.175-0.087-0.331l1.51-8.812c0.093-0.535-0.085-1.082-0.474-1.461l-6.401-6.239c-0.166-0.161-0.128-0.35-0.104-0.424 0.023-0.073 0.104-0.246 0.333-0.28l8.845-1.285c0.538-0.078 1.003-0.417 1.245-0.904l3.955-8.016c0.102-0.207 0.293-0.23 0.37-0.23 0.076 0 0.267 0.023 0.369 0.23l3.957 8.016c0.239 0.488 0.704 0.826 1.242 0.904l8.845 1.285c0.229 0.034 0.31 0.207 0.334 0.28 0.025 0.073 0.062 0.262-0.105 0.424l-6.4 6.239c-0.389 0.379-0.566 0.927-0.474 1.461z"></path>
</symbol>
<symbol id="icon-group_active" viewBox="0 0 32 32">
<title>group_active</title>
<path d="M31.178 24.441l-4.359-2.568c-0.218-0.128-0.353-0.365-0.353-0.618v-0.169c0-0.231 0.114-0.452 0.307-0.588 1.249-0.887 1.994-2.331 1.994-3.861v-2.599c0-1.86-1.191-3.231-3.265-3.765-0.967-0.248-1.964-0.251-2.941 0.001-0.075 0.018-0.139 0.047-0.21 0.068v-1.322c0-2.454-1.578-4.266-4.33-4.972-0.65-0.167-1.31-0.252-1.962-0.252-0.654 0-1.315 0.086-1.969 0.253-2.751 0.708-4.331 2.52-4.331 4.971v1.356c-0.108-0.034-0.208-0.075-0.321-0.104-0.967-0.248-1.962-0.249-2.941 0.001-2.075 0.535-3.266 1.908-3.266 3.765v2.599c0 1.529 0.746 2.972 1.994 3.861 0.192 0.136 0.307 0.356 0.307 0.588v0.162c0 0.256-0.138 0.494-0.359 0.622l-4.345 2.5c-0.518 0.298-0.839 0.855-0.839 1.453v1.601c0 0.429 0.349 0.779 0.778 0.779h30.445c0.426 0 0.776-0.347 0.78-0.774l0.013-1.529c0.003-0.597-0.314-1.156-0.83-1.459zM0.95 25.822c0-0.256 0.138-0.494 0.359-0.622l4.344-2.5c0.519-0.299 0.84-0.855 0.84-1.453v-0.162c0-0.543-0.266-1.054-0.71-1.368-0.996-0.709-1.591-1.861-1.591-3.080v-2.599c0-1.897 1.595-2.59 2.546-2.833 0.816-0.21 1.644-0.211 2.463-0.001 0.169 0.044 0.362 0.108 0.56 0.184v1.184c0 1.726 0.721 3.365 1.951 4.544 0.218 0.209 0.448 0.409 0.699 0.587 0.052 0.037 0.093 0.082 0.137 0.125 0.224 0.219 0.357 0.513 0.357 0.825v0.221c0 0.413-0.222 0.798-0.581 1.004l-5.939 3.417c-0.652 0.376-1.059 1.078-1.059 1.832v2.112h-4.378v-1.419zM31.033 27.241h-4.275l0.017-2.008c0.006-0.752-0.393-1.457-1.041-1.838l-5.959-3.51c-0.351-0.207-0.571-0.59-0.571-1v-0.231c0-0.273 0.1-0.532 0.273-0.74 0.064-0.079 0.137-0.149 0.222-0.21 0.213-0.151 0.414-0.315 0.604-0.491 1.292-1.184 2.047-2.869 2.047-4.64v-1.227c0.158-0.057 0.311-0.105 0.45-0.141 0.816-0.21 1.643-0.211 2.463-0.001 0.949 0.244 2.543 0.935 2.543 2.833v2.599c0 1.218-0.596 2.37-1.59 3.080-0.445 0.314-0.71 0.825-0.71 1.368v0.169c0 0.593 0.316 1.146 0.825 1.445l4.359 2.567c0.22 0.13 0.355 0.369 0.353 0.625l-0.011 1.349z"></path>
</symbol>
<symbol id="icon-group" viewBox="0 0 32 32">
<title>group</title>
<path d="M31.18 24.442l-4.358-2.568c-0.218-0.128-0.353-0.365-0.353-0.618v-0.169c0-0.231 0.114-0.452 0.307-0.588 1.249-0.887 1.994-2.331 1.994-3.861v-2.599c0-1.86-1.191-3.231-3.265-3.765-0.967-0.248-1.964-0.251-2.941 0.001-0.075 0.018-0.139 0.047-0.21 0.068v-1.322c0-2.454-1.578-4.266-4.33-4.972-0.65-0.167-1.31-0.252-1.962-0.252-0.654 0-1.315 0.086-1.969 0.253-2.751 0.708-4.331 2.52-4.331 4.971v1.356c-0.108-0.034-0.208-0.075-0.321-0.104-0.967-0.248-1.962-0.249-2.941 0.001-2.075 0.535-3.266 1.908-3.266 3.765v2.599c0 1.529 0.746 2.972 1.994 3.861 0.192 0.136 0.307 0.356 0.307 0.588v0.162c0 0.256-0.138 0.494-0.359 0.622l-4.346 2.499c-0.518 0.298-0.839 0.855-0.839 1.453v1.601c0 0.429 0.349 0.779 0.778 0.779h30.445c0.426 0 0.776-0.347 0.78-0.774l0.013-1.529c0.004-0.597-0.313-1.156-0.828-1.458zM0.952 25.822c0-0.256 0.138-0.494 0.359-0.622l4.344-2.5c0.519-0.299 0.84-0.855 0.84-1.453v-0.162c0-0.543-0.266-1.054-0.71-1.368-0.996-0.709-1.591-1.861-1.591-3.080v-2.599c0-1.897 1.595-2.59 2.546-2.833 0.816-0.21 1.644-0.211 2.463-0.001 0.169 0.044 0.362 0.108 0.56 0.184v1.184c0 1.726 0.721 3.365 1.951 4.544 0.218 0.209 0.448 0.409 0.699 0.587 0.052 0.037 0.093 0.082 0.137 0.125 0.224 0.219 0.357 0.513 0.357 0.825v0.221c0 0.413-0.222 0.798-0.581 1.004l-5.939 3.417c-0.652 0.376-1.059 1.078-1.059 1.832v2.112h-4.378v-1.419zM25.806 27.248l-19.523-0.007v-2.112c0-0.414 0.223-0.799 0.581-1.004l5.938-3.418c0.653-0.376 1.059-1.078 1.059-1.832v-0.221c0-0.682-0.335-1.329-0.896-1.725-0.093-0.066-0.176-0.142-0.263-0.212-0.364-0.296-0.685-0.633-0.956-1.005-0.656-0.903-1.031-1.997-1.031-3.137v-3.551c0-2.712 2.266-3.7 3.614-4.048 0.575-0.148 1.158-0.223 1.731-0.223s1.152 0.075 1.725 0.222c1.349 0.346 3.612 1.332 3.612 4.048v3.552c0 1.203-0.417 2.352-1.142 3.282-0.273 0.351-0.591 0.669-0.949 0.946-0.054 0.041-0.102 0.088-0.158 0.128-0.561 0.397-0.895 1.042-0.895 1.725v0.231c0 0.746 0.398 1.444 1.040 1.821l5.959 3.51c0.355 0.21 0.574 0.597 0.57 1.009l-0.017 2.016v0.006zM31.035 27.241h-4.275l0.017-2.008c0.006-0.752-0.393-1.457-1.041-1.838l-5.959-3.51c-0.351-0.207-0.571-0.59-0.571-1v-0.231c0-0.273 0.1-0.532 0.273-0.74 0.064-0.079 0.137-0.149 0.222-0.21 0.213-0.151 0.414-0.315 0.604-0.491 1.292-1.184 2.046-2.869 2.046-4.64v-1.228c0.158-0.057 0.311-0.105 0.45-0.141 0.816-0.21 1.643-0.211 2.463-0.001 0.949 0.244 2.543 0.935 2.543 2.833v2.599c0 1.218-0.596 2.37-1.59 3.080-0.445 0.314-0.71 0.825-0.71 1.368v0.169c0 0.593 0.316 1.146 0.825 1.445l4.359 2.567c0.22 0.13 0.355 0.369 0.353 0.625l-0.011 1.35z"></path>
</symbol>
<symbol id="icon-heart_active" viewBox="0 0 32 32">
<title>heart_active</title>
<path d="M29.444 4.621c-1.655-1.654-3.862-2.565-6.216-2.565s-4.562 0.911-6.216 2.565l-0.96 0.962c-0.026 0.025-0.069 0.025-0.094 0l-0.963-0.962c-1.653-1.654-3.86-2.565-6.215-2.565-2.357 0-4.565 0.911-6.216 2.565-3.428 3.429-3.428 9.006 0 12.433l12.502 12.502c0.251 0.251 0.584 0.389 0.94 0.389 0.354 0 0.688-0.138 0.939-0.389l12.501-12.502c1.654-1.654 2.564-3.862 2.564-6.218 0-2.352-0.91-4.559-2.564-6.215z"></path>
</symbol>
<symbol id="icon-heart" viewBox="0 0 32 32">
<title>heart</title>
<path d="M29.444 4.623c-1.655-1.654-3.862-2.566-6.216-2.566s-4.562 0.914-6.216 2.566l-0.96 0.96c-0.026 0.025-0.069 0.025-0.094 0l-0.963-0.96c-1.653-1.654-3.86-2.565-6.215-2.565-2.357 0-4.565 0.911-6.216 2.565-3.428 3.426-3.428 9.004 0 12.433l12.502 12.501c0.251 0.252 0.584 0.387 0.94 0.387 0.354 0 0.688-0.135 0.939-0.387l12.501-12.501c1.654-1.654 2.564-3.863 2.564-6.218s-0.91-4.559-2.564-6.215zM28.552 16.163l-12.501 12.502c-0.026 0.025-0.069 0.025-0.094 0l-12.502-12.502c-2.935-2.936-2.935-7.713 0-10.648 1.415-1.416 3.306-2.196 5.324-2.196s3.908 0.78 5.323 2.196l0.963 0.96c0.251 0.252 0.584 0.388 0.94 0.388 0.354 0 0.686-0.135 0.936-0.388l0.963-0.96c1.416-1.416 3.308-2.196 5.324-2.196 2.019 0 3.908 0.78 5.324 2.196s2.196 3.308 2.196 5.323c0 2.019-0.78 3.908-2.196 5.325z"></path>
</symbol>
<symbol id="icon-list_active" viewBox="0 0 32 32">
<title>list_active</title>
<path d="M9.656 6.115h21.645c0.39 0 0.705-0.316 0.705-0.706s-0.315-0.705-0.705-0.705h-21.645c-0.39 0-0.706 0.315-0.706 0.705s0.315 0.706 0.706 0.706z"></path>
<path d="M31.301 15.393h-21.645c-0.39 0-0.706 0.317-0.706 0.707 0 0.389 0.317 0.705 0.706 0.705h21.645c0.391 0 0.707-0.316 0.707-0.705 0-0.391-0.316-0.707-0.707-0.707z"></path>
<path d="M31.301 25.885h-21.645c-0.39 0-0.706 0.316-0.706 0.707 0 0.389 0.317 0.703 0.706 0.703h21.645c0.391 0 0.707-0.314 0.707-0.703 0-0.391-0.316-0.707-0.707-0.707z"></path>
<path d="M3.5 1.902c-1.934 0-3.508 1.574-3.508 3.508s1.574 3.507 3.508 3.507 3.507-1.573 3.507-3.507-1.574-3.508-3.507-3.508z"></path>
<path d="M3.5 12.591c-1.934 0-3.508 1.574-3.508 3.508s1.574 3.507 3.508 3.507 3.507-1.573 3.507-3.507-1.574-3.508-3.507-3.508z"></path>
<path d="M3.5 23.083c-1.934 0-3.508 1.574-3.508 3.507 0 1.935 1.574 3.508 3.508 3.508s3.507-1.573 3.507-3.508c0-1.933-1.574-3.507-3.507-3.507z"></path>
</symbol>
<symbol id="icon-list" viewBox="0 0 32 32">
<title>list</title>
<path d="M9.656 6.115h21.645c0.39 0 0.705-0.316 0.705-0.706s-0.315-0.705-0.705-0.705h-21.645c-0.39 0-0.706 0.315-0.706 0.705s0.315 0.706 0.706 0.706z"></path>
<path d="M31.301 15.393h-21.645c-0.39 0-0.706 0.317-0.706 0.707 0 0.389 0.317 0.705 0.706 0.705h21.645c0.391 0 0.707-0.316 0.707-0.705 0-0.391-0.316-0.707-0.707-0.707z"></path>
<path d="M31.301 25.885h-21.645c-0.39 0-0.706 0.316-0.706 0.707 0 0.389 0.317 0.703 0.706 0.703h21.645c0.391 0 0.707-0.314 0.707-0.703 0-0.391-0.316-0.707-0.707-0.707z"></path>
<path d="M3.5 1.902c-1.934 0-3.508 1.574-3.508 3.508s1.574 3.507 3.508 3.507 3.507-1.573 3.507-3.507-1.574-3.508-3.507-3.508zM3.5 7.628c-1.223 0-2.218-0.995-2.218-2.218s0.995-2.217 2.218-2.217 2.218 0.994 2.218 2.217-0.995 2.218-2.218 2.218z"></path>
<path d="M3.5 12.591c-1.934 0-3.508 1.574-3.508 3.508s1.574 3.507 3.508 3.507 3.507-1.573 3.507-3.507-1.574-3.508-3.507-3.508zM3.5 18.316c-1.223 0-2.218-0.995-2.218-2.218 0-1.222 0.995-2.217 2.218-2.217s2.218 0.995 2.218 2.217c0 1.223-0.995 2.218-2.218 2.218z"></path>
<path d="M3.5 23.083c-1.934 0-3.508 1.574-3.508 3.507 0 1.935 1.574 3.508 3.508 3.508s3.507-1.573 3.507-3.508c0-1.933-1.574-3.507-3.507-3.507zM3.5 28.808c-1.223 0-2.218-0.995-2.218-2.218s0.995-2.217 2.218-2.217 2.218 0.994 2.218 2.217-0.995 2.218-2.218 2.218z"></path>
</symbol>
<symbol id="icon-litter" viewBox="0 0 32 32">
<title>litter</title>
<path d="M31.379 4.314h-7.73v-1.527c0-0.923-0.75-1.674-1.674-1.674h-12.218c-0.922 0-1.673 0.751-1.673 1.674v1.527h-7.463c-0.347 0-0.628 0.28-0.628 0.627 0 0.346 0.281 0.627 0.628 0.627h3.767v22.6c0 1.502 1.221 2.72 2.72 2.72h17.518c1.5 0 2.721-1.218 2.721-2.72v-22.6h4.035c0.346 0 0.627-0.281 0.627-0.627-0.002-0.347-0.282-0.627-0.629-0.627zM9.338 2.786c0-0.23 0.186-0.419 0.418-0.419h12.218c0.231 0 0.418 0.188 0.418 0.419v1.527h-13.054v-1.527zM26.090 28.168c0 0.808-0.658 1.466-1.467 1.466h-17.518c-0.807 0-1.466-0.658-1.466-1.466v-22.6h20.451v22.6z"></path>
<path d="M10.411 9.828c-0.345 0-0.626 0.28-0.626 0.627v14.656c0 0.346 0.281 0.628 0.626 0.628 0.349 0 0.63-0.282 0.63-0.628v-14.656c0-0.347-0.281-0.627-0.63-0.627z"></path>
<path d="M15.894 9.828c-0.345 0-0.629 0.28-0.629 0.627v14.656c0 0.346 0.285 0.628 0.629 0.628 0.348 0 0.629-0.282 0.629-0.628v-14.656c0-0.347-0.281-0.627-0.629-0.627z"></path>
<path d="M21.336 9.828c-0.348 0-0.629 0.28-0.629 0.627v14.656c0 0.346 0.281 0.628 0.629 0.628 0.346 0 0.629-0.282 0.629-0.628v-14.656c0-0.347-0.284-0.627-0.629-0.627z"></path>
</symbol>
<symbol id="icon-location_active" viewBox="0 0 32 32">
<title>location_active</title>
<path d="M16 0c-6.772 0-12.281 5.51-12.281 12.282 0 5.487 7.714 15.209 11.030 19.136 0.312 0.369 0.768 0.581 1.251 0.581s0.938-0.212 1.25-0.581c3.318-3.927 11.032-13.649 11.032-19.136 0-6.772-5.509-12.282-12.281-12.282zM16 16.67c-2.818 0-5.111-2.293-5.111-5.11 0-2.82 2.293-5.112 5.111-5.112s5.111 2.293 5.111 5.112c0 2.817-2.293 5.11-5.111 5.11z"></path>
</symbol>
<symbol id="icon-location" viewBox="0 0 32 32">
<title>location</title>
<path d="M15.999 0c-6.78 0-12.299 5.517-12.299 12.3 0 5.487 7.692 15.181 10.998 19.096 0.324 0.385 0.799 0.604 1.301 0.604 0.503 0 0.977-0.22 1.301-0.604 3.306-3.912 11-13.605 11-19.096 0-6.782-5.518-12.3-12.301-12.3zM15.999 30.63c-0.046 0-0.164-0.011-0.254-0.118-1.362-1.612-4.001-4.846-6.346-8.394-2.832-4.279-4.328-7.675-4.328-9.818 0-6.027 4.902-10.931 10.928-10.931 6.028 0 10.93 4.904 10.93 10.931 0 2.143-1.496 5.538-4.329 9.818-2.342 3.541-4.981 6.779-6.346 8.394-0.088 0.102-0.197 0.118-0.255 0.118z"></path>
<path d="M15.999 6.418c-2.845 0-5.16 2.315-5.16 5.161 0 2.845 2.315 5.16 5.16 5.16 2.847 0 5.162-2.314 5.162-5.16 0.001-2.846-2.315-5.161-5.162-5.161zM15.999 15.37c-2.089 0-3.789-1.701-3.789-3.791 0-2.091 1.7-3.792 3.789-3.792 2.091 0 3.791 1.701 3.791 3.792s-1.7 3.791-3.791 3.791z"></path>
</symbol>
<symbol id="icon-Log_out" viewBox="0 0 32 32">
<title>Log_out</title>
<path d="M24.419 5.352c-0.277-0.194-0.658-0.128-0.851 0.149-0.198 0.277-0.128 0.657 0.148 0.851 3.577 2.515 5.713 6.626 5.713 10.992 0 7.405-6.023 13.43-13.427 13.43s-13.43-6.023-13.43-13.428c0-4.326 2.104-8.413 5.629-10.932 0.275-0.196 0.339-0.579 0.143-0.852-0.198-0.275-0.58-0.338-0.854-0.142-3.847 2.749-6.142 7.209-6.142 11.928 0 8.081 6.573 14.653 14.653 14.653 8.079 0 14.651-6.572 14.651-14.653 0-4.767-2.33-9.25-6.233-11.995z"></path>
<path d="M16 15.905c0.339 0 0.613-0.274 0.613-0.612v-14.68c0-0.337-0.274-0.613-0.613-0.613-0.337 0-0.612 0.275-0.612 0.613v14.68c0 0.337 0.275 0.612 0.612 0.612z"></path>
</symbol>
<symbol id="icon-message_bubble" viewBox="0 0 32 32">
<title>message_bubble</title>
<path d="M26.617 0.837h-21.234c-2.972 0-5.391 2.418-5.391 5.394v13.811h0.002l-0.002 0.023v10.305c0 0.264 0.133 0.513 0.355 0.662 0.22 0.146 0.5 0.173 0.746 0.070l9.423-3.95 3.987-1.717h12.113c2.971 0 5.391-2.418 5.391-5.392v-13.812c0-2.975-2.42-5.394-5.391-5.394z"></path>
</symbol>
<symbol id="icon-message_main_active" viewBox="0 0 32 32">
<title>message_main_active</title>
<path d="M26.617 0.836h-21.235c-2.972 0-5.391 2.419-5.391 5.393v13.814h0.002l-0.002 0.023v10.305c0 0.265 0.132 0.512 0.355 0.66 0.221 0.147 0.502 0.173 0.746 0.072l9.424-3.949 3.987-1.718h12.114c2.972 0 5.391-2.418 5.391-5.392v-13.815c0-2.975-2.419-5.393-5.391-5.393zM24.142 16.672h-16.285c-0.37 0-0.672-0.299-0.672-0.67 0-0.371 0.302-0.673 0.672-0.673h16.285c0.371 0 0.672 0.302 0.672 0.673 0 0.37-0.301 0.67-0.672 0.67zM24.142 9.851h-16.285c-0.37 0-0.672-0.301-0.672-0.671 0-0.372 0.302-0.673 0.672-0.673h16.285c0.371 0 0.672 0.301 0.672 0.673 0 0.37-0.301 0.671-0.672 0.671z"></path>
</symbol>
<symbol id="icon-message_main" viewBox="0 0 32 32">
<title>message_main</title>
<path d="M32.007 5.777c0-3.035-2.448-5.483-5.455-5.483h-21.105c-3.008 0-5.456 2.448-5.456 5.457v14.463c0.002 0.016 0.003 0.031 0.001 0.049l-0.001 10.811c0 0.213 0.107 0.409 0.284 0.527 0.175 0.116 0.403 0.138 0.594 0.056l9.885-4.14 4.18-1.803c0.024-0.009 0.052-0.016 0.079-0.016h11.539c3.006 0 5.455-2.447 5.455-5.456v-14.464zM30.741 20.241c0 2.309-1.878 4.188-4.188 4.188h-11.438c-0.032 0.011-0.069 0.020-0.085 0.020-0.154 0.009-0.294 0.024-0.402 0.069l-13.092 5.485c-0.025 0.011-0.051 0.016-0.077 0.016-0.039 0-0.077-0.011-0.11-0.033-0.056-0.036-0.090-0.1-0.090-0.166v-11.464c0-0.005 0-0.010 0-0.015v-12.566c0-2.309 1.878-4.188 4.188-4.188h21.105c2.309 0 4.188 1.878 4.188 4.188v14.464z"></path>
<path d="M23.957 8.196h-15.913c-0.357 0-0.649 0.291-0.649 0.649 0 0.356 0.292 0.647 0.649 0.647h15.913c0.356 0 0.647-0.289 0.647-0.647 0-0.358-0.29-0.649-0.647-0.649z"></path>
<path d="M23.957 15.352h-15.913c-0.357 0-0.649 0.291-0.649 0.65 0 0.355 0.292 0.647 0.649 0.647h15.913c0.356 0 0.647-0.29 0.647-0.647 0-0.358-0.29-0.65-0.647-0.65z"></path>
</symbol>
<symbol id="icon-message_sub_active" viewBox="0 0 32 32">
<title>message_sub_active</title>
<path d="M32.008 8.295c0-2.978-2.421-5.399-5.396-5.399h-3.089c-0.964-1.475-2.622-2.449-4.506-2.449h-13.629c-2.975 0-5.397 2.421-5.397 5.399v7.060c0.002 0.016 0.003 0.031 0.001 0.048l-0.001 10.693c0 0.212 0.105 0.405 0.28 0.523 0.172 0.115 0.399 0.136 0.588 0.055l5.518-2.312v0.714c0 2.978 2.42 2.982 5.396 2.982h6.584c0.026 0 0.055 0.006 0.078 0.016l4.134 1.783 8.569 4.097c0.189 0.081 0.416 0.060 0.588-0.055 0.175-0.117 0.28-0.311 0.28-0.523l-0.002-8.279c-0.002-0.017-0.001-0.033 0.002-0.048v-14.305zM6.378 8.32v12.233l-4.859 2.036c-0.025 0.011-0.051 0.016-0.077 0.016-0.038 0-0.077-0.011-0.109-0.033-0.054-0.035-0.088-0.098-0.088-0.164v-11.338c0-0.006 0-0.010 0-0.015v-5.185c0-2.284 1.857-4.141 4.142-4.141h13.629c1.116 0 2.126 0.446 2.871 1.166h-10.113c-2.975 0.002-5.396 2.424-5.396 5.426zM23.789 18.439h-9.703c-0.352 0-0.641-0.287-0.641-0.639 0-0.355 0.288-0.643 0.641-0.643h9.703c0.351 0 0.639 0.288 0.639 0.643 0 0.352-0.287 0.639-0.639 0.639zM23.789 11.359h-9.703c-0.352 0-0.641-0.287-0.641-0.639 0-0.352 0.288-0.642 0.641-0.642h9.703c0.351 0 0.639 0.289 0.639 0.642 0 0.351-0.287 0.639-0.639 0.639z"></path>
</symbol>
<symbol id="icon-message_sub" viewBox="0 0 32 32">
<title>message_sub</title>
<path d="M23.788 10.079h-9.702c-0.353 0-0.642 0.289-0.642 0.642 0 0.351 0.289 0.639 0.642 0.639h9.702c0.352 0 0.64-0.288 0.64-0.639 0.001-0.353-0.287-0.642-0.64-0.642z"></path>
<path d="M23.788 17.158h-9.702c-0.353 0-0.642 0.288-0.642 0.642 0 0.352 0.289 0.639 0.642 0.639h9.702c0.352 0 0.64-0.287 0.64-0.639 0.001-0.354-0.287-0.642-0.64-0.642z"></path>
<path d="M32.008 8.295c0-2.976-2.422-5.398-5.396-5.398h-3.088c-0.966-1.475-2.623-2.45-4.505-2.45h-13.631c-2.975 0-5.396 2.422-5.396 5.398v7.059c0.002 0.016 0.003 0.033 0.001 0.049l-0.001 10.692c0 0.211 0.105 0.406 0.28 0.523 0.172 0.115 0.398 0.137 0.588 0.056l5.518-2.312v0.715c0 2.976 2.42 2.982 5.395 2.982h6.583c0.025 0 0.054 0.007 0.076 0.016l4.135 1.783 8.568 4.097c0.19 0.081 0.417 0.059 0.588-0.056 0.174-0.116 0.281-0.31 0.281-0.522l-0.002-8.279c-0.002-0.017-0.002-0.032 0.002-0.048v-14.305zM1.52 22.59c-0.025 0.010-0.050 0.016-0.076 0.016-0.038 0-0.076-0.011-0.11-0.034-0.055-0.035-0.087-0.097-0.087-0.164v-11.339c0-0.005 0-0.010 0-0.015v-5.183c0-2.284 1.857-4.141 4.143-4.141h13.629c1.116 0 2.125 0.446 2.87 1.166h-10.114c-2.975 0-5.395 2.422-5.395 5.424v12.234l-4.859 2.035zM30.753 20.749c0 0.005 0 0.010 0 0.015v8.924c0 0.066-0.034 0.128-0.087 0.164-0.032 0.024-0.071 0.034-0.111 0.034-0.025 0-0.050-0.006-0.076-0.016l-11.742-5.426c-0.105-0.045-0.245-0.059-0.397-0.068-0.017 0-0.053-0.009-0.085-0.021h-6.481c-2.284 0-4.143 0.557-4.143-1.727v-14.305c0-2.284 1.858-4.14 4.143-4.14h14.838c2.284 0 4.141 1.856 4.141 4.14v12.429z"></path>
</symbol>
<symbol id="icon-more" viewBox="0 0 32 32">
<title>more</title>
<path d="M26.463 16c0-1.527 1.245-2.772 2.773-2.772 1.53 0 2.772 1.245 2.772 2.772 0 1.528-1.242 2.772-2.772 2.772s-2.773-1.243-2.773-2.772z"></path>
<path d="M13.104 16c0-1.527 1.243-2.772 2.773-2.772 1.528 0 2.772 1.245 2.772 2.772 0 1.528-1.243 2.772-2.772 2.772s-2.773-1.243-2.773-2.772z"></path>
<path d="M-0.008 16c0-1.527 1.243-2.772 2.773-2.772 1.527 0 2.769 1.245 2.769 2.772 0 1.528-1.242 2.772-2.769 2.772-1.53 0-2.773-1.243-2.773-2.772z"></path>
</symbol>
<symbol id="icon-notification_active" viewBox="0 0 32 32">
<title>notification_active</title>
<path d="M30.239 27.006l-2.215-5.795v-9.185c0-6.632-5.394-12.026-12.023-12.026-6.632 0-12.026 5.394-12.026 12.026l-0.005 9.21-2.211 5.769c-0.074 0.196-0.048 0.415 0.070 0.586 0.117 0.171 0.312 0.274 0.522 0.274h8.594l0.012 0.056c0.505 2.364 2.625 4.078 5.042 4.078s4.536-1.715 5.041-4.078l0.012-0.056h8.595c0.21 0 0.402-0.103 0.522-0.273 0.117-0.172 0.143-0.391 0.068-0.586zM19.731 27.955c-0.491 1.636-2.026 2.78-3.731 2.78-1.707 0-3.241-1.144-3.731-2.78l-0.026-0.090h7.514l-0.026 0.090z"></path>
</symbol>
<symbol id="icon-notification" viewBox="0 0 32 32">
<title>notification</title>
<path d="M30.238 27.006l-2.213-5.794v-9.187c0-6.631-5.395-12.025-12.025-12.025s-12.025 5.394-12.025 12.025l-0.005 9.211-2.211 5.77c-0.073 0.195-0.048 0.414 0.070 0.586 0.119 0.171 0.313 0.274 0.523 0.274h8.596l0.011 0.055c0.505 2.363 2.625 4.079 5.041 4.079 2.417 0 4.538-1.715 5.042-4.079l0.011-0.055h8.596c0.21 0 0.403-0.103 0.521-0.274s0.144-0.391 0.068-0.586zM5.24 12.025c0-5.934 4.827-10.76 10.76-10.76s10.76 4.827 10.76 10.76v8.683h-21.52v-8.683zM19.73 27.956c-0.492 1.636-2.025 2.78-3.731 2.78-1.705 0-3.24-1.144-3.729-2.78l-0.028-0.089h7.514l-0.026 0.089zM3.271 26.6l1.772-4.625h21.915l0.017 0.045 1.754 4.58h-25.458z"></path>
</symbol>
<symbol id="icon-paper_active" viewBox="0 0 32 32">
<title>paper_active</title>
<path d="M29.1 8.479c-0.006-0.019-0.012-0.036-0.015-0.056l-0.006-0.040c-0.007-0.043-0.012-0.079-0.024-0.109-0.010-0.023-0.028-0.047-0.049-0.072l-0.024-0.031c-0.012-0.016-0.021-0.030-0.030-0.047-0.009-0.017-0.019-0.031-0.027-0.042l-7.91-7.904c-0.048-0.048-0.106-0.085-0.178-0.118-0.014-0.007-0.023-0.009-0.030-0.013l-0.033-0.012c-0.043-0.015-0.095-0.024-0.152-0.029l-16.065-0.007c-0.921 0-1.669 0.748-1.669 1.668v28.663c0 0.921 0.748 1.669 1.669 1.669h22.882c0.921 0 1.67-0.748 1.67-1.669l0.005-21.833c-0.006 0.008-0.009-0.006-0.013-0.019zM7.353 5.886h8.644c0.343 0 0.624 0.279 0.624 0.624s-0.279 0.625-0.624 0.625h-8.644c-0.345 0-0.625-0.281-0.625-0.625s0.281-0.624 0.625-0.624zM20.585 13.6h-13.232c-0.338 0-0.611-0.274-0.611-0.61s0.274-0.609 0.611-0.609h13.232c0.336 0 0.61 0.272 0.61 0.609s-0.274 0.61-0.61 0.61zM21.643 7.905c-0.247 0-0.449-0.201-0.449-0.449v-5.374l5.829 5.823h-5.38z"></path>
</symbol>
<symbol id="icon-paper" viewBox="0 0 32 32">
<title>paper</title>
<path d="M29.112 8.498c-0.005 0.009-0.008-0.006-0.012-0.019-0.006-0.019-0.012-0.036-0.015-0.056l-0.006-0.040c-0.007-0.043-0.012-0.079-0.024-0.109-0.010-0.023-0.028-0.047-0.049-0.072l-0.024-0.031c-0.012-0.016-0.021-0.030-0.030-0.047-0.009-0.017-0.019-0.031-0.027-0.042l-7.91-7.904c-0.048-0.048-0.106-0.085-0.178-0.118-0.014-0.007-0.023-0.009-0.030-0.013l-0.033-0.012c-0.043-0.015-0.095-0.024-0.152-0.029l-16.065-0.007c-0.921 0-1.669 0.748-1.669 1.668v28.663c0 0.921 0.748 1.669 1.669 1.669h22.882c0.921 0 1.67-0.748 1.67-1.669l0.003-21.833zM21.194 2.083l5.829 5.823h-5.38c-0.247 0-0.449-0.201-0.449-0.449v-5.374zM27.887 30.331c0 0.248-0.203 0.45-0.449 0.45h-2.484c-0.024-0.002-0.041-0.007-0.057-0.012l-0.009-0.002c-0.027 0.007-0.042 0.012-0.058 0.013l-20.274 0.001c-0.247 0-0.448-0.203-0.448-0.45v-28.663c0-0.247 0.201-0.448 0.448-0.448h15.418v6.236c0 0.921 0.751 1.67 1.67 1.67h6.243v21.205z"></path>
<path d="M15.997 5.887h-8.644c-0.345 0-0.625 0.279-0.625 0.624s0.281 0.625 0.625 0.625h8.644c0.343 0 0.624-0.281 0.624-0.625s-0.279-0.624-0.624-0.624z"></path>
<path d="M20.585 12.381h-13.232c-0.338 0-0.611 0.272-0.611 0.609s0.274 0.61 0.611 0.61h13.232c0.336 0 0.61-0.274 0.61-0.61s-0.274-0.609-0.61-0.609z"></path>
</symbol>
<symbol id="icon-photo_active" viewBox="0 0 32 32">
<title>photo_active</title>
<path d="M30.070 6.090h-3.020c-0.294 0-0.547-0.21-0.6-0.498-0.001-0.016-0.003-0.023-0.006-0.030l-0.884-3.492c-0.181-0.908-0.981-1.563-1.901-1.563h-15.318c-0.92 0-1.72 0.656-1.901 1.56l-0.892 3.526c-0.053 0.288-0.304 0.498-0.598 0.498h-3.020c-1.069 0-1.939 0.869-1.939 1.936v21.528c0 1.069 0.87 1.938 1.939 1.938h28.141c1.068 0 1.936-0.869 1.936-1.938v-21.528c0-1.068-0.87-1.938-1.938-1.938zM15.999 26.236c-4.368 0-7.922-3.555-7.922-7.924 0-4.369 3.554-7.925 7.922-7.925 4.369 0 7.925 3.555 7.925 7.925 0 4.368-3.555 7.924-7.925 7.924z"></path>
</symbol>
<symbol id="icon-photo_more" viewBox="0 0 32 32">
<title>photo_more</title>
<path fill="#3c3c3b" style="fill: var(--color1, #3c3c3b)" d="M13.124 8.411c-3.712 0-6.733 3.022-6.733 6.735s3.021 6.734 6.733 6.734c3.713 0 6.735-3.022 6.735-6.734 0-3.714-3.022-6.735-6.735-6.735zM13.124 20.751c-3.091 0-5.605-2.514-5.605-5.605s2.514-5.607 5.605-5.607c3.092 0 5.606 2.515 5.606 5.607 0.001 3.090-2.514 5.605-5.606 5.605z"></path>
<path fill="#3c3c3b" style="fill: var(--color1, #3c3c3b)" d="M17.095 25.059h-15.928c-0.286 0-0.225-0.073-0.225-0.359v-18.296c0-0.286-0.061-0.349 0.225-0.349h2.566c0.782 0 1.46-0.641 1.613-1.408l0.751-3.003c0.003-0.012 0.005 0.039 0.007 0.029 0.048-0.251 0.262-0.369 0.512-0.369h13.018c0.251 0 0.465-0.054 0.509 0.193l-0.079-0.193h0.087l0.749 3.187c0.154 0.772 0.833 1.564 1.615 1.564h2.566c0.286 0 0.563 0.063 0.563 0.349v10.103h0.95v-10.103c0-0.907-0.606-1.299-1.514-1.299h-2.566c-0.25 0-0.465-0.352-0.51-0.597-0.001-0.013-0.003-0.106-0.005-0.113l-0.752-2.84c-0.154-0.771-0.833-1.201-1.615-1.201h-13.018c-0.782 0-1.461 0.387-1.615 1.154l-0.758 3.085c-0.045 0.245-0.259 0.511-0.509 0.511h-2.566c-0.908 0-1.175 0.391-1.175 1.299v18.296c0 0.908 0.267 1.309 1.175 1.309h15.928v-0.95z"></path>
<path fill="#1d1d1b" style="fill: var(--color2, #1d1d1b)" d="M31.437 25.059h-4.84v-4.518c0-0.315-0.161-0.572-0.478-0.572-0.311 0.003-0.472 0.258-0.472 0.571v4.519h-5.13c-0.315 0-0.571 0.162-0.571 0.475 0 0.315 0.257 0.475 0.571 0.475h5.13v5.071c0 0.152 0.063 0.296 0.163 0.392 0.105 0.109 0.159 0.173 0.313 0.173 0.315 0 0.474-0.256 0.474-0.57v-5.066h4.84c0.315 0 0.571-0.162 0.571-0.475-0.001-0.315-0.257-0.475-0.571-0.475z"></path>
</symbol>
<symbol id="icon-photo" viewBox="0 0 32 32">
<title>photo</title>
<path d="M32.008 8.027c0-1.069-0.869-1.938-1.936-1.938h-3.020c-0.294 0-0.547-0.21-0.6-0.498-0.001-0.015-0.003-0.022-0.006-0.030l-0.884-3.492c-0.181-0.908-0.981-1.563-1.901-1.563h-15.319c-0.92 0-1.72 0.655-1.901 1.559l-0.892 3.527c-0.053 0.287-0.304 0.498-0.598 0.498h-3.020c-1.069 0-1.939 0.869-1.939 1.938v21.528c0 1.069 0.87 1.938 1.939 1.938h28.141c1.068 0 1.936-0.869 1.936-1.938v-21.529zM30.68 29.555c0 0.337-0.273 0.61-0.609 0.61h-28.141c-0.338 0-0.612-0.274-0.612-0.61v-21.528c0-0.337 0.274-0.609 0.612-0.609h3.020c0.92 0 1.718-0.655 1.898-1.559l0.883-3.485c0.003-0.013 0.006-0.026 0.008-0.037 0.056-0.294 0.307-0.504 0.601-0.504h15.318c0.295 0 0.547 0.21 0.599 0.5l-0.093 0.046h0.103l0.881 3.475c0.181 0.908 0.981 1.563 1.901 1.563h3.020c0.337 0 0.609 0.273 0.609 0.609v21.529z"></path>
<path d="M15.999 10.387c-4.368 0-7.922 3.555-7.922 7.925 0 4.368 3.554 7.924 7.922 7.924 4.369 0 7.925-3.555 7.925-7.924 0-4.369-3.555-7.925-7.925-7.925zM15.999 24.908c-3.637 0-6.595-2.958-6.595-6.595 0-3.638 2.958-6.598 6.595-6.598 3.638 0 6.597 2.96 6.597 6.598 0.001 3.636-2.958 6.595-6.596 6.595z"></path>
</symbol>
<symbol id="icon-plus" viewBox="0 0 32 32">
<title>plus</title>
<path d="M16.839 16.838h14.468c0.381 0 0.691-0.31 0.691-0.692 0-0.381-0.31-0.691-0.691-0.691h-14.468l0.001-14.761c0-0.382-0.311-0.694-0.694-0.694-0.381 0.001-0.69 0.31-0.691 0.691l0.001 14.764h-14.765c-0.379 0-0.689 0.309-0.69 0.69 0 0.193 0.077 0.365 0.203 0.491 0.124 0.125 0.298 0.203 0.491 0.203h14.761v14.468c0 0.189 0.078 0.363 0.204 0.488 0.125 0.125 0.299 0.204 0.488 0.204 0.382-0.001 0.694-0.311 0.692-0.691v-14.471z"></path>
</symbol>
<symbol id="icon-profile_active" viewBox="0 0 32 32">
<title>profile_active</title>
<path d="M28.697 25.698l-7.812-4.602c-0.461-0.272-0.749-0.775-0.749-1.312v-0.303c0-0.491 0.243-0.955 0.648-1.246 2.176-1.548 3.476-4.063 3.476-6.728v-4.658c0-3.217-2.070-5.592-5.676-6.517-0.853-0.219-1.72-0.331-2.574-0.331-0.857 0-1.724 0.113-2.58 0.332-3.608 0.93-5.678 3.305-5.678 6.519v4.656c0 2.665 1.298 5.18 3.475 6.728 0.406 0.291 0.648 0.754 0.648 1.246v0.288c0 0.543-0.292 1.047-0.761 1.319l-7.786 4.48c-0.856 0.492-1.39 1.413-1.39 2.403v2.869c0 0.64 0.521 1.161 1.162 1.161h25.778c0.635 0 1.156-0.515 1.162-1.152l0.024-2.742c0.008-0.985-0.515-1.91-1.366-2.409z"></path>
</symbol>
<symbol id="icon-profile" viewBox="0 0 32 32">
<title>profile</title>
<path d="M28.697 25.698l-7.812-4.603c-0.46-0.271-0.749-0.774-0.749-1.311v-0.303c0-0.49 0.243-0.955 0.648-1.245 2.176-1.546 3.476-4.062 3.476-6.728v-4.658c0-3.217-2.070-5.593-5.677-6.519-0.852-0.219-1.718-0.33-2.572-0.33-0.858 0-1.725 0.112-2.581 0.332-3.608 0.93-5.678 3.305-5.678 6.519v4.656c0 2.665 1.3 5.181 3.475 6.728 0.407 0.29 0.648 0.755 0.648 1.245v0.29c0 0.542-0.291 1.047-0.762 1.317l-7.787 4.48c-0.856 0.492-1.388 1.413-1.388 2.403v2.869c0 0.64 0.52 1.161 1.161 1.161h25.778c0.636 0 1.157-0.515 1.162-1.152l0.024-2.742c0.007-0.985-0.517-1.908-1.366-2.408zM28.788 30.749h-25.598v-2.778c0-0.543 0.292-1.048 0.762-1.317l7.786-4.481c0.857-0.494 1.389-1.413 1.389-2.402v-0.29c0-0.894-0.439-1.742-1.175-2.262-1.846-1.314-2.949-3.448-2.949-5.71v-4.656c0-3.557 2.971-4.851 4.739-5.307 0.754-0.194 1.519-0.292 2.27-0.292 0.75 0 1.511 0.097 2.262 0.291 1.769 0.454 4.736 1.747 4.736 5.306v4.658c0 2.262-1.103 4.397-2.948 5.71-0.735 0.521-1.174 1.367-1.174 2.262v0.303c0 0.978 0.522 1.893 1.364 2.388l7.813 4.603c0.465 0.275 0.752 0.782 0.748 1.323l-0.024 2.651z"></path>
</symbol>
<symbol id="icon-radar_active" viewBox="0 0 32 32">
<title>radar_active</title>
<path d="M18.825 15.999c0 1.56-1.265 2.825-2.825 2.825s-2.825-1.265-2.825-2.825c0-1.56 1.265-2.825 2.825-2.825s2.825 1.265 2.825 2.825z"></path>
<path d="M16.001 7.122c-4.894 0-8.878 3.983-8.878 8.878 0 4.893 3.983 8.877 8.878 8.877s8.878-3.983 8.878-8.877c0-4.894-3.983-8.878-8.878-8.878zM16 20.17c-2.299 0-4.17-1.871-4.17-4.17s1.873-4.17 4.17-4.17c2.3 0 4.17 1.871 4.17 4.17s-1.87 4.17-4.17 4.17z"></path>
<path d="M15.999 0c-8.822 0-15.998 7.177-15.998 16s7.176 16 15.998 16c8.824 0 16-7.177 16-16s-7.176-16-16-16zM16.001 26.22c-5.636 0-10.222-4.586-10.222-10.219 0-5.638 4.587-10.223 10.222-10.223s10.22 4.586 10.22 10.223c0 5.633-4.585 10.219-10.22 10.219z"></path>
</symbol>
<symbol id="icon-radar" viewBox="0 0 32 32">
<title>radar</title>
<path d="M15.999 32c-8.821 0-15.997-7.178-15.997-15.999 0-8.822 7.176-16.001 15.997-16.001 8.822 0 15.999 7.178 15.999 16.001 0.001 8.821-7.176 15.999-15.999 15.999zM15.999 1.346c-8.080 0-14.656 6.574-14.656 14.656 0 8.080 6.576 14.655 14.656 14.655 8.081 0 14.657-6.575 14.657-14.655 0-8.082-6.576-14.656-14.657-14.656z"></path>
<path d="M16.001 26.222c-5.635 0-10.223-4.586-10.223-10.22 0-5.637 4.587-10.223 10.223-10.223s10.22 4.585 10.22 10.223c0 5.634-4.585 10.22-10.22 10.22zM16.001 7.123c-4.895 0-8.877 3.983-8.877 8.879 0 4.892 3.982 8.876 8.877 8.876s8.877-3.983 8.877-8.876c0.001-4.896-3.981-8.879-8.877-8.879z"></path>
<path d="M16 20.171c-2.298 0-4.17-1.871-4.17-4.17s1.871-4.17 4.17-4.17 4.17 1.871 4.17 4.17c0 2.298-1.871 4.17-4.17 4.17zM16 13.175c-1.558 0-2.824 1.268-2.824 2.826s1.266 2.825 2.824 2.825 2.826-1.268 2.826-2.825c0.001-1.559-1.268-2.825-2.825-2.825z"></path>
</symbol>
<symbol id="icon-radiobutton_off" viewBox="0 0 32 32">
<title>radiobutton_off</title>
<path d="M23.751 32h-15.501c-4.551 0-8.249-3.701-8.249-8.249v-15.501c0-4.549 3.698-8.249 8.249-8.249h15.501c4.546 0 8.249 3.701 8.249 8.249v15.501c0 4.549-3.703 8.249-8.249 8.249zM8.252 2.477c-3.187 0-5.775 2.59-5.775 5.775v15.501c0 3.185 2.588 5.775 5.775 5.775h15.501c3.182 0 5.775-2.59 5.775-5.775v-15.501c0-3.185-2.592-5.775-5.775-5.775h-15.501z"></path>
</symbol>
<symbol id="icon-radiobutton_on" viewBox="0 0 32 32">
<title>radiobutton_on</title>
<path fill="#3c3c3b" style="fill: var(--color1, #3c3c3b)" d="M23.751 32h-15.501c-4.546 0-8.249-3.701-8.249-8.249v-15.501c0-4.549 3.703-8.249 8.249-8.249h15.501c4.551 0 8.249 3.701 8.249 8.249v15.501c0 4.549-3.698 8.249-8.249 8.249zM8.252 2.477c-3.182 0-5.775 2.59-5.775 5.775v15.501c0 3.185 2.592 5.775 5.775 5.775h15.501c3.187 0 5.775-2.59 5.775-5.775v-15.501c0-3.185-2.588-5.775-5.775-5.775h-15.501z"></path>
<path fill="#1d1d1b" style="fill: var(--color2, #1d1d1b)" d="M26.186 22.112c0 2.251-1.823 4.074-4.074 4.074h-12.224c-2.251 0-4.074-1.823-4.074-4.074v-12.222c0-2.249 1.823-4.074 4.074-4.074h12.224c2.251 0 4.074 1.825 4.074 4.074v12.222z"></path>
</symbol>
<symbol id="icon-return" viewBox="0 0 32 32">
<title>return</title>
<path d="M13.009 19.961h14.491l-10.846 10.847c-0.272 0.272-0.272 0.714 0 0.988 0.273 0.272 0.717 0.272 0.99 0l11.986-11.985c0.142-0.145 0.212-0.334 0.203-0.523 0-0.009 0.002-0.018 0.002-0.026 0-0.276-0.161-0.513-0.393-0.628l-11.544-11.544c-0.135-0.135-0.316-0.205-0.495-0.205s-0.359 0.069-0.493 0.205c-0.273 0.273-0.273 0.716 0 0.989l10.483 10.483h-14.384c-5.209 0-9.446-4.238-9.446-9.446v-8.417c0-0.387-0.313-0.701-0.7-0.701-0.387 0-0.7 0.313-0.7 0.701v8.417c0.001 5.979 4.865 10.844 10.845 10.844z"></path>
</symbol>
<symbol id="icon-rotate" viewBox="0 0 32 32">
<title>rotate</title>
<path d="M2.652 15.953c0-7.36 5.988-13.348 13.348-13.348 2.020 0 4.042 0.468 5.856 1.355l-2.302 2.303c-0.255 0.256-0.349 0.635-0.25 0.99 0.106 0.365 0.402 0.644 0.774 0.727l7.695 1.726c0.071 0.019 0.146 0.027 0.23 0.027 0.3 0 0.586-0.135 0.782-0.37 0.188-0.237 0.255-0.546 0.189-0.851l-1.729-7.699c-0.106-0.472-0.533-0.814-1.016-0.814-0.263 0-0.512 0.103-0.7 0.292l-2.583 2.58c-2.135-1.133-4.536-1.732-6.945-1.732-8.168 0-14.814 6.647-14.814 14.815 0 1.164 0.135 2.321 0.401 3.435 0.079 0.326 0.377 0.562 0.71 0.562 0.053 0 0.11-0.005 0.172-0.018 0.392-0.096 0.634-0.493 0.542-0.885-0.239-1.005-0.361-2.047-0.361-3.095zM21.169 6.722l4.82-4.821 1.395 6.218-6.214-1.397z"></path>
<path d="M30.423 12.553c-0.091-0.387-0.483-0.639-0.882-0.546-0.392 0.093-0.637 0.489-0.546 0.881 0.235 0.995 0.353 2.026 0.353 3.065 0 7.36-5.989 13.349-13.349 13.349-1.956 0-3.919-0.44-5.69-1.271l2.293-2.294c0.259-0.258 0.355-0.637 0.248-0.991-0.105-0.364-0.4-0.644-0.77-0.727l-7.696-1.726c-0.071-0.018-0.145-0.027-0.229-0.027-0.304 0-0.589 0.136-0.78 0.371-0.19 0.241-0.26 0.551-0.193 0.851l1.729 7.7c0.107 0.47 0.533 0.811 1.013 0.811 0.268 0 0.519-0.103 0.705-0.291l2.589-2.59c2.094 1.079 4.435 1.647 6.78 1.647 8.168 0 14.815-6.647 14.815-14.812 0.003-1.136-0.128-2.28-0.389-3.4zM10.991 25.277l-2.307 2.307c-0.12 0.069-0.207 0.154-0.259 0.245l-2.254 2.267-1.396-6.217 6.216 1.399z"></path>
</symbol>
<symbol id="icon-rule_active" viewBox="0 0 32 32">
<title>rule_active</title>
<path d="M31.811 8.131l-3.105 3.103-2.39-2.389c-0.271-0.273-0.748-0.274-1.020 0-0.28 0.28-0.28 0.738 0 1.019l2.39 2.389-2.458 2.46-0.079-0.078-3.892-3.894c-0.273-0.271-0.748-0.269-1.020 0-0.135 0.137-0.211 0.317-0.211 0.509s0.074 0.374 0.211 0.511l3.972 3.971-2.266 2.268-2.39-2.392c-0.271-0.271-0.747-0.271-1.018 0-0.135 0.135-0.212 0.316-0.212 0.509s0.075 0.373 0.212 0.511l2.388 2.388-2.458 2.46-0.079-0.078-3.892-3.894c-0.272-0.269-0.748-0.269-1.019 0-0.28 0.281-0.28 0.741 0 1.023l3.972 3.97-2.215 2.215-2.518-2.518c-0.272-0.269-0.747-0.269-1.020 0-0.28 0.283-0.28 0.741 0 1.023l2.516 2.516-2.248 2.249-0.079-0.078-3.893-3.894c-0.273-0.271-0.748-0.271-1.020 0-0.135 0.135-0.211 0.317-0.211 0.509 0 0.191 0.075 0.373 0.211 0.509l3.973 3.972-2.809 2.809c-0.12 0.12-0.292 0.19-0.471 0.19s-0.351-0.071-0.47-0.19l-7.002-7.002c-0.126-0.126-0.196-0.294-0.196-0.469 0-0.177 0.070-0.346 0.196-0.471l23.678-23.679c0.251-0.252 0.694-0.25 0.941 0l7.002 7.002c0.259 0.256 0.259 0.68 0 0.94z"></path>
</symbol>
<symbol id="icon-rule" viewBox="0 0 32 32">
<title>rule</title>
<path d="M31.435 6.986l-6.423-6.422c-0.365-0.363-0.85-0.564-1.367-0.564-0.513 0-0.999 0.201-1.367 0.566l-21.714 21.714c-0.365 0.365-0.566 0.85-0.566 1.368 0 0.514 0.201 1 0.566 1.367l6.422 6.42c0.363 0.365 0.849 0.566 1.367 0.566s1.002-0.201 1.367-0.566l21.716-21.714c0.363-0.365 0.564-0.85 0.564-1.368-0.001-0.517-0.201-1.002-0.566-1.367zM30.499 8.785l-2.847 2.846-2.191-2.192c-0.25-0.25-0.686-0.251-0.936 0-0.258 0.258-0.258 0.677 0 0.936l2.192 2.191-2.254 2.256-3.642-3.644c-0.25-0.249-0.686-0.246-0.935 0-0.125 0.125-0.195 0.291-0.195 0.468s0.070 0.343 0.195 0.468l3.643 3.642-2.080 2.080-2.192-2.194c-0.25-0.25-0.684-0.25-0.934 0-0.124 0.124-0.195 0.29-0.195 0.467s0.071 0.343 0.195 0.468l2.191 2.191-2.255 2.255-3.643-3.643c-0.25-0.247-0.686-0.247-0.935 0-0.257 0.259-0.257 0.679 0 0.938l3.643 3.64-2.032 2.032-2.309-2.308c-0.25-0.247-0.685-0.247-0.936 0-0.257 0.259-0.257 0.678 0 0.937l2.307 2.307-2.061 2.062-3.643-3.643c-0.25-0.25-0.686-0.25-0.935 0-0.124 0.124-0.194 0.291-0.194 0.468 0 0.175 0.070 0.343 0.194 0.467l3.643 3.643-2.576 2.576c-0.111 0.111-0.268 0.174-0.432 0.174s-0.322-0.064-0.432-0.174l-6.422-6.422c-0.116-0.116-0.179-0.268-0.179-0.43 0-0.163 0.064-0.316 0.179-0.432l21.714-21.714c0.23-0.232 0.635-0.23 0.863 0l6.422 6.42c0.24 0.236 0.24 0.624 0.002 0.862z"></path>
</symbol>
<symbol id="icon-Scroll_down" viewBox="0 0 32 32">
<title>Scroll_down</title>
<path d="M16.542 21.172l5.071-7.485c0.108-0.16 0.166-0.346 0.166-0.538 0-0.531-0.431-0.96-0.962-0.96h-10.139c-0.531 0-0.962 0.43-0.962 0.96 0 0.192 0.057 0.377 0.166 0.538l5.069 7.484c0.179 0.266 0.479 0.422 0.796 0.422 0.318 0.001 0.617-0.156 0.794-0.42zM11.243 13.449h9.008l-4.505 6.648-4.503-6.648z"></path>
<path d="M31.999 16.001c0-8.822-7.179-16.001-15.999-16.001s-15.998 7.179-15.998 16.001c0 8.821 7.177 15.999 15.998 15.999s15.999-7.179 15.999-15.999zM1.26 16.001c0-8.127 6.612-14.738 14.739-14.738 8.126 0 14.739 6.611 14.739 14.738 0 8.126-6.613 14.737-14.739 14.737-8.127 0-14.739-6.612-14.739-14.737z"></path>
</symbol>
<symbol id="icon-search_active" viewBox="0 0 32 32">
<title>search_active</title>
<path d="M31.197 27.325l-7.58-7.58c3.238-5.042 2.529-11.734-1.724-15.99-2.421-2.421-5.642-3.755-9.067-3.755s-6.646 1.334-9.067 3.755c-2.422 2.422-3.759 5.644-3.759 9.070s1.336 6.646 3.756 9.067c2.421 2.424 5.644 3.758 9.067 3.758 2.471 0 4.859-0.706 6.922-2.032l7.58 7.58c0.515 0.515 1.204 0.803 1.936 0.803s1.419-0.287 1.938-0.803c1.069-1.067 1.069-2.805-0.001-3.872zM30.245 30.247c-0.264 0.262-0.612 0.406-0.984 0.406-0.37 0-0.722-0.145-0.982-0.406l-7.422-7.42c0.031-0.026 0.063-0.059 0.094-0.085 0.327-0.269 0.645-0.549 0.946-0.847 0.296-0.296 0.574-0.612 0.843-0.94 0.026-0.032 0.061-0.062 0.085-0.095l7.42 7.418c0.543 0.544 0.543 1.426 0 1.97z"></path>
</symbol>
<symbol id="icon-search" viewBox="0 0 32 32">
<title>search</title>
<path d="M31.197 27.324l-7.579-7.579c3.238-5.042 2.53-11.734-1.723-15.989-2.424-2.422-5.644-3.755-9.070-3.755-3.425 0-6.646 1.334-9.067 3.755s-3.758 5.644-3.758 9.069c0 3.426 1.336 6.647 3.755 9.069 2.422 2.424 5.644 3.758 9.069 3.758 2.469 0 4.859-0.706 6.922-2.032l7.579 7.579c0.515 0.515 1.205 0.803 1.937 0.803s1.419-0.287 1.937-0.803c1.069-1.069 1.069-2.807-0.001-3.874zM4.709 20.94c-2.17-2.168-3.363-5.049-3.363-8.116 0.002-3.065 1.195-5.948 3.364-8.116 2.168-2.169 5.049-3.361 8.115-3.361 3.066 0 5.949 1.194 8.115 3.361 3.851 3.849 4.463 9.928 1.457 14.456-0.063 0.093-0.125 0.187-0.191 0.277-0.379 0.534-0.804 1.039-1.265 1.498-0.23 0.232-0.471 0.453-0.722 0.664-0.024 0.021-0.052 0.038-0.076 0.060-0.227 0.188-0.458 0.371-0.699 0.542-0.091 0.068-0.184 0.129-0.277 0.188-1.879 1.25-4.071 1.909-6.342 1.909-3.066 0-5.948-1.194-8.116-3.363zM30.246 30.246c-0.264 0.262-0.612 0.406-0.984 0.406-0.371 0-0.722-0.145-0.983-0.406l-7.421-7.42c0.031-0.026 0.062-0.059 0.093-0.085 0.328-0.269 0.645-0.549 0.946-0.847 0.296-0.296 0.575-0.612 0.843-0.94 0.028-0.032 0.061-0.062 0.086-0.095l7.42 7.418c0.542 0.544 0.542 1.425 0 1.97z"></path>
</symbol>
<symbol id="icon-send_active" viewBox="0 0 32 32">
<title>send_active</title>
<path d="M27.726 0.242l-25.818 10.674c-1.088 0.45-1.815 1.458-1.9 2.631-0.084 1.172 0.491 2.279 1.503 2.879l7.992 4.744 7.953-7.952c0.365-0.365 0.959-0.365 1.324-0.001 0.366 0.366 0.365 0.96 0 1.325l-7.951 7.952 4.746 7.993c0.597 1.012 1.704 1.588 2.876 1.504 1.176-0.086 2.183-0.815 2.632-1.9l10.673-25.818c0.488-1.175 0.231-2.463-0.67-3.364-0.896-0.896-2.185-1.155-3.361-0.668z"></path>
</symbol>
<symbol id="icon-send" viewBox="0 0 32 32">
<title>send</title>
<path d="M29.159 0c-0.377 0-0.751 0.075-1.111 0.224l-26.286 10.867c-0.352 0.145-0.665 0.354-0.932 0.622-0.48 0.481-0.772 1.124-0.824 1.812-0.077 1.087 0.456 2.106 1.392 2.658l9.040 5.368c0.005 0.002 0.008 0.006 0.010 0.010l5.368 9.041c0.519 0.875 1.434 1.397 2.449 1.397 0.070 0 0.141-0.002 0.21-0.008 1.068-0.077 2.024-0.767 2.431-1.757l10.87-26.284c0.45-1.088 0.212-2.28-0.617-3.109-0.545-0.543-1.256-0.842-2.001-0.842zM30.55 3.444l-10.867 26.286c-0.083 0.197-0.197 0.366-0.334 0.503-0.257 0.257-0.593 0.406-0.97 0.434-0.041 0.002-0.082 0.005-0.123 0.005-0.543 0-1.016-0.272-1.298-0.745l-5.183-8.733c-0.007-0.011-0.005-0.025 0.005-0.034l6.848-6.848c0.125-0.125 0.194-0.29 0.194-0.468s-0.070-0.344-0.194-0.47c-0.126-0.126-0.294-0.195-0.471-0.195s-0.344 0.070-0.468 0.194l-6.848 6.845c-0.009 0.009-0.023 0.010-0.034 0.005l-8.73-5.179c-0.507-0.303-0.786-0.834-0.744-1.424 0.041-0.578 0.402-1.078 0.939-1.301l26.286-10.869c0.101-0.041 0.201-0.041 0.303-0.062 0.010-0.002 0.022-0.005 0.032-0.007 0.087-0.016 0.174-0.055 0.262-0.055 0.548 0 0.928 0.32 1.065 0.457 0.169 0.17 0.692 0.791 0.331 1.661z"></path>
</symbol>
<symbol id="icon-settings_active" viewBox="0 0 32 32">
<title>settings_active</title>
<path d="M29.833 11.349h-0.481c-0.545 0-0.759-0.415-0.811-0.542-0.052-0.129-0.196-0.574 0.19-0.959l0.34-0.34c0.844-0.844 0.844-2.22 0-3.064l-3.513-3.514c-0.41-0.41-0.954-0.636-1.534-0.636-0.578 0-1.123 0.225-1.532 0.636l-0.342 0.342c-0.213 0.213-0.45 0.259-0.609 0.259-0.226 0-0.454-0.088-0.62-0.243-0.122-0.115-0.269-0.318-0.269-0.638v-0.48c0-1.195-0.973-2.168-2.167-2.168h-4.969c-1.194 0-2.166 0.973-2.166 2.168v0.602c0 0.552-0.454 0.88-0.89 0.88-0.159 0-0.396-0.045-0.609-0.26l-0.343-0.339c-0.409-0.41-0.954-0.636-1.532-0.636-0.579 0-1.124 0.225-1.532 0.636l-3.513 3.513c-0.41 0.41-0.636 0.954-0.636 1.531 0 0.582 0.225 1.125 0.635 1.534l0.22 0.218c0.382 0.385 0.241 0.83 0.189 0.959-0.052 0.126-0.268 0.542-0.812 0.542h-0.359c-1.197 0-2.168 0.97-2.168 2.167v4.968c0 1.195 0.972 2.167 2.168 2.167h0.481c0.546 0 0.759 0.415 0.811 0.544s0.196 0.571-0.19 0.958l-0.34 0.34c-0.41 0.409-0.636 0.954-0.636 1.532s0.225 1.124 0.636 1.532l3.513 3.513c0.409 0.409 0.953 0.634 1.532 0.634 0.578 0 1.124-0.224 1.532-0.634l0.342-0.34c0.215-0.216 0.451-0.262 0.609-0.262 0.437 0 0.89 0.33 0.89 0.883v0.481c0 1.195 0.972 2.168 2.166 2.168h4.969c1.194 0 2.167-0.973 2.167-2.168v-0.36c0-0.55 0.452-0.879 0.89-0.879 0.16 0 0.397 0.043 0.609 0.26l0.342 0.34c0.41 0.41 0.954 0.634 1.532 0.634 0.579 0 1.124-0.223 1.534-0.634l3.513-3.514c0.844-0.844 0.844-2.219 0-3.064l-0.463-0.462c-0.384-0.387-0.243-0.831-0.189-0.958 0.052-0.127 0.267-0.544 0.811-0.544h0.602c1.197 0 2.167-0.972 2.167-2.167v-4.968c0.001-1.198-0.969-2.168-2.166-2.168zM16.106 23.26c-3.882 0-7.044-3.16-7.044-7.044s3.161-7.045 7.044-7.045c3.885 0 7.046 3.161 7.046 7.045s-3.16 7.044-7.046 7.044z"></path>
</symbol>
<symbol id="icon-settings" viewBox="0 0 32 32">
<title>settings</title>
<path d="M16.105 9.171c-3.882 0-7.044 3.161-7.044 7.045s3.161 7.044 7.044 7.044c3.885 0 7.046-3.16 7.046-7.044s-3.16-7.045-7.046-7.045zM16.105 21.972c-3.171 0-5.755-2.583-5.755-5.756 0-3.176 2.584-5.757 5.755-5.757 3.175 0 5.757 2.582 5.757 5.757 0.001 3.173-2.583 5.756-5.757 5.756z"></path>
<path d="M29.832 11.35h-0.481c-0.545 0-0.759-0.415-0.811-0.542-0.052-0.129-0.196-0.574 0.19-0.959l0.34-0.34c0.844-0.844 0.844-2.22 0-3.064l-3.513-3.514c-0.41-0.41-0.954-0.636-1.534-0.636-0.578 0-1.123 0.225-1.532 0.636l-0.342 0.342c-0.213 0.213-0.45 0.259-0.609 0.259-0.226 0-0.454-0.088-0.62-0.243-0.122-0.115-0.269-0.318-0.269-0.638v-0.48c0-1.196-0.973-2.168-2.167-2.168h-4.969c-1.194 0-2.166 0.973-2.166 2.168v0.602c0 0.552-0.454 0.88-0.89 0.88-0.159 0-0.396-0.045-0.609-0.26l-0.342-0.34c-0.409-0.41-0.954-0.636-1.532-0.636-0.579 0-1.124 0.225-1.532 0.636l-3.513 3.513c-0.41 0.41-0.636 0.954-0.636 1.531 0 0.582 0.225 1.125 0.635 1.534l0.22 0.218c0.382 0.385 0.241 0.83 0.189 0.959-0.052 0.126-0.268 0.542-0.812 0.542h-0.359c-1.197 0-2.168 0.971-2.168 2.167v4.968c0 1.196 0.972 2.167 2.168 2.167h0.481c0.546 0 0.759 0.415 0.811 0.544s0.196 0.571-0.19 0.958l-0.34 0.34c-0.41 0.409-0.636 0.954-0.636 1.532s0.225 1.124 0.636 1.532l3.513 3.513c0.409 0.409 0.953 0.634 1.532 0.634 0.578 0 1.124-0.224 1.532-0.634l0.342-0.34c0.215-0.216 0.451-0.262 0.609-0.262 0.437 0 0.89 0.33 0.89 0.883v0.481c0 1.196 0.972 2.168 2.166 2.168h4.969c1.194 0 2.167-0.973 2.167-2.168v-0.36c0-0.55 0.452-0.879 0.89-0.879 0.16 0 0.397 0.043 0.609 0.26l0.342 0.34c0.41 0.41 0.954 0.634 1.532 0.634 0.579 0 1.124-0.223 1.534-0.634l3.513-3.514c0.844-0.844 0.844-2.219 0-3.064l-0.463-0.462c-0.384-0.387-0.243-0.831-0.189-0.958 0.052-0.127 0.267-0.544 0.811-0.544h0.602c1.197 0 2.167-0.972 2.167-2.167v-4.968c0-1.197-0.971-2.167-2.167-2.167zM30.712 18.485c0 0.485-0.395 0.879-0.88 0.879h-0.602c-0.893 0-1.661 0.511-2.001 1.339-0.343 0.825-0.163 1.729 0.469 2.362l0.46 0.462c0.343 0.34 0.343 0.899 0 1.242l-3.513 3.514c-0.165 0.166-0.387 0.257-0.621 0.257s-0.455-0.091-0.621-0.257l-0.339-0.34c-0.413-0.412-0.953-0.64-1.523-0.64-1.201 0-2.179 0.974-2.179 2.171v0.36c0 0.485-0.395 0.879-0.878 0.879h-4.969c-0.485 0-0.878-0.395-0.878-0.879v-0.481c0-1.198-0.977-2.172-2.179-2.172-0.57 0-1.11 0.227-1.522 0.64l-0.34 0.34c-0.166 0.166-0.388 0.257-0.621 0.257-0.234 0-0.457-0.091-0.621-0.257l-3.514-3.514c-0.166-0.167-0.259-0.388-0.259-0.621 0-0.235 0.092-0.455 0.259-0.622l0.343-0.342c0.63-0.631 0.81-1.535 0.467-2.36-0.343-0.827-1.108-1.339-2.001-1.339h-0.481c-0.487 0-0.88-0.395-0.88-0.879v-4.968c0-0.485 0.394-0.879 0.88-0.879h0.359c0.893 0 1.661-0.512 2.002-1.339 0.343-0.825 0.163-1.729-0.47-2.361l-0.218-0.219c-0.166-0.165-0.259-0.385-0.259-0.622 0-0.233 0.092-0.454 0.259-0.62l3.514-3.514c0.165-0.166 0.387-0.257 0.621-0.257 0.233 0 0.456 0.091 0.621 0.257l0.34 0.342c0.412 0.411 0.952 0.639 1.522 0.637 1.201 0 2.179-0.974 2.179-2.169v-0.602c0-0.485 0.394-0.879 0.878-0.879h4.969c0.483 0 0.878 0.395 0.878 0.879v0.48c0 0.61 0.242 1.172 0.68 1.579 0.403 0.377 0.949 0.592 1.499 0.592 0.57 0 1.11-0.225 1.523-0.638l0.339-0.34c0.167-0.166 0.387-0.257 0.621-0.257s0.457 0.091 0.621 0.257l3.513 3.514c0.343 0.343 0.343 0.9 0 1.242l-0.34 0.342c-0.63 0.632-0.81 1.536-0.469 2.361 0.343 0.826 1.108 1.339 2.002 1.339h0.481c0.486 0 0.88 0.395 0.88 0.879v4.968z"></path>
</symbol>
<symbol id="icon-tab" viewBox="0 0 32 32">
<title>tab</title>
<path d="M31.295 14.905l-1.73-1.728 0.724-0.722c0.069-0.068 0.118-0.152 0.146-0.246 0.568-0.985 0.41-2.201-0.372-2.985l-2.103-2.103h-0.067l-0.001-0.067-3.471-3.456 0.005-0.014-2.095-2.094c-0.461-0.461-1.075-0.716-1.728-0.716-0.654 0-1.268 0.255-1.728 0.717l-5.085 5.085-2.071-2.071c-0.461-0.462-1.075-0.716-1.728-0.716s-1.268 0.254-1.729 0.716l-4.457 4.455c-5.084 5.085-5.084 13.361 0 18.447 2.459 2.458 5.734 3.813 9.223 3.813s6.764-1.355 9.223-3.815l9.047-9.044c0.948-0.956 0.948-2.507-0.003-3.459zM30.476 17.542l-9.047 9.047c-2.241 2.242-5.225 3.476-8.405 3.476-3.178 0-6.162-1.234-8.404-3.476-2.241-2.241-3.476-5.225-3.476-8.405s1.234-6.164 3.476-8.405l4.455-4.455c0.242-0.242 0.565-0.376 0.91-0.376 0.344 0 0.668 0.134 0.91 0.376l2.073 2.072-6.249 6.25c-0.11 0.11-0.169 0.255-0.169 0.408s0.060 0.299 0.169 0.408c0.219 0.22 0.599 0.217 0.819 0.001l12.151-12.151c0.242-0.242 0.566-0.377 0.911-0.377 0.344 0 0.667 0.134 0.909 0.376l1.728 1.729-9.393 9.393c-0.11 0.11-0.17 0.256-0.169 0.41 0 0.154 0.060 0.299 0.169 0.408 0.221 0.221 0.6 0.22 0.822 0.001l9.391-9.392 2.638 2.638-9.394 9.394c-0.109 0.109-0.169 0.254-0.169 0.408s0.061 0.3 0.169 0.409c0.221 0.221 0.601 0.219 0.821 0.002l9.392-9.393 1.727 1.728c0.502 0.503 0.502 1.319 0.001 1.821l-8.483 8.483c-0.224 0.225-0.224 0.592 0 0.816 0.221 0.221 0.599 0.219 0.819 0.002l7.168-7.169 1.729 1.728c0.5 0.5 0.502 1.317-0.001 1.817z"></path>
</symbol>
<symbol id="icon-tile_active" viewBox="0 0 32 32">
<title>tile_active</title>
<path d="M12.383 11.548c0 0.506-0.412 0.916-0.918 0.916h-10.557c-0.504 0-0.916-0.409-0.916-0.916v-10.557c0-0.504 0.412-0.916 0.916-0.916h10.557c0.505 0 0.918 0.411 0.918 0.916v10.557z"></path>
<path d="M12.383 31.007c0 0.506-0.412 0.918-0.918 0.918h-10.557c-0.504 0-0.916-0.411-0.916-0.918v-10.554c0-0.506 0.412-0.918 0.916-0.918h10.557c0.505 0 0.918 0.411 0.918 0.918v10.554z"></path>
<path d="M32.008 11.548c0 0.506-0.411 0.916-0.918 0.916h-10.555c-0.505 0-0.918-0.409-0.918-0.916v-10.557c0-0.504 0.412-0.916 0.918-0.916h10.556c0.506 0 0.918 0.411 0.918 0.916v10.557z"></path>
<path d="M32.008 31.007c0 0.506-0.411 0.918-0.918 0.918h-10.555c-0.505 0-0.918-0.411-0.918-0.918v-10.554c0-0.506 0.412-0.918 0.918-0.918h10.556c0.506 0 0.918 0.411 0.918 0.918v10.554z"></path>
</symbol>
<symbol id="icon-tile" viewBox="0 0 32 32">
<title>tile</title>
<path d="M11.87 0.068h-9.614c-1.249 0-2.265 1.016-2.265 2.264v9.615c0 1.249 1.016 2.265 2.265 2.265h9.614c1.249 0 2.265-1.016 2.265-2.265v-9.615c0.001-1.248-1.016-2.264-2.265-2.264zM12.706 11.946c0 0.461-0.375 0.833-0.836 0.833h-9.614c-0.459 0-0.835-0.373-0.835-0.833v-9.615c0-0.458 0.375-0.833 0.835-0.833h9.614c0.459 0 0.836 0.375 0.836 0.833v9.615z"></path>
<path d="M11.87 17.789h-9.614c-1.249 0-2.265 1.016-2.265 2.267v9.611c0 1.249 1.016 2.265 2.265 2.265h9.614c1.249 0 2.265-1.016 2.265-2.265v-9.611c0.001-1.251-1.016-2.267-2.265-2.267zM12.706 29.667c0 0.459-0.375 0.835-0.836 0.835h-9.614c-0.459 0-0.835-0.374-0.835-0.835v-9.611c0-0.462 0.375-0.836 0.835-0.836h9.614c0.459 0 0.836 0.373 0.836 0.836v9.611z"></path>
<path d="M29.742 0.068h-9.612c-1.25 0-2.266 1.016-2.266 2.264v9.615c0 1.249 1.016 2.265 2.266 2.265h9.612c1.249 0 2.266-1.016 2.266-2.265v-9.615c0-1.248-1.017-2.264-2.266-2.264zM30.578 11.946c0 0.461-0.374 0.833-0.836 0.833h-9.612c-0.459 0-0.836-0.373-0.836-0.833v-9.615c0-0.458 0.375-0.833 0.836-0.833h9.612c0.461 0 0.836 0.375 0.836 0.833v9.615z"></path>
<path d="M29.742 17.789h-9.612c-1.25 0-2.266 1.016-2.266 2.267v9.611c0 1.249 1.016 2.265 2.266 2.265h9.612c1.249 0 2.266-1.016 2.266-2.265v-9.611c0-1.251-1.017-2.267-2.266-2.267zM30.578 29.667c0 0.459-0.374 0.835-0.836 0.835h-9.612c-0.459 0-0.836-0.374-0.836-0.835v-9.611c0-0.462 0.375-0.836 0.836-0.836h9.612c0.461 0 0.836 0.373 0.836 0.836v9.611z"></path>
</symbol>
<symbol id="icon-time" viewBox="0 0 32 32">
<title>time</title>
<path d="M16-0c-8.823 0-16.001 7.178-16.001 16.001 0 8.822 7.178 15.999 16.001 15.999 8.822 0 16-7.177 16-15.999 0.001-8.823-7.177-16.001-16-16.001zM16 30.74c-8.127 0-14.74-6.613-14.74-14.739 0-8.129 6.613-14.741 14.74-14.741 8.126 0 14.74 6.613 14.74 14.741 0 8.126-6.614 14.739-14.74 14.739z"></path>
<path d="M16.427 15.613v-8.434c0-0.349-0.28-0.631-0.63-0.631-0.347 0-0.63 0.282-0.63 0.631v8.695c0 0.082 0.017 0.165 0.048 0.24 0.032 0.077 0.077 0.147 0.136 0.205l7.555 7.557c0.124 0.121 0.286 0.184 0.448 0.184 0.161 0 0.321-0.062 0.445-0.184 0.246-0.246 0.246-0.644 0-0.893l-7.373-7.37z"></path>
</symbol>
<symbol id="icon-triangle_back" viewBox="0 0 32 32">
<title>triangle_back</title>
<path d="M4.641 18.104l19.858 13.455c0.425 0.283 0.918 0.441 1.427 0.441 1.405 0 2.548-1.143 2.548-2.557v-26.892c0-1.408-1.143-2.551-2.548-2.551-0.508 0-1.001 0.157-1.427 0.441l-19.855 13.449c-0.706 0.475-1.118 1.269-1.118 2.114s0.416 1.63 1.115 2.101z"></path>
</symbol>
<symbol id="icon-variable_active" viewBox="0 0 32 32">
<title>variable_active</title>
<path d="M22.378 31.298v-17.343c-0.49 0.070-0.977 0.057-1.401-0.065v17.408c0 0.388 0.313 0.702 0.701 0.702s0.7-0.314 0.7-0.702z"></path>
<path d="M16.954 9.747c0-2.604 2.118-4.724 4.723-4.724 2.604 0 4.723 2.12 4.723 4.724 0 2.605-2.119 4.724-4.723 4.724-2.605 0-4.723-2.119-4.723-4.724z"></path>
<path d="M11.026 18.198v-17.497c0-0.386-0.315-0.701-0.702-0.701-0.386 0-0.702 0.315-0.702 0.701v17.799c0.421-0.202 0.895-0.31 1.404-0.302z"></path>
<path d="M5.599 22.254c0-2.607 2.118-4.726 4.724-4.726s4.722 2.119 4.722 4.726c0 2.604-2.116 4.723-4.722 4.723s-4.724-2.119-4.724-4.723z"></path>
</symbol>
<symbol id="icon-variable" viewBox="0 0 32 32">
<title>variable</title>
<path d="M22.378 31.298v-17.343c-0.49 0.068-0.977 0.057-1.401-0.065v17.408c0 0.388 0.313 0.702 0.701 0.702s0.7-0.314 0.7-0.702z"></path>
<path d="M16.954 9.747c0-2.605 2.118-4.724 4.723-4.724 2.604 0 4.723 2.12 4.723 4.724 0 2.605-2.119 4.724-4.723 4.724-2.605 0-4.723-2.119-4.723-4.724zM24.999 9.747c0-1.831-1.489-3.321-3.32-3.321s-3.321 1.49-3.321 3.321c0 1.831 1.49 3.321 3.321 3.321s3.32-1.491 3.32-3.321z"></path>
<path d="M11.026 18.199v-17.498c0-0.386-0.315-0.701-0.702-0.701-0.386 0-0.702 0.315-0.702 0.701v17.799c0.421-0.202 0.895-0.31 1.404-0.301z"></path>
<path d="M5.6 22.254c0-2.607 2.118-4.724 4.724-4.724s4.722 2.118 4.722 4.724c0 2.604-2.117 4.723-4.722 4.723-2.607 0-4.724-2.119-4.724-4.723zM13.644 22.254c0-1.831-1.49-3.321-3.32-3.321-1.832 0-3.321 1.49-3.321 3.321 0 1.83 1.489 3.32 3.321 3.32 1.831 0 3.32-1.49 3.32-3.32z"></path>
</symbol>
<symbol id="icon-video_active" viewBox="0 0 32 32">
<title>video_active</title>
<path d="M31.663 7.67c-0.207-0.111-0.461-0.088-0.645 0.049l-6.28 4.271v-4.045c0-1.441-1.173-2.615-2.616-2.615h-19.514c-1.442 0-2.616 1.173-2.616 2.615v16.106c0 1.441 1.173 2.615 2.616 2.615h19.514c1.442 0 2.616-1.173 2.616-2.615v-4.051l6.273 4.267c0.183 0.143 0.412 0.178 0.658 0.062 0.209-0.108 0.34-0.323 0.34-0.558v-15.547c0-0.239-0.133-0.451-0.345-0.555zM30.764 22.555l-6.027-4.054v-5.001l6.024-4.051 0.003 13.106z"></path>
</symbol>

<symbol id="icon-video" viewBox="0 0 32 32">
<title>video</title>
<path d="M31.663 7.671c-0.207-0.111-0.461-0.088-0.645 0.049l-6.28 4.271v-4.045c0-1.441-1.173-2.615-2.616-2.615h-19.514c-1.442 0-2.616 1.173-2.616 2.615v16.106c0 1.441 1.173 2.615 2.616 2.615h19.514c1.442 0 2.616-1.173 2.616-2.615v-4.051l6.273 4.267c0.183 0.143 0.412 0.178 0.658 0.062 0.209-0.108 0.34-0.323 0.34-0.558v-15.547c0-0.239-0.133-0.451-0.345-0.555zM30.764 22.556l-6.027-4.054v-5.001l6.024-4.051 0.003 13.106zM23.489 19.044v5.010c0 0.753-0.613 1.366-1.367 1.366h-19.515c-0.754 0-1.367-0.613-1.367-1.366v-16.106c0-0.753 0.613-1.366 1.367-1.366h19.514c0.754 0 1.367 0.613 1.367 1.366v11.096z"></path>
</symbol>



<symbol id="icon-video_more" viewBox="0 0 32 32">
    <title>icon-video_more</title>
    <path fill="#1d1d1b" style="fill: var(--color2, #1d1d1b)" d="M31.663 7.671c-0.207-0.111-0.461-0.088-0.645 0.049l-6.28 4.271v-4.045c0-1.441-1.173-2.615-2.616-2.615h-19.514c-1.442 0-2.616 1.173-2.616 2.615v16.106c0 1.441 1.173 2.615 2.616 2.615h19.514c1.442 0 2.616-1.173 2.616-2.615v-4.051l6.273 4.267c0.183 0.143 0.412 0.178 0.658 0.062 0.209-0.108 0.34-0.323 0.34-0.558v-15.547c0-0.239-0.133-0.451-0.345-0.555zM30.764 22.556l-6.027-4.054v-5.001l6.024-4.051 0.003 13.106zM23.489 19.044v5.010c0 0.753-0.613 1.366-1.367 1.366h-19.515c-0.754 0-1.367-0.613-1.367-1.366v-16.106c0-0.753 0.613-1.366 1.367-1.366h19.514c0.754 0 1.367 0.613 1.367 1.366v11.096z"></path>
</symbol>



<symbol id="icon-play" viewBox="0 0 200 200">
<title>play</title>
<circle cx="100" cy="100" r="90" fill="none" stroke-width="7" stroke="#fff" style="stroke: var(--color, #fff)" />
<polygon points="70, 55 70, 145 145, 100" fill="#fff" style="fill: var(--color, #fff)" />
</symbol>

<symbol id="icon-question" viewBox="0 0 32 32">
<title>question</title>
<path style="fill: var(--color1)" d="M 16 32 C 7.175781 32 0 24.824219 0 16 C 0 7.175781 7.175781 0 16 0 C 24.820312 0 32 7.175781 32 16 C 32 24.824219 24.824219 32 16 32 Z M 16 1.34375 C 7.917969 1.34375 1.339844 7.917969 1.339844 16 C 1.339844 24.082031 7.917969 30.65625 16 30.65625 C 24.082031 30.65625 30.65625 24.082031 30.65625 16 C 30.65625 7.917969 24.082031 1.34375 16 1.34375 Z M 16 1.34375 " />
<path style="fill: var(--color2)" d="M 14.820312 19.28125 C 14.828125 18.3125 14.910156 17.640625 15.066406 17.269531 C 15.222656 16.898438 15.640625 16.40625 16.320312 15.796875 C 16.980469 15.015625 17.449219 14.414062 17.730469 13.996094 C 18.011719 13.574219 18.148438 13.070312 18.148438 12.476562 C 18.148438 11.769531 17.960938 11.226562 17.585938 10.84375 C 17.207031 10.464844 16.671875 10.277344 15.972656 10.277344 C 15.363281 10.277344 14.851562 10.441406 14.425781 10.773438 C 14.003906 11.101562 13.792969 11.585938 13.792969 12.226562 L 11.914062 12.226562 L 11.882812 12.167969 C 11.859375 11.09375 12.238281 10.234375 13.011719 9.589844 C 13.785156 8.941406 14.773438 8.621094 15.96875 8.621094 C 17.28125 8.621094 18.300781 8.957031 19.027344 9.625 C 19.753906 10.292969 20.117188 11.230469 20.117188 12.429688 C 20.117188 13.289062 19.882812 14.074219 19.414062 14.789062 C 18.945312 15.5 18.324219 16.230469 17.550781 16.976562 C 17.195312 17.335938 16.980469 17.660156 16.90625 17.949219 C 16.828125 18.234375 16.789062 18.679688 16.789062 19.285156 L 14.820312 19.285156 Z M 16.851562 23.382812 L 14.800781 23.382812 L 14.800781 21.304688 L 16.851562 21.304688 Z M 16.851562 23.382812 " />
</symbol>

<symbol id="icon-question_active" viewBox="0 0 32 32">
<title>question_active</title>
<path style="fill: var(--color)" d="M 16 0 C 7.175781 0 0 7.175781 0 16 C 0 24.824219 7.175781 32 16 32 C 24.820312 32 32 24.824219 32 16 C 32 7.175781 24.824219 0 16 0 Z M 16.851562 23.382812 L 14.800781 23.382812 L 14.800781 21.304688 L 16.851562 21.304688 Z M 19.414062 14.785156 C 18.945312 15.5 18.324219 16.226562 17.550781 16.972656 C 17.195312 17.332031 16.980469 17.855469 16.90625 18.144531 C 16.828125 18.429688 16.789062 18.546875 16.789062 19.679688 L 14.820312 19.679688 C 14.828125 18.546875 14.910156 17.839844 15.066406 17.46875 C 15.222656 17.097656 15.640625 16.507812 16.320312 15.894531 C 16.980469 15.113281 17.449219 14.464844 17.730469 14.046875 C 18.011719 13.625 18.148438 13.09375 18.148438 12.5 C 18.148438 11.792969 17.960938 11.238281 17.585938 10.859375 C 17.207031 10.480469 16.671875 10.28125 15.972656 10.28125 C 15.363281 10.28125 14.851562 10.203125 14.425781 10.535156 C 14.003906 10.863281 13.792969 11.742188 13.792969 11.742188 L 11.914062 11.742188 L 11.882812 11.925781 C 11.859375 10.851562 12.238281 10.113281 13.011719 9.464844 C 13.785156 8.820312 14.773438 8.558594 15.96875 8.558594 C 17.28125 8.558594 18.300781 8.921875 19.027344 9.59375 C 19.753906 10.261719 20.117188 11.210938 20.117188 12.414062 C 20.117188 13.269531 19.882812 14.070312 19.414062 14.785156 Z M 19.414062 14.785156 "/>
</symbol>

<symbol id="icon-discreet_active" viewBox="0 0 512 512">
<title>discreet_active</title>
<path style="fill: var(--color)" d="M311.922 119.494c-19.997 8.706-30.995 23.993-32.974 45.749-0.238 2.291 0.404 4.050 2.346 5.517 9.843 7.515 21.096 10.851 33.303 10.448 26.413-0.862 48.407-23.058 49.47-49.579 0.11-2.548-0.899-4.472-2.914-5.903-9.147-6.489-19.337-9.88-30.573-9.953-6.452 0.037-12.739 1.154-18.659 3.721z"></path>
<path style="fill: var(--color)" d="M141.865 61.575c9.091-3.465 18.641-4.288 28.245-4.288 57.131-0.036 114.226-0.036 171.394-0.036 8.596 0.036 17.175 0.715 25.477 3.225 4.197 1.246 8.028 3.024 11.456 5.279-13.656-28.959-41.35-50.331-81.069-60.522-13.637-3.501-27.493-5.298-41.166-5.298-13.729 0-27.603 1.796-41.314 5.298-39.645 10.227-67.322 31.544-81.014 60.431 2.382-1.576 5.023-2.95 7.991-4.087z"></path>
<path style="fill: var(--color)" d="M151.434 124.974c-2.456 1.686-3.648 3.941-3.409 6.764 0.257 3.262 0.586 6.543 1.393 9.733 6.048 23.7 25.844 39.243 49.525 39.664 11.859-0.073 21.885-3.299 30.939-9.66 1.998-1.393 2.988-3.043 2.713-5.334-0.385-3.446-0.513-6.946-1.338-10.282-8.578-35.687-49.415-51.394-79.822-30.885z"></path>
<path style="fill: var(--color)" d="M459.213 411.18l-125.022-73.683c-7.368-4.325-11.987-12.39-11.987-20.987v-4.839c0-7.844 3.886-15.286 10.375-19.942 34.128-24.249 54.675-63.436 55.463-105.171-3.94 9.274-10.301 16.972-19.319 23.204-29.913 20.767-70.603 18.549-96.978-6.8-8.743-8.339-19.905-8.084-28.85 0.11-19.41 17.761-42.102 24.524-68.055 19.869-11.84-2.107-22.196-7.552-32.039-14.279-8.523-5.756-14.773-13.161-18.677-22.343 0.715 41.827 21.262 81.123 55.463 105.428 6.506 4.656 10.375 12.098 10.375 19.942v4.619c0 8.669-4.655 16.753-12.189 21.079l-124.619 71.703c-13.692 7.881-22.215 22.618-22.215 38.454v45.933c0 10.245 8.321 18.586 18.586 18.586h412.548c10.172 0 18.512-8.266 18.603-18.439l0.385-43.898c0.128-15.763-8.248-30.554-21.848-38.546z"></path>
</symbol>

<symbol id="icon-discreet_on" viewBox="0 0 512 512">
<title>discreet_on</title>
<path style="fill: var(--color)" d="M459.186 411.203l-125.017-73.68c-7.368-4.325-11.986-12.389-11.986-20.986v-4.839c0-7.844 3.886-15.286 10.374-19.941 34.824-24.743 55.627-65.029 55.627-107.697v-74.523c0-51.483-33.119-89.497-90.853-104.306-13.636-3.501-27.493-5.297-41.165-5.297-13.728 0-27.602 1.796-41.312 5.297-57.734 14.883-90.871 52.914-90.871 104.343v74.486c0 42.668 20.803 82.953 55.607 107.697 6.506 4.656 10.374 12.097 10.374 19.941v4.619c0 8.669-4.655 16.752-12.188 21.077l-124.614 71.701c-13.691 7.881-22.214 22.617-22.214 38.452v45.93c0 10.245 8.321 18.585 18.585 18.585h412.532c10.172 0 18.512-8.265 18.603-18.438l0.385-43.897c0.11-15.762-8.265-30.535-21.866-38.526zM358.912 130.835c-1.026 25.274-21.94 46.425-47.104 47.25-11.639 0.367-22.361-2.822-31.726-9.989-1.851-1.393-2.455-3.079-2.236-5.261 1.887-20.73 12.372-35.264 31.415-43.566 5.645-2.438 11.62-3.501 17.779-3.537 10.704 0.073 20.399 3.335 29.124 9.495 1.906 1.356 2.86 3.189 2.749 5.609zM219.819 24.642c12.060-3.116 24.303-4.655 36.326-4.655 12.005 0 24.175 1.54 36.199 4.655 18.163 4.655 44.152 14.901 60.501 36.657-5.113-0.788-10.264-1.264-15.451-1.301-54.435 0-108.833 0-163.232 0.036-4.949 0-9.843 0.348-14.7 1.063 16.386-21.572 42.283-31.781 60.355-36.455zM156.385 124.513c28.977-19.538 67.851-4.582 76.044 29.417 0.769 3.19 0.917 6.506 1.264 9.769 0.257 2.218-0.679 3.757-2.602 5.077-8.614 6.084-18.145 9.164-29.453 9.238-22.543-0.422-41.403-15.249-47.159-37.793-0.769-3.006-1.1-6.158-1.338-9.274-0.238-2.676 0.917-4.82 3.244-6.433zM460.651 492.031h-409.654v-44.464c0-8.669 4.673-16.752 12.188-21.077l124.596-71.701c13.709-7.918 22.232-22.617 22.232-38.452v-4.619c0-14.315-7.020-27.896-18.804-36.235-24.542-17.449-40.689-43.988-45.509-73.221 0.843 0.642 1.595 1.357 2.493 1.961 9.385 6.415 19.262 11.602 30.517 13.6 24.725 4.435 46.334-1.998 64.827-18.933 8.523-7.808 19.171-8.047 27.474-0.073 25.128 24.12 63.874 26.245 92.374 6.488 1.118-0.769 1.961-1.686 3.006-2.511-4.967 29.014-21.023 55.352-45.417 72.69-11.767 8.339-18.786 21.921-18.786 36.235v4.839c0 15.652 8.358 30.315 21.829 38.233l125.036 73.643c7.442 4.399 12.041 12.536 11.968 21.188l-0.367 42.412z"></path>
</symbol>

<symbol id="icon-discreet_off" viewBox="0 0 512 512">
<title>discreet_off</title>
<path style="fill: var(--color)" d="M326.092 107.605c-7.66 0.055-14.861 1.484-21.367 4.306-22.264 9.694-34.69 26.919-36.87 51.053-0.531 5.424 1.539 10.226 5.791 13.433 10.336 7.898 22.284 11.893 35.533 11.893 0.678 0 1.356-0.018 2.034-0.036 29.65-0.971 54.755-26.113 55.964-56.038 0.238-5.516-2.126-10.299-6.634-13.469-10.353-7.293-21.899-11.049-34.45-11.142zM310.663 169.946c-9.015 0.348-17.244-2.071-24.372-7 1.961-16.345 10.409-27.561 25.728-34.232 4.214-1.832 8.979-2.749 14.074-2.785 8.264 0.055 15.687 2.345 22.705 7-1.521 19.919-18.361 36.375-38.135 37.017z"></path>
<path style="fill: var(--color)" d="M244.399 161.369c-0.274-2.876-0.549-5.755-1.227-8.558-4.618-19.131-17.647-34.121-35.733-41.14-18.16-7.073-37.951-4.782-54.352 6.286l-0.073 0.055c-5.058 3.501-7.66 8.869-7.166 14.714 0.293 3.629 0.696 7.293 1.595 10.811 6.707 26.223 29.155 44.163 56.093 44.676 13.084-0.091 24.428-3.647 34.616-10.867 6.487-4.471 6.854-10.464 6.487-13.616l-0.238-2.364zM203.663 169.873c-18.655-0.367-33.755-12.498-38.464-30.915-0.512-2.071-0.788-4.233-0.989-6.431 11.16-7.129 24.409-8.54 36.577-3.811 12.424 4.838 21.367 15.155 24.555 28.367 0.458 1.942 0.623 3.958 0.825 5.938l0.018 0.274c-6.78 4.435-14.037 6.524-22.522 6.578z"></path>
<path style="fill: var(--color)" d="M459.168 411.157l-125.013-73.648c-7.366-4.343-11.985-12.387-11.985-20.983v-4.856c0-7.842 3.903-15.283 10.372-19.92 34.817-24.757 55.617-65.017 55.617-107.641v-74.528c0-51.474-33.113-89.499-90.837-104.305-13.634-3.501-27.488-5.277-41.158-5.277-13.707 0-27.597 1.796-41.304 5.314-57.724 14.861-90.837 52.867-90.837 104.287v74.509c0 42.624 20.799 82.883 55.579 107.641 6.505 4.636 10.372 12.076 10.372 19.919v4.636c0 8.668-4.655 16.75-12.168 21.074l-124.592 71.688c-13.707 7.88-22.228 22.613-22.228 38.445v45.904c0 10.243 8.337 18.582 18.581 18.582h412.458c10.17 0 18.509-8.246 18.618-18.435l0.367-43.87c0.128-15.76-8.246-30.529-21.843-38.537zM368.111 109.602v74.528c0 3.665-0.293 7.293-0.642 10.922-0.623 0.549-1.247 1.118-1.961 1.778-2.254 2.053-4.892 4.453-5.571 5.002-25.214 17.519-59.208 15.136-80.776-5.552-11.691-11.215-27.762-11.269-40.022-0.091-16.511 15.155-35.185 20.653-57.008 16.676-8.577-1.521-16.896-5.278-26.792-12.022-0.311-0.238-1.137-0.88-2.18-1.704l0.018-0.018c-2.053-1.613-3.775-2.95-5.204-4.049-1.173-0.916-2.071-1.631-2.291-1.815l-0.073 0.091c-0.404-0.293-0.696-0.404-1.081-0.642-0.22-2.859-0.495-5.718-0.495-8.595v-74.51c0-14.257 2.969-26.26 7.916-36.32l208.299-0.018c4.892 10.079 7.861 22.064 7.861 36.339zM219.826 24.702c12.058-3.097 24.298-4.672 36.319-4.672s24.19 1.576 36.192 4.654c16.291 4.197 38.867 12.845 55.159 30.236l-182.81 0.036c16.309-17.372 38.904-26.058 55.139-30.254zM460.634 491.988h-409.58v-44.456c0-8.687 4.654-16.767 12.168-21.074l124.592-71.706c13.707-7.898 22.228-22.613 22.228-38.428v-4.636c0-14.312-7.018-27.872-18.82-36.192-19.754-14.074-33.993-34.048-41.415-56.532 10.17 6.304 19.553 10.244 29.1 11.929 5.625 1.007 11.123 1.502 16.475 1.502 20.835 0 39.655-7.587 56.148-22.686 3.518-3.28 8.998-5.938 14.935-0.238 25.38 24.409 63.844 28.88 94.942 12.571-7.678 21.221-21.605 40.022-40.462 53.454-11.747 8.32-18.783 21.862-18.783 36.192v4.856c0 15.649 8.374 30.291 21.825 38.207l125.013 73.648c7.44 4.398 12.058 12.516 11.985 21.165l-0.348 42.422z"></path>
</symbol>

<symbol id="pro" viewBox="0 0 512 512">
<title>pro</title>
<path style="fill: var(--color)" d="M251.418 207.097h-17.875v35.984h17.423c7.041 0 12.313-1.48 15.798-4.496 3.521-2.998 5.272-7.294 5.272-12.946 0-5.633-1.733-10.148-5.2-13.506s-8.649-5.037-15.419-5.037z"></path>
<path style="fill: var(--color)" d="M374.104 205.543c-10.58 0-18.453 4.026-23.689 12.079s-7.818 18.651-7.818 31.742v2.076c0 13.235 2.618 23.906 7.908 31.976 5.255 8.071 13.163 12.115 23.689 12.115 10.652 0 18.651-4.045 23.959-12.115 5.363-8.053 8.035-18.724 8.035-31.976v-2.076c0-12.982-2.709-23.544-8.125-31.65-5.38-8.125-13.397-12.169-23.959-12.169z"></path>
<path style="fill: var(--color)" d="M140.468 207.097h-21.215v41.238h21.215c7.042 0 12.332-1.895 15.924-5.724 3.611-3.828 5.381-8.721 5.381-14.625 0-6.030-1.769-11.014-5.381-14.968-3.594-3.936-8.883-5.922-15.924-5.922z"></path>
<path style="fill: var(--color)" d="M453.476 102.719l-163.112-93.924c0 0-34.359-19.788-68.755 0l-163.095 93.924c0 0-34.377 19.788-34.377 59.438v187.686c0 0 0 39.649 34.377 59.438l163.095 93.924c0 0 34.377 19.788 68.755 0l163.112-93.924c0 0 34.377-19.788 34.377-59.438v-187.686c0 0 0-39.65-34.377-59.438zM174.52 256.803c-8.287 7.295-19.68 10.959-34.052 10.959h-21.215v27.86l13.469 2.582v15.094h-52.054v-15.094l13.361-2.582v-90.168l-13.361-2.582v-15.185h59.781c14.372 0 25.765 3.701 34.052 11.086 8.269 7.403 12.458 17.081 12.458 29.033 0.018 12.025-4.171 21.684-12.44 28.997zM308.202 313.298h-13.036c-8.233 0-14.010-2.221-17.334-6.626-3.377-4.442-5.019-10.147-5.019-17.17v-7.15c0-6.103-1.644-10.887-4.875-14.354-3.268-3.485-7.854-5.308-13.776-5.507h-20.637v33.149l13.469 2.582v15.094h-52.017v-15.094l13.343-2.582v-90.168l-13.343-2.582v-15.185h56.423c14.228 0 25.404 3.268 33.529 9.786 8.108 6.518 12.188 15.528 12.188 27.047 0 6.32-1.733 11.809-5.091 16.466-3.394 4.659-8.378 8.431-14.932 11.302 7.439 2.203 12.765 5.832 16.033 10.906 3.232 5.091 4.857 11.393 4.857 18.94v6.392c0 2.781 0.541 4.893 1.661 6.409 1.084 1.553 2.925 2.438 5.453 2.726l3.106 0.434v15.185zM431.303 251.441c0 18.417-5.272 33.619-15.816 45.626-10.49 12.025-24.285 18.055-41.293 18.055-16.954 0-30.676-6.030-41.076-18.055-10.472-12.007-15.69-27.228-15.69-45.626v-1.895c0-18.29 5.2-33.456 15.618-45.536 10.399-12.061 24.104-18.109 41.058-18.109 17.008 0 30.803 6.030 41.365 18.109 10.544 12.079 15.834 27.264 15.834 45.536v1.895z"></path>
</symbol>

<symbol id="revoke" viewBox="0 0 50 50">
<title>revoke</title>
<path style="fill: var(--color)" d="M25,11.042c-7.596,0-13.775,6.181-13.775,13.776c0,7.595,6.18,13.777,13.775,13.777 s13.776-6.182,13.776-13.777C38.776,17.223,32.596,11.042,25,11.042z M33.02,31.531c0.377,0.377,0.378,0.994,0.002,1.375 c-0.187,0.186-0.432,0.287-0.69,0.287c-0.261,0-0.505-0.102-0.688-0.285l-6.642-6.643l-6.643,6.643 c-0.361,0.363-1.008,0.367-1.375,0c-0.185-0.184-0.285-0.428-0.285-0.689c0-0.26,0.101-0.504,0.284-0.688l6.643-6.642l-6.783-6.783 c-0.186-0.186-0.287-0.43-0.287-0.689c0-0.261,0.103-0.506,0.289-0.69c0.363-0.364,1.006-0.365,1.372,0.002l6.785,6.786l6.784-6.786 c0.371-0.367,1.008-0.366,1.375-0.001c0.185,0.184,0.286,0.428,0.287,0.688c0,0.261-0.102,0.506-0.286,0.69l-6.784,6.783 L33.02,31.531z"/>
</symbol>

<symbol id="icon-doublecheck" viewBox="0 0 50 50">
<title>doublecheck</title>
<path fill="fill: var(--color)" d="M35.221,15.497c-0.001-0.298-0.117-0.578-0.328-0.788c-0.419-0.417-1.148-0.421-1.573,0.001L14.905,33.127 l-8.903-8.904c-0.419-0.419-1.152-0.418-1.571-0.001c-0.212,0.211-0.33,0.491-0.33,0.789c0,0.297,0.117,0.577,0.328,0.789 l9.26,9.26l0.436,0.422c0.211,0.209,0.49,0.325,0.788,0.325c0.298,0,0.578-0.116,0.786-0.326l19.194-19.193 C35.104,16.075,35.221,15.795,35.221,15.497z"/>
<path fill="fill: var(--color)" d="M46.281,14.709c-0.419-0.417-1.148-0.421-1.573,0.001L26.283,33.138l-3.242-3.054 c-0.419-0.42-1.152-0.418-1.571-0.002c-0.212,0.211-0.33,0.491-0.33,0.789c0,0.297,0.117,0.577,0.339,0.8l3.599,3.388l0.436,0.422 c0.21,0.209,0.49,0.325,0.787,0.325c0.299,0,0.578-0.116,0.786-0.326l19.194-19.193c0.211-0.211,0.327-0.491,0.327-0.79 C46.608,15.199,46.492,14.919,46.281,14.709z"/>
</symbol>

<symbol id="icon-bunny" viewBox="0 0 50 50">
    <title>bunny</title>
    <path fill="fill: var(--color)" d="M25.191,1.583c-13.149,0-23.809,10.66-23.809,23.808c0,9.996,6.162,18.547,14.893,22.077 c-0.057-0.424-0.097-0.853-0.097-1.29c0-3.922,2.358-7.286,5.731-8.771h-0.112c-1.708-2.87-3.399-5.713-5.122-8.609 c-0.63,1.455-1.26,2.894-1.987,4.304c-0.688,1.337-1.313,2.686-2.287,3.846c-0.43,0.51-0.78,0.514-1.202-0.01 c-1.043-1.287-1.271-3.465-1.305-5.061c-0.042-1.942,0.007-3.999,0.669-5.849c0.586-1.637,2.281-2.6,3.827-3.173 c1.723-0.639,3.675-0.718,5.316,0.191c2.055,1.139,2.751,3.783,3.492,5.833c0.895,2.482,1.466,5.109,2.042,7.681 c0.326,0,0.598,0,0.811,0c0.192-1.676,0.34-3.373,0.644-5.033c0.418-2.275,1.288-4.575,2.064-6.757 c1.018-2.86,2.314-5.654,3.765-8.322c1.311-2.411,2.804-5.189,4.998-6.92c0.759-0.598,1.11-0.413,1.469,0.076 c3.108,4.235,0.765,10.373-1.32,14.523c-2.328,4.628-5.638,8.71-8.174,13.227c3.434,1.458,5.843,4.859,5.843,8.824 c0,0.26-0.02,0.516-0.039,0.77C43.395,43.146,49,34.924,49,25.391C49,12.243,38.34,1.583,25.191,1.583z"/>
    <circle fill="fill: var(--color)" cx="22.537" cy="45.741" r="1.291"/>
    <circle fill="fill: var(--color)" cx="29.184" cy="45.741" r="1.292"/>
</symbol>

<symbol id="icon-widget" viewBox="0 0 50 50">
    <title>widget</title>
    <path fill="fill: var(--color)" d="M38.979,13.009c-0.715-1.43-2.244-3.134-5.474-3.134h-17.71c-0.062,0-6.254,0.071-6.254,6.254v17.709 c0,0.064,0.009,1.579,0.779,3.119c0.715,1.43,2.245,3.134,5.475,3.134h17.71c0.062,0,6.253-0.071,6.253-6.253V16.129 C39.758,16.065,39.749,14.549,38.979,13.009z M38.408,16.129v17.709c0,4.729-4.402,4.898-4.903,4.902h-17.71 c-4.721,0-4.899-4.401-4.904-4.902V16.129c0-4.73,4.403-4.9,4.905-4.904h17.709C38.225,11.225,38.403,15.628,38.408,16.129z"/>
	<path fill="fill: var(--color)" d="M36.437,20.503H12.863c-0.241,0-0.466,0.13-0.586,0.339c-0.119,0.209-0.118,0.468,0.004,0.676l6.41,10.958 c0.115,0.197,0.321,0.322,0.562,0.334c0.229,0,0.44-0.105,0.566-0.279l4.805-6.645l4.422,6.824 c0.125,0.191,0.337,0.307,0.566,0.307h0.008h0.001c0.233-0.003,0.446-0.124,0.567-0.323l6.823-11.165 c0.127-0.208,0.132-0.469,0.013-0.682S36.681,20.503,36.437,20.503z M35.233,21.853l-5.637,9.224l-4.375-6.751 c-0.121-0.188-0.327-0.302-0.553-0.308h-0.014c-0.216,0-0.42,0.104-0.547,0.279l-4.775,6.604l-5.293-9.049H35.233z"/>
</symbol>

<symbol id="icon-widget_active" viewBox="0 0 50 50">
    <title>widget_active</title>
    <path fill="fill: var(--color)" d="M33.809,10H16.014c0,0-6.014,0.098-6.014,6.255v17.793c0,0-0.144,5.951,6.014,5.951h17.795 c0,0,6.191,0.206,6.191-5.951V16.255C40,16.255,39.966,10,33.809,10z M29.897,32.367l-4.981-7.61l-5.407,7.366L13.067,21h23.687 L29.897,32.367z"/>
</symbol>

<symbol id="icon-add" viewBox="0 0 50 50">
    <path fill="fill: var(--color)" d="M32.658,44.313H17.344c-6.428,0-11.656-5.229-11.656-11.655V17.344c0-6.428,5.229-11.657,11.656-11.657 h15.314c6.426,0,11.654,5.229,11.654,11.657v15.314C44.312,39.085,39.084,44.313,32.658,44.313z M17.344,7.687 c-5.324,0-9.656,4.332-9.656,9.657v15.314c0,5.324,4.332,9.655,9.656,9.655h15.314c5.323,0,9.654-4.331,9.654-9.655V17.344 c0-5.325-4.331-9.657-9.654-9.657H17.344z"/>
    <path fill="fill: var(--color)" d="M24.906,35.885c-0.59,0-1.07-0.479-1.07-1.068v-8.652h-8.652c-0.589,0-1.068-0.48-1.068-1.07 c0-0.284,0.116-0.561,0.319-0.759c0.196-0.196,0.464-0.308,0.749-0.308h8.654l-0.002-8.842c0.005-0.295,0.115-0.56,0.312-0.757 c0.396-0.399,1.11-0.406,1.517,0.002c0.201,0.203,0.311,0.473,0.309,0.758v8.839h8.844c0.589,0,1.068,0.479,1.068,1.068 s-0.479,1.068-1.068,1.068h-8.842v8.652C25.975,35.405,25.495,35.885,24.906,35.885z"/>
</symbol>

<symbol id="icon-pie-9" viewBox="0 0 50 50">
    <circle fill="#666666" cx="25" cy="25" r="25"/>
</symbol>

<symbol id="icon-pie-8" viewBox="0 0 50 50">
    <circle fill="#666666" cx="25" cy="25" r="25"/>
    <path fill="#96BE14" d="M25,25.03V0c6.382,0,12.811,2.444,17.698,7.331L25,25.03z"/>
</symbol>

<symbol id="icon-pie-7" viewBox="0 0 50 50">
    <circle fill="#666666" cx="25" cy="25" r="25"/>
    <path fill="#96BE14" d="M42.678,7.323L42.678,7.323C37.797,2.441,31.406,0,25,0v24.999L25,25h25 C50,17.988,47.559,12.205,42.678,7.323z"/>
</symbol>

<symbol id="icon-pie-6" viewBox="0 0 50 50">
    <circle fill="#666666" cx="25" cy="25" r="25"/>
    <path fill="#96BE14" d="M42.678,7.323L42.678,7.323C37.797,2.441,31.406,0,25,0v24.999L25,25h0.085l17.615,17.616 C47.566,37.753,50,31.5,50,25C50,17.988,47.559,12.205,42.678,7.323z"/>
</symbol>

<symbol id="icon-pie-5" viewBox="0 0 50 50">
    <circle fill="#666666" cx="25" cy="25" r="25"/>
    <path fill="#96BE14" d="M25,0c13.807,0,25,11.191,25,25c0,13.807-11.193,25-25,25V0z"/>
</symbol>

<symbol id="icon-pie-4" viewBox="0 0 50 50">
    <circle fill="#666666" cx="25" cy="25" r="25"/>
    <path fill="#96BE14" d="M25,0v25L7.341,42.658c4.742,4.717,10.653,7.315,17.659,7.315V50c13.807,0,25-11.193,25-25 C50,11.192,38.807,0,25,0z"/>
</symbol>

<symbol id="icon-pie-3" viewBox="0 0 50 50">
    <circle fill="#666666" cx="25" cy="25" r="25"/>
    <path fill="#96BE14" d="M25,0v25H0c0,8.664,4.409,16.297,11.104,20.783c2.784,1.899,5.886,3.181,9.29,3.786 C21.887,49.848,23.425,50,25,50c13.809,0,25-11.192,25-25C50,11.192,38.807,0,25,0z"/>
</symbol>

<symbol id="icon-pie-2" viewBox="0 0 50 50">
    <ellipse fill="#666666" cx="25.009" cy="25" rx="24.991" ry="25"/>
    <path fill="#96BE14" d="M25,0v25L7.32,7.31C2.438,12.194,0,18.5,0,25h0.019c0,8.664,4.407,16.297,11.1,20.783 c2.783,1.899,5.884,3.181,9.286,3.786C21.897,49.848,23.435,50,25.009,50c13.803,0,24.987-11.192,24.987-25C49.996,11.192,39,0,25,0z"/>
</symbol>

<symbol id="icon-pie-1" viewBox="0 0 50 50">
    <ellipse fill="#97BE0C" cx="25.009" cy="25" rx="24.991" ry="25"/>
</symbol>

<symbol id="icon-hamburger">
    <path fill="fill: var(--color)" d="M14.402,18.133h22.357c0.331,0,0.598-0.268,0.598-0.599s-0.267-0.598-0.598-0.598H14.402 c-0.331,0-0.599,0.267-0.599,0.598S14.071,18.133,14.402,18.133"/>
    <path fill="fill: var(--color)" d="M36.758,25H14.401c-0.331,0-0.599,0.269-0.599,0.6c0,0.33,0.268,0.598,0.599,0.598h22.357 c0.332,0,0.6-0.268,0.6-0.598C37.357,25.269,37.09,25,36.758,25"/>
    <path fill="fill: var(--color)" d="M36.758,32.898H14.401c-0.331,0-0.599,0.268-0.599,0.6c0,0.33,0.268,0.596,0.599,0.596h22.357 c0.332,0,0.6-0.266,0.6-0.596C37.357,33.166,37.09,32.898,36.758,32.898"/>
</symbol>
</defs>
</svg>
