<svg xmlns="http://www.w3.org/2000/svg" fill="none" viewBox="0 0 276 65">
  <defs/>
  <path fill="#00F000" d="M188.12 36.81V51h-2.95V16.16h11.87c3.62 0 6.48.93 8.56 2.78 2.11 1.85 3.16 4.4 3.16 7.63 0 3.27-1 5.8-3.03 7.59-2.01 1.77-4.93 2.65-8.76 2.65h-8.85zm0-2.49h8.92c2.86 0 5.03-.67 6.53-2.03 1.5-1.36 2.25-3.25 2.25-5.67 0-2.4-.75-4.32-2.25-5.74-1.48-1.44-3.6-2.17-6.34-2.2h-9.11v15.64zm40.26 2.18h-10.12V51h-2.97V16.16h11.32c3.72 0 6.62.9 8.71 2.7 2.1 1.81 3.14 4.33 3.14 7.57 0 2.23-.66 4.2-1.97 5.9a10.03 10.03 0 01-5.26 3.55l8.7 14.8V51h-3.13l-8.42-14.5zM218.26 34h9.02c2.47 0 4.46-.7 5.96-2.1a7.13 7.13 0 002.25-5.46c0-2.46-.78-4.36-2.35-5.72-1.56-1.36-3.75-2.03-6.58-2.03h-8.3v15.3zm53.95 1.48a20 20 0 01-1.67 8.45 12.62 12.62 0 01-4.74 5.6 13 13 0 01-7.13 1.96c-4.07 0-7.35-1.45-9.86-4.36-2.5-2.91-3.75-6.85-3.75-11.8v-3.58c0-3.17.56-5.98 1.67-8.42a12.86 12.86 0 014.79-5.65 12.84 12.84 0 017.1-1.98c2.69 0 5.05.64 7.09 1.93a12.7 12.7 0 014.76 5.48c1.11 2.36 1.7 5.1 1.74 8.2v4.17zm-2.94-3.78c0-4.2-.95-7.48-2.84-9.86-1.9-2.37-4.5-3.56-7.8-3.56a9.45 9.45 0 00-7.76 3.59c-1.91 2.38-2.87 5.7-2.87 9.98v3.63c0 4.13.96 7.41 2.87 9.84 1.92 2.4 4.52 3.6 7.8 3.6 3.34 0 5.94-1.18 7.8-3.56 1.87-2.39 2.8-5.71 2.8-9.97v-3.69z"/>
  <path fill="#fff" d="M1.45 52v-4.19l3.71-.71v-25l-3.7-.73v-4.2h15.47c4.1 0 7.3.8 9.6 2.39 2.3 1.6 3.44 3.98 3.44 7.15 0 1.61-.43 3.05-1.29 4.33a7.69 7.69 0 01-3.7 2.85 7.35 7.35 0 014.68 2.87 8.52 8.52 0 011.58 5.1c0 3.33-1.1 5.86-3.3 7.58-2.2 1.7-5.32 2.56-9.36 2.56H1.45zm10.7-20.24h5.02c1.87 0 3.3-.38 4.3-1.15 1.01-.77 1.52-1.88 1.52-3.35 0-3.14-2.02-4.71-6.06-4.71h-4.78v9.2zm0 14.88h6.43c3.8 0 5.7-1.6 5.7-4.78 0-1.71-.42-3.01-1.25-3.9-.83-.91-2.13-1.37-3.92-1.37h-6.96v10.05zm40.22 5.86c-2.78 0-5.21-.48-7.3-1.43a11.16 11.16 0 01-4.88-4.17 12.04 12.04 0 01-1.75-6.62V22.09l-3.7-.71v-4.22h14.42v4.21l-3.73.72v18.19c0 2.3.61 4.02 1.84 5.16 1.25 1.14 2.94 1.7 5.1 1.7 2.18 0 3.9-.56 5.14-1.7 1.25-1.13 1.87-2.85 1.87-5.16V22.09l-3.71-.71v-4.22H70.1v4.21l-3.74.72v18.19c0 2.6-.59 4.81-1.77 6.65a11.13 11.13 0 01-4.9 4.16 17.69 17.69 0 01-7.32 1.41zM73.9 52v-4.19l3.76-.79V22.2l-3.76-.82v-4.2h15.29a14.88 14.88 0 0113.78 8.25 18.86 18.86 0 012.01 8.85v.65c0 3.3-.66 6.24-1.99 8.83a14.97 14.97 0 01-5.5 6.05 15.22 15.22 0 01-8.2 2.2H73.9zm10.74-5.34h4.29c1.93 0 3.56-.5 4.9-1.5a9.46 9.46 0 003.09-4.19c.7-1.77 1.05-3.79 1.05-6.05v-.67c0-2.3-.35-4.33-1.05-6.08a9.14 9.14 0 00-3.09-4.14 7.94 7.94 0 00-4.9-1.5h-4.29v24.13zM109.55 52v-4.19l3.76-.79V22.2l-3.76-.82v-4.2h15.29a14.88 14.88 0 0113.78 8.25c1.34 2.57 2 5.52 2 8.85v.65c0 3.3-.65 6.24-1.98 8.83a14.97 14.97 0 01-5.5 6.05 15.22 15.22 0 01-8.2 2.2h-15.39zm10.74-5.34h4.28c1.94 0 3.57-.5 4.91-1.5a9.45 9.45 0 003.09-4.19c.7-1.77 1.05-3.79 1.05-6.05v-.67c0-2.3-.35-4.33-1.05-6.08a9.13 9.13 0 00-3.09-4.14 7.94 7.94 0 00-4.9-1.5h-4.29v24.13zM153.62 52v-4.19l3.73-.71v-7.04l-10.33-18.2-3.35-.48v-4.22h13.9v4.21l-2.85.41 5.8 11.13.52 1.12.14-.02.53-1.05 6.43-11.18-3.82-.4v-4.22h13.63v4.21l-3.44.48-10.2 17.66v7.59l3.74.71V52h-14.43z"/>
</svg>
