<svg xmlns="http://www.w3.org/2000/svg" fill="none" viewBox="0 0 93 24">
  <defs/>
  <path fill="#00F000" d="M69.9883 13.9902V19h-1.6084V6.20312h4.0781c1.1895 0 2.124.35743 2.8037 1.07227.6797.70899 1.0195 1.65527 1.0195 2.83891 0 1.2304-.3251 2.1796-.9755 2.8476-.6446.6621-1.5557 1.0049-2.7334 1.0283h-2.584zm0-1.3798h2.4697c.7149 0 1.2627-.2139 1.6436-.6416.3808-.4278.5713-1.0401.5713-1.837 0-.76754-.1963-1.38278-.5889-1.84567-.3926-.46289-.9317-.69433-1.6172-.69433h-2.4785v5.0186zm12.6474-1.6612c-.2168-.041-.4511-.0615-.7031-.0615-.7969 0-1.3535.4365-1.6699 1.3096V19H78.707V9.49023h1.5118l.0263.96677c.416-.76169 1.0049-1.14255 1.7666-1.14255.2461 0 .4512.04102.6153.12305l.0087 1.5117zm1.6172 2.8565c0-1.3828.334-2.4756 1.002-3.2784.6738-.80855 1.5615-1.21285 2.6631-1.21285 1.1015 0 1.9863.39258 2.6543 1.17775.6738.7851 1.0195 1.8545 1.0371 3.208v1.0019c0 1.377-.334 2.4668-1.002 3.2696-.6679.8027-1.5586 1.2041-2.6719 1.2041-1.1015 0-1.9863-.3897-2.6543-1.169-.6621-.7793-1.0048-1.8339-1.0283-3.164v-1.0371zm1.5557.8964c0 .9786.1904 1.7491.5713 2.3116.3867.5566.9053.8349 1.5556.8349 1.3711 0 2.0772-.9902 2.1182-2.9707v-1.0722c0-.9727-.1933-1.7403-.5801-2.3028-.3867-.5683-.9052-.8525-1.5556-.8525-.6387 0-1.1514.2842-1.5381.8525-.3809.5625-.5713 1.3272-.5713 2.294v.9052z"/>
  <path fill="#fff" d="M.49219 19v-1.5381l1.3623-.2637V8.01367L.49219 7.75V6.20312H6.1787c1.50586 0 2.68067.29297 3.52441.87891.84378.58594 1.26568 1.46192 1.26568 2.62793 0 .59184-.1583 1.12204-.4747 1.59084-.3105.4629-.76461.8115-1.36226 1.0459.76757.164 1.34176.5156 1.72266 1.0547.3867.539.5801 1.1631.5801 1.872 0 1.2246-.4043 2.1534-1.2129 2.7862-.80861.6269-1.95412.9404-3.43654.9404H.49219zm3.92871-7.4355h1.8457c.68555 0 1.21289-.1407 1.58203-.4219.36914-.2813.55371-.6914.55371-1.23049 0-1.1543-.74121-1.73145-2.22363-1.73145H4.4209v3.38384zm0 5.4667h2.36426c1.39453 0 2.09179-.5859 2.09179-1.7578 0-.6269-.15234-1.1045-.45703-1.4326-.30469-.334-.78515-.501-1.4414-.501H4.4209v3.6914zm14.7744 2.1534c-1.0195 0-1.9131-.1758-2.6807-.5274-.7675-.3515-1.3652-.8613-1.7929-1.5293-.4278-.6679-.6416-1.4795-.6416-2.4345V8.01367L12.7178 7.75V6.20312h5.2998V7.75l-1.3711.26367v6.67973c0 .8437.2256 1.4765.6767 1.8984.4571.416 1.0811.624 1.8721.624.8027 0 1.4326-.208 1.8897-.624.457-.416.6855-1.0488.6855-1.8984V8.01367L20.4082 7.75V6.20312h5.2998V7.75l-1.3711.26367v6.67973c0 .955-.2168 1.7695-.6504 2.4433-.4277.668-1.0283 1.1778-1.8017 1.5293-.7676.3457-1.6641.5186-2.6895.5186zM27.1055 19v-1.5381l1.3799-.29V8.04883L27.1055 7.75V6.20312h5.6162c1.1426 0 2.1504.26954 3.0234.8086.8731.5332 1.5528 1.27441 2.0391 2.22363.4922.94335.7383 2.02735.7383 3.25195v.2373c0 1.2129-.2432 2.294-.7295 3.2432-.4805.9433-1.1543 1.6845-2.0215 2.2236-.8672.5391-1.8721.8086-3.0147.8086h-5.6513zm3.9463-1.96h1.5732c.709 0 1.3096-.1845 1.8018-.5537.498-.375.8759-.8877 1.1337-1.5381.2579-.6503.3868-1.3916.3868-2.2236v-.2461c0-.8437-.1289-1.5879-.3868-2.2324-.2578-.6504-.6357-1.15723-1.1337-1.52051-.4922-.36914-1.0928-.55371-1.8018-.55371h-1.5732V17.04zM40.2012 19v-1.5381l1.3799-.29V8.04883L40.2012 7.75V6.20312h5.6162c1.1426 0 2.1504.26954 3.0234.8086.8731.5332 1.5528 1.27441 2.0391 2.22363.4922.94335.7383 2.02735.7383 3.25195v.2373c0 1.2129-.2432 2.294-.7295 3.2432-.4805.9433-1.1543 1.6845-2.0215 2.2236C48 18.7305 46.9951 19 45.8525 19h-5.6513zm3.9463-1.96h1.5732c.709 0 1.3096-.1845 1.8018-.5537.498-.375.8759-.8877 1.1337-1.5381.2579-.6503.3868-1.3916.3868-2.2236v-.2461c0-.8437-.1289-1.5879-.3868-2.2324-.2578-.6504-.6357-1.15723-1.1337-1.52051-.4922-.36914-1.0928-.55371-1.8018-.55371h-1.5732V17.04zM56.3906 19v-1.5381l1.3711-.2637v-2.5839l-3.7969-6.68852L52.7344 7.75V6.20312h5.1064V7.75l-1.0459.14941 2.127 4.08689.1933.4131.0528-.0088.1933-.3867 2.3643-4.10449L60.3193 7.75V6.20312h5.0098V7.75l-1.2656.17578-3.7442 6.48632v2.7861l1.3711.2637V19h-5.2998z"/>
</svg>
