<svg xmlns="http://www.w3.org/2000/svg" fill="none" viewBox="0 0 126 118">
  <defs/>
  <path fill="#00F000" fill-rule="evenodd" d="M89.95 54.04c-6.14-1.7-12.33-3.26-18.5-4.86-13.7-3.57-27.42-7.1-41.11-10.73l.4-1.5.03-.2.07-.2c.83-4.03 2.61-8.34 6.76-10.1 4.4-1.89 9.42.62 13.78 1.73A663.9 663.9 0 0170.1 33.3c5.79 1.65 11.72 2.75 17.5 4.4 2.67.77 6.76 1.87 8.03 4.6 1.43 3.1.47 7.06-.24 10.2-.24 1.09-.7 2.16-1.01 3.23l-.34-.15a27.64 27.64 0 00-4.08-1.55zm10.3.45c.95-3.64 1.94-7.79.96-11.53-.96-3.67-4.3-5.2-7.64-6.56-2.77-1.13-5.67-1.76-8.59-2.4-3.69-.8-7.34-1.77-10.97-2.8-7.08-2.01-14.2-3.86-21.27-5.84-6.17-1.73-12.35-3.8-18.5-1.19-5.17 2.2-7.52 6.85-8.64 11.94l-.74 2.75c-.22.82.43 1.43 1.25 1.65 14.62 3.9 29.29 7.65 43.94 11.46 7.04 1.84 12.79 3.18 19.76 5.28 2.35.7 5.1 1.37 8.21 1.83 1.52.22 1.88-3.25 2.23-4.6zM55.33 79.54a2.8 2.8 0 00-2.33.3 3.46 3.46 0 00-1.42 2.13c-.25.95-.2 1.78.16 2.5s1 1.2 1.91 1.45c.9.24 1.68.15 2.34-.28a3.44 3.44 0 001.39-2.12c.26-.97.2-1.81-.16-2.54a2.8 2.8 0 00-1.89-1.44z" clip-rule="evenodd"/>
  <path fill="#00F000" fill-rule="evenodd" d="M58.71 89.34c-1.62.72-3.58.77-5.87.15-2.3-.61-3.98-1.64-5.03-3.08a5.5 5.5 0 01-.85-4.92c.31-1.15.9-2.07 1.75-2.77a6.43 6.43 0 013.07-1.32 5.85 5.85 0 01-1.7-2.47 4.87 4.87 0 01-.08-2.9 5.45 5.45 0 013.02-3.74c1.54-.72 3.38-.79 5.54-.21 2.14.57 3.7 1.55 4.68 2.93a5.42 5.42 0 01.75 4.77 4.82 4.82 0 01-1.52 2.47 5.88 5.88 0 01-2.72 1.28 6.55 6.55 0 012 2.7c.4 1.02.45 2.1.14 3.26a5.52 5.52 0 01-3.18 3.85zm39.07-21.89c.19-.85.37-1.78-.02-2.59-.54-1.14-1.95-1.62-3.21-1.97a2928.93 2928.93 0 00-70.97-18.8l-.42 1-9.37 38.29c-.59 2.38-1.15 5-.01 7.24a8.86 8.86 0 005.43 4.42c20.09 5.46 36.03 10.1 54.2 14.34 2.64.62 7.4 2.13 9.65.76 2.12-1.29 3.64-3.77 4.24-6.11 3.23-12.52 7.72-24.14 10.48-36.58z" clip-rule="evenodd"/>
  <path fill="#00F000" fill-rule="evenodd" d="M56.56 76.95c.77.2 1.43.1 1.98-.29.56-.39.95-1 1.17-1.83a3 3 0 00-.11-2.13 2.3 2.3 0 00-1.6-1.22 2.32 2.32 0 00-1.96.25c-.55.36-.94.96-1.16 1.8-.22.83-.2 1.56.1 2.18.28.62.81 1.03 1.58 1.24z" clip-rule="evenodd"/>
  <mask id="a" width="22" height="22" x="101" y="30" maskUnits="userSpaceOnUse">
    <path fill="#fff" fill-rule="evenodd" d="M106 30.63l16.8 4.5-4.4 16.43-16.8-4.5 4.4-16.43z" clip-rule="evenodd"/>
  </mask>
  <g mask="url(#a)">
    <path fill="#00F000" fill-rule="evenodd" d="M109.2 44.87c.06-2.05-.14-4.1-1.08-6.01l-.15-.3a7.03 7.03 0 005-1.5c.21 1.77.98 3.4 2.21 4.7-2.3.2-4.3 1.36-5.98 3.1zm10.87-2.22l-.24-.1c-3.78-1.47-5.63-4.72-4.58-8.43.3-1.03-1.38-1.83-1.88-.8-1.34 2.81-3.89 3.87-6.8 3.34-.41-.3-.88-.46-1.4-.35h-.03c-.47-.16-.79.2-.8.58-.18.56.29 1.29 1.02 1.11 1.21-.29 1.94 4.89 1.97 5.46.07 1.46-.1 2.93-.25 4.38-.09.94 1.31 1.21 1.77.5 2.1-3.24 5.16-5.82 9.22-4.52.4.19.82.36 1.26.5 1.02.32 1.76-1.24.74-1.67z" clip-rule="evenodd"/>
  </g>
  <path fill="#00F000" fill-rule="evenodd" d="M47.17 15.81a9.02 9.02 0 00-1.4-4.2l-.14-.2a5.06 5.06 0 003.49-1.46 6.15 6.15 0 002.09 3.18c-1.66.33-3 1.3-4.04 2.68zm7.7-2.44l-.2-.05c-2.9-.75-4.58-2.92-4.2-5.64.12-.76-1.2-1.2-1.44-.42-.7 2.11-2.45 3.06-4.62 2.92-.33-.2-.68-.27-1.05-.14h-.03c-.35-.08-.55.2-.52.47-.08.41.34.9.86.72.85-.3 1.91 3.32 2 3.72.2 1.04.22 2.1.27 3.15.02.67 1.08.76 1.33.22 1.2-2.48 3.17-4.56 6.26-3.95.3.1.63.19.97.25.77.15 1.15-1.02.36-1.25zM20.64 20.16c.11-.22.2-.46.27-.7.14.14.3.26.47.34.17.08.35.12.54.14l-.04.05c-.16.26-.24.52-.28.8-.28-.29-.6-.51-.96-.63zm2.8-1.02c.02-.23-.15-.43-.43-.39-.48.07-.92.45-1.39.1-.32-.25-.5-.67-.68-1.02-.25-.49-.95-.19-.87.32.11.68-.01 1.32-.22 1.96h-.08c-.38.1-.5.75-.04.85 1 .21 1.46.78 1.98 1.63.34.56 1.1.12.88-.48-.33-.89-.06-1.87.87-2.15a.42.42 0 00-.01-.82z" clip-rule="evenodd"/>
</svg>
