<svg xmlns="http://www.w3.org/2000/svg" fill="none" viewBox="0 0 132 117">
  <defs/>
  <path fill="#00F000" fill-rule="evenodd" d="M97.16 24.67c2.72-6.17 4.45-14.34 10.1-18.73 3.64-2.83 10.01 1.19 8.52 5.83-1.21 3.76-4.14 7.04-6.94 9.77-2.46 2.38-4.85 5.07-8.1 6.3-.9.34-2.08.13-2.76-.55-.71-.7-1.26-1.63-.82-2.62zM85.81 107.64c-8.42-2.1-11.04-11.62-17.8-15.45-.65-.37-1.34-.27-1.96 0A2.37 2.37 0 0064 90.05c-8.85-1.57-13.11 10.77-21.47 10.43-7.3-.29-2.98-8.67-1.82-12.73 1.26-4.4 2.67-8.82 3.09-13.38a3.32 3.32 0 002.8-4.28c-1.93-5.88-16.14-11.69-13.64-17.54 1.74-4.08 9.8-3.6 13.8-3.43 4.69.2 9.23 1.55 13.87 1.64 2 .03 3.57-1.75 3.15-3.43 1.68-2.7 3.37-5.38 4.96-8.14 2.09-3.62 5.02-10.32 9.22-11.92 8.93-3.4 8.06 14.8 8.37 22.11-1.61.67-2.06 3.17-.62 4.26 6.5 4.97 15.42 5.58 21.75 10.98 9.07 7.76-13.6 8.81-17.48 9.59-3.6.72-4.04 4.48-1.75 6.36a2.84 2.84 0 00-.34 1.83c.79 4.77 8.1 27.78-2.08 25.23zm9.3-25.49c10.05.28 24.74-4.17 23.85-14.49-.83-9.54-14.46-15.7-24.93-17.77 2.34-9.97-.35-27.93-11.08-30.55-12.28-3-19.26 14.74-23.22 24.58-5.04-2.62-11.3-3.2-16.83-3.07-5.52.12-13.37.82-17.28 5.28-8.7 9.93 6.39 20.3 14.14 26.16-4.2 6.21-6.84 14.34-9 21.34-1.57 5.14-.52 10 4.2 13.08 4.82 3.13 10.56 2.57 15.46-.02 3.14-1.64 5.69-3.9 8.35-6.2 1.79-1.54 3.93-2.93 5.57-4.66.2 5.55 5.3 10.93 9.26 14.34 4.5 3.91 10.75 7.67 17.01 6.67 14.95-2.41 8.95-24.98 4.5-34.69zM48.23 25.15c-3.68-5.77-9.54-11.78-10.21-19.17-.42-4.76 6.28-8.17 9.35-4.3 2.48 3.12 3.66 7.5 4.43 11.47.68 3.47 1.66 7.07.96 10.6a2.8 2.8 0 01-1.92 2.12c-.95.24-2.02.21-2.61-.72zM23.32 78.48c-5.16 4.05-10.37 10.29-17.26 11.46-4.44.75-8.14-5.64-4.73-8.95 2.76-2.68 6.78-4.16 10.45-5.2 3.22-.92 6.52-2.14 9.89-1.7a2.7 2.7 0 012.13 1.76c.3.92.35 1.98-.48 2.63z" clip-rule="evenodd"/>
  <mask id="a" width="25" height="14" x="107" y="32" maskUnits="userSpaceOnUse">
    <path fill="#fff" fill-rule="evenodd" d="M107.07 32h24.58v13.5h-24.58V32z" clip-rule="evenodd"/>
  </mask>
  <g mask="url(#a)">
    <path fill="#00F000" fill-rule="evenodd" d="M108.39 38.5c5.01-2.2 10.35-3.59 15.31-5.93 6.83-3.23 11.51 8.44 4.43 10.97-7 2.5-13.94 3.15-20.25-1.34-1.35-.96-.9-3.09.5-3.7z" clip-rule="evenodd"/>
  </g>
</svg>
