<svg xmlns="http://www.w3.org/2000/svg" fill="none" viewBox="0 0 156 157">
  <defs/>
  <path fill="#fff" fill-rule="evenodd" d="M92.17 126.1c-3.5 2.84-8.04 4.25-13.63 4.25-5.7 0-10.27-1.4-13.75-4.25-3.47-2.82-5.21-6.94-5.21-12.31 0-3.28.98-6.16 2.95-8.66a17.09 17.09 0 017.99-5.52 14.8 14.8 0 01-6.83-5.07 13.24 13.24 0 01-2.47-7.97c0-5.1 1.57-9.06 4.73-11.83 3.15-2.78 7.32-4.17 12.5-4.17 5.12 0 9.3 1.4 12.53 4.17 3.23 2.77 4.84 6.72 4.84 11.83 0 3.04-.86 5.69-2.55 7.97a15.3 15.3 0 01-6.9 5.07 17.53 17.53 0 018.04 5.52c2 2.5 3.01 5.39 3.01 8.66 0 5.37-1.75 9.49-5.25 12.31zM1 44.91v78.96S1.08 156 32.9 156h91.93S156 155.7 156 123.87V44.91H1zM156 38.81v-6.87S156.65 1 124.83 1H32.9S1 .13 1 31.94v6.87h155z" clip-rule="evenodd"/>
  <path fill="#fff" fill-rule="evenodd" d="M78.45 102.7c-3.26 0-5.91 1.02-7.95 3.06-2.04 2.05-3.05 4.67-3.05 7.85 0 3.29 1.01 5.88 3.03 7.75 2.03 1.87 4.7 2.8 8.06 2.8 3.28 0 5.94-.93 7.98-2.83 2.05-1.88 3.08-4.45 3.08-7.72 0-3.18-1.05-5.8-3.16-7.85a11 11 0 00-7.99-3.07zM78.54 96.52c2.77 0 5.03-.9 6.79-2.69 1.75-1.77 2.63-4.13 2.63-7.1 0-2.87-.9-5.25-2.7-7.14a9.01 9.01 0 00-6.81-2.83 8.9 8.9 0 00-6.77 2.73c-1.73 1.82-2.6 4.23-2.6 7.23 0 2.98.87 5.34 2.61 7.11 1.75 1.79 4.03 2.69 6.85 2.69z" clip-rule="evenodd"/>
</svg>
