<svg xmlns="http://www.w3.org/2000/svg" fill="none" viewBox="0 0 404 911">
  <defs/>
  <ellipse cx="192" cy="896.5" fill="#294754" rx="192" ry="14.5"/>
  <path fill="#1D1D1B" fill-rule="evenodd" d="M372.88 196.23c-30.98-34.23-59.53-33.4-79-21.98l-.86-.8c-3.83-3.62-19.41-18.53-22.71-25.76l-65.66-8.48-36.65-4.73c-.04 3.85-6 16.38-6.35 17.78-.18.73-5.1 4.08-11.33 8.47a321.8 321.8 0 00-12.52 9.18 142.63 142.63 0 00-4 3.2l-.69.59-1.5-.49c-.93-.27-2.28-.68-3.94-1.13-3.19-.89-7.56-2-12.51-2.95-11.25-2.2-25.51-3.68-35.72-.17-19.46 6.69-36.66 16.45-50.8 48.75-8.7 19.85-9.94 39.39-7.6 54.09 1.47 9.22 4.35 16.53 7.68 20.82 0 0 20.7-9.3 41.87-7.24a75.9 75.9 0 0119.93 4.95 94.13 94.13 0 0118.66 9.83l.02.66c0 .41.03 1.04.06 1.84.1 2.76.3 7.66.59 13.99 1.07 22.2 3.58 62.03 8.6 89.33a179.29 179.29 0 002.67 12.26l1.35 5.2 1.59 6.08a4850.46 4850.46 0 013.12 11.91l.95 3.61.3 1.17.65 2.41.49 1.83.53 1.99c.25.94.5 1.83.73 2.73l.72 2.58c0 .07.02.1.03.15l.65 2.33.44 1.57c.15.52.3 1.01.43 1.52l.31 1.06.3 1.02.29.97.29.95c.47 1.59.93 3.05 1.36 4.37l.23.67c.34.99.65 1.88.96 2.7l.16.4a30.58 30.58 0 001.12 2.6c.26.54.5.98.75 1.3.06.08.11.17.17.23a1.13 1.13 0 00.17.2c.11.12.22.2.33.27.72.46 3.77 1.27 8.45 2.22 15.1 3.1 47.06 7.87 71.37 8.08 24.29.21 58.84-3.63 75.18-7.2 5.07-1.09 8.39-2.17 9.11-3.1 1.26-1.6 3.25-7.7 5.66-16.95 2.96-11.37 6.52-27.48 10.05-45.81.63-3.25 1.25-6.56 1.88-9.92 4.77-25.94.75-43.9-2.27-52.64-1.37-4-2.53-6.07-2.56-6.1.19-2.29.82-4.39 2.04-5.88 26.06-32 50.43-45.1 62.09-49.94a30.62 30.62 0 017.2-2.53s1.55-5.75 2.76-14.7c2.7-19.94 3.75-55.74-17.63-79.36z" clip-rule="evenodd"/>
  <path fill="#575756" fill-rule="evenodd" d="M293.02 173.45c-11.68 21.79-34.5 49.92-70.92 47.9-39.07-2.15-62.4-41.64-71.78-60.62 6.24-4.39 11.15-7.74 11.33-8.48.34-1.4 6.31-13.92 6.35-17.78l102.3 13.22c3.3 7.24 18.88 22.14 22.72 25.76z" clip-rule="evenodd"/>
  <mask id="a" width="16" height="34" x="273" y="97" maskUnits="userSpaceOnUse">
    <path fill="#fff" fill-rule="evenodd" d="M276.42 100.6s-1.14 3.62-2.6 12.1c-1.46 8.46 0 18.1 0 18.1 4.81-3.09 8.23-7.71 10.5-12.5 3.84-8.04 4.45-16.51 3.04-18.87a3.9 3.9 0 00-3.34-2h-.23c-2.28 0-4.99 1.47-7.37 3.16z" clip-rule="evenodd"/>
  </mask>
  <g mask="url(#a)">
    <path fill="url(#paint0_linear)" fill-rule="evenodd" d="M276.42 100.6s-1.14 3.62-2.6 12.1c-1.46 8.46 0 18.1 0 18.1 4.81-3.09 8.23-7.71 10.5-12.5 3.84-8.04 4.45-16.51 3.04-18.87a3.9 3.9 0 00-3.34-2h-.23c-2.28 0-4.99 1.47-7.37 3.16z" clip-rule="evenodd"/>
  </g>
  <path fill="#E79378" fill-rule="evenodd" d="M285 118.64c-2.25 4.73-5.62 9.3-10.36 12.36 0 0-1.44-9.53 0-17.9 1.44-8.38 2.57-11.97 2.57-11.97 2.42-1.73 5.2-3.23 7.49-3.13-2.22 9.2-3.25 15.96.3 20.64z" clip-rule="evenodd"/>
  <mask id="b" width="103" height="100" x="176" y="49" maskUnits="userSpaceOnUse">
    <path fill="#fff" fill-rule="evenodd" d="M207.96 51.18c-15.72 3.12-15.19 6.88-15.17 10.26.02 3.4.86 29.78-15.82 40.64 0 0 2.63 14.8 9 22.6 6.36 7.8 36.57 17.82 54.86 21.61 18.27 3.78 20.77 2.13 26.97-3.56 3.22-2.98 5.82-9.94 7.03-13.68.48-1.5.75-2.47.75-2.47l.01.03c1.3-20.28 4.9-45.9 1.92-57.36a22.18 22.18 0 00-4.28-8.2 30.68 30.68 0 00-3.13-3.34c-3.75.15-7.96-.7-13.2-2.33-9.47-2.94-22.54-5.44-34.99-5.44-4.82 0-9.55.37-13.95 1.24z" clip-rule="evenodd"/>
  </mask>
  <g mask="url(#b)">
    <path fill="url(#paint1_linear)" fill-rule="evenodd" d="M207.96 51.18c-15.72 3.12-15.19 6.88-15.17 10.26.02 3.4.86 29.78-15.82 40.64 0 0 2.63 14.8 9 22.6 6.36 7.8 36.57 17.82 54.86 21.61 18.27 3.78 20.77 2.13 26.97-3.56 3.22-2.98 5.82-9.94 7.03-13.68.48-1.5.75-2.47.75-2.47l.01.03c1.3-20.28 4.9-45.9 1.92-57.36a22.18 22.18 0 00-4.28-8.2 30.68 30.68 0 00-3.13-3.34c-3.75.15-7.96-.7-13.2-2.33-9.47-2.94-22.54-5.44-34.99-5.44-4.82 0-9.55.37-13.95 1.24z" clip-rule="evenodd"/>
  </g>
  <mask id="c" width="20" height="42" x="153" y="93" maskUnits="userSpaceOnUse">
    <path fill="#fff" fill-rule="evenodd" d="M154.97 101.86c-3.13 7.68.56 21.9 8.78 29.03a18.02 18.02 0 005.78 3.43c1.33-8.61 3.12-15.92 2.93-24.07-.09-3.84-1.34-9.07-2.56-14.8a6.05 6.05 0 00-4.83-2.3c-3.56-.01-7.69 2.78-10.1 8.7z" clip-rule="evenodd"/>
  </mask>
  <g mask="url(#c)">
    <path fill="url(#paint2_linear)" fill-rule="evenodd" d="M154.97 101.86c-3.13 7.68.56 21.9 8.78 29.03a18.02 18.02 0 005.78 3.43c1.33-8.61 3.12-15.92 2.93-24.07-.09-3.84-1.34-9.07-2.56-14.8a6.05 6.05 0 00-4.83-2.3c-3.56-.01-7.69 2.78-10.1 8.7z" clip-rule="evenodd"/>
  </g>
  <path fill="#F58D75" fill-rule="evenodd" d="M160.76 100.27c5.56 2.52 11.04 12.33 11.62 18.37.58 6.03-1.24 9.06-3.46 8.77-2.23-.3-9.29-12.52-1.6-14.46 0 0-2.07-6.17-4.77-8.67-2.7-2.5-1.79-4.01-1.79-4.01z" clip-rule="evenodd"/>
  <path fill="#E79378" fill-rule="evenodd" d="M166.64 125.29c4.33-7.8.49-25.45-1.4-32.26 1.94 0 3.7.8 4.95 2.32 1.25 5.73 2.54 10.95 2.63 14.78.19 8.16-1.64 15.47-3 24.08a18.35 18.35 0 01-5.93-3.44c.58-1.4 1.48-3.18 2.75-5.48zM276.88 122.34c-1.22 3.74-4.92 10.97-9 12.62-35.51 14.33-75.06-2.3-81.46-10.11-6.4-7.81-9.05-22.65-9.05-22.65 16.78-10.9 15.93-37.33 15.91-40.72-.02-3.4-.55-7.17 15.26-10.3 15.82-3.12 36 .12 49.23 4.22 5.26 1.63 9.5 2.48 13.27 2.32a31.35 31.35 0 013.15 3.36c-5.5.43-13.9-1.05-28.6-5.25-16.88-4.83-43.6-2.32-47.25 4.73-3.64 7.05-2.4 29.1-7.84 33.92-5.43 4.81 2.23 20.23 3.11 21.23 8.33 9.54 22.98 2.58 40.26 8.06 17.26 5.47 36.39 2.2 43.01-1.43z" clip-rule="evenodd"/>
  <mask id="d" width="129" height="219" x="163" y="1" maskUnits="userSpaceOnUse">
    <path fill="#fff" fill-rule="evenodd" d="M250.94 1.67c-.59 0-1.18 0-1.77.03l-.56.01c-2.51.1-5.06.34-7.62.7-.3.06-.62.1-.92.15-8.96 1.4-17.92 4.5-25.23 9.17C196.54 23.45 186 41.48 186 41.48c-3.09-1.9-1.6-14.61-1.6-14.61-5.8 5.38-5.53 16.58-5.26 20.24l.1 1.18c-8.43-3.88-15.47 8.23-16.1 20.8-.32 6.88 1.59 14.42 3.5 21.21 1.6 5.62 3.17 10.74 3.47 14.56.66 8.1-.74 15.47-1.6 24.1a110.5 110.5 0 00-.6 12.44l.01 1.68.01 1.16.02 1.8v.87a253.23 253.23 0 00.18 6.55c0 .23.01.44.03.66l.03.76.04.75.05.8.05.77.13 1.58.05.65c.1 1.22.25 2.47.4 3.74l.11.81.3 2.04.11.65c.19 1.16.4 2.33.66 3.5l.15.7c.06.32.15.64.22.97l.12.5c.35 1.46.75 2.93 1.2 4.4l.16.5.32.99.02.07c.11.3.2.61.32.9a54.79 54.79 0 00.92 2.47c.2.51.42 1.02.64 1.53l.62 1.4.03.06c.37.79.75 1.58 1.16 2.36l.28.54a24.48 24.48 0 00.8 1.44l.52.9.32.53.29.48.27.42.3.47.3.47a53.86 53.86 0 003.06 4.17l.85 1.03c.6.71 1.23 1.42 1.88 2.12l.69.73.7.73.57.57c.75.76 1.5 1.48 2.28 2.2.47.44.96.87 1.45 1.31.04.05.1.09.15.13.96.85 1.93 1.66 2.92 2.44.16.1.3.23.46.35l.6.46c.6.44 1.21.9 1.82 1.32l.61.43.51.34a58.7 58.7 0 003.29 2.04c.32.2.64.37.96.55l.63.34.5.26.59.3c.68.35 1.37.69 2.07 1l.53.24a47.13 47.13 0 004.9 1.87c.17.07.34.11.52.17a60.31 60.31 0 002.9.8l.56.14.06.02.54.12.6.13c.23.05.47.1.7.13l.65.13c.26.04.51.1.78.13l.67.11.12.01a32.85 32.85 0 001.87.24l.52.05a48.33 48.33 0 002.92.2l.47.01c.25 0 .5.02.74.03h1.5l.75-.03.45-.01c.16 0 .32 0 .48-.02.22 0 .43-.03.65-.04.15 0 .31 0 .47-.02l.44-.03.71-.06.52-.05.13-.02.7-.06.76-.1c.26-.02.52-.06.77-.1l.28-.04c.42-.06.85-.12 1.28-.2l.78-.14c.27-.04.53-.1.79-.13l.79-.17.47-.1.7-.15.87-.2 1.2-.3.75-.2.55-.16.5-.14 1.38-.42.82-.26.83-.27a82.97 82.97 0 005.25-2l.6-.24.65-.3a4.77 4.77 0 00.59-.27l.35-.17.58-.3.7-.37c.19-.1.37-.22.56-.33l.35-.2c.76-.46 1.5-.93 2.2-1.45a25.56 25.56 0 001.91-1.48c.16-.12.3-.25.45-.38l.06-.05a6.6 6.6 0 00.55-.5c.27-.23.52-.46.79-.72l.43-.43.36-.35.17-.17.34-.36.42-.45.83-.93c.12-.16.26-.32.4-.48l.4-.48c.25-.33.52-.65.77-.99l.38-.49.37-.5.7-1.01.4-.6c.12-.16.21-.33.33-.5.1-.16.23-.34.33-.52l.67-1.1.33-.55a44.83 44.83 0 00.58-1.03 69.51 69.51 0 001.7-3.33l.38-.78c.23-.51.46-1 .67-1.51a29.36 29.36 0 00.7-1.68l.63-1.61.3-.82.3-.83a73.76 73.76 0 001.58-4.94l.21-.73.48-1.77.36-1.44.06-.22.2-.82.38-1.7a116.13 116.13 0 001.1-5.63l.13-.78c.05-.27.1-.53.12-.8a130.5 130.5 0 001.1-8.89l.06-.68.1-1.33.03-.5.02-.3.03-.49c.01-.2.02-.4.05-.62l.02-.6.04-.6.07-2.13.01-.4a64.98 64.98 0 00-.1-6.13c-.3-3.99-1.15-11.15-2.1-16.12-.63-3.33-1.3-5.67-1.88-5.36h-.01c-.26.2-7.18 5.28-14.72 10.4-19.45 13.21-69.19-.11-75.57-7.9-6.39-7.79-9.03-22.57-9.03-22.57 14.4-9.33 15.8-30.1 15.89-37.9v-.6l-.01-2.06-.01-.4c0-.47 0-.95.04-1.43a5.09 5.09 0 011.37-3.09c.2-.22.43-.43.68-.64 1.96-1.63 5.78-3.22 13.15-4.68 2.77-.54 5.69-.9 8.66-1.09l1-.05h.01a107.3 107.3 0 0122.69 1.46c3.63.59 7.13 1.3 10.39 2.12h.01a113.36 113.36 0 016.38 1.75c5.25 1.63 9.47 2.47 13.24 2.32 5.7-.24 10.35-2.8 15.87-8.53a15.9 15.9 0 002.62-3.67c4.43-8.58 1.94-21.92-6.95-32.14a40.59 40.59 0 00-7.06-6.4 26.68 26.68 0 00-3.05-1.87l-.76-.37a36.56 36.56 0 00-7.96-2.69c-1.3-.29-2.66-.53-4.05-.72l-.52-.07c-2.43-.3-4.97-.46-7.56-.47h-.35z" clip-rule="evenodd"/>
  </mask>
  <g mask="url(#d)">
    <path fill="url(#paint3_linear)" fill-rule="evenodd" d="M250.94 1.67c-.59 0-1.18 0-1.77.03l-.56.01c-2.51.1-5.06.34-7.62.7-.3.06-.62.1-.92.15-8.96 1.4-17.92 4.5-25.23 9.17C196.54 23.45 186 41.48 186 41.48c-3.09-1.9-1.6-14.61-1.6-14.61-5.8 5.38-5.53 16.58-5.26 20.24l.1 1.18c-8.43-3.88-15.47 8.23-16.1 20.8-.32 6.88 1.59 14.42 3.5 21.21 1.6 5.62 3.17 10.74 3.47 14.56.66 8.1-.74 15.47-1.6 24.1a110.5 110.5 0 00-.6 12.44l.01 1.68.01 1.16.02 1.8v.87a253.23 253.23 0 00.18 6.55c0 .23.01.44.03.66l.03.76.04.75.05.8.05.77.13 1.58.05.65c.1 1.22.25 2.47.4 3.74l.11.81.3 2.04.11.65c.19 1.16.4 2.33.66 3.5l.15.7c.06.32.15.64.22.97l.12.5c.35 1.46.75 2.93 1.2 4.4l.16.5.32.99.02.07c.11.3.2.61.32.9a54.79 54.79 0 00.92 2.47c.2.51.42 1.02.64 1.53l.62 1.4.03.06c.37.79.75 1.58 1.16 2.36l.28.54a24.48 24.48 0 00.8 1.44l.52.9.32.53.29.48.27.42.3.47.3.47a53.86 53.86 0 003.06 4.17l.85 1.03c.6.71 1.23 1.42 1.88 2.12l.69.73.7.73.57.57c.75.76 1.5 1.48 2.28 2.2.47.44.96.87 1.45 1.31.04.05.1.09.15.13.96.85 1.93 1.66 2.92 2.44.16.1.3.23.46.35l.6.46c.6.44 1.21.9 1.82 1.32l.61.43.51.34a58.7 58.7 0 003.29 2.04c.32.2.64.37.96.55l.63.34.5.26.59.3c.68.35 1.37.69 2.07 1l.53.24a47.13 47.13 0 004.9 1.87c.17.07.34.11.52.17a60.31 60.31 0 002.9.8l.56.14.06.02.54.12.6.13c.23.05.47.1.7.13l.65.13c.26.04.51.1.78.13l.67.11.12.01a32.85 32.85 0 001.87.24l.52.05a48.33 48.33 0 002.92.2l.47.01c.25 0 .5.02.74.03h1.5l.75-.03.45-.01c.16 0 .32 0 .48-.02.22 0 .43-.03.65-.04.15 0 .31 0 .47-.02l.44-.03.71-.06.52-.05.13-.02.7-.06.76-.1c.26-.02.52-.06.77-.1l.28-.04c.42-.06.85-.12 1.28-.2l.78-.14c.27-.04.53-.1.79-.13l.79-.17.47-.1.7-.15.87-.2 1.2-.3.75-.2.55-.16.5-.14 1.38-.42.82-.26.83-.27a82.97 82.97 0 005.25-2l.6-.24.65-.3a4.77 4.77 0 00.59-.27l.35-.17.58-.3.7-.37c.19-.1.37-.22.56-.33l.35-.2c.76-.46 1.5-.93 2.2-1.45a25.56 25.56 0 001.91-1.48c.16-.12.3-.25.45-.38l.06-.05a6.6 6.6 0 00.55-.5c.27-.23.52-.46.79-.72l.43-.43.36-.35.17-.17.34-.36.42-.45.83-.93c.12-.16.26-.32.4-.48l.4-.48c.25-.33.52-.65.77-.99l.38-.49.37-.5.7-1.01.4-.6c.12-.16.21-.33.33-.5.1-.16.23-.34.33-.52l.67-1.1.33-.55a44.83 44.83 0 00.58-1.03 69.51 69.51 0 001.7-3.33l.38-.78c.23-.51.46-1 .67-1.51a29.36 29.36 0 00.7-1.68l.63-1.61.3-.82.3-.83a73.76 73.76 0 001.58-4.94l.21-.73.48-1.77.36-1.44.06-.22.2-.82.38-1.7a116.13 116.13 0 001.1-5.63l.13-.78c.05-.27.1-.53.12-.8a130.5 130.5 0 001.1-8.89l.06-.68.1-1.33.03-.5.02-.3.03-.49c.01-.2.02-.4.05-.62l.02-.6.04-.6.07-2.13.01-.4a64.98 64.98 0 00-.1-6.13c-.3-3.99-1.15-11.15-2.1-16.12-.63-3.33-1.3-5.67-1.88-5.36h-.01c-.26.2-7.18 5.28-14.72 10.4-19.45 13.21-69.19-.11-75.57-7.9-6.39-7.79-9.03-22.57-9.03-22.57 14.4-9.33 15.8-30.1 15.89-37.9v-.6l-.01-2.06-.01-.4c0-.47 0-.95.04-1.43a5.09 5.09 0 011.37-3.09c.2-.22.43-.43.68-.64 1.96-1.63 5.78-3.22 13.15-4.68 2.77-.54 5.69-.9 8.66-1.09l1-.05h.01a107.3 107.3 0 0122.69 1.46c3.63.59 7.13 1.3 10.39 2.12h.01a113.36 113.36 0 016.38 1.75c5.25 1.63 9.47 2.47 13.24 2.32 5.7-.24 10.35-2.8 15.87-8.53a15.9 15.9 0 002.62-3.67c4.43-8.58 1.94-21.92-6.95-32.14a40.59 40.59 0 00-7.06-6.4 26.68 26.68 0 00-3.05-1.87l-.76-.37a36.56 36.56 0 00-7.96-2.69c-1.3-.29-2.66-.53-4.05-.72l-.52-.07c-2.43-.3-4.97-.46-7.56-.47h-.35z" clip-rule="evenodd"/>
  </g>
  <path fill="#FF8D31" fill-rule="evenodd" d="M270.45 195.38c-.18.34-.36.7-.55 1.03.02-12.84.08-25.65-2.53-38.33-.06-.35.46-.53.53-.17 2.56 12.4 2.57 24.92 2.56 37.47zM240.62 217.78c-.19.06-.38.1-.58.15.7-4.06 1.14-8.15 1.42-12.22.86-12.88.03-25.84-1.92-38.59-.05-.35.52-.38.57-.03 2 13.22 2.83 26.66 1.8 40.01-.28 3.56-.7 7.14-1.29 10.68zM251.32 214.18c-.19.09-.38.16-.58.24 1-8.58 1.1-17.28.67-25.9-.02-.36.53-.39.55-.03.43 8.54.34 17.18-.64 25.7zM207.79 162c-2.64 10.09-5.54 20.16-9.69 29.75a89.08 89.08 0 01-7.16 13.68l-.4-.36a88.41 88.41 0 007.39-14.32c3.92-9.35 6.76-19.09 9.31-28.88.1-.35.64-.23.55.12zM191.55 173.03c-3.63 6.46-8 12.63-13.36 17.77l-.3-.48c5.27-5.08 9.59-11.18 13.16-17.55.18-.3.67-.05.5.26zM179.35 148.25c-3.48 3.73-7.36 7.24-10.84 11.06l-.06-.75c3.38-3.67 7.13-7.08 10.5-10.68.24-.27.66.1.4.37zM175.02 138.22c-2.31 2.85-4.76 5.6-7.07 8.43l-.01-.87c2.2-2.66 4.49-5.24 6.67-7.92.22-.29.63.09.4.36zM216.6 181.2c-2.58 9.14-3.93 18.57-6.57 27.7-.66 2.3-1.4 4.7-2.26 7.07l-.48-.2c1.03-2.84 1.87-5.73 2.6-8.45 2.37-8.67 3.72-17.59 6.16-26.23.1-.35.65-.23.54.11z" clip-rule="evenodd"/>
  <path fill="#F58D75" fill-rule="evenodd" d="M190.3 111.57c-2.69 3.2 3.92 12.6 7.72 9.53 4.6-3.7-3.52-14.51-7.72-9.53zM267.14 118.94c3.07 2.02 11.7-7.9 6.84-10.33-4.88-2.42-11.68 7.13-6.84 10.33z" clip-rule="evenodd"/>
  <path fill="#E1521A" fill-rule="evenodd" d="M280.74 150.34l-.01.39-.08 2.13-.03.6-.03.61-.04.63a7.03 7.03 0 01-.06.8l-.03.49-.1 1.33-.06.69-.06.7c-.1 1.05-.22 2.13-.35 3.24l-.13 1.12-.1.76a109.74 109.74 0 01-.57 3.88l-.14.8-.06.4c-.3 1.72-.64 3.48-1.03 5.25-.13.56-.25 1.13-.4 1.7-.05.27-.12.55-.19.82l-.05.22-.37 1.45c-.15.6-.3 1.18-.48 1.78l-.2.72c-.32 1.1-.66 2.21-1.03 3.32l-.56 1.65-.3.82a45.85 45.85 0 01-.93 2.45l-.33.8-.37.88c-.21.51-.44 1-.68 1.51-.11.27-.24.52-.36.78l-.37.78-.4.77c-.21.44-.43.87-.66 1.29l-.28.51c-.1.16-.18.32-.27.49l-.32.55a20 20 0 01-.33.55c-.22.37-.43.74-.66 1.1-.1.18-.23.36-.34.53-.11.17-.2.34-.32.5l-.4.6-.7 1-.38.5-.38.5-.77 1c-.14.15-.26.32-.4.48l-.4.48-.83.93-.42.45-.34.36c-.06.05-.12.11-.16.18-.13.1-.24.23-.37.35a36.26 36.26 0 01-1.22 1.16l-.2.19-.35.3-.06.05-.45.38a25.74 25.74 0 01-1.91 1.48 27.2 27.2 0 01-3.82 2.37l-.58.3-.35.17c-.07.03-.14.08-.23.1l-.36.17-.65.3-1.2.5c-1.07.44-2.14.85-3.2 1.24l-1.46.5-.82.28-.82.26c-.47.14-.93.29-1.4.41-.16.06-.33.1-.49.15l-.55.16-.75.2-1.2.3-.88.2-.7.16-.47.1-.79.16-.78.14-.79.14a55.37 55.37 0 01-1.55.24l-.78.1-.77.1-.7.07-.11.01-.53.05-.71.05-.44.03-.47.03-.65.04-.48.02a422.07 422.07 0 01-1.2.04h-1.49a32.65 32.65 0 00-1.22-.04l-.44-.02c-.84-.04-1.67-.1-2.5-.17l-.5-.06-1.24-.15c-.21-.03-.43-.05-.64-.09l-.12-.02-.67-.1-.78-.14c-.22-.04-.43-.07-.64-.12a28.9 28.9 0 01-1.31-.26l-.55-.13-.04-.01-.57-.14a46.9 46.9 0 01-2.9-.81l-.52-.16-.56-.19c-.34-.12-.69-.23-1.03-.36-1.12-.4-2.23-.85-3.32-1.33l-.53-.25a39.22 39.22 0 01-2.67-1.3l-.49-.26-.63-.34-.97-.56-.51-.3a55.81 55.81 0 01-2.77-1.74l-.51-.34-.62-.43a77.06 77.06 0 01-2.42-1.8c-.16-.1-.3-.23-.46-.35a71.03 71.03 0 01-4.53-3.89 70.54 70.54 0 01-2.28-2.2l-.56-.58a97.92 97.92 0 01-1.4-1.46 52.02 52.02 0 01-2.73-3.16 53.55 53.55 0 01-3.06-4.19l-.3-.46-.31-.48c-.2-.3-.38-.6-.56-.9l-.31-.53c-.19-.3-.36-.6-.53-.9l-.3-.54-.5-.9-.28-.55c-.4-.78-.79-1.57-1.15-2.37l-.03-.06a54.17 54.17 0 01-1.26-2.94l-.2-.5a88.1 88.1 0 01-.74-1.97l-.3-.91a.26.26 0 01-.03-.07l-.32-1c-.06-.15-.1-.32-.15-.48a76.24 76.24 0 01-1.55-5.9l-.15-.7a74.68 74.68 0 01-.66-3.52 71.6 71.6 0 01-.4-2.7l-.12-.82c-.16-1.26-.3-2.52-.4-3.75l-.06-.65-.12-1.58-.05-.78-.05-.8-.04-.75-.04-.76-.03-.66-.05-1.17-.02-.73a264.6 264.6 0 01-.1-4.68v-.87l-.02-1.8-.02-1.17-.01-1.69c-.06-4.53.22-8.62.6-12.48.86-8.66 2.27-16.06 1.62-24.18-.31-3.83-1.9-8.97-3.49-14.61-1.91-6.81-3.82-14.37-3.5-21.27.62-12.62 7.68-24.77 16.12-20.88 0 0-.05-.43-.11-1.19 2.74 5.95 5.04 11.32 1.91 21.66-4.24 14.01-4.81 24.65-4.22 36.77.6 12.1 6.8 31.75 9.96 61.36 3.17 29.62 30.55 42.48 50.2 38.28 19.66-4.19 33.27-20.1 37.69-35.22 4.33-14.84-.34-27.97 3.86-41.36.94 4.98 1.8 12.18 2.1 16.18l.02.3c.1 1.31.15 3.33.08 5.86zM289.31 45.8a15.88 15.88 0 01-2.62 3.68c-5.53 5.76-10.17 8.32-15.87 8.56-3.78.16-8.01-.7-13.26-2.32-13.22-4.1-33.39-7.33-49.19-4.21-10.52 2.08-13.8 4.45-14.8 6.8-.66-3.16 1.48-9.19 11.16-16.87 12.14-9.64 46.97-.4 63.52 6.5 10.93 4.55 16.38 2.56 21.06-2.14z" clip-rule="evenodd"/>
  <path fill="#E79378" fill-rule="evenodd" d="M221.57 101.77c-1.35.4-22.45 1.55-22.88-2.57-.3-2.88 1.4-7.5 5.3-9.64a9.96 9.96 0 016.2-1.06c2.5.33 4.65 1.64 6.38 3.32 3.99 3.88 5.8 9.71 5 9.95z" clip-rule="evenodd"/>
  <path fill="#456F81" fill-rule="evenodd" d="M297.43 673.15c.84 12.55 3.34 76.94 7.52 106.2 4.18 29.28 16.3 98.69 16.3 98.69-.99.2-2.53 1.14-3.89 2.08-1.52 1.05-2.8 2.1-2.8 2.1s-24.64-55.2-34.25-71.92c-9.6-16.72-30.07-38.05-38.85-69.41-8.77-31.36 2.93-61.9 2.93-61.9l-2.4-19.64c-2.4-19.66-16.82-88.65-16.82-88.65s-4.6 27.6-19.5 58.54c-14.92 30.95-36.05 61.89-36.05 61.89s2.92 18.8-9.2 52.26c-12.1 33.45-38.42 58.54-50.95 75.28-12.53 16.72-37.2 55.6-37.2 55.6l-3.64-1.4-1.77-.69S89.83 794 95.69 768.48c5.84-25.5 26.73-99.93 26.73-99.93-13.25-30.95-3.34-76.94 0-105.38 1.47-12.54 11.45-68.78 13.66-74.48 1.8-4.58 7.55-7.26 8.48-7.08 86.56 16.16 158.57-1.53 158.57-1.53l2.12 6.48a622.08 622.08 0 017.95 26.52c9.67 35.36 14.3 67.95 10.13 100.69-5.42 42.65-25.9 59.38-25.9 59.38z" clip-rule="evenodd"/>
  <path fill="#E79378" fill-rule="evenodd" d="M267.75 93.5s-19.56 12.62-20.63 5.7c-.26-1.64.7-7.74 3.67-12.28 1.6-2.43 3.77-4.4 6.64-5.01 3.92-.83 6.73 1.2 8.46 3.82 1.9 2.9 2.5 6.49 1.86 7.77z" clip-rule="evenodd"/>
  <path fill="#fff" fill-rule="evenodd" d="M198.81 98.67c-.8 1.6.11 6.1 7.42 6.26 7.31.14 15.4-2.24 15.34-3.17-.05-.92-4.58-6.52-12.8-6.32-8.2.21-9.37 2.04-9.96 3.23z" clip-rule="evenodd"/>
  <path fill="#FF8D31" fill-rule="evenodd" d="M276.57 45.3c-2.2 2.5-4.99 4.3-8 5.66-3 1.36-6.35 2.71-9.63 3.2-1.86.27-3.75.27-5.65.19-.86-.24-1.73-.47-2.64-.68.8.04 1.6.1 2.4.13 3.69.16 7-.3 10.5-1.49 3.5-1.17 7.07-2.61 10-4.91a25.2 25.2 0 006.37-7.84c4.87-8.95 5.04-19.67.08-28.12.59.6 1.16 1.23 1.7 1.85 4.93 10.54 2.48 23.38-5.13 32.02z" clip-rule="evenodd"/>
  <path fill="#FF8D31" fill-rule="evenodd" d="M261.37 42.52c-5.9 4.96-13.36 7.67-21.09 9.02l-1.97-.3c10.34-1.53 20.7-5.3 27.02-13.79 6.81-9.16 9.67-22.04 5.54-32.82l.76.38c.46 1.26.82 2.56 1.09 3.89 2.32 11.81-2.03 25.77-11.35 33.62z" clip-rule="evenodd"/>
  <path fill="#FF8D31" fill-rule="evenodd" d="M263.56 8.2a66.77 66.77 0 01-3.27 10.68c-2.7 6.73-6.93 12.75-12.9 16.96-5.9 4.16-12.66 6.43-19.32 9.02-3.61 1.4-7.28 2.96-10.4 5.22l-1 .05a37.41 37.41 0 018.96-4.9c6.45-2.64 13.2-4.63 19.17-8.34a36.64 36.64 0 0014.63-17.4 61.16 61.16 0 003.58-11.4c.42-2.12.33-4.04-.07-6.15l.6.14c.05.3.11.61.15.92a14.1 14.1 0 01-.13 5.2z" clip-rule="evenodd"/>
  <path fill="#FF8D31" fill-rule="evenodd" d="M258.2 6.07c-1.71 6.47-5.38 12.11-9.86 17a53.71 53.71 0 01-8.13 7.44 45.13 45.13 0 01-10.18 5.3c-7.62 2.94-15.56 5.01-22.93 8.61-4.7 2.3-10.93 6-12.16 11.5-.26.2-.48.42-.68.63a11.72 11.72 0 013.35-6.3c4.56-4.7 11.03-7.43 17.07-9.65 7.76-2.87 16.32-4.73 23.34-9.28a50.83 50.83 0 0015.5-15.89c2.5-4.15 4.79-9.26 4.86-14.28l.54.07c-.04 1.64-.3 3.27-.72 4.85z" clip-rule="evenodd"/>
  <path fill="#FF8D31" fill-rule="evenodd" d="M239 20.4a42.7 42.7 0 01-13.62 8.43c-5.27 2.12-10.73 3.76-15.97 5.99-4.99 2.12-10.1 4.85-13.43 9.28-1.9 2.51-3.35 5.6-3.8 8.72-.33 2.4-.03 4.66.72 6.82-.05.49-.05.97-.05 1.44-1.37-3.32-1.85-6.86-.73-10.47 1.13-3.7 3.09-7 5.96-9.62 8.18-7.44 19.75-9.3 29.54-13.71A39.08 39.08 0 00241.9 16.5c3.58-4.36 6.78-10.02 6.28-15.78.19 0 .38 0 .57-.02.66 7.44-4.57 14.84-9.75 19.7z" clip-rule="evenodd"/>
  <path fill="#FF8D31" fill-rule="evenodd" d="M240.59 1.43c-6.82 7.11-15.25 12.27-23.83 17.1-6.28 3.55-12.94 6.92-18.65 11.38a42.4 42.4 0 00-9.76 10.86c-2.43 3.9-4.66 8.7-3.98 13.41a10.4 10.4 0 003.11 6.13 16.37 16.37 0 005.4 3.24l-.01.61a17.07 17.07 0 01-4.89-2.66 11.48 11.48 0 01-3.46-4.57c-1.43-3.63-.78-7.65.64-11.18 1.81-4.5 4.72-8.6 8.05-12.1 4.1-4.31 9.13-7.44 14.22-10.43 11.2-6.6 23.08-12.34 32.24-21.66l.92-.13z" clip-rule="evenodd"/>
  <path fill="#fff" fill-rule="evenodd" d="M257.44 92.49c-6.12 1.64-10.3 6.18-10.3 6.18-.08 1.65-.09 6.16 6.14 4.64 6.22-1.52 14.23-6.5 14.47-9.81 0 0-3.05-2.97-10.31-1.01z" clip-rule="evenodd"/>
  <path fill="#193D4C" fill-rule="evenodd" d="M248.27 97.84c-.73 1.2-.03 6.1 5 5.47 5.05-.62 5.42-8.75 3.7-10.82 0 0-5.96.79-8.7 5.35z" clip-rule="evenodd"/>
  <path fill="#E1521A" fill-rule="evenodd" d="M197.28 78.07c-1.43-.2 6.92 9.19 14.98 7.83 9.43-1.58 13.32-7.22 13.97-12.62.64-5.41-1.54-4.78-1.87-4.98-.32-.2 1.78 4.72-2.82 6.28-9.8 3.33-18.94 4.2-24.26 3.5zM247.17 73.67c-.28-.11 5.96-11.4 14.19-11.68 8.22-.28 13.5 11.43 11.42 11.68-.56.07-2.18-4.56-11.44-4.79-9.25-.22-14.17 4.79-14.17 4.79z" clip-rule="evenodd"/>
  <path fill="#484848" fill-rule="evenodd" d="M258.32 88.73c-7.44 1.38-11.16 7.7-11.19 9.93 0 0 4.2-4.52 10.3-6.17 7.27-1.96 10.32 1 10.32 1 2.02-1-2-6.14-9.43-4.76z" clip-rule="evenodd"/>
  <path fill="#193D4C" fill-rule="evenodd" d="M200.1 97.98c-.42 1.42.65 6.68 5.33 6.5 4.74-.19 4.7-5.73 3.75-7.61h-.29c-4.83 0-7.43.6-8.78 1.1z" clip-rule="evenodd"/>
  <path fill="#484848" fill-rule="evenodd" d="M209.52 93.6c-8.78-.76-11.45 4.47-10.71 5.06 0 0 .31-.31 1.3-.68 1.35-.51 3.96-1.11 8.78-1.11h.29c8.66.12 11.5 5.36 12.4 4.9.88-.48-3.28-7.42-12.06-8.17z" clip-rule="evenodd"/>
  <path fill="#fff" fill-rule="evenodd" d="M244.72 142.02a18.24 18.24 0 00-2.2 4.4c-1.22 3.25-2.04 6.75-2.04 6.75-3.75 2.6-15.88.88-19.5 0-2.3-.57-6.2-5.84-8.9-9.99a63.15 63.15 0 01-2.98-4.93c4.1 1.64 10.19 3.36 18.8 4.23 7.19.72 12.72.33 16.82-.46z" clip-rule="evenodd"/>
  <path fill="#fff" fill-rule="evenodd" d="M244.72 142.02l.18-.22s-12.09-.75-18.91-1.5c-6.83-.74-16.89-2.05-16.89-2.05 4.1 1.64 10.19 3.36 18.8 4.23 7.19.72 12.72.33 16.82-.46z" clip-rule="evenodd"/>
  <mask id="e" width="53" height="18" x="202" y="126" maskUnits="userSpaceOnUse">
    <path fill="#fff" fill-rule="evenodd" d="M242.28 127.57a7.6 7.6 0 01-1.65 1.06c-2.58 1.2-5.9 1.02-8.89.53l-.22-.03a7.32 7.32 0 01-4.23-2.55l-.01-.02c-2-.2-4.47.18-7.07.89-6.02 1.63-12.8 5-16.12 6.76-.73.38-1.3.68-1.64.88 0 0 2.01 1.94 7.09 4.02l.15.06c.15.06.32.12.48.2a61.65 61.65 0 0011.48 3.12l.55.09c1.76.3 3.66.58 5.7.79l.4.05.16.01c3.77.38 7.09.44 9.97.3l.56-.03c2.32-.14 4.35-.4 6.12-.76 1.22-.23 2.31-.51 3.3-.8l.53-.16.69-.23c3.69-1.26 5.3-2.64 5.3-2.64-1.33-2.04-4.77-5.91-7.53-8.9a404.81 404.81 0 00-3.86-4.13c-.36.58-.79 1.08-1.26 1.5z" clip-rule="evenodd"/>
  </mask>
  <g mask="url(#e)">
    <path fill="url(#paint4_linear)" fill-rule="evenodd" d="M242.28 127.57a7.6 7.6 0 01-1.65 1.06c-2.58 1.2-5.9 1.02-8.89.53l-.22-.03a7.32 7.32 0 01-4.23-2.55l-.01-.02c-2-.2-4.47.18-7.07.89-6.02 1.63-12.8 5-16.12 6.76-.73.38-1.3.68-1.64.88 0 0 2.01 1.94 7.09 4.02l.15.06c.15.06.32.12.48.2a61.65 61.65 0 0011.48 3.12l.55.09c1.76.3 3.66.58 5.7.79l.4.05.16.01c3.77.38 7.09.44 9.97.3l.56-.03c2.32-.14 4.35-.4 6.12-.76 1.22-.23 2.31-.51 3.3-.8l.53-.16.69-.23c3.69-1.26 5.3-2.64 5.3-2.64-1.33-2.04-4.77-5.91-7.53-8.9a404.81 404.81 0 00-3.86-4.13c-.36.58-.79 1.08-1.26 1.5z" clip-rule="evenodd"/>
  </g>
  <mask id="f" width="48" height="11" x="202" y="133" maskUnits="userSpaceOnUse">
    <path fill="#fff" fill-rule="evenodd" d="M203.81 133.75c2.05 1.59 6.17 3.96 12.43 5.83 6.98 2.09 16.2 2.66 21.78 2.55 3.97-.08 9.66-1.01 11.53-.98a34.8 34.8 0 01-4.54 1.17c-4.12.79-9.66 1.19-16.87.47-8.65-.88-14.75-2.6-18.86-4.23-5.1-2.04-7.12-3.94-7.12-3.94" clip-rule="evenodd"/>
  </mask>
  <g mask="url(#f)">
    <path fill="url(#paint5_linear)" fill-rule="evenodd" d="M249.55 141.15a34.8 34.8 0 01-4.54 1.17c-4.12.79-9.66 1.19-16.87.47-8.65-.88-14.75-2.6-18.86-4.23-5.1-2.04-7.12-3.94-7.12-3.94.35-.2.92-.5 1.65-.87 2.05 1.59 6.17 3.96 12.43 5.83 6.98 2.09 16.2 2.66 21.78 2.55 3.97-.08 9.66-1.01 11.53-.98z" clip-rule="evenodd"/>
  </g>
  <path fill="#E79378" fill-rule="evenodd" d="M266.24 86.07c-.2-.12-7.94-5.22-15.14 1.19 1.6-2.43 3.78-4.4 6.66-5 3.93-.83 6.74 1.2 8.48 3.81zM216.77 92.15c-3.83-1.68-8.88-2.65-12.63-2.25a9.96 9.96 0 016.23-1.06c2.52.32 4.66 1.64 6.4 3.31z" clip-rule="evenodd"/>
  <path fill="#E1521A" fill-rule="evenodd" d="M247.31 129.82c-13.05 9.82-24 1.63-27.3-2.7 2.61-.7 5.1-1.07 7.09-.87a7.3 7.3 0 004.48 2.55c3.7.6 7.91.7 10.59-1.55.48-.4.9-.9 1.27-1.46 0 0 1.72 1.76 3.87 4.03z" clip-rule="evenodd"/>
  <path fill="#B9B5B5" fill-rule="evenodd" d="M245.01 142.32a18.22 18.22 0 00-2.2 4.4c-10.5 2.16-24.19-.9-30.54-3.24a63.55 63.55 0 01-2.99-4.92c4.11 1.63 10.22 3.35 18.86 4.23 7.2.72 12.75.32 16.87-.47z" clip-rule="evenodd"/>
  <path fill="#575756" fill-rule="evenodd" d="M319.31 417.38c-3.54 18.33-7.1 34.45-10.06 45.82-2.4 9.26-4.4 15.36-5.66 16.96-.73.92-4.05 2-9.12 3.1 2.39-6.3 2.8-12.83 2.13-13.33-.83-.63-5.8 5.2-48.7 4.38-42.9-.84-76.43-9.86-94.3-21.64a231.66 231.66 0 01-16.63-11.94l.15.7c2.62 13.62 6.73 32.9 10.7 40.95-4.68-.95-7.74-1.76-8.46-2.22a1.68 1.68 0 01-.4-.36l-.1-.11-.17-.23c-.24-.33-.5-.77-.76-1.3l-.22-.46c-.28-.6-.58-1.33-.9-2.14l-.16-.4a103.48 103.48 0 01-1.18-3.38c-.43-1.32-.89-2.77-1.37-4.36l-.28-.96-.3-.97-.3-1.02c-.09-.36-.2-.7-.3-1.07l-.43-1.5-.44-1.58-.65-2.33-.04-.14-1.45-5.32-.53-2-.49-1.82c-.2-.8-.42-1.6-.64-2.41l-.31-1.17-.95-3.61-1.45-5.5-1.68-6.42c-.5-1.98-1.04-4-1.58-6.07 1.04-.65 5.32-.77 10.4-.64 9.16.25 20.92 1.27 20.92 1.27s126.8 10.86 151.1 0c4.95-2.21 9.88-4.57 14.61-6.78zM390.5 275.62a128.42 128.42 0 01-2.76 14.71c-2.2.42-4.61 1.3-7.2 2.53-11.68 4.84-36.07 17.93-62.15 49.95-1.22 1.5-1.84 3.52-2.03 5.87.03.04 1.18 2.12 2.56 6.11-13.43-18.93-3.88-53.2 1.99-65.5 5.86-12.3 10.32-26.43 11.17-24.48.83 1.95 1.96 3.06-3.91 17.27-5.87 14.21-3.91 32.32-3.91 32.32 14.02-12.75 49.82-33.1 66.24-38.78z" clip-rule="evenodd"/>
  <path fill="#CCF1EC" fill-rule="evenodd" d="M318.4 342.81c-1.22 1.5-1.85 3.52-2.04 5.87.16-.19 39.74-44.18 64.17-55.82-11.67 4.84-36.05 17.94-62.14 49.95z" clip-rule="evenodd"/>
  <mask id="g" width="66" height="110" x="28" y="283" maskUnits="userSpaceOnUse">
    <path fill="#fff" fill-rule="evenodd" d="M28.59 292.73c-3.28 2.32 22.48 74.94 64.69 99.96-1.97-1.2-37.65-24.12-19.22-107.48 0 0-5.94-1.52-14.32-1.52-9.02 0-20.85 1.75-31.15 9.04z" clip-rule="evenodd"/>
  </mask>
  <g mask="url(#g)">
    <path fill="url(#paint6_linear)" fill-rule="evenodd" d="M28.59 292.73c-3.28 2.32 22.48 74.94 64.69 99.96-1.97-1.2-37.65-24.12-19.22-107.48 0 0-5.94-1.52-14.32-1.52-9.02 0-20.85 1.75-31.15 9.04z" clip-rule="evenodd"/>
  </g>
  <path fill="#3F3231" fill-rule="evenodd" d="M305.64 487.31c-53.35 27.5-147.58 9.37-169.46 2.14 1.79-4.58 2.36-8.8 3.3-8.62 86.7 16.16 164.04 0 164.04 0 .72 2.17 1.43 4.34 2.12 6.49z" clip-rule="evenodd"/>
  <path fill="#CCF1EC" fill-rule="evenodd" d="M239.84 218.38v-.24.24z" clip-rule="evenodd"/>
  <path fill="#575756" fill-rule="evenodd" d="M114.53 309.63c-1.84 3.9-3.37 6.3-4.72 7.57-.3-6.33-.5-11.24-.6-14l-.06-1.84-.02-.66s-17.4-12.72-38.56-14.8c-21.17-2.07-41.85 7.25-41.85 7.25-3.33-4.3-6.21-11.62-7.69-20.85 12.49-2.96 35.74-1.36 53.75.94 19.66 2.5 34.27 18.84 34.27 18.84s.04-15.08-8.75-25.95c0 0-4.18-7.53.84-4.2 5.02 3.36 23.85 25.53 13.4 47.7z" clip-rule="evenodd"/>
  <mask id="h" width="1" height="1" x="240" y="218" maskUnits="userSpaceOnUse">
    <path fill="#fff" fill-rule="evenodd" d="M240.22 218.26l.02-.22-.02.22z" clip-rule="evenodd"/>
  </mask>
  <g mask="url(#h)">
    <path fill="url(#paint7_linear)" fill-rule="evenodd" d="M240.22 218.26l.02-.22-.02.22z" clip-rule="evenodd"/>
  </g>
  <mask id="i" width="322" height="175" x="82" y="287" maskUnits="userSpaceOnUse">
    <path fill="#fff" fill-rule="evenodd" d="M383.75 288.33c-.99.31-2.21.7-3.52 1.18-11.86 4.35-36.74 16.44-64.14 47.4a8.74 8.74 0 00-2.26 5.8c-1.86 5.95 1.23 14.08 3.76 20.85.37.97.7 1.92 1.09 2.82-.16-.12-7.52-6.5-29.57-1.63-7.84 1.73-16.98 5.8-26.23 7.67-17.02 7.43-34.4 13.7-44.64 16.16-10.07 2.42-33.8 6.85-52.6 8.6-2.04.18-4.02.43-5.91.56-1.63.1-15.35.28-17.98-.62-5.09-1.73-15.92.82-26.64 4.44-13.12 4.45-26.07 10.39-28.12 12.38-1.72 1.7-2.97 2.58-3.7 3.5-.62 1.3-.94 2.8-.94 5.7 0 1.18.06 2.6.16 4.33.65 11.12 17 20.94 26.06 17.97 6.42-2.1 10.37-12.12 12.13-17.82.73-2.34 1.09-3.93 1.09-3.93s28.42 14.65 60.88 26.65c23.88 8.84 72.6 16.61 119.07 6.8 16.68-3.52 33.06-9.3 47.9-18.14 0 0 12.47 8.93 16.56 4.63 2.01-2.11 1.42-5.82.27-9.08a30.7 30.7 0 00-.77-1.97c-1.06-2.46-2.2-4.3-2.2-4.3.03-.02.04-.04.06-.04.02-.03.06-.04.08-.06.48-.37 2.2-1.72 4.65-3.99 8.4-7.76 25.45-26.36 31.17-53.53 1.29-6.14 2.52-12 2.96-17.6.19-2.23.53-4.43.53-6.58.06-1.36.1-2.69.1-4v-1.31c-.11-19.6-5.5-35.68-12.22-48.96-.9-1.68-2.12-3.33-3.1-4.93 0 0-1.5.27-3.98 1.05z" clip-rule="evenodd"/>
  </mask>
  <g mask="url(#i)">
    <path fill="url(#paint8_linear)" fill-rule="evenodd" d="M383.75 288.33c-.99.31-2.21.7-3.52 1.18-11.86 4.35-36.74 16.44-64.14 47.4a8.74 8.74 0 00-2.26 5.8c-1.86 5.95 1.23 14.08 3.76 20.85.37.97.7 1.92 1.09 2.82-.16-.12-7.52-6.5-29.57-1.63-7.84 1.73-16.98 5.8-26.23 7.67-17.02 7.43-34.4 13.7-44.64 16.16-10.07 2.42-33.8 6.85-52.6 8.6-2.04.18-4.02.43-5.91.56-1.63.1-15.35.28-17.98-.62-5.09-1.73-15.92.82-26.64 4.44-13.12 4.45-26.07 10.39-28.12 12.38-1.72 1.7-2.97 2.58-3.7 3.5-.62 1.3-.94 2.8-.94 5.7 0 1.18.06 2.6.16 4.33.65 11.12 17 20.94 26.06 17.97 6.42-2.1 10.37-12.12 12.13-17.82.73-2.34 1.09-3.93 1.09-3.93s28.42 14.65 60.88 26.65c23.88 8.84 72.6 16.61 119.07 6.8 16.68-3.52 33.06-9.3 47.9-18.14 0 0 12.47 8.93 16.56 4.63 2.01-2.11 1.42-5.82.27-9.08a30.7 30.7 0 00-.77-1.97c-1.06-2.46-2.2-4.3-2.2-4.3.03-.02.04-.04.06-.04.02-.03.06-.04.08-.06.48-.37 2.2-1.72 4.65-3.99 8.4-7.76 25.45-26.36 31.17-53.53 1.29-6.14 2.52-12 2.96-17.6.19-2.23.53-4.43.53-6.58.06-1.36.1-2.69.1-4v-1.31c-.11-19.6-5.5-35.68-12.22-48.96-.9-1.68-2.12-3.33-3.1-4.93 0 0-1.5.27-3.98 1.05z" clip-rule="evenodd"/>
  </g>
  <path fill="#E79378" fill-rule="evenodd" d="M109.17 302.77c.69-.73 2.4-2.5 5.04-5.15-13.8 15.76-43.26 56.59-41.76 48.6 3.35-17.86 22.61-42.64 21.78-44.53-.84-1.89-4.96-5.4-24.96-7.92-18.46-2.31-34.3-.2-40.74 2.98 0-1.63.03-2.99.08-4.04 0 0 20.7-9.3 41.89-7.24 10.59 1.04 20.24 4.74 27.24 8.18 7 3.44 11.35 6.61 11.35 6.61a41.79 41.79 0 01-.25 2.86l.33-.35zM115.55 296.28a7.58 7.58 0 01-1.33 1.33l1.33-1.33z" clip-rule="evenodd"/>
  <path fill="#365664" fill-rule="evenodd" d="M172.93 495.04s-12.18 21.98-41.29 22.7l1.29-4.88c8.4-.63 25.69-3.85 34.44-19.46l5.56 1.64zM313.73 513.24c-10.1-.34-27.77-3.2-41.64-17.5l4.18-2.34c6.21 8.51 23.22 15.14 36.16 15.22.44 1.54.88 3.08 1.3 4.62z" clip-rule="evenodd"/>
  <path fill="#E79378" fill-rule="evenodd" d="M388.67 288.59c-7.66 27.73-22.93 39.97-23.22 40.1 9.47-9.05 17.08-32.57 18.59-40.16 2.45-.88 3.8-1.2 3.8-1.2 1.04 1.55-.13-.38.83 1.26zM340.74 373.92c-6.62-4.12-44.52-6.78-76.93 1.18 9.1-3.7 18.1-7.07 25.86-9.13 21.82-5.79 29.44-.11 29.6 0-.42-.88-.83-1.82-1.24-2.78 11.68 3.69 21.29 9.8 22.7 10.73zM264.83 436.1c11.31.84 51.1.84 75.8-13.09 0 0-23.03 5.14-40 8.14-16.95 3-35.8 4.95-35.8 4.95z" clip-rule="evenodd"/>
  <path fill="#A4DAD2" fill-rule="evenodd" d="M140.96 221.52c3.47-17.26-2.91-31.88-13.37-49.41 3.4.93 5.45 1.62 5.45 1.62 1.47-1.25 3.05-2.52 4.68-3.79 11.42 27.06 3.24 51.58 3.24 51.58z" clip-rule="evenodd"/>
  <path fill="#575756" fill-rule="evenodd" d="M301.2 209.12c1.6 16.17 5.8 25.64 17.1 34.55 0 0-13.55-2.2-18.73-15.57-5.17-13.37 1.63-18.98 1.63-18.98z" clip-rule="evenodd"/>
  <path fill="url(#paint9_linear)" fill-rule="evenodd" d="M128.11 471.91c-.17-.01-.24-.03-.21-.04a.27.27 0 01.21.04z" clip-rule="evenodd"/>
  <path fill="#365664" fill-rule="evenodd" d="M171 485.76c-.97 1.88-3.76 11.22-3.62 12.47 0 0 4.18 1.12 4.46.7.28-.42 2.93-11.67 3.77-12.66l-4.61-.51zM272.09 485.23c.22-.03 3.76 11.6 3.9 13.14 0 0 4.32-.7 4.46-1.12 0 0-2.22-9.9-3.62-12.61l-4.74.6z" clip-rule="evenodd"/>
  <path fill="#A4DAD2" fill-rule="evenodd" d="M90.44 290.43c.05 1.01 0 .86-.13-.05-.5-3.65-2.11-19.43-2.11-19.43l.49-1.06c1.15 12.7 1.63 18.64 1.75 20.54z" clip-rule="evenodd"/>
  <path fill="#E78363" fill-rule="evenodd" d="M235.8 129.64c-9-.25-11.66-4.12-10.25-11.02 1.2 5.34 3.23 8.15 8.77 8.03 4.5-.09 9.23-2.49 10.68-7.55.56 6.38-1.33 10.74-9.2 10.54z" clip-rule="evenodd"/>
  <path fill="#fff" fill-rule="evenodd" d="M237.9 119.35c1.5 2.37 6.02-1.33 5.05-3-1.3-2.25-6.7.42-5.06 3z" clip-rule="evenodd"/>
  <path fill="#E79378" fill-rule="evenodd" d="M366.52 443.27c-4.09 4.3-16.56-4.61-16.56-4.61-14.85 8.81-31.24 14.57-47.93 18.09-46.47 9.8-95.21 2.04-119.1-6.78-32.22-11.88-60.47-26.36-60.91-26.57 0 0-.3 1.28-.89 3.27-.05.2-.13.42-.2.64-1.76 5.68-5.71 15.68-12.13 17.77-9.07 2.97-25.42-6.83-26.07-17.92-.1-1.73-.55-3.14-.55-4.32 0-1.27-.21-2.28-.21-3.13.93-1.06.8-1.84 1.14-2.57.75-.91 2.19-1.78 3.91-3.46 2.05-1.99 15.1-7.9 28.22-12.34 10.73-3.62 21.61-6.13 26.7-4.41 2.64.9 16.38.77 18.01.67 1.9-.13 3.9-.3 5.93-.47-4.6 12.91-18.14 18.5-18.14 18.5s18.89 15.8 36.02 24.24c17.15 8.44 55.95 18.3 101.03 11.92 45.06-6.38 61.5-23.83 61.5-23.83 8.39 7.82 16.6 7.57 20.5 6.26 1.14 3.24 1.74 6.95-.27 9.05z" clip-rule="evenodd"/>
  <path fill="#2B2626" fill-rule="evenodd" d="M216.94 488.57c.07.55-.06 12.86-.06 12.86s17.79 1.19 23.79 0l-.56-13.3s-23.25-.12-23.18.44z" clip-rule="evenodd"/>
  <path fill="#365664" fill-rule="evenodd" d="M317.9 880.12c-1.53 1.05-2.82 2.1-2.82 2.1s-24.7-55.17-34.33-71.9c-9.63-16.7-30.15-38.02-38.95-69.37-8.8-31.35 2.93-61.86 2.93-61.86l-2.4-19.64c-2.41-19.65-16.86-88.61-16.86-88.61s-4.6 27.58-19.56 58.51c-14.95 30.93-36.13 61.86-36.13 61.86s2.92 18.8-9.22 52.25c-12.15 33.43-38.53 58.51-51.1 75.23-12.55 16.71-37.3 55.59-37.3 55.59l-3.64-1.4c5.4-9.63 20.8-37.73 30.9-49.59 11.72-13.8 51.5-67.3 56.53-86.1 5.03-18.81 6.29-35.53 5.03-47.23-1.26-11.7 17.03-36.37 35.1-70.23 18.08-33.85 26.47-46.97 24.8-50.87-1.7-3.88-5.04-19.34-4-15.16 1.05 4.18 6.27 21.57 14.55 15.16 8.28-6.4 9.36-10.56 9.24-7.65-.13 2.94-6.45 8.79-2.64 32.62 4.8 29.85 9.21 67.7 23.03 84.84 0 0-17.17 19.22-11.72 46.4 5.44 27.16 20.94 60.6 33.09 80.66 10.86 17.96 31 56.93 35.46 74.4z" clip-rule="evenodd"/>
  <mask id="j" width="48" height="23" x="314" y="874" maskUnits="userSpaceOnUse">
    <path fill="#fff" fill-rule="evenodd" d="M316.7 880.44c-.93.95-1.63 1.73-2.13 2.06 0 0 7.4 8.06 23.11 12.68 13.94 4.09 23.4 0 23.4 0-.45-.49-.98-1.05-1.57-1.65-5.78-5.92-17.54-16.6-27.4-18.4a18.72 18.72 0 00-3.32-.31c-6.06 0-9.8 3.3-12.08 5.62z" clip-rule="evenodd"/>
  </mask>
  <g mask="url(#j)">
    <path fill="url(#paint10_linear)" fill-rule="evenodd" d="M316.7 880.44c-.93.95-1.63 1.73-2.13 2.06 0 0 7.4 8.06 23.11 12.68 13.94 4.09 23.4 0 23.4 0-.45-.49-.98-1.05-1.57-1.65-5.78-5.92-17.54-16.6-27.4-18.4a18.72 18.72 0 00-3.32-.31c-6.06 0-9.8 3.3-12.08 5.62z" clip-rule="evenodd"/>
  </g>
  <mask id="k" width="48" height="17" x="314" y="879" maskUnits="userSpaceOnUse">
    <path fill="#fff" fill-rule="evenodd" d="M316.76 879.75c4.33 4.26 17.86 15.99 42.75 12.85.6.59 1.12 1.13 1.58 1.61 0 0-9.46 4.02-23.38 0-15.69-4.53-23.09-12.44-23.09-12.44" clip-rule="evenodd"/>
  </mask>
  <g mask="url(#k)">
    <path fill="url(#paint11_linear)" fill-rule="evenodd" d="M361.09 894.21s-9.46 4.02-23.38 0c-15.69-4.53-23.09-12.44-23.09-12.44.51-.32 1.2-1.09 2.14-2.02 4.33 4.26 17.86 15.99 42.75 12.85.6.59 1.12 1.13 1.58 1.61z" clip-rule="evenodd"/>
  </g>
  <path fill="#1A1818" fill-rule="evenodd" d="M199.53 109.79s-3.88 18.74 10.6 18.37c14.47-.38 15.7-17.71 15.23-19.56l-25.83 1.19z" clip-rule="evenodd"/>
  <mask id="l" width="43" height="23" x="30" y="871" maskUnits="userSpaceOnUse">
    <path fill="#fff" fill-rule="evenodd" d="M46.65 874.65c-7.58 5.3-14.16 13.33-15.8 16.52-.3.56-.44.97-.4 1.2.28 1.41 15.55 1.22 24.49-3.61 8.93-4.83 17.12-14.11 17.12-14.11-.33-.19-.75-.41-1.23-.62a32.14 32.14 0 00-12.6-2.69c-3.94 0-8.06.86-11.58 3.31z" clip-rule="evenodd"/>
  </mask>
  <g mask="url(#l)">
    <path fill="url(#paint12_linear)" fill-rule="evenodd" d="M46.65 874.65c-7.58 5.3-14.16 13.33-15.8 16.52-.3.56-.44.97-.4 1.2.28 1.41 15.55 1.22 24.49-3.61 8.93-4.83 17.12-14.11 17.12-14.11-.33-.19-.75-.41-1.23-.62a32.14 32.14 0 00-12.6-2.69c-3.94 0-8.06.86-11.58 3.31z" clip-rule="evenodd"/>
  </g>
  <mask id="m" width="43" height="20" x="30" y="873" maskUnits="userSpaceOnUse">
    <path fill="#fff" fill-rule="evenodd" d="M70.85 873.46c.47.21.9.43 1.22.62 0 0-8.18 9.1-17.12 13.83-8.94 4.75-24.22 4.93-24.5 3.54-.04-.22.1-.62.4-1.17" clip-rule="evenodd"/>
  </mask>
  <g mask="url(#m)">
    <path fill="url(#paint13_linear)" fill-rule="evenodd" d="M72.07 874.08s-8.18 9.1-17.12 13.83c-8.94 4.75-24.22 4.93-24.5 3.54-.04-.22.1-.62.4-1.17 7.84-1.22 26.99-6.9 40-16.82.47.21.9.43 1.22.62z" clip-rule="evenodd"/>
  </g>
  <path fill="#1A1818" fill-rule="evenodd" d="M247.47 107.85s-1.95 17.58 12.33 16.08 14-12.6 13.46-17.42l-25.79 1.34z" clip-rule="evenodd"/>
  <path fill="#3F3231" fill-rule="evenodd" d="M265.71 121.9c-4.86 1.55-11.1 2.52-15.5-1.63-2.28-2.16-2.6-9.77-2.74-12.42 9.05-.41 19.41-.9 25.79-1.34-.68 7.01-1.38 13.43-7.55 15.4zm-48.9 3.7c-6.8 4.29-13.64 1.55-15.97-2.43-1.91-3.28-1.65-10.38-1.57-13.08 5.3-.18 16.78-.73 25.93-1.2-.35 3.58-.72 11.87-8.4 16.7zm62.4-21.77c-20.98-.4-81.04 3.77-82.8 3.8 0 0-26.02-13.78-28.53-14.8-2.51-1.04-3.39 1.29 3.56 4.95l23.73 12.54c-.14 8.4 2.35 13.4 3.71 15.61 1.44 2.34 7.14 7.78 18.03 2.46 9.63-4.71 11.04-16.87 11.23-19.64l4.82-.24c2.87-.15 7.27-.34 12.23-.56-.04 3 .17 12.22 4.4 15.16 5.09 3.53 11.04 3.88 18.55.31 6.5-3.1 7.16-14.14 7.22-17.06 2.12-.17 3.51-.33 3.85-.47 1.8-.76 0-2.06 0-2.06z" clip-rule="evenodd"/>
  <path fill="#fff" fill-rule="evenodd" d="M264.25 107.04l-9.05 15.86s3.06.65 5.41.18l8.8-16.33-5.16.29zM215.78 109.36l-10.72 17.43s3.38 1.27 5.44.95l11.1-18.66-5.82.28z" clip-rule="evenodd"/>
  <path fill="#FF8D31" fill-rule="evenodd" d="M224.43 128.08a64 64 0 00-8.98 5.77 51.99 51.99 0 00-4.06 3.47c-.35.34-.9.8-1.43 1.3l-.5-.2c.18-.16.37-.32.52-.49a48.28 48.28 0 014.33-3.9 67.17 67.17 0 019.87-6.45c.31-.17.57.33.25.5zM248.9 141.19l-.54.16a63.6 63.6 0 00-7.82-13.26c.18-.07.35-.16.52-.25 3.1 4.14 5.8 8.56 7.83 13.35zM238.9 142.88l-.56.03a106.4 106.4 0 00-3.28-11.96c-.11-.34.44-.45.55-.11 1.34 3.94 2.42 7.96 3.3 12.04zM231.4 128.58c-1.76 4.5-2.96 9.15-3.08 14.03l-.14-.01-.42-.05c.12-4.9 1.34-9.58 3.1-14.1a8 8 0 00.54.13zM226.21 134.53c-1.4 2.1-3.31 4.6-4.17 7.25a9.08 9.08 0 01-.56-.1c.88-2.71 2.82-5.3 4.26-7.46.2-.3.67 0 .47.3z" clip-rule="evenodd"/>
  <path fill="#8BCBD7" fill-rule="evenodd" d="M125.73 670.94c1.25 2.51 8.74 5.85 14.63 2.51 0 0-3.74 9.32-9.6 7.59-5.87-1.74-5.03-10.1-5.03-10.1zM280.44 673.04s13.14 4.47 17.47 0c0 0-2.09 6.81-7.75 8-5.65 1.2-9.72-8-9.72-8z" clip-rule="evenodd"/>
  <mask id="n" width="134" height="316" x="64" y="97" maskUnits="userSpaceOnUse">
    <path fill="#fff" fill-rule="evenodd" d="M176.9 98.03c-4.26.98-16.44 10.85-20.4 16.98-3.96 6.13-4.26 21.8-4.87 24.46l-5.79 5.21.19.31c-61.88 70.74-93.28 198.94-78.17 223.94 1.96 3.23 4.2 6.19 6.6 8.88 16.19 18.1 40.12 24.26 40.12 24.26s.76 11.96 8.28 10.43c7.51-1.55 1.45-12.34 1.45-12.34 47.14-10.31 45.94-60.64 39.85-111.42-6.09-50.76-2.77-109.53-2.79-117.72l3.3-11.67.97-3.37c3.99-1.5 7.62-5.04 10.39-9.06 1.65-2.42 3-5.02 3.92-7.45 2.43-6.43 4.57-11.46 10.66-15.72 6.09-4.25 8.83-9.1 4.17-11.53-3.1-1.61-5.8.15-7.26 1.5-.35.32-.62.62-.82.85a53.18 53.18 0 00-.36-2.97c-.85-6.28-4.7-13.66-8.7-13.65-.24 0-.49.02-.74.08z" clip-rule="evenodd"/>
  </mask>
  <g mask="url(#n)">
    <path fill="url(#paint14_linear)" fill-rule="evenodd" d="M176.9 98.03c-4.26.98-16.44 10.85-20.4 16.98-3.96 6.13-4.26 21.8-4.87 24.46l-5.79 5.21.19.31c-61.88 70.74-93.28 198.94-78.17 223.94 1.96 3.23 4.2 6.19 6.6 8.88 16.19 18.1 40.12 24.26 40.12 24.26s.76 11.96 8.28 10.43c7.51-1.55 1.45-12.34 1.45-12.34 47.14-10.31 45.94-60.64 39.85-111.42-6.09-50.76-2.77-109.53-2.79-117.72l3.3-11.67.97-3.37c3.99-1.5 7.62-5.04 10.39-9.06 1.65-2.42 3-5.02 3.92-7.45 2.43-6.43 4.57-11.46 10.66-15.72 6.09-4.25 8.83-9.1 4.17-11.53-3.1-1.61-5.8.15-7.26 1.5-.35.32-.62.62-.82.85a53.18 53.18 0 00-.36-2.97c-.85-6.28-4.7-13.66-8.7-13.65-.24 0-.49.02-.74.08z" clip-rule="evenodd"/>
  </g>
  <path fill="#E79378" fill-rule="evenodd" d="M143.97 287c-5.7 22.1-19.91 62.83-31.97 73 0 0 15.15-4.24 24.06-24.79 8.9-20.56 7.9-48.21 7.9-48.21z" clip-rule="evenodd"/>
  <mask id="o" width="24" height="11" x="180" y="98" maskUnits="userSpaceOnUse">
    <path fill="#fff" fill-rule="evenodd" d="M180.34 99.39l1.74 2.9 2.72 4.51s17.5 4.8 18.78-.82v-.03c.37-1.66-8.58-7.12-18.18-7.12-1.68 0-3.38.17-5.06.56z" clip-rule="evenodd"/>
  </mask>
  <g mask="url(#o)">
    <path fill="url(#paint15_linear)" fill-rule="evenodd" d="M180.34 99.39l1.74 2.9 2.72 4.51s17.5 4.8 18.78-.82v-.03c.37-1.66-8.58-7.12-18.18-7.12-1.68 0-3.38.17-5.06.56z" clip-rule="evenodd"/>
  </g>
  <path fill="#E79378" fill-rule="evenodd" d="M203.38 105.08c-1.25 5.74-18.43.84-18.43.84l-2.68-4.6c5.25 1.95 14.59 3.67 21.11 3.76zM183.64 119.58c-.82 1.3-1.75 2.6-2.67 3.8l2.67-3.8zm3.58-6.93c-.34.32-.76.62-.96.85-.04-.46.57-1.05-.36-1.83v2.27c0 .09.1.2.09.28a17.9 17.9 0 01-2.42 5.35c1.59-7.48-1.52-16.04-3.04-18.26-1.53-2.23.01 2.88.01 2.88 3.95 7.25 1.27 18.02.42 19.2a64.15 64.15 0 01-3.5 4.16l3.1-2.87c-1 1.09-2.05 2.04-3.1 2.87 4.8-15 .13-24.76-3.21-24.55-3.35.2-14.69 12.15-14.69 12.15 6.1-1.13 12.71-11.69 15.46-8.88 2.73 2.8 2.7 19.04-.4 23.21-4.2 3.3-5.5 2.54-5.83 1.4-.6-2.12 2.08-8.53 3.6-11.57 1.52-3.04-1.18-2.17-3.61-.05l-.08 2.1c-.06 1.6-2.85 7.65-1.3 11.36h-.01c.97 2.78 1.68 10.54-.27 13.4 1.03-1.4 5.89-8.4 4.28-12.17 3.68-.04 8.24-2.53 12.82-10 3.35-5.45 3.48-9.18 3-11.3zM161.1 170.03c0 8.2-3.3 67.06 2.78 117.9 6.08 50.85 7.28 101.25-39.83 111.59 0 0 6.06 10.8-1.45 12.35-7.52 1.54-8.27-10.44-8.27-10.44s-23.91-6.16-40.09-24.3c41.67 21.23 70.06-11.17 75.96-28.7 7.06-21 2.67-74.48 0-111.27-2.67-36.8 4.5-71.14 6.22-75.06 2.43-5.19 7.41-10.45 7.41-10.45 3.42 2.05 8.62-1.69 11.9-5.75-2.76 4.02-6.4 7.57-10.38 9.06l-.96 3.38-3.3 11.7zM402.28 352.62c-.45 5.59-1.42 11.43-2.71 17.55-5.72 27.12-22.76 45.67-31.16 53.41a70.5 70.5 0 01-4.65 3.98c12.38-9.72 30.93-46.7 38.52-74.94zM117.67 430.36c1-1.54 1.4-3.1.36-3.86-2.45-1.77-9.25 6.94-6.35 7.92-4.54 2.28-9.93 3.43-14.8 1.69-8.47-3.04-12.87-10.68-14.13-16.7-.12.85-.18 1.86-.18 3.13 0 1.18.06 2.6.15 4.32.65 11.1 16.99 20.9 26.06 17.92 6.41-2.08 10.36-12.08 12.13-17.76l.19-.65a17.74 17.74 0 01-3.43 4z" clip-rule="evenodd"/>
  <path fill="#575756" fill-rule="evenodd" d="M263.18 355.38c-12.54 3.04-48.33 8.64-71.73 7.5-18.36-.9-26.61-8.34-26.61-8.34l-.84 3.97c4.14 6.11 21.34 9.41 21.34 9.41s63.2-1.27 90.3-9.1c27.63-8 37.99-41.17 37.99-41.17-6.74 17.75-25.24 31.6-50.45 37.73z" clip-rule="evenodd"/>
  <path fill="#fff" fill-rule="evenodd" d="M276.13 265.3l-6.33-3.83 3.88-2.86-4.25-3.01 5.6-3.7 1.1 13.4zm-7.48-6.7l-5.6 3.7-1.1-13.4 6.34 3.82-3.9 2.86 4.26 3.02zm5.9-13.14l-12.93.13s-4.48.04-4.1 4.77l1.14 13.68s.38 4.74 4.86 4.7l12.94-.13s4.48-.05 4.1-4.78l-1.14-13.68s-.38-4.73-4.86-4.69z" clip-rule="evenodd"/>
  <defs>
    <linearGradient id="paint0_linear" x1="286.9" x2="270.31" y1="82.52" y2="86.57" gradientUnits="userSpaceOnUse">
      <stop stop-color="#F6CDA8"/>
      <stop offset="1" stop-color="#F6AF90"/>
    </linearGradient>
    <linearGradient id="paint1_linear" x1="222.57" x2="205.97" y1="69.85" y2="107.05" gradientUnits="userSpaceOnUse">
      <stop stop-color="#F6CDA8"/>
      <stop offset="1" stop-color="#F6AF90"/>
    </linearGradient>
    <linearGradient id="paint2_linear" x1="185.88" x2="134.94" y1="19.35" y2="35.39" gradientUnits="userSpaceOnUse">
      <stop stop-color="#F6CDA8"/>
      <stop offset="1" stop-color="#F6AF90"/>
    </linearGradient>
    <linearGradient id="paint3_linear" x1="249.48" x2="98.29" y1="-80.36" y2="-5.43" gradientUnits="userSpaceOnUse">
      <stop stop-color="#F97218"/>
      <stop offset="1" stop-color="#E15218"/>
    </linearGradient>
    <linearGradient id="paint4_linear" x1="251.53" x2="251.47" y1="146.33" y2="131.13" gradientUnits="userSpaceOnUse">
      <stop stop-color="#F97218"/>
      <stop offset="1" stop-color="#E15218"/>
    </linearGradient>
    <linearGradient id="paint5_linear" x1="191.59" x2="191.14" y1="127.27" y2="143.81" gradientUnits="userSpaceOnUse">
      <stop stop-color="#F97218"/>
      <stop offset="1" stop-color="#E15218"/>
    </linearGradient>
    <linearGradient id="paint6_linear" x1="6.48" x2="80.22" y1="289" y2="365.4" gradientUnits="userSpaceOnUse">
      <stop stop-color="#F6CDA8"/>
      <stop offset="1" stop-color="#F6AF90"/>
    </linearGradient>
    <linearGradient id="paint7_linear" x1="192.22" x2="288.22" y1="266.15" y2="266.15" gradientUnits="userSpaceOnUse">
      <stop stop-color="#F6CDA8"/>
      <stop offset="1" stop-color="#F6AF90"/>
    </linearGradient>
    <linearGradient id="paint8_linear" x1="72.42" x2="384.7" y1="450.67" y2="495.63" gradientUnits="userSpaceOnUse">
      <stop stop-color="#F6CDA8"/>
      <stop offset="1" stop-color="#F6AF90"/>
    </linearGradient>
    <linearGradient id="paint9_linear" x1="127.89" x2="128.11" y1="472" y2="472" gradientUnits="userSpaceOnUse">
      <stop stop-color="#8ACAD6"/>
      <stop offset="1" stop-color="#80CAD6"/>
    </linearGradient>
    <linearGradient id="paint10_linear" x1="314.57" x2="361.09" y1="897" y2="897" gradientUnits="userSpaceOnUse">
      <stop stop-color="#674417"/>
      <stop offset="1" stop-color="#724817"/>
    </linearGradient>
    <linearGradient id="paint11_linear" x1="314.63" x2="361.09" y1="896" y2="896" gradientUnits="userSpaceOnUse">
      <stop stop-color="#674417"/>
      <stop offset="1" stop-color="#724817"/>
    </linearGradient>
    <linearGradient id="paint12_linear" x1="30.44" x2="72.06" y1="893.13" y2="893.13" gradientUnits="userSpaceOnUse">
      <stop stop-color="#674417"/>
      <stop offset="1" stop-color="#724817"/>
    </linearGradient>
    <linearGradient id="paint13_linear" x1="30.44" x2="72.07" y1="892.21" y2="892.21" gradientUnits="userSpaceOnUse">
      <stop stop-color="#674417"/>
      <stop offset="1" stop-color="#724817"/>
    </linearGradient>
    <linearGradient id="paint14_linear" x1="105.48" x2="2.62" y1="117.61" y2="238.27" gradientUnits="userSpaceOnUse">
      <stop stop-color="#F6CDA8"/>
      <stop offset="1" stop-color="#F6AF90"/>
    </linearGradient>
    <linearGradient id="paint15_linear" x1="189.22" x2="177.17" y1="91.66" y2="115.64" gradientUnits="userSpaceOnUse">
      <stop stop-color="#F6CDA8"/>
      <stop offset="1" stop-color="#F6AF90"/>
    </linearGradient>
  </defs>
</svg>
