<svg xmlns="http://www.w3.org/2000/svg" fill="none" viewBox="0 0 332 83">
  <defs/>
  <path fill="#fff" fill-rule="evenodd" d="M61.86 69.75l-21.4-13.09 14.66-9.5-14.27-10.32 21.01-12.3v45.21zm-24.65-22.8L16.19 59.23V14.02l21.42 13.1-14.68 9.5 14.28 10.32zM62.09 2.85H15.96S0 2.86 0 18.82v46.13s0 15.96 15.96 15.96H62.1s15.97 0 15.97-15.96V18.82s0-15.96-15.97-15.96zM118.4 44.28v13.7h8.77c2.52 0 4.44-.56 5.77-1.65 1.32-1.1 1.98-2.73 1.98-4.88 0-2.32-.56-4.1-1.7-5.33-1.12-1.23-2.9-1.84-5.34-1.84h-9.48zm0-6.58h6.85c2.53 0 4.5-.52 5.86-1.57 1.37-1.04 2.05-2.56 2.05-4.56 0-2.2-.69-3.81-2.07-4.85-1.38-1.05-3.43-1.57-6.17-1.57h-6.52V37.7zm6.52-19.88c5.58 0 9.94 1.09 13.07 3.26 3.13 2.17 4.69 5.42 4.69 9.74 0 2.2-.58 4.16-1.74 5.89a10.53 10.53 0 01-5.07 3.89c2.84.6 4.98 1.91 6.4 3.91a11.7 11.7 0 012.14 6.94c0 4.55-1.5 7.98-4.5 10.32-3 2.33-7.25 3.5-12.74 3.5h-23.34v-5.7l5.05-.98V24.53l-5.05-.97v-5.74h21.09zM167.06 17.82v5.73l-5.09.98V49.3c0 3.13.84 5.47 2.53 7.02 1.68 1.56 3.99 2.34 6.92 2.34 2.98 0 5.32-.78 7.01-2.32 1.7-1.54 2.54-3.89 2.54-7.04V24.53l-5.05-.98v-5.73h19.65v5.73l-5.08.98V49.3c0 5.33-1.76 9.43-5.27 12.32-3.5 2.89-8.1 4.33-13.8 4.33-5.67 0-10.24-1.44-13.73-4.33-3.49-2.9-5.23-7-5.23-12.32V24.53l-5.06-.98v-5.73h19.66zM212.94 25.15v32.82h6.29c3.41 0 6.08-1.15 8.02-3.45 1.93-2.3 2.9-5.32 2.9-9.03v-7.92c0-3.67-.97-6.66-2.9-8.96-1.94-2.3-4.6-3.46-8.02-3.46h-6.29zm6.78-7.33c5.8 0 10.58 1.85 14.34 5.56 3.76 3.7 5.64 8.46 5.64 14.25v7.86c0 5.82-1.88 10.58-5.64 14.26-3.76 3.68-8.54 5.52-14.34 5.52h-21.35v-5.7l5.06-.98V24.53l-5.06-.97v-5.74H219.72zM258.93 25.15v32.82h6.28c3.42 0 6.09-1.15 8.02-3.45 1.94-2.3 2.9-5.32 2.9-9.03v-7.92c0-3.67-.96-6.66-2.9-8.96-1.93-2.3-4.6-3.46-8.02-3.46h-6.28zm6.77-7.33c5.8 0 10.59 1.85 14.34 5.56 3.76 3.7 5.64 8.46 5.64 14.25v7.86c0 5.82-1.88 10.58-5.64 14.26-3.75 3.68-8.54 5.52-14.34 5.52h-21.34v-5.7l5.05-.98V24.53l-5.05-.97v-5.74h21.35zM306.25 23.55l-3.88.56 7.37 15.58h.19l7.36-15.58-3.84-.56v-5.73h17.96v5.73l-4.05.66-12.9 24.38v10l5.08.98v5.7H299.9v-5.7l5.09-.98V48.1L292.3 24.21l-4.01-.66v-5.73h17.96v5.73z" clip-rule="evenodd"/>
</svg>
