<svg xmlns="http://www.w3.org/2000/svg" fill="none" viewBox="0 0 155 155">
  <defs/>
  <path fill="#fff" fill-rule="evenodd" d="M77.5 64a13.5 13.5 0 10.02 27.02A13.5 13.5 0 0077.5 64z" clip-rule="evenodd"/>
  <path fill="#fff" fill-rule="evenodd" d="M77 98.2A20.23 20.23 0 0156.8 78c0-11.14 9.06-20.2 20.2-20.2 11.13 0 20.2 9.06 20.2 20.2 0 11.14-9.07 20.2-20.2 20.2zM77 35c-23.7 0-43 19.3-43 43s19.3 43 43 43c23.71 0 43-19.3 43-43s-19.29-43-43-43z" clip-rule="evenodd"/>
  <mask id="a" width="155" height="155" x="0" y="0" maskUnits="userSpaceOnUse">
    <path fill="#fff" fill-rule="evenodd" d="M0 0h154.98v155H0V0z" clip-rule="evenodd"/>
  </mask>
  <g mask="url(#a)">
    <path fill="#fff" fill-rule="evenodd" d="M77.5 127c-27.3 0-49.51-22.2-49.51-49.49A49.57 49.57 0 0177.49 28C104.8 28 127 50.2 127 77.5c0 27.29-22.2 49.5-49.5 49.5zM77.48 0C34.76 0 0 34.78 0 77.5 0 120.25 34.76 155 77.48 155c42.74 0 77.5-34.76 77.5-77.5 0-42.73-34.76-77.5-77.5-77.5z" clip-rule="evenodd"/>
  </g>
</svg>
