<svg xmlns="http://www.w3.org/2000/svg" fill="none" viewBox="0 0 27 27">
  <defs/>
  <path fill="#1D1D1D" fill-rule="evenodd" d="M13.5 9c5.95 0 5.95 9 0 9-5.94 0-5.95-9 0-9zm0-2.43a6.93 6.93 0 100 13.86 6.93 6.93 0 000-13.86zm7.2-1.89a1.62 1.62 0 100 3.24 1.62 1.62 0 000-3.24zm-8.4-2.24c11.53-.02 13-1.3 12.18 16.5-.28 6.3-5.08 5.6-10.98 5.6-10.75 0-11.06-.3-11.06-11.05 0-10.87.85-11.04 9.85-11.05zM13.5.01C7.97.01 2.72-.48.71 4.66-.1 6.8.01 9.55.01 13.5c0 3.46-.12 6.72.7 8.83 2 5.15 7.3 4.65 12.79 4.65 5.3 0 10.75.55 12.78-4.65.83-2.15.71-4.86.71-8.83 0-5.27.3-8.67-2.27-11.22C22.13-.32 18.63 0 13.5 0h.01z" clip-rule="evenodd"/>
</svg>
