<svg width="70" height="70" fill="none" xmlns="http://www.w3.org/2000/svg">
  <mask id="a" style="mask-type:alpha" maskUnits="userSpaceOnUse" x="0" y="0" width="70" height="70">
    <path fill-rule="evenodd" clip-rule="evenodd" d="M0 0h70v70H0V0Z" fill="#fff"/>
  </mask>
  <g mask="url(#a)">
    <path fill-rule="evenodd" clip-rule="evenodd" d="m43.67 41.67-9.8 9.8a1.76 1.76 0 0 1-3.02-1.23V30.6c0-1.58 1.9-2.35 2.99-1.23l9.8 9.8c.7.7.7 1.83.03 2.5M55.93 0h-1.86l6.86 13.72H50.4L43.53 0h-7.02l6.86 13.72H32.84L25.97 0h-7.02l6.86 13.72H15.27L8.87.93c-2.78.95-5.91 2.83-7.61 6.6A15.53 15.53 0 0 0 0 13.98V55.5s0 2.79 1.23 5.91v1.25h.54C3.57 66.31 7.16 70 14.4 70h41.53s8.85-.12 12.5-7.35c.95-1.87 1.57-4.2 1.57-7.16V13.97S70.3 0 55.93 0" fill="#fff"/>
  </g>
</svg>
