<svg xmlns="http://www.w3.org/2000/svg" fill="none" viewBox="0 0 26 21">
  <defs/>
  <path fill="#1D1D1D" fill-rule="evenodd" d="M26 2.49c-.95.42-1.96.7-3.01.83A5.26 5.26 0 0025.29.4a10.34 10.34 0 01-3.32 1.29 5.2 5.2 0 00-9.04 3.62c0 .42.04.82.12 1.2A14.73 14.73 0 012.28.98a5.32 5.32 0 001.6 7.08 5.1 5.1 0 01-2.36-.66v.06a5.3 5.3 0 004.19 5.21 5.17 5.17 0 01-2.36.08 5.29 5.29 0 004.88 3.7A10.41 10.41 0 01.5 18.61 14.58 14.58 0 008.52 21c9.62 0 14.88-8.08 14.88-15.08 0-.23 0-.46-.02-.68A10.5 10.5 0 0026 2.49" clip-rule="evenodd"/>
</svg>
