<svg xmlns="http://www.w3.org/2000/svg" fill="none" viewBox="0 0 26 5">
  <defs/>
  <path fill="#fff" fill-rule="evenodd" d="M20.7158 2.169c0-1.195.974-2.169 2.17-2.169 1.197 0 2.169.974 2.169 2.169 0 1.196-.972 2.17-2.169 2.17-1.196 0-2.17-.974-2.17-2.17zM10.2617 2.169c0-1.195.973-2.169 2.17-2.169 1.196 0 2.168.974 2.168 2.169 0 1.196-.972 2.17-2.168 2.17-1.197 0-2.17-.974-2.17-2.17zM0 2.169C0 .974.973 0 2.17 0c1.195 0 2.167.974 2.167 2.169 0 1.196-.972 2.17-2.167 2.17C.973 4.339 0 3.365 0 2.169z" clip-rule="evenodd"/>
</svg>
