<svg xmlns="http://www.w3.org/2000/svg" fill="none" viewBox="0 0 60 60">
  <defs/>
  <path fill="url(#paint0_linear)" fill-rule="evenodd" d="M8.77927 8.77706C-2.92497 20.4812-2.92715 39.5233 8.77709 51.223c11.70201 11.702 30.74431 11.702 42.44641 0 11.702-11.6997 11.702-30.744 0-42.44811C39.5214-2.92706 20.4791-2.92489 8.77927 8.77706z" clip-rule="evenodd"/>
  <path fill="#1D1D1D" fill-rule="evenodd" d="M31.2329 43.638c0 .6993-.5718 1.2728-1.2711 1.2761-.3464-.0017-.6683-.134-.9069-.3726-.2418-.2434-.3741-.5637-.3741-.9035V31.3217h-12.318c-.6715.0032-1.2744-.5931-1.2744-1.2728 0-.3432.1323-.6634.3758-.9052.2402-.2418.5588-.3742.8986-.3742h12.318V16.1918c0-.3448.134-.665.3741-.9052.2402-.2418.5637-.3742.9085-.3725.6748 0 1.2712.5947 1.2695 1.2744l-.0016 12.5827 12.581-.0033c.6846.0049 1.2744.5964 1.2761 1.2761 0 .3414-.1307.6617-.3709.9035-.2435.2418-.5637.3742-.9068.3742H31.2329V43.638z" clip-rule="evenodd"/>
  <defs>
    <linearGradient id="paint0_linear" x1="25.8758" x2="-25.5289" y1="-18.0835" y2="32.9742" gradientUnits="userSpaceOnUse">
      <stop stop-color="#00F900"/>
      <stop offset="1" stop-color="#00B400"/>
    </linearGradient>
  </defs>
</svg>
