<svg xmlns="http://www.w3.org/2000/svg" fill="none" viewBox="0 0 31 35">
  <defs/>
  <path fill="#666" fill-rule="evenodd" d="M14.91 14.64h-1v2.54h.97c.35 0 .6-.11.78-.34.17-.23.25-.54.25-.92 0-.86-.33-1.28-1-1.28zM8.27 14.64h-1.2v2.66h1.19c.32 0 .58-.11.76-.33.18-.21.27-.52.27-.93 0-.43-.1-.77-.28-1.02a.88.88 0 00-.74-.38zM21.75 14.53c-.46 0-.8.18-1.01.54-.22.36-.34.9-.34 1.65v1.51c0 .75.1 1.3.33 1.65.22.36.57.53 1.03.53.45 0 .78-.17 1-.51.22-.35.33-.89.34-1.61V16.8c0-.76-.11-1.34-.33-1.71a1.1 1.1 0 00-1.02-.56z" clip-rule="evenodd"/>
  <mask id="a" width="31" height="33" x="0" y="1" maskUnits="userSpaceOnUse">
    <path fill="#fff" fill-rule="evenodd" d="M0 1h30.04v32.93H0V1z" clip-rule="evenodd"/>
  </mask>
  <g mask="url(#a)">
    <path fill="#666" fill-rule="evenodd" d="M24.83 18.23c0 1.15-.27 2.04-.82 2.67a2.8 2.8 0 01-2.25.95c-.96 0-1.7-.31-2.25-.94a3.92 3.92 0 01-.84-2.63v-1.46c0-1.18.27-2.1.82-2.75.54-.66 1.3-.99 2.26-.99.95 0 1.7.33 2.24.97.55.65.83 1.56.84 2.73v1.45zm-6.94 3.5h-1.85l-1.28-3.11h-.86v3.11h-1.72V13.2h2.75c.86 0 1.53.22 2 .67.47.45.7 1.09.7 1.9 0 1.14-.4 1.94-1.23 2.39l1.5 3.49v.08zm-7.6-3.72c-.5.48-1.2.72-2.07.72H7.07v3H5.35V13.2h2.9c.85 0 1.52.26 2.02.79.5.52.76 1.2.76 2.04 0 .83-.25 1.5-.75 1.98zM27.2 7.16l-9.36-5.4a5.67 5.67 0 00-5.67 0l-9.35 5.4A5.67 5.67 0 000 12.06v10.8c0 2.03 1.08 3.9 2.83 4.92l9.36 5.4a5.67 5.67 0 005.67 0l9.35-5.4a5.67 5.67 0 002.83-4.91v-10.8c0-2.03-1.08-3.9-2.83-4.91z" clip-rule="evenodd"/>
  </g>
</svg>
