<?xml version="1.0" encoding="UTF-8"?>
<svg width="28px" height="29px" viewBox="0 0 28 29" version="1.1" xmlns="http://www.w3.org/2000/svg" xmlns:xlink="http://www.w3.org/1999/xlink">
    <title>button_block</title>
    <g id="Desktop-new" stroke="none" stroke-width="1" fill="none" fill-rule="evenodd">
        <g id="A.3.6-Unblock-users" transform="translate(-155.000000, -20.000000)" fill="#2F7570">
            <g id="Group" transform="translate(155.000000, 20.000000)">
                <g id="Group-6" transform="translate(14.000000, 14.518519) rotate(90.000000) translate(-14.000000, -14.518519) translate(0.000000, 1.037037)">
                    <path d="M3.2718,4.86162963 C1.16964615,7.28 0.000107692308,10.2863704 0.000107692308,13.4783704 C0.000107692308,17.0779259 1.45503077,20.4607407 4.09887692,23.0077037 C6.74164615,25.5525926 10.2567231,26.9536296 13.9968769,26.9536296 C17.3084154,26.9536296 20.4304154,25.8284444 22.9418,23.8031111 L3.2718,4.86162963 Z" id="Fill-1"></path>
                    <path d="M24.7166769,22.0912741 C26.8199077,19.6739407 27.9883692,16.6696444 27.9883692,13.4776444 C27.9883692,9.87705185 26.5334462,6.4932 23.8896,3.94727407 C21.2479077,1.40238519 17.7339077,0.000311111111 13.9969846,0.000311111111 C10.6811385,0.000311111111 7.55806154,1.12653333 5.04775385,3.15082963 L24.7166769,22.0912741 Z" id="Fill-3"></path>
                </g>
            </g>
        </g>
    </g>
</svg>