<svg xmlns="http://www.w3.org/2000/svg" fill="none" viewBox="0 0 40 40">
  <defs/>
  <path fill="#fff" fill-rule="evenodd" d="M31.26 23.56c.32-.5.48-1.3.49-2.36v-2.17c0-1.13-.16-1.97-.48-2.52a1.61 1.61 0 00-1.5-.82c-.67 0-1.17.26-1.48.79a4.88 4.88 0 00-.5 2.42v2.23c0 1.09.16 1.9.49 2.41.32.52.83.78 1.5.78s1.16-.25 1.48-.76" clip-rule="evenodd"/>
  <mask id="a" width="37" height="37" x="3" y="0" maskUnits="userSpaceOnUse">
    <path fill="#fff" fill-rule="evenodd" d="M3.46 0H40v36.6H3.46V0z" clip-rule="evenodd"/>
  </mask>
  <g mask="url(#a)">
    <path fill="#fff" fill-rule="evenodd" d="M31.82 0H8.18S5.7 0 3.46 1.38l12.36 12.36h3.95a4.1 4.1 0 012.93.99c.7.65 1.04 1.59 1.04 2.8 0 1.3-.4 2.3-1.15 2.99l3.06 3.06a7.19 7.19 0 01-.39-2.4v-2.14c0-1.71.4-3.06 1.2-4.02.79-.97 1.9-1.45 3.31-1.45 1.4 0 2.49.47 3.3 1.42.8.95 1.2 2.28 1.21 4v2.13c0 1.68-.4 2.99-1.19 3.92-.79.92-1.9 1.39-3.3 1.39-.56 0-1.06-.1-1.53-.24L38.68 36.6A8.27 8.27 0 0040 31.8V8.19S40 0 31.82 0" clip-rule="evenodd"/>
  </g>
  <path fill="#fff" fill-rule="evenodd" d="M21.21 17.73c0-1.25-.49-1.88-1.47-1.88h-1.48v.34l2.68 2.67c.17-.3.27-.67.27-1.13M21.4 26.26l-1.88-4.58h-1.26v4.58h-2.52V17.8l-2.38-2.37c.45.67.68 1.49.68 2.45 0 1.22-.36 2.19-1.09 2.9a4.14 4.14 0 01-3.02 1.07H8.24v4.4H5.72V13.74h4.26c.9 0 1.67.21 2.31.63L1.32 3.4A8.25 8.25 0 000 8.18v23.64S0 40 8.18 40h23.64s2.5 0 4.72-1.38L24.12 26.19v.07H21.4z" clip-rule="evenodd"/>
  <path fill="#fff" fill-rule="evenodd" d="M8.24 19.75h1.74c.48 0 .85-.16 1.12-.47.26-.32.4-.78.4-1.38 0-.62-.14-1.12-.41-1.49a1.3 1.3 0 00-1.09-.56H8.24v3.9z" clip-rule="evenodd"/>
  <path fill="#fff" fill-rule="evenodd" d="M11.09 16.41a1.3 1.3 0 00-1.08-.56H8.24v3.9h1.74c.48 0 .85-.16 1.12-.47.26-.32.4-.78.4-1.38 0-.62-.14-1.12-.41-1.49" clip-rule="evenodd"/>
</svg>
