<svg width="25" height="25" viewBox="0 0 25 25" fill="none" xmlns="http://www.w3.org/2000/svg">
<path fill-rule="evenodd" clip-rule="evenodd" d="M18.6875 10.2863L11.6125 17.3612C11.125 17.8487 10.3375 17.8487 9.85 17.3612L6.3125 13.8237C5.825 13.3363 5.825 12.55 6.3125 12.0612C6.8 11.5738 7.5875 11.5738 8.075 12.0612L10.725 14.7113L16.9125 8.52375C17.4 8.03625 18.1875 8.03625 18.675 8.52375C19.175 9.01125 19.175 9.79875 18.6875 10.2863ZM12.5 0C5.6 0 0 5.59875 0 12.5C0 19.3988 5.6 25 12.5 25C19.4 25 25 19.3988 25 12.5C25 5.59875 19.4 0 12.5 0Z" fill="white"/>
</svg>
