<svg width="25" height="25" viewBox="0 0 25 25" fill="none" xmlns="http://www.w3.org/2000/svg">
<path fill-rule="evenodd" clip-rule="evenodd" d="M17.8625 16.1125C18.35 16.6012 18.35 17.3888 17.8625 17.875C17.375 18.3638 16.5863 18.3638 16.1 17.875L12.5 14.2637L8.8875 17.875C8.4 18.3638 7.6125 18.3638 7.125 17.875C6.6375 17.3888 6.6375 16.6012 7.125 16.1125L10.7375 12.5L7.1375 8.8875C6.65 8.40125 6.65 7.6125 7.1375 7.12625C7.625 6.6375 8.4125 6.6375 8.9 7.12625L12.5 10.7375L16.1125 7.12625C16.6 6.6375 17.3875 6.6375 17.875 7.12625C18.3625 7.6125 18.3625 8.40125 17.875 8.8875L14.2625 12.5L17.8625 16.1125ZM12.5 0C5.5875 0 0 5.58875 0 12.5C0 19.4137 5.5875 25 12.5 25C19.4125 25 25 19.4137 25 12.5C25 5.58875 19.4125 0 12.5 0Z" fill="white"/>
</svg>
