<svg xmlns="http://www.w3.org/2000/svg" fill="none" viewBox="0 0 20 20">
  <defs/>
  <path fill="#fff" fill-rule="evenodd" d="M14.29 12.89a.996.996 0 010 1.41.994.994 0 01-1.41 0L10 11.411 7.11 14.3a.994.994 0 01-1.41 0 .996.996 0 010-1.41L8.59 10 5.71 7.11a.995.995 0 010-1.409.994.994 0 011.41 0L10 8.59l2.89-2.889a.994.994 0 011.41 0 .995.995 0 010 1.409L11.41 10l2.88 2.89zM10 0C4.47 0 0 4.471 0 10c0 5.531 4.47 10 10 10s10-4.469 10-10c0-5.529-4.47-10-10-10z" clip-rule="evenodd"/>
  <path fill="#000" fill-rule="evenodd" d="M14.29 12.89a.996.996 0 010 1.41.994.994 0 01-1.41 0L10 11.411 7.11 14.3a.994.994 0 01-1.41 0 .996.996 0 010-1.41L8.59 10 5.71 7.11a.995.995 0 010-1.409.994.994 0 011.41 0L10 8.59l2.89-2.889a.994.994 0 011.41 0 .995.995 0 010 1.409L11.41 10l2.88 2.89z" clip-rule="evenodd"/>
</svg>
