<svg xmlns="http://www.w3.org/2000/svg" fill="none" viewBox="0 0 40 40">
  <defs/>
  <path fill="#fff" fill-rule="evenodd" d="M27.64 15.78c-.65 0-1.13.25-1.45.75-.3.5-.47 1.25-.48 2.27v1.95c0 1.08.16 1.87.48 2.38.32.52.81.77 1.47.77.64 0 1.12-.25 1.43-.76.32-.51.48-1.29.49-2.33v-1.89c0-1.07-.16-1.86-.48-2.37a1.6 1.6 0 00-1.46-.77M16.4 21.33h2.29l-1.14-4.2-1.14 4.2z" clip-rule="evenodd"/>
  <mask id="a" width="39" height="38" x="0" y="1" maskUnits="userSpaceOnUse">
    <path fill="#fff" fill-rule="evenodd" d="M0 1.38h38.96V39H0V1.38z" clip-rule="evenodd"/>
  </mask>
  <g mask="url(#a)">
    <path fill="#fff" fill-rule="evenodd" d="M30.55 27.82l-2.25-1.98-.64.04a4.04 4.04 0 01-3.24-1.35 5.58 5.58 0 01-1.17-3.75v-1.84c0-1.62.38-2.88 1.16-3.79a4.02 4.02 0 013.23-1.36c1.35 0 2.4.44 3.19 1.31.78.87 1.19 2.1 1.21 3.68v1.97c0 1.95-.54 3.36-1.63 4.24l1.68 1.46-1.54 1.37zm-10.67-2.1l-.65-2.4h-3.36l-.65 2.4h-2.6l3.8-11.77h2.26l3.83 11.77h-2.63zm-10.55 0H6.87V13.95h6.74v1.98H9.33v3.02h3.82v1.97H9.33v4.8zM30.99 1.38H7.97S0 1.38 0 9.08V31.3S0 39 7.97 39h23.02s7.97 0 7.97-7.7V9.07s0-7.7-7.97-7.7z" clip-rule="evenodd"/>
  </g>
</svg>
