<svg xmlns="http://www.w3.org/2000/svg" fill="none" viewBox="0 0 106 162">
  <defs/>
  <path fill="#fff" fill-opacity=".3" fill-rule="evenodd" d="M36.36 161.34c-1.94-1.22-3.95-2.34-5.8-3.67a95.36 95.36 0 01-6.73-5.27 74.3 74.3 0 01-5.88-5.62 64.2 64.2 0 01-8.62-11.33c-1.2-2.06-2.43-4.11-3.46-6.25a52.38 52.38 0 01-4.47-13.5 43.47 43.47 0 01-.88-7.88c0-1.67-.12-3.34.02-4.99A46.3 46.3 0 013.1 90.97 64.68 64.68 0 017.8 80.9c3.1-5.47 6.8-10.5 10.52-15.55 2.57-3.48 5.1-6.99 7.62-10.5a92.5 92.5 0 009.13-15.55 50 50 0 004-12.42c.29-1.7.45-3.43.6-5.15.11-1.44.24-2.9.13-4.34a67.74 67.74 0 00-.86-7.27c-.58-3.15-1.39-6.25-2.11-9.44.67.36 1.43.68 2.09 1.15 4.03 2.87 8.09 5.7 12.04 8.69a89.4 89.4 0 017.13 5.98c2.7 2.53 5.4 5.1 7.81 7.9 2.74 3.21 5.2 6.67 7.7 10.08a92.3 92.3 0 016.73 10.9 74.86 74.86 0 016.32 14.95c.76 2.66 1.2 5.42 1.77 8.13.67 3.22.73 6.49.55 9.74a38.6 38.6 0 01-2.26 10.72l-.24.7c1.57-.66 4.8-5.18 5.96-9.14 1-3.38 1.6-6.26.42-10.9l.17-.14c1.65 2.12 3.39 4.17 4.92 6.37a39 39 0 016.18 14c.4 1.76.63 3.58.86 5.38.17 1.3.32 2.62.3 3.93a54.82 54.82 0 01-1.8 13.4 74.2 74.2 0 01-4.31 11.87 87.97 87.97 0 01-6.8 12.3c-1.85 2.78-3.71 5.55-5.68 8.25a71.2 71.2 0 01-4.31 5.27 74.48 74.48 0 01-4.72 4.9c-1.81 1.7-3.76 3.25-5.64 4.87l-.17-.15c.65-.87 1.34-1.7 1.93-2.6a25.6 25.6 0 003.85-9.95c.23-1.4.45-2.85.43-4.27a34.68 34.68 0 00-4.63-16.68 91.54 91.54 0 00-5.39-8.35c-1.76-2.42-3.8-4.62-5.74-6.9-2.88-3.4-5.86-6.73-8.24-10.55a30.03 30.03 0 01-3.9-9.16c-.12-.5-.13-1.03-.21-1.69-.55.67-1.07 1.24-1.51 1.87-2.97 4.21-6 8.38-8.85 12.68-1.75 2.65-3.26 5.48-4.79 8.28a63.82 63.82 0 00-5.15 12.33 39.57 39.57 0 00-1.63 7.78c-.15 1.67-.42 3.35-.42 5.03.01 1.88.16 3.77.44 5.63.34 2.2.76 4.4 1.35 6.55a24.65 24.65 0 004.59 8.74c.75.95 1.66 1.76 2.5 2.64l-.12.13z" clip-rule="evenodd"/>
</svg>
