<svg xmlns="http://www.w3.org/2000/svg" fill="none" viewBox="0 0 19 15">
  <defs/>
  <path fill="#00F050" fill-rule="evenodd" d="M14.18 9.6V15H3.83V9.6c0-1.71 3.45-2.58 5.18-2.58 1.72 0 5.17.87 5.17 2.59zM9.01 1.2a2.59 2.59 0 110 5.17A2.59 2.59 0 019 1.2m6.46 8.4V15h2.6V9.6c0-1.4-2.32-2.24-4.11-2.5.89.6 1.51 1.42 1.51 2.5zM12.9 3.8c0-.92-.33-1.77-.86-2.43a2.59 2.59 0 11.06 4.88l-.06-.02c.53-.67.86-1.51.86-2.43M6.03 6.22l-.06.02a2.59 2.59 0 11.06-4.88 3.87 3.87 0 000 4.86M0 15h2.59V9.6c0-1.08.62-1.9 1.51-2.5C2.32 7.37 0 8.2 0 9.6V15z" clip-rule="evenodd"/>
</svg>
