<svg width="31" height="23" viewBox="0 0 31 23" fill="none" xmlns="http://www.w3.org/2000/svg">
<path fill-rule="evenodd" clip-rule="evenodd" d="M23.6325 14.014V23H6.38452V14.014C6.38452 11.1465 12.1303 9.702 15.0085 9.702C17.8868 9.702 23.6325 11.1465 23.6325 14.014ZM15.0085 0C17.3909 0 19.3205 1.92962 19.3205 4.312C19.3205 6.69438 17.3909 8.624 15.0085 8.624C12.6261 8.624 10.6965 6.69438 10.6965 4.312C10.6965 1.92962 12.6261 0 15.0085 0ZM25.7885 14.014V23H30.1005V14.014C30.1005 11.664 26.2413 10.2733 23.266 9.84214C24.7429 10.8447 25.7885 12.203 25.7885 14.014ZM21.4765 4.312C21.4765 2.78124 20.9375 1.36906 20.0428 0.25872C20.4955 0.1078 20.9699 0 21.4765 0C23.8589 0 25.7885 1.92962 25.7885 4.312C25.7885 6.69438 23.8589 8.624 21.4765 8.624C21.013 8.624 20.571 8.52698 20.1506 8.39762C20.1182 8.38684 20.0859 8.37606 20.0428 8.36528C20.9375 7.25494 21.4765 5.84276 21.4765 4.312Z" fill="#2F7570"/>
<path fill-rule="evenodd" clip-rule="evenodd" d="M10.0575 8.36504C10.0144 8.37582 9.98205 8.3866 9.94971 8.39738C9.52929 8.52674 9.08731 8.62376 8.62377 8.62376C6.24139 8.62376 4.31177 6.69414 4.31177 4.31176C4.31177 1.92938 6.24139 -0.000244141 8.62377 -0.000244141C9.13043 -0.000244141 9.60475 0.107556 10.0575 0.258476C9.16277 1.36882 8.62377 2.781 8.62377 4.31176C8.62377 5.84252 9.16277 7.2547 10.0575 8.36504Z" fill="#2F7570"/>
<path fill-rule="evenodd" clip-rule="evenodd" d="M-0.000244141 23H4.31176V14.014C4.31176 12.203 5.35742 10.8447 6.83428 9.84216C3.859 10.2734 -0.000244141 11.664 -0.000244141 14.014V23Z" fill="#2F7570"/>
</svg>
