<svg xmlns="http://www.w3.org/2000/svg" fill="none" viewBox="0 0 32 30">
  <defs/>
  <mask id="a" width="30" height="30" x="1" y="0" maskUnits="userSpaceOnUse">
    <path fill="#fff" fill-rule="evenodd" d="M1.03223 0H30.9677v30H1.03223V0z" clip-rule="evenodd"/>
  </mask>
  <g mask="url(#a)">
    <path fill="#fff" fill-rule="evenodd" d="M30.3868 15.4382L16.8569 28.5119c-2.0533 1.9841-5.4116 1.9841-7.4636 0l-6.81175-6.5821c-1.00817-.9742-1.55845-2.2812-1.54921-3.643l.1214-14.27241s2.32249.02677 2.37792.04463c.38268.02677.72841.17979 1.00817.45139.20585.19764.33649.43226.41171.68474.02771.04462 1.72471 6.10395 1.72471 6.10395L17.7899.56137c.7746-.7485 2.0243-.7485 2.7989 0 .7746.74722.7746 1.95603 0 2.70452l-6.5307 6.31056.9329.90155 8.8651-8.56501c.7746-.74849 2.0242-.74849 2.7988 0 .7746.7485.7746 1.95731 0 2.7058l-8.865 8.56501.9329.9015 7.9321-7.66349c.7746-.7485 2.0243-.7485 2.7989 0 .7746.74849.7746 1.95603 0 2.70452L21.523 16.7911l.933.9015 5.1319-4.959c.7746-.7485 2.0243-.7485 2.7989 0 .7746.7473.7746 1.9561 0 2.7046" clip-rule="evenodd"/>
  </g>
</svg>
