<svg xmlns="http://www.w3.org/2000/svg" fill="none" viewBox="0 0 22 20">
  <defs/>
  <path stroke="#fff" stroke-linejoin="round" d="M10.6154 2.68818a.5.5 0 00.3849.1809.5.5 0 00.3849-.1809c1.7973-2.1681 5.094-3.02217 7.7498-1.15702 1.4055.99439 2.3003 2.68252 2.3613 4.45805.0662 2.03461-.7666 3.90185-2.3764 5.95979-1.6172 2.0676-3.9699 4.268-6.8666 6.9749l-.0005.0004-.1209.1133-.0027.0025c-.643.6113-1.6285.6114-2.27143.0089l-.00187-.0017-.10822-.1004-.00173-.0016-.03781-.0354c-2.87891-2.6959-5.22024-4.8884-6.83163-6.9482C1.26528 9.90222.43302 8.03552.50422 6.00179l.00002-.00048c.06087-1.78805.95529-3.47644 2.36185-4.47051C5.51936-.34408 8.8169.5186 10.6154 2.68818z"/>
</svg>
