<svg xmlns="http://www.w3.org/2000/svg" fill="none" viewBox="0 0 28 28">
  <defs/>
  <mask id="a" width="28" height="28" x="0" y="0" maskUnits="userSpaceOnUse">
    <path fill="#fff" fill-rule="evenodd" d="M0 0h28v28H0V0z" clip-rule="evenodd"/>
  </mask>
  <g mask="url(#a)">
    <path fill="#fff" fill-rule="evenodd" d="M18 12.04c-1.06 1.55-2.07 2.04-2.61 3.04a2.2 2.2 0 00-.27.82c-.08.65-.6 1.15-1.26 1.15h-.06c-.74 0-1.33-.63-1.26-1.37.05-.46.16-.95.42-1.4.69-1.22 2-1.95 2.75-3.02.8-1.14.35-3.27-1.92-3.27-1.04 0-1.7.55-2.12 1.2-.3.47-.95.64-1.5.41-.7-.29-1-1.16-.57-1.8a4.89 4.89 0 014.16-2.2c2.07 0 3.49.94 4.21 2.13.62 1 .99 2.9.03 4.31M13.8 22.4a1.76 1.76 0 110-3.51c1 0 1.75.75 1.75 1.75 0 .96-.76 1.76-1.75 1.76M14 0a14 14 0 10.01 28.01A14 14 0 0014 0" clip-rule="evenodd"/>
  </g>
</svg>
