<svg xmlns="http://www.w3.org/2000/svg" fill="none" viewBox="0 0 27 27">
  <defs/>
  <path fill="#fff" fill-rule="evenodd" d="M13.5 17.8c-5.68 0-5.69-8.6 0-8.6 5.68 0 5.69 8.6 0 8.6zm-6.62-4.3a6.62 6.62 0 1013.24 0 6.62 6.62 0 00-13.24 0zm11.96-6.88a1.55 1.55 0 103.09 0 1.55 1.55 0 00-3.1 0zM1.28 5.06C.5 7.09.61 9.72.61 13.5c0 3.31-.11 6.42.67 8.44 1.91 4.92 6.97 4.44 12.22 4.44 5.06 0 10.27.53 12.21-4.44.8-2.05.68-4.65.68-8.44 0-5.04.28-8.29-2.16-10.73C21.75.3 18.4.61 13.49.61 8.22.61 3.2.14 1.3 5.06z" clip-rule="evenodd"/>
</svg>
