<svg width="30" height="30" viewBox="0 0 30 30" fill="none" xmlns="http://www.w3.org/2000/svg">
<path d="M15.5176 14.4863H21.7153C21.6517 12.23 21.1806 10.0407 20.3362 8.01167C18.778 8.4652 17.1623 8.71481 15.5176 8.75892V14.4863Z" fill="#2F7570"/>
<path d="M20.9063 6.73978C22.4221 6.21566 23.8732 5.49851 25.2176 4.57639L25.5556 4.31692C23.0826 1.86242 19.7653 0.26517 16.0851 0L15.8169 0.218467C17.9984 2.02899 19.7234 4.25465 20.9063 6.73978Z" fill="#2F7570"/>
<path d="M15.5176 1.32793V7.72107C17.0142 7.67851 18.4844 7.45486 19.9039 7.05529C18.8546 4.89657 17.3719 2.94957 15.5176 1.32793Z" fill="#2F7570"/>
<path d="M21.5 21.8638C23.1204 22.4512 24.6682 23.2483 26.0997 24.2711L26.549 24.6084C28.6073 22.1253 29.8824 18.9698 29.9994 15.5246H22.7507C22.6922 17.7238 22.2636 19.8613 21.5 21.8638Z" fill="#2F7570"/>
<path d="M4.78189 4.57639C6.12633 5.49851 7.57792 6.21515 9.09319 6.73978C10.2761 4.25517 12.001 2.02951 14.1831 0.218467L13.9149 0C10.2264 0.265689 6.90182 1.86968 4.42676 4.33301L4.78189 4.57639Z" fill="#2F7570"/>
<path d="M14.4821 1.32793C12.6272 2.94957 11.1451 4.89709 10.0957 7.05477C11.5152 7.45434 12.9854 7.67851 14.4821 7.72055V1.32793Z" fill="#2F7570"/>
<path d="M7.24918 15.5241H0C0.117515 18.9693 1.39206 22.1243 3.45039 24.6079L3.89042 24.2784C5.32701 23.2524 6.878 22.4528 8.50095 21.8643C7.73581 19.8602 7.30768 17.7228 7.24918 15.5241Z" fill="#2F7570"/>
<path d="M8.6723 7.69096C7.10009 7.13883 5.59465 6.39106 4.19741 5.43312L3.71182 5.09998C1.50181 7.62765 0.122174 10.8989 0 14.4863H7.24918C7.31182 12.12 7.79689 9.82218 8.6723 7.69096Z" fill="#2F7570"/>
<path d="M8.28467 14.4863H14.4824V8.75892C12.8367 8.71481 11.2205 8.4652 9.66327 8.0127C8.81892 10.0412 8.34783 12.23 8.28467 14.4863Z" fill="#2F7570"/>
<path d="M14.1313 29.7457C11.8436 27.8283 10.0721 25.4599 8.89693 22.8228C7.34801 23.3801 5.86794 24.1398 4.50073 25.1164L4.14404 25.3837C6.61548 27.9798 9.99909 29.6928 13.7756 30L14.1313 29.7457Z" fill="#2F7570"/>
<path d="M14.4824 20.7331V15.5241H8.28467C8.34317 17.6097 8.75318 19.6361 9.48208 21.5333C11.0936 21.0465 12.7709 20.7787 14.4824 20.7331Z" fill="#2F7570"/>
<path d="M25.4888 25.1091C24.1268 24.1362 22.6508 23.3785 21.1045 22.8228C19.9283 25.4662 18.1547 27.8366 15.8691 29.7473L16.2238 30C20.0003 29.6928 23.3844 27.9803 25.8559 25.3842L25.4888 25.1091Z" fill="#2F7570"/>
<path d="M25.8248 5.41653C24.4167 6.38276 22.9035 7.13468 21.3267 7.68941C22.2026 9.82115 22.6877 12.1195 22.7508 14.4863H30C29.8773 10.8875 28.4899 7.60742 26.268 5.07663L25.8248 5.41653Z" fill="#2F7570"/>
<path d="M14.4824 28.6825V21.7709C12.9091 21.815 11.368 22.0594 9.88428 22.4974C10.9419 24.8372 12.4976 26.9472 14.4824 28.6825Z" fill="#2F7570"/>
<path d="M21.7153 15.5241H15.5176V20.7331C17.2296 20.7787 18.9074 21.0465 20.5195 21.5333C21.2463 19.6366 21.6563 17.6102 21.7153 15.5241Z" fill="#2F7570"/>
<path d="M20.1172 22.4974C18.6335 22.0594 17.0913 21.8155 15.5176 21.7709V28.6845C17.5008 26.955 19.058 24.8429 20.1172 22.4974Z" fill="#2F7570"/>
</svg>
