<svg width="30" height="30" viewBox="0 0 30 30" fill="none" xmlns="http://www.w3.org/2000/svg">
<g clip-path="url(#clip0_503_1268)">
<path d="M7.01097 30C5.80737 30 4.72418 29.5186 3.8816 28.676C3.03902 27.8334 2.19656 27.1113 1.47443 26.2688C-0.330993 24.4634 -0.330993 21.5748 1.47443 19.7692C3.52063 17.723 5.56664 15.677 7.61285 13.6308C8.45542 12.7882 9.17753 11.9458 10.02 11.2236C11.9458 9.41821 14.7141 9.41821 16.5196 11.2236C16.8806 11.5847 17.2418 11.9458 17.7232 12.4272C18.325 13.0291 18.325 13.8716 17.7232 14.4734C17.1214 15.0753 16.2788 15.0753 15.677 14.4734C15.316 14.1124 14.9548 13.7513 14.4734 13.3902C13.6308 12.668 12.668 12.668 11.9458 13.3902C9.05721 16.2788 6.28883 19.0472 3.40022 21.9358C2.67803 22.658 2.67803 23.7413 3.40022 24.4634C4.2428 25.306 4.96491 26.0281 5.8074 26.8706C6.64989 27.7131 7.61282 27.5928 8.45537 26.8706C9.89976 25.4262 11.344 23.982 12.9088 22.4172C13.3902 21.9358 13.8716 21.8154 14.4734 21.9358C15.4363 22.1766 15.7974 23.5005 15.0753 24.2226C13.5106 25.9076 11.8255 27.5928 10.1405 29.1574C9.17762 29.6388 8.21466 30 7.01109 30L7.01097 30Z" fill="#2F7570"/>
<path d="M29.8795 7.61282C29.8795 8.33501 29.5185 9.41824 28.5555 10.2608C25.6669 13.1494 22.7781 16.0382 19.8895 18.9268C18.0841 20.7322 15.3157 20.6118 13.5103 18.9268C13.1493 18.5657 12.6677 18.2046 12.3067 17.7232C11.7049 17.1214 11.7049 16.2788 12.3067 15.677C12.9085 15.0751 13.7511 15.1956 14.3529 15.677C14.7139 16.038 15.0751 16.3992 15.5565 16.7602C16.2787 17.4824 17.3619 17.4824 18.0841 16.7602C20.9727 13.8716 23.7411 11.1032 26.6297 8.21457C27.3519 7.49238 27.3519 6.40915 26.6297 5.68699C25.9075 4.96482 25.065 4.1223 24.3429 3.40019C23.5003 2.55761 22.5375 2.55761 21.6949 3.40019C20.2505 4.84458 18.8063 6.2888 17.3619 7.7332C16.8805 8.2146 16.3991 8.33501 15.7973 8.2146C14.8344 7.85358 14.4732 6.64992 15.1954 5.92781C16.038 5.08523 16.7601 4.36312 17.6026 3.52063C18.3248 2.79843 19.047 2.07623 19.7692 1.35407C21.5746 -0.451355 24.3429 -0.451355 26.2688 1.35407C27.1113 2.19664 27.9538 3.0391 28.7964 3.88165C29.3982 4.8445 29.8796 5.92786 29.8796 7.61285L29.8795 7.61282Z" fill="#2F7570"/>
</g>
<defs>
<clipPath id="clip0_503_1268">
<rect width="30" height="30" fill="white"/>
</clipPath>
</defs>
</svg>
