<svg xmlns="http://www.w3.org/2000/svg" fill="none" viewBox="0 0 40 40">
  <defs/>
  <path fill="#2F7570" fill-rule="evenodd" d="M31.82 0H8.18S0 0 0 8.18v23.64S0 40 8.18 40h23.64S40 40 40 31.82V8.18S40 0 31.82 0zm-1 19.43a.61.61 0 000-.86l-3.31-3.39c-.37-.38-1.01-.12-1.01.43v2.17h-8.31A1.2 1.2 0 0017 19c0 .67.54 1.21 1.19 1.21h8.31v2.18c0 .54.64.81 1 .43l3.32-3.39zM24 28.83c0 .6-.16 1.17-1.18 1.17h-10.4A2.39 2.39 0 0110 27.67V11.33A2.38 2.38 0 0112.42 9h10.21C24 9 24 10.19 24 10.19s0 1.14-1.37 1.14H12.42v16.34h10.4c1.02 0 1.18.58 1.18 1.17z" clip-rule="evenodd"/>
</svg>
