<svg xmlns="http://www.w3.org/2000/svg" fill="none" viewBox="0 0 30 30">
  <defs/>
  <mask id="a" width="19" height="21" x="11" y="9" maskUnits="userSpaceOnUse">
    <path fill="#fff" fill-rule="evenodd" d="M11.08 9.65h18.19v19.62H11.08V9.65z" clip-rule="evenodd"/>
  </mask>
  <g mask="url(#a)">
    <path fill="#004646" fill-rule="evenodd" d="M19.08 29.27h8.15c1.13 0 2.04-1.11 2.04-2.49V9.65c-2.16 4.87-6.51 11.06-6.51 11.06s-2.68-3.8-4.87-7.8l-6.8 4.65 8 11.7z" clip-rule="evenodd"/>
  </g>
  <path fill="#004646" fill-rule="evenodd" d="M0 25.14v1.64c0 1.38.91 2.49 2.03 2.49h14.22l-7.1-10.39L0 25.14zM15.07 5.53c0-2.17.9-4.13 2.35-5.53H2.03C.91 0 0 1.11 0 2.48v19.83l16.8-11.48c-1-2.06-1.73-4-1.73-5.3z" clip-rule="evenodd"/>
  <path fill="#fff" fill-rule="evenodd" d="M11.08 17.56l6.8-4.65c-.38-.7-.75-1.4-1.08-2.08L0 22.3v2.83l9.15-6.26 7.1 10.39h2.83l-8-11.7z" clip-rule="evenodd"/>
  <path fill="#0F0" fill-rule="evenodd" d="M22.87 8.06a2.37 2.37 0 110-4.75 2.37 2.37 0 010 4.75zm0-8.05A5.88 5.88 0 0017 5.9c0 3.25 5.87 11.6 5.87 11.6s5.88-8.35 5.88-11.6A5.88 5.88 0 0022.87.01z" clip-rule="evenodd"/>
</svg>
