<svg width="262" height="250" viewBox="0 0 262 250" fill="none" xmlns="http://www.w3.org/2000/svg">
<path fill-rule="evenodd" clip-rule="evenodd" d="M29.6639 0.0004C29.6486 0.000133704 29.6333 0 29.618 0H17.777H14.412H2.566C1.15 0 0 1.15 0 2.563C0 3.074 0.157 3.571 0.441 3.998L11.9996 21.0612V238C11.9996 244.628 17.3722 250 23.9996 250H250C256.627 250 262 244.628 262 238V12.0004C262 5.37298 256.627 0.0004 250 0.0004H29.6639Z" fill="#1D1D1D"/>
<mask id="mask0" mask-type="alpha" maskUnits="userSpaceOnUse" x="0" y="0" width="262" height="251">
<path fill-rule="evenodd" clip-rule="evenodd" d="M29.6639 0.0004C29.6486 0.000133704 29.6333 0 29.618 0H17.777H14.412H2.566C1.15 0 0 1.15 0 2.563C0 3.074 0.157 3.571 0.441 3.998L11.9996 21.0612V238C11.9996 244.628 17.3722 250 23.9996 250H250C256.627 250 262 244.628 262 238V12.0004C262 5.37298 256.627 0.0004 250 0.0004H29.6639Z" fill="white"/>
</mask>
<g mask="url(#mask0)">
</g>
</svg>
