<svg xmlns="http://www.w3.org/2000/svg" fill="none" viewBox="0 0 75 75">
  <defs/>
  <path fill="#00F000" fill-rule="evenodd" d="M48.895 75h20.893c2.88 0 5.213-2.85 5.213-6.368V24.716c-5.525 12.487-16.687 28.347-16.687 28.347s-6.858-9.745-12.483-19.971L28.396 45.008 48.895 75zM0 64.415v4.217C0 72.15 2.333 75 5.213 75h36.423L23.448 48.388 0 64.415zM38.605 14.178A19.646 19.646 0 0144.632 0H5.212C2.333 0 0 2.85 0 6.367v50.79l43.04-29.416c-2.575-5.264-4.434-10.221-4.434-13.563z" clip-rule="evenodd"/>
  <path fill="#fff" fill-rule="evenodd" d="M28.396 45.008L45.83 33.092a126.683 126.683 0 01-2.79-5.351L0 57.157v7.258l23.448-16.026 18.188 26.61h7.258L28.396 45.009zM58.613 20.644a6.077 6.077 0 11.002-12.151 6.077 6.077 0 01-.002 12.15zm0-20.615c-8.319 0-15.062 6.744-15.062 15.064 0 8.319 15.062 29.72 15.062 29.72s15.065-21.401 15.065-29.72c0-8.32-6.746-15.064-15.065-15.064z" clip-rule="evenodd"/>
</svg>
