<svg xmlns="http://www.w3.org/2000/svg" fill="none" viewBox="0 0 29 29">
  <defs/>
  <path fill="#fff" fill-rule="evenodd" d="M14.5 12.88a3.62 3.62 0 100 7.24 3.62 3.62 0 000-7.25z" clip-rule="evenodd"/>
  <path fill="#fff" fill-rule="evenodd" d="M14.5 23.02a6.53 6.53 0 010-13.04 6.53 6.53 0 010 13.04zM26.1 4.9h-4.6l-1.8-1.96A2.89 2.89 0 0017.58 2h-6.14c-.82 0-1.6.35-2.15.94L7.5 4.9H2.9A2.9 2.9 0 000 7.8v17.4c0 1.6 1.3 2.9 2.9 2.9h23.2c1.6 0 2.9-1.3 2.9-2.9V7.8c0-1.6-1.3-2.9-2.9-2.9z" clip-rule="evenodd"/>
</svg>
