<svg xmlns="http://www.w3.org/2000/svg" fill="none" viewBox="0 0 32 30">
  <defs/>
  <g filter="url(#filter0_d)">
    <mask id="a" width="24" height="22" x="4" y="2" maskUnits="userSpaceOnUse">
      <path fill="#fff" fill-rule="evenodd" d="M4 2.00061h23.9584V23.0028H4V2.00061z" clip-rule="evenodd"/>
    </mask>
    <g mask="url(#a)">
      <path fill="#FDFDFC" fill-rule="evenodd" d="M17.1517 18.3361c0 .6417-.525 1.1667-1.1667 1.1667s-1.1667-.525-1.1667-1.1667c0-.6416.525-1.1666 1.1667-1.1666s1.1667.525 1.1667 1.1666zm-1.1667-2.3333c-.6417 0-1.1667-.525-1.1667-1.1667v-3.5c0-.6416.525-1.1666 1.1667-1.1666s1.1667.525 1.1667 1.1666v3.5c0 .6417-.525 1.1667-1.1667 1.1667zm-10.81498 7H26.7884c.8983 0 1.4583-.9683 1.015-1.75L16.9883 2.58613c-.455-.78167-1.5749-.78167-2.0183 0L4.15502 21.2528c-.44334.7817.11666 1.75 1.015 1.75z" clip-rule="evenodd"/>
    </g>
  </g>
  <defs>
    <filter id="filter0_d" width="32" height="29.0028" x="0" y="0" color-interpolation-filters="sRGB" filterUnits="userSpaceOnUse">
      <feFlood flood-opacity="0" result="BackgroundImageFix"/>
      <feColorMatrix in="SourceAlpha" values="0 0 0 0 0 0 0 0 0 0 0 0 0 0 0 0 0 0 127 0"/>
      <feOffset dy="2"/>
      <feGaussianBlur stdDeviation="2"/>
      <feColorMatrix values="0 0 0 0 0 0 0 0 0 0 0 0 0 0 0 0 0 0 0.5 0"/>
      <feBlend in2="BackgroundImageFix" result="effect1_dropShadow"/>
      <feBlend in="SourceGraphic" in2="effect1_dropShadow" result="shape"/>
    </filter>
  </defs>
</svg>
