<svg xmlns="http://www.w3.org/2000/svg" fill="none" viewBox="0 0 28 28">
  <defs/>
  <path fill="#fff" fill-rule="evenodd" d="M14 19a5 5 0 11.01-10.01A5 5 0 0114 19zm10.8-5c0-.32-.02-.63-.04-.95l2.67-1.98c.58-.42.74-1.2.38-1.82l-2.7-4.52a1.44 1.44 0 00-1.8-.59l-3.09 1.28a11 11 0 00-1.68-.95l-.42-3.24C18.03.53 17.42 0 16.69 0h-5.37c-.73 0-1.35.53-1.44 1.23l-.42 3.24a11 11 0 00-1.68.95l-3.1-1.28a1.44 1.44 0 00-1.8.6L.2 9.26c-.36.61-.2 1.38.38 1.82l2.67 1.97a10 10 0 000 1.9L.57 16.92c-.58.42-.74 1.2-.38 1.82l2.7 4.52c.35.61 1.13.87 1.8.59l3.09-1.28a11 11 0 001.68.95l.42 3.24c.09.7.7 1.23 1.43 1.23h5.37c.72 0 1.34-.53 1.42-1.23l.42-3.24a11 11 0 001.69-.95l3.1 1.28c.65.28 1.43.02 1.8-.6l2.68-4.51c.36-.62.2-1.39-.37-1.82l-2.68-1.98c.04-.32.06-.63.06-.95z" clip-rule="evenodd"/>
</svg>
