<svg xmlns="http://www.w3.org/2000/svg" fill="none" viewBox="0 0 40 40">
  <defs/>
  <path fill="#fff" fill-rule="evenodd" d="M19.49 15.28c-.65 0-1.14.26-1.45.77-.31.52-.47 1.3-.49 2.36v2.17c0 1.06.16 1.85.48 2.35.32.5.81.76 1.48.76.64 0 1.11-.25 1.43-.74.3-.5.47-1.26.47-2.3v-2.12c0-1.1-.15-1.91-.46-2.45-.32-.53-.8-.8-1.46-.8" clip-rule="evenodd"/>
  <path fill="#fff" fill-rule="evenodd" d="M28.45 17.55c.27.27.75.55 1.43.84 1.18.43 2.05.96 2.59 1.58.54.63.8 1.42.8 2.39 0 1.06-.33 1.89-1 2.48-.68.6-1.6.9-2.76.9-.79 0-1.5-.16-2.15-.48a3.65 3.65 0 01-1.52-1.4 4.04 4.04 0 01-.55-2.13h2.47c0 .7.13 1.21.4 1.53.28.32.73.48 1.35.48.86 0 1.29-.45 1.29-1.36 0-.5-.13-.88-.38-1.13a4.4 4.4 0 00-1.39-.8c-1.22-.45-2.1-1-2.64-1.62a3.27 3.27 0 01-.8-2.2 3.1 3.1 0 011.1-2.48 4.12 4.12 0 012.77-.93c.75 0 1.41.16 2 .47.58.32 1.03.76 1.35 1.34a4 4 0 01.47 1.95h-2.45c0-.56-.12-1-.36-1.3-.25-.3-.6-.44-1.05-.44-.43 0-.77.12-1 .38-.25.25-.37.6-.37 1.02 0 .34.14.64.4.91zm-4.57 3.03c0 1.63-.38 2.9-1.16 3.8a4 4 0 01-3.22 1.36 4.05 4.05 0 01-3.22-1.34 5.61 5.61 0 01-1.19-3.77v-2.08c0-1.67.4-2.98 1.17-3.92a3.96 3.96 0 013.23-1.41c1.35 0 2.42.46 3.2 1.38.79.93 1.18 2.22 1.2 3.9v2.08zm-9.76-5.14h-3.01v10.13H8.64V15.44H5.68v-2.05h8.44v2.05zM31 0H7.97S0 0 0 7.97v23.02s0 7.97 7.97 7.97h23.02s7.97 0 7.97-7.97V7.97S38.96 0 31 0z" clip-rule="evenodd"/>
</svg>
