<svg xmlns="http://www.w3.org/2000/svg" fill="none" viewBox="0 0 20 21">
  <defs/>
  <path fill="#fff" fill-rule="evenodd" d="M19.38 5.55a5.61 5.61 0 01-3.24-1A4.97 4.97 0 0114 .58h-3.47v13.68c0 1.3-.9 2.39-2.16 2.77a3.39 3.39 0 01-2.6-.26 2.9 2.9 0 01-1.53-2.47c-.03-1.63 1.39-2.97 3.14-2.97.35 0 .68.06 1 .15V8.21a6.88 6.88 0 00-6 2.01 5.86 5.86 0 00-1.65 3.66 5.84 5.84 0 002.56 5.23 6.98 6.98 0 005.08 1.22c1.4-.2 2.69-.8 3.7-1.73a5.86 5.86 0 001.96-4.3L14 7.06a9.33 9.33 0 005.38 1.7V5.55h-.01" clip-rule="evenodd"/>
</svg>
