<svg xmlns="http://www.w3.org/2000/svg" fill="none" viewBox="0 0 32 31">
  <defs/>
  <path stroke="#fff" stroke-width="1.5" d="M30.08 13.66a1.6 1.6 0 00.39-1.61 1.52 1.52 0 00-1.23-1.08l-8.16-1.22a.39.39 0 01-.29-.22l-3.65-7.65A1.51 1.51 0 0015.77 1c-.58 0-1.1.34-1.36.88l-3.65 7.65a.39.39 0 01-.29.22l-8.16 1.22c-.58.09-1.05.5-1.23 1.08a1.6 1.6 0 00.38 1.61l5.9 5.96c.1.09.14.22.12.35l-1.4 8.4c-.07.47.05.93.34 1.29a1.5 1.5 0 001.87.38l7.3-3.97c.11-.06.25-.06.36 0l7.3 3.97a1.48 1.48 0 001.88-.38c.29-.36.4-.82.33-1.28l-1.4-8.41a.4.4 0 01.12-.35l5.9-5.96z" clip-rule="evenodd"/>
</svg>
