<svg xmlns="http://www.w3.org/2000/svg" fill="none" viewBox="0 0 25 21">
  <defs/>
  <path fill="#fff" fill-rule="evenodd" d="M24.4 2.84c-.9.4-1.87.67-2.88.8a5.02 5.02 0 002.2-2.8c-.97.59-2.03 1-3.17 1.23a4.98 4.98 0 00-8.64 3.46c0 .4.03.79.12 1.16a14.08 14.08 0 01-10.3-5.3 5.09 5.09 0 001.54 6.77A4.87 4.87 0 011 7.53v.06c0 2.46 1.73 4.5 4 4.97a4.95 4.95 0 01-2.26.08c.65 2.01 2.49 3.48 4.67 3.53a9.95 9.95 0 01-7.39 2.1 13.93 13.93 0 007.67 2.26c9.19 0 14.21-7.71 14.21-14.4l-.01-.66c.99-.71 1.82-1.6 2.5-2.63" clip-rule="evenodd"/>
</svg>
