<svg xmlns="http://www.w3.org/2000/svg" fill="none" viewBox="0 0 30 30">
  <mask id="a" width="30" height="30" x="0" y="0" maskUnits="userSpaceOnUse" style="mask-type:alpha">
    <path fill="#fff" d="M0 0h30v30H0V0Z"/>
  </mask>
  <g mask="url(#a)">
    <path fill="#fff" fill-rule="evenodd" d="m18.716 17.858-4.2 4.2c-.481.48-1.294.15-1.294-.529v-8.413c0-.679.813-1.008 1.28-.527l4.2 4.2c.3.3.3.783.014 1.069ZM23.968 0h-.794l2.94 5.881H21.6L18.658 0h-3.01l2.94 5.881h-4.515L11.13 0h-3.01l2.941 5.881H6.546L3.806.401C2.61.803 1.266 1.61.538 3.23.208 3.97 0 4.872 0 5.987v17.795s.003 1.194.525 2.533v.535H.76C1.526 28.419 3.068 30 6.173 30h17.795s3.795-.05 5.362-3.15c.406-.803.67-1.801.67-3.067V5.988S30.125 0 23.968 0Z" clip-rule="evenodd"/>
  </g>
</svg>
