<?xml version="1.0" encoding="UTF-8"?>
<svg width="22px" height="22px" viewBox="0 0 22 22" version="1.1" xmlns="http://www.w3.org/2000/svg" xmlns:xlink="http://www.w3.org/1999/xlink">
    <title>Group 3</title>
    <defs>
        <polygon id="path-1" points="0 0 22 0 22 22 0 22"></polygon>
    </defs>
    <g id="Page-1" stroke="none" stroke-width="1" fill="none" fill-rule="evenodd">
        <g id="M2---Sharing-link" transform="translate(-113.000000, -824.000000)">
            <g id="Group-3" transform="translate(113.000000, 824.000000)">
                <mask id="mask-2" fill="white">
                    <use xlink:href="#path-1"></use>
                </mask>
                <g id="Clip-2"></g>
                <path d="M16.6540907,13.1854071 C16.5871736,13.0757588 16.4106093,13.0100505 16.1467705,12.8786338 C15.881924,12.7476202 14.579661,12.1112974 14.3373889,12.0242238 C14.0951168,11.9369486 13.9171415,11.8928071 13.7417865,12.1554389 C13.5652222,12.4180707 13.0577004,13.0100505 12.9029043,13.1854071 C12.7487128,13.3611668 12.5947229,13.3825321 12.3298763,13.2511154 C12.0644251,13.1201019 11.2112322,12.8415469 10.2004214,11.9478328 C9.41394411,11.250639 8.88243701,10.3913916 8.72723775,10.1285582 C8.57365094,9.86612795 8.71212093,9.72402862 8.8431333,9.59301505 C8.96265689,9.47469972 9.1081814,9.28624174 9.24060467,9.13325821 C9.3732295,8.97926687 9.41737059,8.86941704 9.50565277,8.69406041 C9.59393495,8.51850223 9.54979386,8.36572025 9.48287678,8.23450513 C9.41737059,8.10329 8.88747595,6.81048841 8.66656894,6.28401543 C8.44707284,5.75915492 8.22616583,5.77861218 8.07096656,5.77861218 C7.91697664,5.77861218 7.63116812,5.82446014 7.63116812,5.82446014 C7.63116812,5.82446014 7.1006688,5.89016849 6.85819514,6.15300186 C6.61592304,6.41543212 5.93203848,7.05155338 5.93203848,8.34334717 C5.93203848,9.63574563 6.87996335,10.8854135 7.01218507,11.0595608 C7.14480989,11.2353205 8.8431333,13.9743103 11.5349336,15.026047 C14.2263307,16.077582 14.2263307,15.7266672 14.7118827,15.6823242 C15.1966285,15.6395936 16.2779844,15.0474123 16.4986899,14.4338656 C16.7197984,13.820319 16.7197984,13.2942491 16.6540907,13.1854071 M11.2005497,1.70680446 C6.19245076,1.70680446 2.11998168,5.74806915 2.11998168,10.7171115 C2.11998168,12.6875555 2.76194228,14.5138847 3.84934494,15.9999817 L2.71558406,19.3454635 L6.20434265,18.2368872 C7.63781951,19.1773631 9.35529088,19.7266122 11.2005497,19.7266122 C16.2064315,19.7266122 20.2801099,15.6847429 20.2801099,10.7171115 C20.2801099,5.74806915 16.2064315,1.70680446 11.2005497,1.70680446 M22,10.7171115 C22,16.6348936 17.1648374,21.4334167 11.2005497,21.4334167 C9.30631241,21.4334167 7.52676134,20.9496743 5.9798076,20.0999001 L0,22 L1.94906093,16.2507215 C0.965661933,14.6356265 0.39989006,12.7413719 0.39989006,10.7171115 C0.39989006,4.79812 5.23505268,0 11.2005497,0 C17.1648374,0 22,4.79812 22,10.7171115" id="Fill-1" fill="#FFFFFF" mask="url(#mask-2)"></path>
            </g>
        </g>
    </g>
</svg>