<?xml version="1.0" standalone="no"?>
<!DOCTYPE svg PUBLIC "-//W3C//DTD SVG 20010904//EN"
 "http://www.w3.org/TR/2001/REC-SVG-20010904/DTD/svg10.dtd">
<svg version="1.0" xmlns="http://www.w3.org/2000/svg"
 width="512.000000pt" height="512.000000pt" viewBox="0 0 512.000000 512.000000"
 preserveAspectRatio="xMidYMid meet">
<metadata>
Created by potrace 1.11, written by Peter Selinger 2001-2013
</metadata>
<g transform="translate(0.000000,512.000000) scale(0.100000,-0.100000)"
fill="#000000" stroke="none">
<path d="M774 5095 c-410 -107 -663 -353 -750 -730 -18 -76 -19 -160 -19
-1785 l0 -1705 27 -96 c62 -226 140 -370 273 -504 137 -139 276 -212 483 -255
101 -20 115 -20 1779 -18 l1678 3 97 27 c382 105 628 318 726 628 49 156 47
65 47 1885 l0 1710 -27 97 c-112 408 -342 654 -693 743 l-98 25 -1716 -1
-1716 -1 -91 -23z m833 -1038 c760 -466 844 -518 839 -526 -3 -4 -216 -144
-475 -312 -258 -167 -467 -307 -465 -311 3 -4 201 -150 442 -324 240 -174 447
-325 460 -335 l22 -17 -37 -22 c-285 -169 -1313 -770 -1317 -770 -3 0 -6 662
-6 1470 0 809 2 1470 5 1470 2 0 242 -145 532 -323z m2448 -559 c8 -229 3
-2734 -6 -2742 -6 -6 -1339 802 -1367 829 -11 10 79 72 462 321 305 198 472
312 466 319 -5 5 -213 158 -463 340 -251 181 -453 332 -451 334 8 8 1339 789
1345 790 4 1 10 -86 14 -191z"/>
</g>
</svg>
