<svg width="46" height="34" fill="none" xmlns="http://www.w3.org/2000/svg">
  <path d="M30.06 22.33a29.24 29.24 0 0 0-13.31-3.25c-5.27 0-9.81 1.46-13.31 3.25a6.19 6.19 0 0 0-3.36 5.55v5.79h33.34v-5.8a6.19 6.19 0 0 0-3.36-5.54ZM16.75 17a8.33 8.33 0 1 0 0-16.66 8.33 8.33 0 0 0 0 16.66Zm22.92-6.25V6.58a2.09 2.09 0 0 0-4.17 0v4.17h-4.17c-1.14 0-2.08.94-2.08 2.08 0 1.15.94 2.09 2.08 2.09h4.17v4.16c0 1.15.94 2.09 2.08 2.09 1.15 0 2.09-.94 2.09-2.09v-4.16h4.16a2.09 2.09 0 0 0 0-4.17h-4.16Z" fill="#00F000"/>
</svg>
