<svg xmlns="http://www.w3.org/2000/svg">
    <symbol viewBox="0 0 50 50" id="icon">
	<path d="M25.062 28.983l4.366-6.445a.827.827 0 0 0-.685-1.29h-8.73a.828.828 0 0 0-.685 1.29l4.365 6.444a.825.825 0 0 0 .685.363.82.82 0 0 0 .684-.362m-4.562-6.65h7.756l-3.879 5.724-3.877-5.724z"/>
	<path d="M38.371 24.53c0-7.596-6.181-13.777-13.776-13.777S10.82 16.934 10.82 24.53c0 7.595 6.18 13.776 13.775 13.776 7.595 0 13.776-6.181 13.776-13.776m-26.467 0c0-6.998 5.693-12.69 12.691-12.69 6.997 0 12.691 5.692 12.691 12.69 0 6.997-5.694 12.689-12.691 12.689-6.998 0-12.691-5.693-12.691-12.689"/>
    </symbol>
</svg>