<?xml version="1.0" encoding="utf-8"?>
<!-- Generator: Adobe Illustrator 16.0.0, SVG Export Plug-In . SVG Version: 6.00 Build 0)  -->
<!DOCTYPE svg PUBLIC "-//W3C//DTD SVG 1.1//EN" "http://www.w3.org/Graphics/SVG/1.1/DTD/svg11.dtd">
<svg version="1.1" id="Ebene_1" xmlns="http://www.w3.org/2000/svg" xmlns:xlink="http://www.w3.org/1999/xlink" x="0px" y="0px"
	 width="50px" height="50px" viewBox="0 0 50 50" enable-background="new 0 0 50 50" xml:space="preserve">
<g>
	<path fill="#3C3C3B" d="M32.658,44.313H17.344c-6.428,0-11.656-5.229-11.656-11.655V17.344c0-6.428,5.229-11.657,11.656-11.657
		h15.314c6.426,0,11.654,5.229,11.654,11.657v15.314C44.312,39.085,39.084,44.313,32.658,44.313z M17.344,7.687
		c-5.324,0-9.656,4.332-9.656,9.657v15.314c0,5.324,4.332,9.655,9.656,9.655h15.314c5.323,0,9.654-4.331,9.654-9.655V17.344
		c0-5.325-4.331-9.657-9.654-9.657H17.344z"/>
</g>
<g>
	<path fill="#3C3C3B" d="M24.906,35.885c-0.59,0-1.07-0.479-1.07-1.068v-8.652h-8.652c-0.589,0-1.068-0.48-1.068-1.07
		c0-0.284,0.116-0.561,0.319-0.759c0.196-0.196,0.464-0.308,0.749-0.308h8.654l-0.002-8.842c0.005-0.295,0.115-0.56,0.312-0.757
		c0.396-0.399,1.11-0.406,1.517,0.002c0.201,0.203,0.311,0.473,0.309,0.758v8.839h8.844c0.589,0,1.068,0.479,1.068,1.068
		s-0.479,1.068-1.068,1.068h-8.842v8.652C25.975,35.405,25.495,35.885,24.906,35.885z"/>
</g>
</svg>
