<?xml version="1.0" encoding="utf-8"?>
<!-- Generator: Adobe Illustrator 16.0.0, SVG Export Plug-In . SVG Version: 6.00 Build 0)  -->
<!DOCTYPE svg PUBLIC "-//W3C//DTD SVG 1.1//EN" "http://www.w3.org/Graphics/SVG/1.1/DTD/svg11.dtd">
<svg version="1.1" id="Ebene_1" xmlns="http://www.w3.org/2000/svg" xmlns:xlink="http://www.w3.org/1999/xlink" x="0px" y="0px"
	 width="50px" height="50px" viewBox="0 0 50 50" enable-background="new 0 0 50 50" xml:space="preserve">
<g id="XMLID_1096_">
	<path id="XMLID_1103_" fill="#3D3D3F" d="M39,4.043c-0.607,1.221-1.262,2.411-1.947,3.588c-0.16,0.275-0.156,0.715,0.1,0.94
		c0.531,0.462,1.072,0.908,1.609,1.359c0.361,0.292,0.869,0.309,1.141-0.125c1.449-2.318,3.807-3.707,5.027-6.13
		c0.232-0.462-2.602-2.424-3.549-2.633c-0.344-0.079-0.627-0.069-0.916,0.173C39.752,1.817,39.402,3.239,39,4.043z"/>
	<path id="XMLID_1101_" fill="#3D3D3F" d="M44.354,26.725c0.107,0.35,0.223,0.699,0.338,1.049c0.039,0.127,0.168,0.232,0.307,0.225
		c1.203-0.084,2.396-0.008,3.598-0.051c0.229-0.008,0.094-0.611,0.08-0.701c-0.102-0.605-0.311-1.171-0.312-1.792
		c0-0.184-0.199-0.341-0.379-0.277c-1.129,0.402-2.264,0.789-3.41,1.139C44.406,26.369,44.299,26.555,44.354,26.725z"/>
	<path id="XMLID_1099_" fill="#3D3D3F" d="M21.803,8.429c0.157,0.198,1.072-0.052,1.283-0.044c0.196,0.008,0.354-0.141,0.372-0.333
		c0.115-1.336,0.283-2.877,0.084-4.205c-0.028-0.185-1.059-0.073-1.406-0.051c-0.338,0.02-1.105-0.018-1.357,0.209
		C20.466,4.291,21.534,8.378,21.803,8.429z"/>
	<path id="XMLID_1097_" fill="#3D3D3F" d="M1.415,12.336c1.131,0.473,2.169,1.103,3.194,1.775c0.532,0.35,1.809,2.074,2.225,1.667
		c0.369-0.356,0.61-0.85,0.884-1.284c0.208-0.329,0.805-1.211,0.598-1.467c-1.361-1.68-2.826-3.444-4.455-4.865
		c-0.367-0.324-2.006,2.411-2.748,3.282C0.845,11.762,1.101,12.204,1.415,12.336z"/>
</g>
<g>
	<path fill="#1A1A1A" d="M37.238,31.488l-7.273,7.248c-0.223,0.219-0.605,0.221-0.828-0.004c-0.229-0.227-0.227-0.598,0-0.826
		l8.607-8.578c0.508-0.508,0.51-1.334,0.002-1.842L36,25.732l-9.529,9.499c-0.222,0.219-0.607,0.219-0.831-0.006
		c-0.109-0.107-0.172-0.256-0.171-0.414c0-0.154,0.062-0.303,0.172-0.412l9.451-9.417l0.08-0.08l-2.668-2.677l-9.528,9.497
		c-0.223,0.223-0.607,0.223-0.832-0.002c-0.109-0.109-0.17-0.258-0.17-0.412c0-0.156,0.061-0.305,0.172-0.416l9.448-9.417
		l0.082-0.081l-1.746-1.754c-0.246-0.246-0.572-0.382-0.92-0.382c-0.35,0-0.678,0.136-0.926,0.38L15.756,31.924
		c-0.223,0.221-0.608,0.221-0.829-0.002c-0.111-0.111-0.17-0.258-0.17-0.412c0-0.156,0.061-0.303,0.172-0.414l6.259-6.24
		l0.081-0.081l-2.096-2.102c-0.246-0.247-0.572-0.382-0.922-0.382c-0.349,0-0.676,0.135-0.921,0.38l-4.521,4.505
		c-2.275,2.266-3.53,5.287-3.536,8.508c-0.005,3.219,1.241,6.246,3.507,8.518c2.267,2.275,5.287,3.531,8.506,3.535
		c3.221,0.006,6.245-1.238,8.518-3.506l9.18-9.146c0.51-0.508,0.51-1.334,0.002-1.842L37.238,31.488z"/>
</g>
<g>
	<path fill="#1A1A1A" d="M36.383,24.457l0.002,0.066h0.008l0.402-0.762c0.334-0.635,0.088-1.422-0.549-1.757l-2.193-1.153
		l-0.439,0.838L36.383,24.457z"/>
	<path fill="#1A1A1A" d="M30.76,18.812l1.992,1.998l1.141-2.17c0.334-0.637,0.09-1.426-0.547-1.76l-2.189-1.154l-1.32,2.509
		C30.18,18.358,30.496,18.547,30.76,18.812z"/>
	<path fill="#1A1A1A" d="M22.099,23.949l5.159-5.142c0.361-0.361,0.816-0.593,1.309-0.679l1.496-2.847l0.055-0.1l-3.346-1.76
		l-5.237,9.962L22.099,23.949z"/>
	<path fill="#1A1A1A" d="M11.981,26.348l2.261-2.253l2.515-4.784l0.054-0.101l-2.629-1.38c-0.306-0.164-0.66-0.194-0.993-0.091
		c-0.333,0.104-0.606,0.33-0.768,0.637l-2.969,5.649c-1.407,2.672-1.737,5.711-0.978,8.624C9.02,30.338,10.18,28.143,11.981,26.348z
		"/>
	<path fill="#1A1A1A" d="M18.255,21.121c0.662,0.001,1.283,0.259,1.749,0.727l0.662,0.664l5.013-9.533l0.055-0.103l-2.191-1.153
		c-0.307-0.162-0.66-0.193-0.992-0.09c-0.334,0.103-0.605,0.33-0.768,0.638l-4.858,9.237C17.32,21.257,17.776,21.12,18.255,21.121z"
		/>
</g>
</svg>
