<?xml version="1.0" encoding="utf-8"?>
<!-- Generator: Adobe Illustrator 16.0.0, SVG Export Plug-In . SVG Version: 6.00 Build 0)  -->
<!DOCTYPE svg PUBLIC "-//W3C//DTD SVG 1.1//EN" "http://www.w3.org/Graphics/SVG/1.1/DTD/svg11.dtd">
<svg version="1.1" id="Ebene_1" xmlns="http://www.w3.org/2000/svg" xmlns:xlink="http://www.w3.org/1999/xlink" x="0px" y="0px"
	 width="50px" height="50px" viewBox="0 0 50 50" enable-background="new 0 0 50 50" xml:space="preserve">
<g>
	<path fill="#1A1A1A" d="M38.78,26.936l-7.272,7.248c-0.223,0.219-0.605,0.221-0.829-0.003c-0.228-0.227-0.226-0.599,0.001-0.827
		l8.607-8.577c0.508-0.508,0.51-1.335,0.002-1.843l-1.746-1.754l-9.529,9.498c-0.223,0.219-0.607,0.22-0.831-0.005
		c-0.109-0.108-0.171-0.257-0.171-0.414c0-0.155,0.062-0.303,0.172-0.412l9.45-9.418l0.081-0.08l-2.668-2.677l-9.527,9.498
		c-0.224,0.222-0.608,0.222-0.832-0.003c-0.11-0.109-0.171-0.258-0.171-0.412c0-0.156,0.062-0.305,0.172-0.416l9.448-9.417
		l0.082-0.081l-1.747-1.754c-0.245-0.246-0.571-0.382-0.919-0.382c-0.351,0-0.679,0.136-0.926,0.38L17.299,27.371
		c-0.223,0.221-0.608,0.221-0.829-0.002c-0.111-0.111-0.17-0.258-0.17-0.412c0-0.156,0.061-0.303,0.172-0.414l6.259-6.239
		l0.082-0.081l-2.097-2.102c-0.245-0.247-0.572-0.382-0.921-0.382c-0.35,0-0.676,0.135-0.922,0.38l-4.521,4.504
		c-2.275,2.266-3.53,5.287-3.536,8.508c-0.005,3.22,1.241,6.246,3.507,8.519c2.267,2.274,5.287,3.53,8.506,3.535
		c3.221,0.005,6.245-1.239,8.519-3.507l9.18-9.146c0.509-0.508,0.51-1.334,0.002-1.842L38.78,26.936z"/>
</g>
<g>
	<path fill="#1A1A1A" d="M37.926,19.904l0.001,0.066h0.009l0.401-0.762c0.335-0.635,0.088-1.422-0.549-1.757l-2.192-1.153
		l-0.439,0.838L37.926,19.904z"/>
	<path fill="#1A1A1A" d="M32.303,14.26l1.992,1.998l1.141-2.17c0.334-0.637,0.089-1.426-0.548-1.76l-2.189-1.154l-1.319,2.509
		C31.722,13.806,32.038,13.995,32.303,14.26z"/>
	<path fill="#1A1A1A" d="M23.642,19.396l5.159-5.142c0.361-0.361,0.815-0.593,1.309-0.679l1.496-2.847l0.054-0.1l-3.345-1.76
		l-5.236,9.962L23.642,19.396z"/>
	<path fill="#1A1A1A" d="M13.524,21.795l2.261-2.253l2.515-4.784l0.054-0.101l-2.629-1.38c-0.306-0.164-0.66-0.194-0.993-0.091
		c-0.333,0.104-0.606,0.33-0.768,0.637l-2.969,5.649c-1.407,2.672-1.737,5.712-0.978,8.623
		C10.563,25.785,11.723,23.59,13.524,21.795z"/>
	<path fill="#1A1A1A" d="M19.798,16.568c0.662,0.001,1.283,0.259,1.749,0.727l0.662,0.664l5.013-9.533l0.055-0.103l-2.191-1.153
		c-0.308-0.162-0.66-0.193-0.992-0.09c-0.334,0.103-0.606,0.33-0.768,0.638l-4.858,9.237C18.863,16.705,19.319,16.567,19.798,16.568
		z"/>
</g>
</svg>
