<?xml version="1.0" encoding="utf-8"?>
<!-- Generator: Adobe Illustrator 16.0.0, SVG Export Plug-In . SVG Version: 6.00 Build 0)  -->
<!DOCTYPE svg PUBLIC "-//W3C//DTD SVG 1.1//EN" "http://www.w3.org/Graphics/SVG/1.1/DTD/svg11.dtd">
<svg version="1.1" id="Ebene_1" xmlns="http://www.w3.org/2000/svg" xmlns:xlink="http://www.w3.org/1999/xlink" x="0px" y="0px"
	 width="50px" height="50px" viewBox="0 0 50 50" enable-background="new 0 0 50 50" xml:space="preserve">
<g>
	<path fill="#1A1A1A" d="M35.28,31.428l-7.272,7.248c-0.223,0.219-0.605,0.221-0.829-0.003c-0.228-0.227-0.226-0.599,0.001-0.827
		l8.607-8.577c0.508-0.508,0.51-1.335,0.002-1.843l-1.746-1.754l-9.529,9.498c-0.223,0.219-0.607,0.22-0.831-0.005
		c-0.109-0.108-0.171-0.257-0.171-0.414c0-0.155,0.062-0.303,0.172-0.412l9.45-9.418l0.081-0.08l-2.668-2.677l-9.527,9.498
		c-0.224,0.222-0.608,0.222-0.832-0.003c-0.11-0.109-0.171-0.258-0.171-0.412c0-0.156,0.062-0.305,0.172-0.416l9.448-9.417
		l0.082-0.081l-1.747-1.754c-0.245-0.246-0.571-0.382-0.919-0.382c-0.351,0-0.679,0.136-0.926,0.38L13.799,31.863
		c-0.223,0.221-0.608,0.221-0.829-0.002c-0.111-0.111-0.17-0.258-0.17-0.412c0-0.156,0.061-0.303,0.172-0.414l6.259-6.239
		l0.082-0.081l-2.097-2.102c-0.245-0.247-0.572-0.382-0.921-0.382c-0.35,0-0.676,0.135-0.922,0.38l-4.521,4.504
		c-2.275,2.266-3.53,5.287-3.536,8.508c-0.005,3.22,1.241,6.246,3.507,8.519c2.267,2.274,5.287,3.53,8.506,3.535
		c3.221,0.005,6.245-1.239,8.519-3.507l9.18-9.146c0.509-0.508,0.51-1.334,0.002-1.842L35.28,31.428z"/>
</g>
<g>
	<path fill="#1A1A1A" d="M34.426,24.396l0.001,0.066h0.009l0.401-0.762c0.335-0.635,0.088-1.422-0.549-1.757l-2.192-1.153
		l-0.439,0.838L34.426,24.396z"/>
	<path fill="#1A1A1A" d="M28.803,18.752l1.992,1.998l1.141-2.17c0.334-0.637,0.089-1.426-0.548-1.76l-2.189-1.154l-1.319,2.509
		C28.222,18.298,28.538,18.487,28.803,18.752z"/>
	<path fill="#1A1A1A" d="M20.142,23.889l5.159-5.142c0.361-0.361,0.815-0.593,1.309-0.679l1.496-2.847l0.054-0.1l-3.345-1.76
		l-5.236,9.962L20.142,23.889z"/>
	<path fill="#1A1A1A" d="M10.024,26.287l2.261-2.253L14.8,19.25l0.054-0.101l-2.629-1.38c-0.306-0.164-0.66-0.194-0.993-0.091
		c-0.333,0.104-0.606,0.33-0.768,0.637l-2.969,5.649c-1.407,2.672-1.737,5.712-0.978,8.623C7.063,30.277,8.223,28.082,10.024,26.287
		z"/>
	<path fill="#1A1A1A" d="M16.298,21.061c0.662,0.001,1.283,0.259,1.749,0.727l0.662,0.664l5.013-9.533l0.055-0.103l-2.191-1.153
		c-0.308-0.162-0.66-0.193-0.992-0.09c-0.334,0.103-0.606,0.33-0.768,0.638l-4.858,9.237C15.363,21.197,15.819,21.06,16.298,21.061z
		"/>
</g>
<g id="XMLID_1114_">
	<path id="XMLID_1121_" fill="#3D3D3F" d="M40.807,14.273c-0.764,0.725-1.552,1.416-2.359,2.088
		c-0.189,0.157-0.303,0.477-0.176,0.708c0.264,0.476,0.539,0.942,0.809,1.411c0.184,0.307,0.548,0.453,0.859,0.21
		c1.663-1.298,3.739-1.684,5.265-3.119c0.29-0.274-1.247-2.445-1.879-2.846c-0.228-0.148-0.437-0.215-0.71-0.117
		C41.939,12.857,41.311,13.795,40.807,14.273z"/>
	<path id="XMLID_1119_" fill="#3D3D3F" d="M42.256,30.217c0.037,0.326,0.08,0.652,0.122,0.979c0.015,0.118,0.11,0.233,0.232,0.249
		c1.073,0.127,2.109,0.393,3.173,0.556c0.203,0.032,0.185-0.522,0.188-0.604c0.012-0.55-0.077-1.082,0.025-1.628
		c0.029-0.162-0.12-0.332-0.287-0.307c-1.061,0.164-2.124,0.316-3.191,0.433C42.361,29.912,42.236,30.059,42.256,30.217z"/>
	<path id="XMLID_1117_" fill="#3D3D3F" d="M24.512,9.445c0.146,0.442,1.887,0.585,2.246,0.732c0.333,0.137,0.701-0.021,0.852-0.343
		c1.043-2.236,2.302-4.795,2.793-7.216c0.066-0.337-1.786-0.792-2.399-0.974c-0.597-0.179-1.901-0.726-2.479-0.492
		C24.804,1.452,24.078,9.189,24.512,9.445z"/>
	<path id="XMLID_1115_" fill="#3D3D3F" d="M7.626,8.048c0.727,0.67,1.339,1.434,1.931,2.226c0.307,0.412,0.799,2.07,1.226,1.877
		c0.377-0.169,0.697-0.476,1.023-0.729c0.248-0.191,0.944-0.695,0.858-0.947c-0.569-1.648-1.192-3.389-2.034-4.916
		c-0.189-0.346-2.185,1.274-2.987,1.73C7.353,7.456,7.424,7.861,7.626,8.048z"/>
</g>
</svg>
