<?xml version="1.0" encoding="utf-8"?>
<!-- Generator: Adobe Illustrator 16.0.0, SVG Export Plug-In . SVG Version: 6.00 Build 0)  -->
<!DOCTYPE svg PUBLIC "-//W3C//DTD SVG 1.1//EN" "http://www.w3.org/Graphics/SVG/1.1/DTD/svg11.dtd">
<svg version="1.1" id="Ebene_1" xmlns="http://www.w3.org/2000/svg" xmlns:xlink="http://www.w3.org/1999/xlink" x="0px" y="0px"
	 width="50px" height="50px" viewBox="0 0 50 50" enable-background="new 0 0 50 50" xml:space="preserve">
<g>
	<g>
		<path fill="#1A1A1A" d="M30.548,15.851l0.038,0.014l0.864,0.869l-8.646,8.618c-0.347,0.347-0.538,0.809-0.538,1.3
			c0,0.49,0.19,0.95,0.536,1.296c0.345,0.345,0.807,0.535,1.302,0.535c0.492,0,0.953-0.188,1.296-0.53l8.643-8.615l0.902,0.906
			l-8.643,8.614c-0.35,0.347-0.542,0.808-0.542,1.292c-0.003,0.488,0.194,0.966,0.535,1.304c0.34,0.341,0.814,0.537,1.304,0.537
			s0.947-0.187,1.295-0.528l8.643-8.616l0.866,0.87c0.018,0.018,0.016,0.058-0.001,0.074l-8.609,8.581
			c-0.345,0.346-0.534,0.806-0.535,1.294c-0.001,0.492,0.19,0.954,0.534,1.297c0.344,0.346,0.806,0.535,1.301,0.535
			c0.489,0,0.948-0.186,1.296-0.528l6.388-6.366l0.867,0.869c0.018,0.018,0.017,0.057-0.001,0.073l-9.179,9.147
			c-2.032,2.025-4.737,3.142-7.634,3.142c-2.885-0.004-5.592-1.129-7.623-3.168c-2.03-2.036-3.146-4.747-3.143-7.634
			c0.005-2.887,1.13-5.594,3.168-7.624l4.521-4.504c0-0.001,0.076,0,0.076-0.001l1.213,1.216l-5.456,5.439
			c-0.347,0.347-0.538,0.808-0.538,1.298s0.19,0.95,0.532,1.292c0.338,0.342,0.813,0.537,1.302,0.537
			c0.49,0,0.949-0.187,1.297-0.529L30.506,15.87C30.523,15.852,30.537,15.851,30.548,15.851 M30.548,14.601
			c-0.348,0-0.675,0.137-0.921,0.38L17.299,27.268c-0.111,0.11-0.263,0.165-0.415,0.165c-0.152,0-0.304-0.056-0.415-0.167
			c-0.111-0.111-0.17-0.258-0.17-0.412c0-0.156,0.061-0.303,0.172-0.414L22.73,20.2l0.081-0.081l-2.096-2.102
			c-0.246-0.246-0.572-0.382-0.922-0.383c-0.35,0-0.676,0.135-0.922,0.381l-4.521,4.504c-2.274,2.266-3.53,5.287-3.536,8.508
			c-0.004,3.22,1.242,6.246,3.508,8.519c2.266,2.274,5.287,3.53,8.506,3.535c0.006,0,0.013,0,0.019,0c3.213,0,6.23-1.244,8.5-3.507
			l9.179-9.146c0.51-0.508,0.51-1.334,0.003-1.842l-1.749-1.754l-7.273,7.248c-0.11,0.109-0.262,0.164-0.413,0.164
			s-0.304-0.055-0.415-0.167c-0.228-0.227-0.227-0.599,0.001-0.827l8.606-8.577c0.508-0.508,0.51-1.335,0.002-1.843l-1.746-1.754
			l-9.529,9.498c-0.11,0.109-0.261,0.164-0.412,0.164c-0.152,0-0.306-0.056-0.418-0.169c-0.109-0.108-0.172-0.257-0.171-0.414
			c0-0.155,0.062-0.303,0.172-0.412l9.45-9.418l0.081-0.08l-2.668-2.677l-9.528,9.497c-0.111,0.11-0.262,0.166-0.414,0.166
			c-0.153,0-0.306-0.057-0.418-0.169c-0.109-0.109-0.17-0.258-0.17-0.412c0-0.156,0.061-0.305,0.172-0.416l9.447-9.416l0.083-0.081
			l-1.747-1.755c-0.246-0.245-0.572-0.382-0.92-0.382C30.551,14.601,30.549,14.601,30.548,14.601L30.548,14.601z"/>
	</g>
</g>
<g>
	<g>
		<path fill="#1A1A1A" d="M35.596,16.195l-0.439,0.838l2.769,2.768l0.002,0.066h0.009l0.401-0.762
			c0.334-0.635,0.088-1.422-0.549-1.758L35.596,16.195L35.596,16.195z"/>
	</g>
	<g>
		<path fill="#1A1A1A" d="M33.222,12.76l1.085,0.572c0.025,0.013,0.034,0.046,0.021,0.071l-0.35,0.665l-0.79-0.792
			c-0.051-0.052-0.104-0.102-0.158-0.15L33.222,12.76 M32.698,11.07l-1.32,2.51c0.344,0.122,0.66,0.311,0.924,0.576l1.992,1.998
			l1.141-2.17c0.334-0.637,0.09-1.426-0.547-1.76L32.698,11.07L32.698,11.07z"/>
	</g>
	<g>
		<path fill="#1A1A1A" d="M28.838,10.454l1.133,0.595l-0.717,1.363c-0.5,0.183-0.955,0.472-1.337,0.853l-1.17,1.166L28.838,10.454
			 M28.313,8.766l-5.236,9.962l0.564,0.565L28.8,14.15c0.361-0.36,0.816-0.592,1.31-0.679l1.496-2.847l0.054-0.1L28.313,8.766
			L28.313,8.766z"/>
	</g>
	<g>
		<path fill="#1A1A1A" d="M15.123,14.273l0.02,0.007l1.521,0.799l-1.897,3.608l-2.125,2.118c-0.551,0.55-1.055,1.142-1.507,1.77
			c0.205-0.907,0.528-1.79,0.968-2.625l2.999-5.673C15.111,14.274,15.119,14.273,15.123,14.273 M15.123,13.023
			c-0.131,0-0.263,0.02-0.392,0.06c-0.334,0.104-0.605,0.33-0.768,0.638l-2.969,5.648c-1.407,2.672-1.737,5.712-0.979,8.623
			c0.546-2.311,1.705-4.506,3.507-6.301l2.261-2.253l2.516-4.784l0.053-0.1l-2.629-1.381C15.536,13.073,15.331,13.023,15.123,13.023
			L15.123,13.023z"/>
	</g>
	<g>
		<path fill="#1A1A1A" d="M24.482,6.918l0.021,1.255l1.085,0.571l-3.73,7.093c-0.356-0.238-0.751-0.411-1.169-0.514l3.776-7.152
			c0.006-0.002,0.012-0.003,0.018-0.003V6.918 M24.481,6.918c-0.13,0-0.261,0.02-0.389,0.06c-0.334,0.103-0.605,0.33-0.768,0.638
			l-4.857,9.237c0.393-0.25,0.848-0.388,1.325-0.388c0.001,0,0.003,0,0.005,0c0.662,0.002,1.283,0.259,1.749,0.727l0.662,0.664
			l5.013-9.533l0.055-0.102l-2.191-1.153C24.896,6.968,24.69,6.918,24.481,6.918L24.481,6.918z"/>
	</g>
</g>
</svg>
