<?xml version="1.0" encoding="utf-8"?>
<!-- Generator: Adobe Illustrator 16.0.0, SVG Export Plug-In . SVG Version: 6.00 Build 0)  -->
<!DOCTYPE svg PUBLIC "-//W3C//DTD SVG 1.1//EN" "http://www.w3.org/Graphics/SVG/1.1/DTD/svg11.dtd">
<svg version="1.1" id="Ebene_1" xmlns="http://www.w3.org/2000/svg" xmlns:xlink="http://www.w3.org/1999/xlink" x="0px" y="0px"
	 width="50px" height="50px" viewBox="0 0 50 50" enable-background="new 0 0 50 50" xml:space="preserve">
<path fill="#3C3C3B" d="M14.402,18.133h22.357c0.331,0,0.598-0.268,0.598-0.599s-0.267-0.598-0.598-0.598H14.402
	c-0.331,0-0.599,0.267-0.599,0.598S14.071,18.133,14.402,18.133"/>
<path fill="#3C3C3B" d="M36.758,25H14.401c-0.331,0-0.599,0.269-0.599,0.6c0,0.33,0.268,0.598,0.599,0.598h22.357
	c0.332,0,0.6-0.268,0.6-0.598C37.357,25.269,37.09,25,36.758,25"/>
<path fill="#3C3C3B" d="M36.758,32.898H14.401c-0.331,0-0.599,0.268-0.599,0.6c0,0.33,0.268,0.596,0.599,0.596h22.357
	c0.332,0,0.6-0.266,0.6-0.596C37.357,33.166,37.09,32.898,36.758,32.898"/>
</svg>
