<?xml version="1.0" encoding="utf-8"?>
<!-- Generator: Adobe Illustrator 16.0.0, SVG Export Plug-In . SVG Version: 6.00 Build 0)  -->
<!DOCTYPE svg PUBLIC "-//W3C//DTD SVG 1.1//EN" "http://www.w3.org/Graphics/SVG/1.1/DTD/svg11.dtd">
<svg version="1.1" id="Ebene_1" xmlns="http://www.w3.org/2000/svg" xmlns:xlink="http://www.w3.org/1999/xlink" x="0px" y="0px"
	 width="50px" height="50px" viewBox="0 0 50 50" enable-background="new 0 0 50 50" xml:space="preserve">
<linearGradient id="SVGID_1_" gradientUnits="userSpaceOnUse" x1="8.4399" y1="40.5479" x2="41.6701" y2="9.7225">
	<stop  offset="0" style="stop-color:#05300E"/>
	<stop  offset="1" style="stop-color:#B1C800"/>
</linearGradient>
<circle fill="url(#SVGID_1_)" cx="25.097" cy="25.097" r="23.097"/>
<linearGradient id="SVGID_2_" gradientUnits="userSpaceOnUse" x1="10.2153" y1="28.6465" x2="39.9756" y2="28.6465">
	<stop  offset="0" style="stop-color:#C9FF00"/>
	<stop  offset="1" style="stop-color:#FFFFFF"/>
</linearGradient>
<path fill="url(#SVGID_2_)" d="M38.513,9.537c-0.348-0.474-0.69-0.654-1.425-0.074c-2.136,1.683-3.587,4.386-4.861,6.729
	c-1.411,2.593-2.671,5.31-3.658,8.09c-0.755,2.122-1.603,4.355-2.009,6.569c-0.296,1.613-0.438,3.263-0.625,4.892
	c-0.209,0-0.471,0-0.79,0c-0.56-2.498-1.114-5.053-1.985-7.466c-0.72-1.992-1.398-4.562-3.395-5.669
	c-1.596-0.885-3.495-0.809-5.169-0.187c-1.502,0.557-3.15,1.492-3.72,3.084c-0.643,1.798-0.691,3.798-0.65,5.688
	c0.033,1.551,0.254,3.669,1.269,4.919c0.41,0.51,0.751,0.506,1.168,0.01c0.946-1.13,1.555-2.439,2.224-3.74
	c0.707-1.369,1.32-2.769,1.931-4.186c1.676,2.817,3.319,5.583,4.98,8.374h0.107c-3.279,1.441-5.571,4.714-5.571,8.524
	c0,0.424,0.038,1.006,0.094,1.418c0,0,3.207,1.682,8.892,1.682c5.407,0,9.605-2.195,9.605-2.195
	c0.021-0.249,0.036-0.652,0.036-0.904c0-3.855-2.341-7.161-5.68-8.577c2.466-4.393,5.684-8.361,7.947-12.86
	C39.256,19.623,41.535,13.655,38.513,9.537z M22.461,46.17c-0.694,0-1.255-0.56-1.255-1.253s0.562-1.255,1.255-1.255
	c0.691,0,1.256,0.562,1.256,1.255S23.153,46.17,22.461,46.17z M30.179,44.917c0,0.693-0.562,1.253-1.255,1.253
	s-1.256-0.56-1.256-1.253s0.562-1.255,1.256-1.255S30.179,44.224,30.179,44.917z"/>
</svg>
