<svg width="117" height="126" viewBox="0 0 117 126" fill="none" xmlns="http://www.w3.org/2000/svg">
<path d="M73.4001 33.8999C69.5001 31.7999 71.1001 32.5999 67.2001 30.4999C70.3001 24.7999 72.1001 14.5999 66.1001 7.4999C66.1001 7.4999 62.6001 3.0999 65.3001 0.699897C68.1001 -1.7001 71.5001 2.9999 71.5001 2.9999C79.1001 12.0999 78.1001 25.2999 73.4001 33.8999Z" fill="url(#paint0_linear_1770_9694)"/>
<path d="M116.3 64.1001C115 47.1001 104.2 39.3001 92.9001 34.7001C89.7001 33.4001 86.2001 32.4001 81.8001 31.7001C80.3001 31.5001 78.8001 31.3001 77.4001 31.2001C75.6001 31.1001 74.0001 31.0001 72.5001 30.6001C71.2001 29.9001 69.8001 29.0001 68.4001 27.9001C67.2001 27.0001 66.0001 26.2001 64.7001 25.4001C60.9001 23.1001 57.6001 21.6001 54.3001 20.5001C42.7001 16.8001 29.4001 15.7001 17.4001 28.0001C5.40008 40.2001 -4.79992 64.3001 2.90008 85.6001C5.20008 92.0001 8.20008 97.7001 11.8001 102.6C13.9001 105.4 21.4001 111.6 25.8001 113.2C29.7001 114.6 37.5001 116 41.2001 116.1C44.1001 118.4 50.9001 122.4 54.8001 123.8C59.2001 125.4 68.9001 125.5 72.3001 124.7C78.2001 123.3 84.2001 120.9 90.1001 117.5C109.8 106.2 117.6 81.2001 116.3 64.1001Z" fill="url(#paint1_linear_1770_9694)"/>
<path d="M47.2002 111.6C46.7002 111.6 46.2002 111.4 45.9002 110.9C45.5002 110.2 45.7002 109.3 46.4002 108.8C63.2002 98.3 72.8002 83.6 74.9002 65.1C76.5002 51.3 73.0002 40.4 73.0002 40.3C72.7002 39.5 73.2002 38.7 74.0002 38.4C74.8002 38.1 75.6002 38.6 75.9002 39.4C76.1002 39.9 79.6002 50.9 78.0002 65.3C76.4002 78.8 70.0002 97.6 48.0002 111.4C47.8002 111.6 47.5002 111.6 47.2002 111.6Z" fill="#B5221D"/>
<defs>
<linearGradient id="paint0_linear_1770_9694" x1="60.31" y1="13.2868" x2="78.7823" y2="20.0474" gradientUnits="userSpaceOnUse">
<stop stop-color="#9CC41B"/>
<stop offset="1" stop-color="#047C37"/>
</linearGradient>
<linearGradient id="paint1_linear_1770_9694" x1="2.73593" y1="53.2032" x2="111.225" y2="92.909" gradientUnits="userSpaceOnUse">
<stop stop-color="#A92C24"/>
<stop offset="1" stop-color="#E62A41"/>
</linearGradient>
</defs>
</svg>
