<svg width="108" height="134" viewBox="0 0 108 134" fill="none" xmlns="http://www.w3.org/2000/svg">
<path d="M82.8 40.5001C88.5 40.5001 93.2 35.9001 93.2 30.1001C93.2 24.4001 88.6 19.7001 82.8 19.7001C82.7 19.7001 82.5 19.7001 82.4 19.7001C82.7 18.5001 82.8 17.3001 82.8 16.1001C82.8 7.5001 75.8 0.600098 67.3 0.600098C62 0.600098 57.3 3.2001 54.5 7.3001C52.7 5.7001 50.3 4.7001 47.7 4.7001C45.4 4.7001 43.3 5.5001 41.6 6.7001C38.8 3.0001 34.3 0.600098 29.3 0.600098C22.7 0.600098 17.1 4.7001 14.9 10.4001C13.6 9.8001 12 9.4001 10.5 9.4001C4.6 9.5001 0 14.1001 0 19.8001C0 25.5001 4.6 30.2001 10.4 30.2001L82.8 40.5001Z" fill="white"/>
<path d="M103.3 50.9001C102.9 50.8001 102.5 50.8001 102.1 50.8001H82.0998V30.1001H46.0998H9.7998V123.2C9.7998 128.8 14.2998 133.3 19.8998 133.3H45.9998H71.8998C77.4998 133.3 81.9998 128.8 81.9998 123.2V102.4H102C105.2 102.4 107.8 99.8001 107.8 96.6001V56.5001C107.9 53.7001 105.9 51.4001 103.3 50.9001ZM100.6 89.3001C100.6 91.6001 98.6998 93.5001 96.3998 93.5001H84.1998V59.7001H96.3998C98.6998 59.7001 100.6 61.6001 100.6 63.9001V89.3001V89.3001Z" fill="url(#paint0_linear_1770_9705)"/>
<path d="M23.0001 127.3H68.9001C73.8001 127.3 77.9001 123.3 77.9001 118.3V60.6001H14.1001V118.4C14.1001 123.3 18.1001 127.3 23.0001 127.3Z" fill="url(#paint1_linear_1770_9705)"/>
<defs>
<linearGradient id="paint0_linear_1770_9705" x1="58.8665" y1="141.139" x2="58.8665" y2="45.6014" gradientUnits="userSpaceOnUse">
<stop stop-color="#E7904E"/>
<stop offset="0.1824" stop-color="#E99555"/>
<stop offset="0.4646" stop-color="#EDA36A"/>
<stop offset="0.8095" stop-color="#F5B88B"/>
<stop offset="1" stop-color="#FAC6A0"/>
</linearGradient>
<linearGradient id="paint1_linear_1770_9705" x1="49.4106" y1="93.9213" x2="-48.681" y2="93.9213" gradientUnits="userSpaceOnUse">
<stop stop-color="#FAC409"/>
<stop offset="0.15" stop-color="#F6A91E"/>
<stop offset="0.3784" stop-color="#EF8229"/>
<stop offset="0.5793" stop-color="#EB632B"/>
<stop offset="0.7428" stop-color="#E94D2B"/>
<stop offset="0.8485" stop-color="#E8452B"/>
</linearGradient>
</defs>
</svg>
