<svg width="155" height="131" viewBox="0 0 155 131" fill="none" xmlns="http://www.w3.org/2000/svg">
<path d="M94.9001 123.8C128.8 144.3 147.8 108.5 147.8 108.5L139.4 106.4C133 113.2 123.2 117.1 108.5 111.9C103.5 110.1 94.3001 107.2 94.3001 107.2L86.0001 104.8C70.7001 100.6 59.7001 99.6 52.7001 101.5C45.7001 103.4 40.8001 109.6 41.2001 116.1C41.5001 121.3 45.3001 127.4 55.3001 129C61.2001 129.9 68.5001 127.9 76.3001 123C80.3001 120.5 84.3001 117.4 88.2001 113.6C93.5001 114.9 88.3001 121.4 94.9001 123.8ZM56.6001 121.1C51.9001 120.4 49.2001 118.3 49.0001 115.5C48.9001 113 50.8001 109.9 54.8001 108.8C55.1001 108.7 55.4001 108.7 55.7001 108.6C59.7001 107.8 66.8001 107.9 79.3001 111C70.0001 118.8 61.7001 121.9 56.6001 121.1Z" fill="url(#paint0_linear_1770_9712)"/>
<path d="M151.9 120.5L154.5 98.5C154.7 97.1 154.1 95.8 153 94.9C151.9 94.1 150.4 93.9 149.1 94.4L128.8 103.2C127.5 103.7 126.6 104.9 126.5 106.3C126.3 107.7 126.9 109 128 109.9L145.7 123.1C146.2 123.5 146.7 123.7 147.3 123.8C148.1 123.9 148.8 123.9 149.6 123.6C150.8 123 151.7 121.8 151.9 120.5Z" fill="url(#paint1_linear_1770_9712)"/>
<path d="M122.6 35.0999C130.4 17.5999 123.2 3.49992 122.8 2.89992C121.9 1.29992 120.1 0.299925 118.2 0.799925C116.4 1.29992 115.1 2.79993 115.1 4.59993C115.1 4.59993 114.6 8.89992 106.8 15.7999C95.2002 6.09993 80.7002 0.799925 65.5002 0.799925H65.4002C50.2002 0.799925 35.7002 6.09993 24.2002 15.7999C16.5002 8.99992 15.9002 4.79992 15.9002 4.79992C15.9002 2.89992 14.6002 1.29992 12.8002 0.899924C11.0002 0.499924 9.10019 1.29992 8.20019 2.89992C7.90019 3.49992 0.600194 17.5999 8.40019 35.0999C3.40019 44.3999 0.700195 54.8999 0.700195 65.4999C0.700195 101.2 29.7002 130.2 65.3002 130.2H65.4002C101.1 130.2 130.1 101.2 130.1 65.4999C130.3 54.8999 127.7 44.3999 122.6 35.0999Z" fill="url(#paint2_linear_1770_9712)"/>
<path d="M35.6001 33.7999C34.0001 32.1999 31.5001 32.1999 29.9001 33.7999C26.8001 36.8999 25.1001 40.9999 25.1001 45.2999C25.1001 49.5999 26.8001 53.6999 29.8001 56.6999C32.8001 59.7999 36.9001 61.3999 41.2001 61.3999C45.5001 61.3999 49.6001 59.6999 52.6001 56.6999C54.2001 55.0999 54.2001 52.5999 52.6001 50.9999L35.6001 33.7999Z" fill="#1B3F4B"/>
<path d="M101.3 33.7999C99.7002 32.1999 97.2002 32.1999 95.6002 33.7999L78.4002 50.9999C76.8002 52.5999 76.8002 55.0999 78.4002 56.6999C81.6002 59.8999 85.7002 61.3999 89.8002 61.3999C93.9002 61.3999 98.1002 59.7999 101.2 56.6999C104.3 53.6999 105.9 49.5999 105.9 45.2999C106 40.9999 104.3 36.8999 101.3 33.7999Z" fill="#1B3F4B"/>
<path d="M111.6 75.1999C110.8 74.1999 109.6 73.5999 108.4 73.5999H22.8C21.5 73.5999 20.3 74.1999 19.6 75.1999C18.8 76.1999 18.6 77.4999 18.9 78.6999C24.7 99.4999 43.9 114 65.6 114C87.2 114 106.4 99.4999 112.3 78.6999C112.6 77.4999 112.4 76.1999 111.6 75.1999Z" fill="#FBFBFB"/>
<defs>
<linearGradient id="paint0_linear_1770_9712" x1="41.2776" y1="115.253" x2="147.838" y2="115.253" gradientUnits="userSpaceOnUse">
<stop stop-color="#962816"/>
<stop offset="1" stop-color="#E62A41"/>
</linearGradient>
<linearGradient id="paint1_linear_1770_9712" x1="126.422" y1="109.04" x2="154.481" y2="109.04" gradientUnits="userSpaceOnUse">
<stop stop-color="#962816"/>
<stop offset="1" stop-color="#E62A41"/>
</linearGradient>
<linearGradient id="paint2_linear_1770_9712" x1="0.840595" y1="65.4679" x2="130.297" y2="65.4679" gradientUnits="userSpaceOnUse">
<stop stop-color="#C42E1F"/>
<stop offset="1" stop-color="#E84145"/>
</linearGradient>
</defs>
</svg>
