<svg width="128" height="128" viewBox="0 0 128 128" fill="none" xmlns="http://www.w3.org/2000/svg">
<path d="M63.9999 1.6001C28.8999 1.6001 0.399902 29.1001 0.399902 64.2001C0.399902 99.3001 28.8999 127.8 63.9999 127.8C99.0999 127.8 127.6 99.3001 127.6 64.2001C127.6 29.1001 99.0999 1.6001 63.9999 1.6001ZM63.0999 91.4001C48.2999 91.4001 36.2999 79.4001 36.2999 64.6001C36.2999 49.8001 48.2999 37.8001 63.0999 37.8001C77.8999 37.8001 89.8999 49.8001 89.8999 64.6001C89.8999 79.5001 77.8999 91.4001 63.0999 91.4001Z" fill="url(#paint0_linear_1770_9725)"/>
<path d="M23.0001 15.6C23.0001 15.6 47.8001 -8.00001 85.0001 4.19999C125.2 17.4 127.7 57.9 127.6 60.6C127.4 72.4 104.2 48.9 98.4001 64.5C96.6001 69.2 86.9001 75.8 84.2001 59.8C81.1001 41.8 73.1001 36.9 60.9001 42.7C45.7001 49.9 40.6001 67.7 36.1001 44.6C34.4001 35.6 28.3001 30 21.6001 26.5C16.8001 23.9 18.0001 19.9 23.0001 15.6Z" fill="white"/>
<path d="M94.4998 76.0001C93.8998 74.7001 92.0999 74.6001 91.2999 75.8001C89.0999 79.1001 85.6999 85.0001 86.2999 89.6001C87.1999 96.4001 96.1998 98.2001 97.9998 91.4001C99.2998 86.7001 96.3998 79.7001 94.4998 76.0001Z" fill="white"/>
<path d="M45.1998 64.3001C45.1998 66.4001 43.4998 68.0001 41.4998 68.0001C39.3998 68.0001 37.7998 66.3001 37.7998 64.3001C37.7998 62.2001 39.4998 60.6001 41.4998 60.6001C43.4998 60.6001 45.1998 62.3001 45.1998 64.3001Z" fill="white"/>
<defs>
<linearGradient id="paint0_linear_1770_9725" x1="0.381302" y1="64.7522" x2="127.616" y2="64.7522" gradientUnits="userSpaceOnUse">
<stop stop-color="#E8452B"/>
<stop offset="0.1245" stop-color="#E94D2B"/>
<stop offset="0.3172" stop-color="#EB632B"/>
<stop offset="0.554" stop-color="#EF8229"/>
<stop offset="0.8233" stop-color="#F6A91E"/>
<stop offset="1" stop-color="#FAC409"/>
</linearGradient>
</defs>
</svg>
