<svg width="136" height="122" viewBox="0 0 136 122" fill="none" xmlns="http://www.w3.org/2000/svg">
<path d="M130.5 51.7999C133.6 46.6999 135.4 40.6999 135.4 34.1999C135.4 15.5999 120.3 0.399902 101.6 0.399902C82.9999 0.399902 67.8999 15.4999 67.8999 34.0999C67.8999 33.8999 67.8999 33.5999 67.8999 33.3999V121.7C107.9 91.8999 124 67.1999 130.5 51.7999Z" fill="url(#paint0_linear_1770_9730)"/>
<path d="M101.6 0.399902C82.9998 0.399902 67.8998 15.4999 67.8998 34.0999C67.8998 33.8999 67.8998 33.5999 67.8998 33.3999C67.3998 15.0999 52.4998 0.399902 34.0998 0.399902C15.4998 0.399902 0.399789 15.4999 0.399789 34.0999C0.399789 34.0999 0.29979 35.1999 0.59979 37.2999C0.89979 40.2999 1.49979 43.1999 2.59979 45.8999C7.19979 60.5999 21.7998 87.8999 67.3998 121.8V121.6C67.4998 121.7 67.5998 121.7 67.6998 121.8C67.7998 121.7 67.8998 121.6 67.9998 121.6C108 91.7999 124.1 67.1999 130.6 51.6999C133.7 46.5999 135.5 40.5999 135.5 34.0999C135.4 15.4999 120.3 0.399902 101.6 0.399902Z" fill="url(#paint1_linear_1770_9730)"/>
<defs>
<linearGradient id="paint0_linear_1770_9730" x1="46.7946" y1="105.798" x2="124.08" y2="8.92399" gradientUnits="userSpaceOnUse">
<stop stop-color="#E94D48"/>
<stop offset="1" stop-color="#FAB859"/>
</linearGradient>
<linearGradient id="paint1_linear_1770_9730" x1="-26.2199" y1="86.4399" x2="133.806" y2="31.9547" gradientUnits="userSpaceOnUse">
<stop stop-color="#C42E1F"/>
<stop offset="1" stop-color="#E84145"/>
</linearGradient>
</defs>
</svg>
