<svg width="114" height="129" viewBox="0 0 114 129" fill="none" xmlns="http://www.w3.org/2000/svg">
<path d="M112.9 47.6999C111.5 44.0999 104.4 42.2999 100.8 46.8999C100.2 47.6999 99.5 48.4999 98.9 49.2999C95.7 53.6999 93.4 58.5999 91 63.3999C90.5 64.4999 90 65.4999 89.2 66.3999C87.2 68.6999 85.7 68.4999 84.5 65.6999C81.6 59.0999 78.7 52.5999 75.9 45.9999C71.6 36.1999 67.4 26.4999 63.1 16.6999C61.2 12.2999 59.4 7.89989 57.3 3.59989C55.6 0.0998855 51 -1.00011 47.8 1.09989C45 2.99989 44.1 6.19989 45.6 9.79989C49.6 18.8999 53.5 27.9999 57.4 36.9999C58.9 40.3999 60.4 43.8999 61.9 47.2999C62.5 48.6999 62 49.9999 60.8 50.5999C59.6 51.1999 58.3 50.7999 57.5 49.4999C57.2 48.9999 56.9 48.3999 56.6 47.7999C50.6 33.7999 44.5 19.8999 38.5 5.89988C37.1 2.59988 33.5 1.19988 30.2 2.19988C27 3.09988 24.8 6.89989 25.9 10.2999C26.4 11.7999 27.1 13.2999 27.8 14.6999C32.6 25.5999 37.3 36.5999 42.1 47.4999C43.1 49.7999 44.1 52.0999 45.1 54.3999C45.8 55.9999 45.2 57.5999 43.8 58.1999C43.7 58.2999 43.5 58.2999 43.4 58.2999C42.4 58.4999 41.3 57.8999 40.5 56.5999C40.2 56.0999 40 55.4999 39.7 54.9999C37.8 50.6999 35.9 46.3999 34.1 42.0999C30.8 34.4999 27.5 26.9999 24.2 19.3999C22.9 16.2999 20.8 14.6999 17.5 14.6999C13.2 14.6999 9.99999 19.3999 11.6 23.2999C12.2 24.7999 12.9 26.2999 13.6 27.8999C18.8 39.9999 24 51.7999 29.2 63.6999C29.5 64.3999 29.7 65.0999 29.7 65.8999C29.6 66.9999 29 67.6999 28.1 68.0999C27.2 68.3999 26.3 68.1999 25.6 67.4999C25 66.7999 24.5 65.9999 24.2 65.1999C20.5 56.7999 16.8 48.2999 13.2 39.8999C11.3 35.5999 7.69999 34.5999 4.19999 35.8999C0.499992 36.9999 -0.700008 41.1999 0.999992 44.9999C3.09999 49.8999 5.19999 54.6999 7.29999 59.5999C12.9 72.3999 18.4 85.1999 24 97.9999C27.6 106.1 31.6 113.9 37.9 120.4C43.1 125.7 49.2 129 56.5 129C59.9 129 62.9 128.6 65.9 127.8C68.2 127.2 70.4 126.4 72.6 125.6C76.6 124 80.5 122.1 84.2 119.8C90.9 115.7 96.5 110.6 100 103.4C102.7 97.6999 103.8 91.5999 105.3 85.5999C107.8 75.3999 109.8 65.0999 113.3 55.1999C114 52.6999 113.9 50.0999 112.9 47.6999Z" fill="url(#paint0_linear_1770_9734)"/>
<defs>
<linearGradient id="paint0_linear_1770_9734" x1="86.9654" y1="118.606" x2="49.6187" y2="28.6575" gradientUnits="userSpaceOnUse">
<stop stop-color="#E7904E"/>
<stop offset="0.1666" stop-color="#E99756"/>
<stop offset="0.4244" stop-color="#EEA86B"/>
<stop offset="0.7394" stop-color="#F6C48F"/>
<stop offset="1" stop-color="#FEDDB3"/>
</linearGradient>
</defs>
</svg>
