<svg width="98" height="125" viewBox="0 0 98 125" fill="none" xmlns="http://www.w3.org/2000/svg">
<path d="M97.9998 81.2001C97.9998 53.1001 62.7998 41.5001 62.6998 4.80006C62.5998 -13.5999 13.4998 33.8001 17.0998 66.5001C17.7998 73.1001 9.69984 67.3001 8.69984 53.0001C4.69984 51.5001 -2.80016 73.0001 3.29984 95.4001C9.29984 115.4 25.5998 124.8 49.0998 124.8C72.6998 124.8 97.9998 109.3 97.9998 81.2001Z" fill="url(#paint0_linear_1770_9736)"/>
<path d="M48.4998 124.8C35.6998 124.8 31.6998 121.2 27.6998 116.2C20.1998 107.2 24.4998 97.2 31.1998 88.7C34.7998 84.2 41.3998 79 44.9998 66.7C46.3998 61.7 56.9998 74.8 61.9998 80C69.9998 88.4 76.3998 96.6 75.0998 106.9C73.9998 116.4 68.0998 124.8 48.4998 124.8Z" fill="url(#paint1_linear_1770_9736)"/>
<defs>
<linearGradient id="paint0_linear_1770_9736" x1="0.458354" y1="64.7546" x2="97.2872" y2="61.1209" gradientUnits="userSpaceOnUse">
<stop stop-color="#FAC409"/>
<stop offset="0.15" stop-color="#F6A91E"/>
<stop offset="0.3784" stop-color="#EF8229"/>
<stop offset="0.5793" stop-color="#EB632B"/>
<stop offset="0.7428" stop-color="#E94D2B"/>
<stop offset="0.8485" stop-color="#E8452B"/>
</linearGradient>
<linearGradient id="paint1_linear_1770_9736" x1="43.6199" y1="48.8079" x2="52.4067" y2="132.513" gradientUnits="userSpaceOnUse">
<stop stop-color="#F3981E"/>
<stop offset="0.1754" stop-color="#F49E1D"/>
<stop offset="0.4468" stop-color="#F7AF1A"/>
<stop offset="0.7784" stop-color="#FCC910"/>
<stop offset="1" stop-color="#FFDB00"/>
</linearGradient>
</defs>
</svg>
