<svg width="106" height="132" viewBox="0 0 106 132" fill="none" xmlns="http://www.w3.org/2000/svg">
<path d="M66.0001 0.500097C66.0001 0.500097 81.9001 0.400097 90.8001 0.400097C106.9 0.400097 105.4 17.6001 105.4 17.6001V30.0001C104.6 37.2001 100.6 42.1001 93.9001 44.7001C92.8001 45.1001 92.5001 45.6001 92.4001 46.8001C91.4001 60.4001 90.4001 73.9001 89.4001 87.4001C89.0001 93.0001 88.5001 98.5001 88.3001 104C88.0001 110.9 89.8001 117.5 91.4001 124.1C92.0001 126.7 92.6001 129.4 93.1001 132C66.3001 132 39.4001 132 12.6001 132C14.1001 125 15.8001 118 17.2001 111C18.1001 106.1 17.7001 101.1 17.3001 96.2001C16.6001 87.2001 15.9001 78.3001 15.3001 69.3001C14.7001 61.7001 14.2001 54.1001 13.6001 46.5001C13.5001 45.5001 13.1001 45.1001 12.2001 44.7001C5.20008 42.0001 1.00008 36.8001 0.300081 29.2001C8.13752e-05 25.3001 0.300081 21.4001 0.300081 17.3001C0.300081 17.3001 -1.69992 0.100098 17.2001 0.100098C26.1001 0.100098 40.7001 0.200098 40.7001 0.200098C40.7001 0.200098 52.7001 0.900098 52.7001 13.1001C52.7001 25.3001 52.7001 13.1001 52.7001 13.1001H53.4001C53.4001 13.1001 53.6001 0.500097 66.0001 0.500097Z" fill="url(#paint0_linear_1770_9740)"/>
<path d="M18.3 33.3999C16.9 33.3999 15.8 34.4999 15.8 35.8999C15.8 37.2999 17 38.4999 18.4 38.3999C19.7 38.2999 20.8 37.1999 20.7 35.7999C20.8 34.3999 19.7 33.3999 18.3 33.3999Z" fill="white"/>
<path d="M87.6 33.3999C86.2 33.2999 85.1 34.3999 85 35.6999C84.9 37.0999 86 38.2999 87.4 38.3999C88.7 38.3999 89.9 37.2999 89.9 35.9999C90 34.5999 89 33.4999 87.6 33.3999Z" fill="white"/>
<path d="M87.6001 33.3999C89.0001 33.4999 90.0001 34.5999 90.0001 35.9999C89.9001 37.3999 88.8001 38.4999 87.5001 38.3999C86.1001 38.3999 85.0001 37.0999 85.1001 35.6999C85.1001 34.3999 86.3001 33.2999 87.6001 33.3999Z" fill="#AE292D"/>
<path d="M20.8001 35.7999C20.8001 37.1999 19.8001 38.2999 18.5001 38.3999C17.1001 38.4999 15.9001 37.2999 15.9001 35.8999C15.9001 34.5999 17.0001 33.4999 18.4001 33.3999C19.7001 33.3999 20.8001 34.3999 20.8001 35.7999Z" fill="#AE292D"/>
<path d="M54.6001 33.3999C54.6001 36.0999 55.3001 38.6999 57.1001 40.7999C58.7001 42.6999 61.1001 43.7999 63.5001 44.3999C70.1001 46.2999 77.3001 45.6999 84.1001 45.6999C84.7001 45.6999 84.7001 44.6999 84.1001 44.6999C77.8001 44.6999 71.1001 45.0999 64.9001 43.6999C62.5001 43.1999 60.1001 42.2999 58.4001 40.4999C56.4001 38.5999 55.8001 35.9999 55.7001 33.2999C55.6001 32.7999 54.6001 32.7999 54.6001 33.3999Z" fill="#CE8264"/>
<path d="M49.2001 33.3999C49.2001 36.0999 48.5001 38.6999 46.5001 40.5999C44.7001 42.2999 42.3001 43.1999 40.0001 43.7999C33.8001 45.1999 27.1001 44.7999 20.8001 44.7999C20.2001 44.7999 20.2001 45.7999 20.8001 45.7999C27.6001 45.7999 34.8001 46.2999 41.4001 44.4999C43.8001 43.7999 46.1001 42.6999 47.8001 40.8999C49.6001 38.7999 50.2001 36.1999 50.3001 33.4999C50.2001 32.7999 49.2001 32.7999 49.2001 33.3999Z" fill="#CE8264"/>
<path opacity="0.72" d="M42.8999 76.1001C48.975 76.1001 53.8999 71.1752 53.8999 65.1001C53.8999 59.025 48.975 54.1001 42.8999 54.1001C36.8248 54.1001 31.8999 59.025 31.8999 65.1001C31.8999 71.1752 36.8248 76.1001 42.8999 76.1001Z" fill="url(#paint1_linear_1770_9740)"/>
<path opacity="0.72" d="M64.7 76.1001C70.7751 76.1001 75.6999 71.1752 75.6999 65.1001C75.6999 59.025 70.7751 54.1001 64.7 54.1001C58.6248 54.1001 53.7 59.025 53.7 65.1001C53.7 71.1752 58.6248 76.1001 64.7 76.1001Z" fill="url(#paint2_linear_1770_9740)"/>
<path opacity="0.72" d="M42.8999 98C48.975 98 53.8999 93.0751 53.8999 87C53.8999 80.9249 48.975 76 42.8999 76C36.8248 76 31.8999 80.9249 31.8999 87C31.8999 93.0751 36.8248 98 42.8999 98Z" fill="url(#paint3_linear_1770_9740)"/>
<path opacity="0.72" d="M64.7 98C70.7751 98 75.6999 93.0751 75.6999 87C75.6999 80.9249 70.7751 76 64.7 76C58.6248 76 53.7 80.9249 53.7 87C53.7 93.0751 58.6248 98 64.7 98Z" fill="url(#paint4_linear_1770_9740)"/>
<path opacity="0.72" d="M42.8999 119.7C48.975 119.7 53.8999 114.775 53.8999 108.7C53.8999 102.625 48.975 97.7 42.8999 97.7C36.8248 97.7 31.8999 102.625 31.8999 108.7C31.8999 114.775 36.8248 119.7 42.8999 119.7Z" fill="url(#paint5_linear_1770_9740)"/>
<path opacity="0.72" d="M64.7 119.7C70.7751 119.7 75.6999 114.775 75.6999 108.7C75.6999 102.625 70.7751 97.7 64.7 97.7C58.6248 97.7 53.7 102.625 53.7 108.7C53.7 114.775 58.6248 119.7 64.7 119.7Z" fill="url(#paint6_linear_1770_9740)"/>
<path d="M53.8 65.5C53.8 71.6 48.9 76.5 42.8 76.5" stroke="#CE8264" stroke-miterlimit="10" stroke-linecap="round" stroke-linejoin="round"/>
<path d="M64.7 76.5C58.6 76.5 53.7 71.6 53.7 65.5" stroke="#CE8264" stroke-miterlimit="10" stroke-linecap="round" stroke-linejoin="round"/>
<path d="M53.8 87C53.8 93.1 48.9 98 42.8 98" stroke="#CE8264" stroke-miterlimit="10" stroke-linecap="round" stroke-linejoin="round"/>
<path d="M64.7 98C58.6 98 53.7 93.1 53.7 87" stroke="#CE8264" stroke-miterlimit="10" stroke-linecap="round" stroke-linejoin="round"/>
<path d="M53.8 108.7C53.8 114.8 48.9 119.7 42.8 119.7" stroke="#CE8264" stroke-miterlimit="10" stroke-linecap="round" stroke-linejoin="round"/>
<path d="M64.7 119.7C58.6 119.7 53.7 114.8 53.7 108.7" stroke="#CE8264" stroke-miterlimit="10" stroke-linecap="round" stroke-linejoin="round"/>
<defs>
<linearGradient id="paint0_linear_1770_9740" x1="105.461" y1="66.0613" x2="0.146479" y2="66.0613" gradientUnits="userSpaceOnUse">
<stop stop-color="#E7904E"/>
<stop offset="0.1666" stop-color="#E99756"/>
<stop offset="0.4244" stop-color="#EEA86B"/>
<stop offset="0.7394" stop-color="#F6C48F"/>
<stop offset="1" stop-color="#FEDDB3"/>
</linearGradient>
<linearGradient id="paint1_linear_1770_9740" x1="31.9089" y1="65.0958" x2="53.8532" y2="65.0958" gradientUnits="userSpaceOnUse">
<stop stop-color="#E7904E"/>
<stop offset="0.1666" stop-color="#E99756"/>
<stop offset="0.4244" stop-color="#EEA86B"/>
<stop offset="0.7394" stop-color="#F6C48F"/>
<stop offset="1" stop-color="#FEDDB3"/>
</linearGradient>
<linearGradient id="paint2_linear_1770_9740" x1="53.7629" y1="65.0958" x2="75.707" y2="65.0958" gradientUnits="userSpaceOnUse">
<stop stop-color="#E7904E"/>
<stop offset="0.1666" stop-color="#E99756"/>
<stop offset="0.4244" stop-color="#EEA86B"/>
<stop offset="0.7394" stop-color="#F6C48F"/>
<stop offset="1" stop-color="#FEDDB3"/>
</linearGradient>
<linearGradient id="paint3_linear_1770_9740" x1="31.9089" y1="87.04" x2="53.8532" y2="87.04" gradientUnits="userSpaceOnUse">
<stop stop-color="#E7904E"/>
<stop offset="0.1666" stop-color="#E99756"/>
<stop offset="0.4244" stop-color="#EEA86B"/>
<stop offset="0.7394" stop-color="#F6C48F"/>
<stop offset="1" stop-color="#FEDDB3"/>
</linearGradient>
<linearGradient id="paint4_linear_1770_9740" x1="53.7629" y1="87.04" x2="75.707" y2="87.04" gradientUnits="userSpaceOnUse">
<stop stop-color="#E7904E"/>
<stop offset="0.1666" stop-color="#E99756"/>
<stop offset="0.4244" stop-color="#EEA86B"/>
<stop offset="0.7394" stop-color="#F6C48F"/>
<stop offset="1" stop-color="#FEDDB3"/>
</linearGradient>
<linearGradient id="paint5_linear_1770_9740" x1="31.9089" y1="108.725" x2="53.8532" y2="108.725" gradientUnits="userSpaceOnUse">
<stop stop-color="#E7904E"/>
<stop offset="0.1666" stop-color="#E99756"/>
<stop offset="0.4244" stop-color="#EEA86B"/>
<stop offset="0.7394" stop-color="#F6C48F"/>
<stop offset="1" stop-color="#FEDDB3"/>
</linearGradient>
<linearGradient id="paint6_linear_1770_9740" x1="53.7629" y1="108.725" x2="75.707" y2="108.725" gradientUnits="userSpaceOnUse">
<stop stop-color="#E7904E"/>
<stop offset="0.1666" stop-color="#E99756"/>
<stop offset="0.4244" stop-color="#EEA86B"/>
<stop offset="0.7394" stop-color="#F6C48F"/>
<stop offset="1" stop-color="#FEDDB3"/>
</linearGradient>
</defs>
</svg>
