<svg width="127" height="123" viewBox="0 0 127 123" fill="none" xmlns="http://www.w3.org/2000/svg">
<path d="M61.3001 0.5H61.2001C27.5001 0.5 0.100098 27.9 0.100098 61.6C0.100098 95.3 27.5001 122.7 61.2001 122.7H61.3001C95.0001 122.7 122.4 95.3 122.4 61.6C122.3 27.8 95.0001 0.5 61.3001 0.5Z" fill="url(#paint0_linear_1770_9769)"/>
<path d="M61.1 72.8C59.3 72.8 57.8 71.3 57.9 69.5L58 27.5C58 25.7 59.5 24.3 61.2 24.3C63 24.3 64.4 25.8 64.4 27.6L64.3 69.6C64.4 71.4 62.9 72.8 61.1 72.8Z" fill="#1B3F4B"/>
<path d="M60.6999 72.7999C59.1999 72.7999 57.8999 71.7999 57.4999 70.2999L44.3999 13.2999C43.9999 11.5999 45.0999 9.7999 46.7999 9.3999C48.5999 8.9999 50.2999 10.0999 50.6999 11.7999L63.7999 68.7999C64.1999 70.4999 63.0999 72.2999 61.3999 72.6999C61.0999 72.7999 60.8999 72.7999 60.6999 72.7999Z" fill="#1B3F4B"/>
<path d="M125.1 100.2C123.9 103.8 122.1 106.1 119.8 107.5C119 108 118.2 108.3 117.4 108.6C105.7 112 95.7001 104 89.8001 94.1C89.2001 93.3 88.5001 92.6 87.9001 91.8C84.6001 88.1 80.9001 84.8 76.0001 82.7C74.8001 81.9 75.3001 81.2 76.8001 80.5C79.6001 79.1 89.8001 74.1 102.7 75.2C115.6 76.3 120.8 79.9 125 89.1C125.4 90 125.6 90.9 125.8 91.9C126.2 93.8 126.2 95.9 125.7 98C125.5 98.7 125.3 99.5 125.1 100.2Z" fill="url(#paint1_linear_1770_9769)"/>
<path d="M81.2001 110.9C79.6001 112.1 78.1001 112.5 76.7001 112.4C76.2001 112.4 75.8001 112.3 75.3001 112.1C69.4001 110 67.1001 91.0999 65.7001 88.6999C65.4001 87.9999 65.9001 87.8999 66.7001 87.9999C68.3001 88.2999 74.1001 89.1999 79.2001 93.5999C84.3001 97.9999 85.4001 101.1 84.4001 106.1C84.3001 106.6 84.1001 107.1 83.9001 107.5C83.5001 108.4 82.9001 109.3 82.0001 110.1C81.8001 110.4 81.5001 110.7 81.2001 110.9Z" fill="url(#paint2_linear_1770_9769)"/>
<path d="M100.2 55.4999C101.4 57.0999 101.8 58.4999 101.7 59.8999C101.7 60.3999 101.6 60.7999 101.4 61.2999C99.3 67.1999 80.5 69.6999 78.1 71.0999C77.4 71.3999 77.3 70.8999 77.4 70.0999C77.6 68.4999 78.5 62.6999 82.9 57.4999C87.2 52.3999 90.3 51.1999 95.4 52.1999C95.9 52.2999 96.4 52.4999 96.8 52.6999C97.7 53.0999 98.6 53.6999 99.4 54.5999C99.6 54.8999 99.9 55.1999 100.2 55.4999Z" fill="url(#paint3_linear_1770_9769)"/>
<defs>
<linearGradient id="paint0_linear_1770_9769" x1="0.0562977" y1="61.5775" x2="122.343" y2="61.5775" gradientUnits="userSpaceOnUse">
<stop stop-color="#3694B7"/>
<stop offset="0.4705" stop-color="#59A6C4"/>
<stop offset="1" stop-color="#82BFD7"/>
</linearGradient>
<linearGradient id="paint1_linear_1770_9769" x1="75.2569" y1="92.262" x2="125.944" y2="92.262" gradientUnits="userSpaceOnUse">
<stop stop-color="#BFD7BF"/>
<stop offset="0.3715" stop-color="#D0E2D3"/>
<stop offset="1" stop-color="#F0F8FB"/>
</linearGradient>
<linearGradient id="paint2_linear_1770_9769" x1="62.722" y1="92.4378" x2="84.0603" y2="107.702" gradientUnits="userSpaceOnUse">
<stop stop-color="#BFD7BF"/>
<stop offset="0.3715" stop-color="#D0E2D3"/>
<stop offset="1" stop-color="#F0F8FB"/>
</linearGradient>
<linearGradient id="paint3_linear_1770_9769" x1="81.8263" y1="74.1369" x2="96.9282" y2="52.6831" gradientUnits="userSpaceOnUse">
<stop stop-color="#BFD7BF"/>
<stop offset="0.3715" stop-color="#D0E2D3"/>
<stop offset="1" stop-color="#F0F8FB"/>
</linearGradient>
</defs>
</svg>
