<svg width="123" height="143" viewBox="0 0 123 143" fill="none" xmlns="http://www.w3.org/2000/svg">
<path d="M50.0998 22.4C34.1998 28.4 21.3998 38.3 11.0998 51.8C7.4998 47.2 5.2998 42.1 4.2998 36.6C2.2998 25.6 3.8998 14.9 7.5998 4.50004C8.4998 1.80004 10.7998 0.500039 13.3998 1.00004C24.0998 3.00004 33.9998 6.80004 42.4998 13.8C45.3998 16.2 47.9998 19 50.0998 22.4Z" fill="url(#paint0_linear_1770_9681)"/>
<path d="M72.2998 22.4C76.3998 16 81.8998 11.5 88.2998 8.09998C94.6998 4.69998 101.5 2.29998 108.6 0.999979C111.3 0.499979 113.7 1.49998 114.6 3.89998C119.1 16.6 121 29.5 116.4 42.6C115.3 45.8 113.4 48.7 111.6 52.1C101.1 38.3 88.1998 28.5 72.2998 22.4Z" fill="url(#paint1_linear_1770_9681)"/>
<path d="M123 81.9001C123 115.6 95.5998 143 61.8998 143C28.1998 143 0.799805 115.6 0.799805 81.9001C0.799805 48.2001 28.1998 20.8 61.8998 20.8C95.6998 20.8 123 48.2001 123 81.9001Z" fill="url(#paint2_linear_1770_9681)"/>
<path d="M29.2002 64.7001C29.5002 65.6001 30.5002 66.2001 31.5002 65.8001L41.7002 62.5001C42.6002 62.2001 43.2002 61.2001 42.8002 60.2001C42.2002 58.3001 40.9002 56.9001 39.2002 56.0001C37.6002 55.2001 35.6002 55.0001 33.7002 55.6001C31.9002 56.2001 30.4002 57.5001 29.5002 59.2001C28.7002 60.9001 28.6002 62.9001 29.2002 64.7001Z" fill="#1B3F4B"/>
<path d="M81.3998 60.4C81.0998 61.3 81.6998 62.2999 82.5998 62.5999L92.8998 65.7C93.7998 66 94.7998 65.4 95.0998 64.5C95.6998 62.6 95.3998 60.7 94.4998 59C93.5998 57.4 92.0998 56.1 90.1998 55.5C88.3998 54.9 86.3998 55.1 84.6998 56C83.1998 57.1 81.9998 58.6 81.3998 60.4Z" fill="#1B3F4B"/>
<path d="M61.8999 127.3C84.8197 127.3 103.4 115.928 103.4 101.9C103.4 87.872 84.8197 76.5 61.8999 76.5C38.9801 76.5 20.3999 87.872 20.3999 101.9C20.3999 115.928 38.9801 127.3 61.8999 127.3Z" fill="url(#paint3_linear_1770_9681)"/>
<path d="M44.4489 112.325C50.2079 109.921 52.9272 103.303 50.5227 97.5436C48.1181 91.7846 41.5001 89.0653 35.7411 91.4698C29.9821 93.8744 27.2628 100.492 29.6674 106.251C32.072 112.01 38.6899 114.73 44.4489 112.325Z" fill="#1B3F4B"/>
<path d="M87.0495 112.325C92.8085 109.921 95.5278 103.303 93.1232 97.5436C90.7186 91.7846 84.1007 89.0653 78.3417 91.4698C72.5827 93.8744 69.8634 100.492 72.268 106.251C74.6725 112.01 81.2905 114.73 87.0495 112.325Z" fill="#1B3F4B"/>
<defs>
<linearGradient id="paint0_linear_1770_9681" x1="3.4317" y1="26.3245" x2="50.0553" y2="26.3245" gradientUnits="userSpaceOnUse">
<stop stop-color="#AC768D"/>
<stop offset="0.0314895" stop-color="#AF7B91"/>
<stop offset="0.2989" stop-color="#C7A7B5"/>
<stop offset="0.5338" stop-color="#D9C8D1"/>
<stop offset="0.725" stop-color="#E4DCE2"/>
<stop offset="0.8485" stop-color="#E8E3E8"/>
</linearGradient>
<linearGradient id="paint1_linear_1770_9681" x1="72.2843" y1="26.5375" x2="119.002" y2="26.5375" gradientUnits="userSpaceOnUse">
<stop stop-color="#AC768D"/>
<stop offset="0.0314895" stop-color="#AF7B91"/>
<stop offset="0.2989" stop-color="#C7A7B5"/>
<stop offset="0.5338" stop-color="#D9C8D1"/>
<stop offset="0.725" stop-color="#E4DCE2"/>
<stop offset="0.8485" stop-color="#E8E3E8"/>
</linearGradient>
<linearGradient id="paint2_linear_1770_9681" x1="0.821305" y1="81.9348" x2="123.002" y2="81.9348" gradientUnits="userSpaceOnUse">
<stop stop-color="#AC768D"/>
<stop offset="0.0314895" stop-color="#AF7B91"/>
<stop offset="0.2989" stop-color="#C7A7B5"/>
<stop offset="0.5338" stop-color="#D9C8D1"/>
<stop offset="0.725" stop-color="#E4DCE2"/>
<stop offset="0.8485" stop-color="#E8E3E8"/>
</linearGradient>
<linearGradient id="paint3_linear_1770_9681" x1="20.4437" y1="101.906" x2="103.38" y2="101.906" gradientUnits="userSpaceOnUse">
<stop stop-color="#AC768D"/>
<stop offset="0.5006" stop-color="#B687A3"/>
<stop offset="0.8485" stop-color="#BA8FAC"/>
</linearGradient>
</defs>
</svg>
