<svg width="89" height="136" viewBox="0 0 89 136" fill="none" xmlns="http://www.w3.org/2000/svg">
<path d="M26.2003 112.7C48.9003 96 63.5003 84.9 78.8003 58.8C96.1003 29.3 84.4003 0.300049 84.4003 0.300049C84.4003 0.300049 53.4003 4.30005 36.1003 33.8C20.9003 59.9 18.3003 78 14.8003 106.1L26.2003 112.7Z" fill="url(#paint0_linear_1770_9806)"/>
<path d="M73.2002 43.0001C69.7002 48.9001 62.1002 50.9001 56.2002 47.4001C50.3002 43.9001 48.3002 36.3001 51.8002 30.4001C55.3002 24.5001 62.9002 22.5001 68.8002 26.0001C74.7002 29.4001 76.6002 37.0001 73.2002 43.0001Z" fill="#ACD4F2"/>
<path d="M12.4001 110.3C12.4001 110.3 3.90014 122.6 4.80014 135.2C4.80014 135.2 13.2001 133.3 23.2001 116.6L12.4001 110.3Z" fill="url(#paint1_linear_1770_9806)"/>
<path d="M61.7004 82.7C58.3004 86.7 41.2004 101.3 36.4004 105.1C36.4004 105.1 40.9004 102.7 41.6004 106.6C42.4004 111 42.9004 116.8 47.2004 117.2C50.7004 117.5 63.4004 105.8 65.3004 103.7C67.3004 101.6 69.5004 98.3 62.0004 88.6C61.3004 87.9 59.5004 86 61.7004 82.7Z" fill="url(#paint2_linear_1770_9806)"/>
<path d="M23.8001 60.2C22.0001 65.1 17.5001 87.1999 16.5001 93.1999C16.5001 93.1999 16.5001 88.1 12.7001 89.4C8.50015 90.8 3.10015 93.2999 0.700149 89.6999C-1.19985 86.7999 2.80015 70 3.70015 67.4C4.60015 64.6 6.40015 61.1 18.5001 62.9C19.5001 63 22.0001 63.7 23.8001 60.2Z" fill="url(#paint3_linear_1770_9806)"/>
<defs>
<linearGradient id="paint0_linear_1770_9806" x1="83.0281" y1="-2.20637" x2="14.6745" y2="127.354" gradientUnits="userSpaceOnUse">
<stop stop-color="#3694B7"/>
<stop offset="0.4705" stop-color="#59A6C4"/>
<stop offset="1" stop-color="#82BFD7"/>
</linearGradient>
<linearGradient id="paint1_linear_1770_9806" x1="5.03765" y1="135.399" x2="25.1657" y2="100.482" gradientUnits="userSpaceOnUse">
<stop stop-color="#FBC213"/>
<stop offset="0.189" stop-color="#F8B11F"/>
<stop offset="0.589" stop-color="#EF802C"/>
<stop offset="1" stop-color="#E73D2D"/>
</linearGradient>
<linearGradient id="paint2_linear_1770_9806" x1="49.4404" y1="94.6559" x2="68.9478" y2="131.251" gradientUnits="userSpaceOnUse">
<stop stop-color="#0077A3"/>
<stop offset="0.3178" stop-color="#3189B1"/>
<stop offset="0.9863" stop-color="#80BED6"/>
<stop offset="1" stop-color="#82BFD7"/>
</linearGradient>
<linearGradient id="paint3_linear_1770_9806" x1="19.328" y1="76.725" x2="-22.1336" y2="77.4692" gradientUnits="userSpaceOnUse">
<stop stop-color="#0077A3"/>
<stop offset="0.3178" stop-color="#3189B1"/>
<stop offset="0.9863" stop-color="#80BED6"/>
<stop offset="1" stop-color="#82BFD7"/>
</linearGradient>
</defs>
</svg>
