<svg xmlns="http://www.w3.org/2000/svg" fill="none" viewBox="0 0 56 39">
  <defs/>
  <mask id="a" width="39" height="39" x="0" y="0" maskUnits="userSpaceOnUse">
    <path fill="#fff" fill-rule="evenodd" d="M19.4.31A19.3 19.3 0 000 19.53a19.3 19.3 0 0019.4 19.21 19.3 19.3 0 0019.4-19.21A19.3 19.3 0 0019.4.3z" clip-rule="evenodd"/>
  </mask>
  <g mask="url(#a)">
    <path fill="url(#paint0_linear)" fill-rule="evenodd" d="M19.4.31A19.3 19.3 0 000 19.53a19.3 19.3 0 0019.4 19.21 19.3 19.3 0 0019.4-19.21A19.3 19.3 0 0019.4.3z" clip-rule="evenodd"/>
  </g>
  <mask id="b" width="20" height="39" x="19" y="0" maskUnits="userSpaceOnUse">
    <path fill="#fff" fill-rule="evenodd" d="M19.4.31v38.43a19.3 19.3 0 0019.4-19.21A19.3 19.3 0 0019.4.3z" clip-rule="evenodd"/>
  </mask>
  <g mask="url(#b)">
    <path fill="url(#paint1_linear)" fill-rule="evenodd" d="M19.4.31v38.43a19.3 19.3 0 0019.4-19.21A19.3 19.3 0 0019.4.3z" clip-rule="evenodd"/>
  </g>
  <path fill="#16303A" fill-rule="evenodd" d="M6.85 14.83c.22.63.92.97 1.56.75l6.97-2.4c.64-.22.98-.91.75-1.55a4.94 4.94 0 00-9.07-.53 4.79 4.79 0 00-.21 3.73zM22.57 11.77c-.2.64.16 1.33.8 1.53l7.04 2.2c.65.2 1.34-.16 1.54-.8a4.89 4.89 0 00-3.2-6.1 4.92 4.92 0 00-6.18 3.17z" clip-rule="evenodd"/>
  <path fill="#F9F9F9" fill-rule="evenodd" d="M33.38 22.03c-.23-.3-.6-.48-.98-.48h-26A1.23 1.23 0 005.2 23.1 14.76 14.76 0 0019.4 33.72c6.57 0 12.4-4.37 14.19-10.62.1-.37.02-.77-.2-1.07zM39.43 19.53h11.64a3.87 3.87 0 003.88-3.85V4.16A3.87 3.87 0 0051.07.3H39.43a3.87 3.87 0 00-3.88 3.85V14.87l-2.65 3.88a.5.5 0 00-.1.28c0 .28.24.5.51.5H39.43z" clip-rule="evenodd"/>
  <path fill="#16303A" fill-rule="evenodd" d="M41.71 6.7c-.01.15.12.25.23.3.57.21.84.46 1.68.63.11.02.5-.12.56-.27.11-.35-.02-.85.52-1.25.58-.43 1.39-.44 1.92.2.84 1-.23 1.76-1.2 2-.58.16-1.22.35-1.71.76-.48.38-1.99 3.94-1.78 4.7.07.29 1.7.85 1.99.72.93-.43.93-2.8 1.68-3.27.6-.36 1.37-.33 2.01-.56.42-.15.81-.38 1.14-.68a3.9 3.9 0 001.27-2.69 4.58 4.58 0 00-3.94-4.53c-1.05-.12-2.36.09-3.18.81-.88.79-1.07 2.03-1.19 3.14zM42.08 17.1c.85.14 1.62-.41 1.42-1.32-.08-.36-.3-.73-.66-.86-.7-.25-1.37-.24-1.67.36-.4.78.05 1.66.9 1.81z" clip-rule="evenodd"/>
  <defs>
    <linearGradient id="paint0_linear" x1="19.4" x2="0" y1="11.93" y2="11.93" gradientUnits="userSpaceOnUse">
      <stop stop-color="#D43B18"/>
      <stop offset="1" stop-color="#DCB014"/>
    </linearGradient>
    <linearGradient id="paint1_linear" x1="19.4" x2="38.8" y1="39.73" y2="39.73" gradientUnits="userSpaceOnUse">
      <stop stop-color="#E06B4F"/>
      <stop offset="1" stop-color="#FD8800"/>
    </linearGradient>
  </defs>
</svg>
