<svg xmlns="http://www.w3.org/2000/svg" fill="none" viewBox="0 0 41 39">
  <defs/>
  <path fill="#003350" fill-rule="evenodd" d="M0 38.21h33.88V0H0v38.21z" clip-rule="evenodd"/>
  <path fill="#003350" fill-rule="evenodd" d="M0 38.21h33.88V19H0v19.22z" clip-rule="evenodd"/>
  <path fill="url(#paint0_linear)" fill-rule="evenodd" d="M5.34 7.1h23.2V0H5.33v7.1z" clip-rule="evenodd"/>
  <path fill="url(#paint1_linear)" fill-rule="evenodd" d="M5.34 38.21h23.2v-7.1H5.33v7.1z" clip-rule="evenodd"/>
  <path fill="url(#paint2_linear)" fill-rule="evenodd" d="M5.34 28.34h23.2V9.87H5.33v18.47z" clip-rule="evenodd"/>
  <path fill="#70B2CE" fill-rule="evenodd" d="M30.18 1.18h2.26V0h-2.26v1.18zM30.18 5.43h2.26V3.08h-2.26v2.35zm0 4.24h2.26V7.32h-2.26v2.35zm0 4.24h2.26v-2.34h-2.26v2.34zm0 4.25h2.26V15.8h-2.26v2.35zm0 4.24h2.26v-2.35h-2.26v2.35zm0 4.24h2.26V24.3h-2.26v2.34zm0 4.25h2.26v-2.35h-2.26v2.35zm0 4.24h2.26v-2.35h-2.26v2.35z" clip-rule="evenodd"/>
  <path fill="#70B2CE" fill-rule="evenodd" d="M30.18 22.4h2.26v-2.35h-2.26v2.35zM30.18 35.13h2.26v-2.35h-2.26v2.35zM30.18 26.64h2.26V24.3h-2.26v2.34zM30.18 30.89h2.26v-2.35h-2.26v2.35zM30.18 38.21h2.26v-1.18h-2.26v1.18z" clip-rule="evenodd"/>
  <path fill="#C3EDFF" fill-rule="evenodd" d="M1.43 1.18H3.7V0H1.43v1.18zM1.43 5.43H3.7V3.08H1.43v2.35zm0 4.24H3.7V7.32H1.43v2.35zm0 4.24H3.7v-2.34H1.43v2.34zm0 4.25H3.7V15.8H1.43v2.35zm0 4.24H3.7v-2.35H1.43v2.35zm0 4.24H3.7V24.3H1.43v2.34zm0 4.25H3.7v-2.35H1.43v2.35zm0 4.24H3.7v-2.35H1.43v2.35z" clip-rule="evenodd"/>
  <path fill="#C3EDFF" fill-rule="evenodd" d="M1.43 30.89H3.7v-2.35H1.43v2.35zM1.43 35.13H3.7v-2.35H1.43v2.35zM1.43 22.4H3.7v-2.35H1.43v2.35zM1.43 26.64H3.7V24.3H1.43v2.34zM1.43 38.21H3.7v-1.18H1.43v1.18z" clip-rule="evenodd"/>
  <path fill="url(#paint3_linear)" fill-rule="evenodd" d="M16.94 7.1h11.6V0h-11.6v7.1z" clip-rule="evenodd"/>
  <path fill="url(#paint4_linear)" fill-rule="evenodd" d="M16.94 38.21h11.6v-7.1h-11.6v7.1z" clip-rule="evenodd"/>
  <path fill="url(#paint5_linear)" fill-rule="evenodd" d="M16.94 28.33h11.6V9.87h-11.6v18.46z" clip-rule="evenodd"/>
  <mask id="a" width="20" height="25" x="21" y="14" maskUnits="userSpaceOnUse">
    <path fill="#fff" fill-rule="evenodd" d="M29.31 14.52c2.16.01 9.03 7.53 8.43 12.98-.15 1.3 1.47.17 1.66-2.66.8-.3 2.28 3.94 1.08 8.36-1.2 3.95-4.42 5.8-9.1 5.8s-9.71-3.05-9.71-8.59 6.98-7.83 7-15.08c0-.56.24-.81.63-.81h.01z" clip-rule="evenodd"/>
  </mask>
  <g mask="url(#a)">
    <path fill="url(#paint6_linear)" fill-rule="evenodd" d="M29.31 14.52c2.16.01 9.03 7.53 8.43 12.98-.15 1.3 1.47.17 1.66-2.66.8-.3 2.28 3.94 1.08 8.36-1.2 3.95-4.42 5.8-9.1 5.8s-9.71-3.05-9.71-8.59 6.98-7.83 7-15.08c0-.56.24-.81.63-.81h.01z" clip-rule="evenodd"/>
  </g>
  <mask id="b" width="12" height="12" x="25" y="27" maskUnits="userSpaceOnUse">
    <path fill="#fff" fill-rule="evenodd" d="M32.13 27.36c.73 2.44 2.06 3.45 2.8 4.34 1.35 1.68 2.22 3.64.7 5.41-.81.99-1.64 1.7-4.23 1.7-3.97 0-5.17-1.65-5.4-3.51-.25-2.04 1.04-3.64 2.67-5.3.85-.87 2.53-2.85 3.2-2.85.12 0 .21.07.26.21z" clip-rule="evenodd"/>
  </mask>
  <g mask="url(#b)">
    <path fill="url(#paint7_linear)" fill-rule="evenodd" d="M32.13 27.36c.73 2.44 2.06 3.45 2.8 4.34 1.35 1.68 2.22 3.64.7 5.41-.81.99-1.64 1.7-4.23 1.7-3.97 0-5.17-1.65-5.4-3.51-.25-2.04 1.04-3.64 2.67-5.3.85-.87 2.53-2.85 3.2-2.85.12 0 .21.07.26.21z" clip-rule="evenodd"/>
  </g>
  <defs>
    <linearGradient id="paint0_linear" x1="5.34" x2="28.53" y1="7.09" y2="7.09" gradientUnits="userSpaceOnUse">
      <stop stop-color="#006290"/>
      <stop offset="1" stop-color="#70B1CD"/>
    </linearGradient>
    <linearGradient id="paint1_linear" x1="5.34" x2="28.53" y1="38.21" y2="38.21" gradientUnits="userSpaceOnUse">
      <stop stop-color="#006290"/>
      <stop offset="1" stop-color="#70B1CD"/>
    </linearGradient>
    <linearGradient id="paint2_linear" x1="5.34" x2="28.53" y1="28.34" y2="28.34" gradientUnits="userSpaceOnUse">
      <stop stop-color="#006290"/>
      <stop offset="1" stop-color="#70B1CD"/>
    </linearGradient>
    <linearGradient id="paint3_linear" x1="16.94" x2="28.53" y1="7.09" y2="7.09" gradientUnits="userSpaceOnUse">
      <stop stop-color="#006290"/>
      <stop offset="1" stop-color="#70B1CD"/>
    </linearGradient>
    <linearGradient id="paint4_linear" x1="16.94" x2="28.53" y1="38.21" y2="38.21" gradientUnits="userSpaceOnUse">
      <stop stop-color="#006290"/>
      <stop offset="1" stop-color="#70B1CD"/>
    </linearGradient>
    <linearGradient id="paint5_linear" x1="16.94" x2="28.53" y1="28.33" y2="28.33" gradientUnits="userSpaceOnUse">
      <stop stop-color="#006290"/>
      <stop offset="1" stop-color="#70B1CD"/>
    </linearGradient>
    <linearGradient id="paint6_linear" x1="29.32" x2="50.75" y1="8.11" y2="22.44" gradientUnits="userSpaceOnUse">
      <stop stop-color="#EB1818"/>
      <stop offset="1" stop-color="#FDC600"/>
    </linearGradient>
    <linearGradient id="paint7_linear" x1="39.78" x2="37.58" y1="24.85" y2="41.26" gradientUnits="userSpaceOnUse">
      <stop stop-color="#ED8517"/>
      <stop offset="1" stop-color="#FFD600"/>
    </linearGradient>
  </defs>
</svg>
