<!-- Generated by IcoMoon.io -->
<svg version="1.1" xmlns="http://www.w3.org/2000/svg" width="32" height="32" viewBox="0 0 32 32">
<title>alert</title>
<path d="M28.219 12.331c-0.1-0.231-0.326-0.38-0.577-0.38h-9.789l0.042-0.1 4.601-10.978c0.118-0.283 0.017-0.607-0.24-0.772-0.101-0.066-0.219-0.101-0.341-0.101-0.174 0-0.342 0.072-0.461 0.199l-17.557 18.79c-0.171 0.184-0.218 0.453-0.115 0.68 0.098 0.232 0.324 0.38 0.575 0.38h9.789l-0.042 0.1-4.601 10.98c-0.118 0.282-0.017 0.607 0.239 0.772 0.252 0.164 0.6 0.119 0.805-0.098l17.555-18.791c0.174-0.184 0.219-0.452 0.118-0.681zM26.077 13.334l-14.054 15.039 3.651-8.711c0.080-0.196 0.059-0.416-0.058-0.59-0.115-0.176-0.311-0.282-0.522-0.282h-9.287l0.114-0.121 14.053-15.041-3.65 8.711c-0.083 0.194-0.062 0.416 0.056 0.593 0.118 0.176 0.313 0.281 0.524 0.281h9.285l-0.113 0.122z"></path>
</svg>
