<!-- Generated by IcoMoon.io -->
<svg version="1.1" xmlns="http://www.w3.org/2000/svg" width="32" height="32" viewBox="0 0 32 32">
<title>block</title>
<path d="M27.316 4.686c-3.023-3.023-7.040-4.686-11.313-4.686-4.277 0-8.293 1.664-11.315 4.686-3.025 3.023-4.689 7.041-4.689 11.315s1.664 8.291 4.689 11.314c3.020 3.022 7.038 4.686 11.315 4.686 4.273 0 8.29-1.664 11.313-4.686 3.019-3.023 4.685-7.040 4.685-11.314 0-4.275-1.666-8.292-4.686-11.315zM26.423 5.577c2.783 2.784 4.317 6.486 4.317 10.424 0 3.726-1.387 7.228-3.894 9.953l-20.801-20.801c2.726-2.506 6.23-3.894 9.957-3.894 3.936 0 7.638 1.535 10.42 4.318zM5.578 26.423c-2.783-2.786-4.317-6.487-4.317-10.422 0-3.725 1.388-7.231 3.893-9.956l20.803 20.802c-2.727 2.507-6.23 3.893-9.953 3.893-3.939 0-7.642-1.533-10.426-4.316z"></path>
</svg>
