<?xml version="1.0" encoding="utf-8"?>
<!-- Generator: Adobe Illustrator 16.0.0, SVG Export Plug-In . SVG Version: 6.00 Build 0)  -->
<!DOCTYPE svg PUBLIC "-//W3C//DTD SVG 1.1//EN" "http://www.w3.org/Graphics/SVG/1.1/DTD/svg11.dtd">
<svg version="1.1" id="Ebene_1" xmlns="http://www.w3.org/2000/svg" xmlns:xlink="http://www.w3.org/1999/xlink" x="0px" y="0px"
	 width="50px" height="50px" viewBox="0 0 50 50" enable-background="new 0 0 50 50" xml:space="preserve">
<path d="M25.191,1.583c-13.149,0-23.809,10.66-23.809,23.808c0,9.996,6.162,18.547,14.893,22.077
	c-0.057-0.424-0.097-0.853-0.097-1.29c0-3.922,2.358-7.286,5.731-8.771h-0.112c-1.708-2.87-3.399-5.713-5.122-8.609
	c-0.63,1.455-1.26,2.894-1.987,4.304c-0.688,1.337-1.313,2.686-2.287,3.846c-0.43,0.51-0.78,0.514-1.202-0.01
	c-1.043-1.287-1.271-3.465-1.305-5.061c-0.042-1.942,0.007-3.999,0.669-5.849c0.586-1.637,2.281-2.6,3.827-3.173
	c1.723-0.639,3.675-0.718,5.316,0.191c2.055,1.139,2.751,3.783,3.492,5.833c0.895,2.482,1.466,5.109,2.042,7.681
	c0.326,0,0.598,0,0.811,0c0.192-1.676,0.34-3.373,0.644-5.033c0.418-2.275,1.288-4.575,2.064-6.757
	c1.018-2.86,2.314-5.654,3.765-8.322c1.311-2.411,2.804-5.189,4.998-6.92c0.759-0.598,1.11-0.413,1.469,0.076
	c3.108,4.235,0.765,10.373-1.32,14.523c-2.328,4.628-5.638,8.71-8.174,13.227c3.434,1.458,5.843,4.859,5.843,8.824
	c0,0.26-0.02,0.516-0.039,0.77C43.395,43.146,49,34.924,49,25.391C49,12.243,38.34,1.583,25.191,1.583z"/>
<circle cx="22.537" cy="45.741" r="1.291"/>
<circle cx="29.184" cy="45.741" r="1.292"/>
</svg>
