<!-- Generated by IcoMoon.io -->
<svg version="1.1" xmlns="http://www.w3.org/2000/svg" width="32" height="32" viewBox="0 0 32 32">
<title>calendar_sub</title>
<path d="M25.94 12.189h-19.878c-0.397 0-0.72 0.323-0.72 0.72v13.252c0 0.398 0.323 0.722 0.72 0.722h19.878c0.397 0 0.72-0.324 0.72-0.722v-13.252c0-0.397-0.323-0.72-0.72-0.72zM25.22 18.815h-5.185v-5.185h5.185v5.185zM18.593 18.815h-5.185v-5.185h5.185v5.185zM6.783 13.629h5.185v5.185h-5.185v-5.185zM6.783 20.256h5.185v5.185h-5.185v-5.185zM13.408 20.256h5.185v5.185h-5.185v-5.185zM25.22 25.441h-5.185v-5.185h5.185v5.185z"></path>
<path d="M27.509 2.971h-3.822v-2.27c0-0.387-0.313-0.701-0.701-0.701-0.388 0-0.703 0.313-0.703 0.701v2.27h-12.466v-2.27c0-0.387-0.313-0.701-0.7-0.701-0.388 0-0.703 0.313-0.703 0.701v2.27h-3.923c-1.657 0-3.006 1.348-3.006 3.006v23.018c0 1.657 1.348 3.006 3.006 3.006h23.017c1.658 0 3.006-1.349 3.006-3.006v-23.017c0.001-1.658-1.347-3.007-3.005-3.007zM29.074 28.995c0 0.863-0.702 1.565-1.565 1.565h-23.017c-0.863 0-1.565-0.702-1.565-1.565v-23.018c0-0.863 0.702-1.565 1.565-1.565h3.923v2.462c0 0.387 0.315 0.7 0.703 0.7 0.386 0 0.7-0.313 0.7-0.7v-2.462h12.466v2.462c0 0.387 0.315 0.7 0.703 0.7 0.387 0 0.701-0.313 0.701-0.7v-2.462h3.822c0.863 0 1.565 0.702 1.565 1.565v23.018z"></path>
</svg>
