<!-- Generated by IcoMoon.io -->
<svg version="1.1" xmlns="http://www.w3.org/2000/svg" width="32" height="32" viewBox="0 0 32 32">
<title>calendar_sub_active</title>
<path d="M27.509 2.971h-3.822v-2.27c0-0.387-0.313-0.701-0.701-0.701-0.388 0-0.703 0.313-0.703 0.701v2.27h-12.466v-2.27c0-0.387-0.313-0.701-0.7-0.701-0.388 0-0.703 0.313-0.703 0.701v2.27h-3.923c-1.657 0-3.006 1.348-3.006 3.006v23.018c0 1.657 1.348 3.006 3.006 3.006h23.017c1.658 0 3.006-1.349 3.006-3.006v-23.018c0.001-1.658-1.347-3.006-3.005-3.006zM11.968 25.44h-5.185v-5.185h5.185v5.185zM11.968 18.814h-5.185v-5.185h5.185v5.185zM18.593 25.44h-5.185v-5.185h5.185v5.185zM18.593 18.815h-5.185v-5.185h5.185v5.185zM25.22 25.44h-5.185v-5.185h5.185v5.185zM25.22 18.815h-5.185v-5.185h5.185v5.185z"></path>
</svg>
