<!-- Generated by IcoMoon.io -->
<svg version="1.1" xmlns="http://www.w3.org/2000/svg" width="32" height="32" viewBox="0 0 32 32">
<title>calendar_main_active</title>
<path d="M16.029 19.588c0.514 0 0.933-0.165 1.259-0.496 0.326-0.331 0.491-0.77 0.491-1.32 0-0.534-0.167-0.974-0.501-1.325-0.333-0.351-0.754-0.526-1.264-0.526-0.519 0-0.938 0.168-1.259 0.508-0.321 0.336-0.481 0.785-0.481 1.344 0 0.549 0.161 0.989 0.485 1.32s0.748 0.496 1.271 0.496z"></path>
<path d="M16.014 20.735c-0.606 0-1.099 0.191-1.477 0.57-0.377 0.38-0.566 0.867-0.566 1.458 0 0.609 0.188 1.090 0.563 1.439 0.376 0.348 0.875 0.52 1.496 0.52 0.608 0 1.102-0.173 1.482-0.524s0.572-0.827 0.572-1.434c0-0.591-0.196-1.078-0.587-1.458-0.39-0.378-0.885-0.57-1.483-0.57z"></path>
<path d="M29.101 3h-4.404v-2.299c0-0.387-0.313-0.701-0.7-0.701-0.389 0-0.703 0.314-0.703 0.701v2.299h-14.588v-2.299c0-0.387-0.314-0.701-0.701-0.701-0.389 0-0.703 0.314-0.703 0.701v2.299h-4.401c-1.033 0-1.871 0.841-1.871 1.87v25.26c0 1.032 0.838 1.87 1.871 1.87h26.202c1.031 0 1.871-0.838 1.871-1.87v-25.26c0-1.030-0.841-1.87-1.871-1.87zM18.559 25.082c-0.649 0.527-1.493 0.788-2.53 0.788-1.058 0-1.908-0.262-2.552-0.788-0.645-0.526-0.967-1.288-0.967-2.287 0-0.607 0.184-1.143 0.548-1.609 0.366-0.462 0.86-0.804 1.483-1.022-0.539-0.207-0.96-0.522-1.268-0.942-0.306-0.424-0.458-0.918-0.458-1.479 0-0.949 0.291-1.681 0.877-2.197s1.359-0.775 2.322-0.775c0.949 0 1.724 0.259 2.325 0.775 0.599 0.515 0.899 1.248 0.899 2.197 0 0.562-0.16 1.056-0.474 1.479-0.316 0.42-0.745 0.735-1.284 0.942 0.622 0.218 1.12 0.56 1.493 1.022 0.372 0.466 0.56 1.001 0.56 1.609 0 0.999-0.325 1.762-0.975 2.287zM29.569 8.6h-27.138v-3.73c0-0.257 0.21-0.467 0.468-0.467h4.402v2.478c0 0.387 0.315 0.701 0.703 0.701 0.386 0 0.701-0.314 0.701-0.701v-2.478h14.589v2.478c0 0.387 0.315 0.701 0.703 0.701 0.387 0 0.7-0.314 0.7-0.701v-2.478h4.404c0.257 0 0.468 0.211 0.468 0.467v3.73z"></path>
</svg>
