<!-- Generated by IcoMoon.io -->
<svg version="1.1" xmlns="http://www.w3.org/2000/svg" width="32" height="32" viewBox="0 0 32 32">
<title>Checkbox_unchecked</title>
<path d="M3.313 0c-1.827 0-3.313 1.487-3.313 3.314v25.374c0 1.826 1.487 3.313 3.313 3.313h25.375c1.825 0 3.311-1.487 3.311-3.313v-25.374c0-1.827-1.487-3.314-3.311-3.314h-25.375zM28.688 1.59c0.95 0 1.724 0.772 1.724 1.725v25.374c0 0.951-0.774 1.724-1.724 1.724h-25.375c-0.953 0-1.726-0.772-1.726-1.724v-25.374c0-0.951 0.774-1.725 1.726-1.725h25.375z"></path>
</svg>
