<!-- Generated by IcoMoon.io -->
<svg version="1.1" xmlns="http://www.w3.org/2000/svg" width="32" height="32" viewBox="0 0 32 32">
<title>Checkbox</title>
<path fill="#3c3c3b" d="M3.313 0c-1.827 0-3.313 1.487-3.313 3.314v25.374c0 1.826 1.487 3.313 3.313 3.313h25.375c1.825 0 3.311-1.487 3.311-3.313v-25.374c0-1.827-1.487-3.314-3.311-3.314h-25.375zM28.688 1.59c0.95 0 1.724 0.772 1.724 1.725v25.374c0 0.951-0.774 1.724-1.724 1.724h-25.375c-0.953 0-1.726-0.772-1.726-1.724v-25.374c0-0.951 0.774-1.725 1.726-1.725h25.375z"></path>
<path fill="#1d1d1b" d="M28.392 7.567c-0.285-0.281-0.778-0.284-1.064 0l-16.364 16.368-5.284-5.283c-0.284-0.285-0.78-0.282-1.061-0.001-0.142 0.142-0.22 0.331-0.221 0.531 0 0.2 0.078 0.39 0.221 0.531l5.814 5.817c0.143 0.14 0.333 0.219 0.533 0.219 0.196 0 0.39-0.081 0.53-0.22l16.896-16.896c0.293-0.293 0.293-0.77 0-1.065z"></path>
</svg>
