<!-- Generated by IcoMoon.io -->
<svg version="1.1" xmlns="http://www.w3.org/2000/svg" width="32" height="32" viewBox="0 0 32 32">
<title>close</title>
<path d="M16.001 17.489l14.092 14.093c0.373 0.371 0.977 0.371 1.35 0 0.37-0.373 0.37-0.977 0-1.347l-14.095-14.095 14.381-14.378c0.373-0.373 0.373-0.979 0-1.35-0.371-0.37-0.974-0.37-1.347 0l-14.381 14.384-14.382-14.384c-0.37-0.37-0.973-0.37-1.345 0-0.188 0.188-0.281 0.432-0.281 0.676s0.093 0.488 0.281 0.676l14.379 14.378-14.095 14.095c-0.183 0.185-0.277 0.429-0.277 0.674s0.093 0.488 0.277 0.674c0.374 0.371 0.979 0.371 1.349 0l14.095-14.096z"></path>
</svg>
