<!-- Generated by IcoMoon.io -->
<svg version="1.1" xmlns="http://www.w3.org/2000/svg" width="32" height="32" viewBox="0 0 32 32">
<title>crop</title>
<path d="M31.39 24.093h-6.082v-16.539l6.512-6.513c0.116-0.116 0.178-0.268 0.178-0.431s-0.064-0.315-0.178-0.429c-0.116-0.116-0.267-0.178-0.43-0.178s-0.315 0.064-0.43 0.178l-6.512 6.512h-16.539v-6.082c0-0.336-0.273-0.61-0.609-0.61s-0.609 0.274-0.609 0.61v6.082h-6.084c-0.336 0-0.609 0.273-0.609 0.609s0.273 0.609 0.609 0.609h6.084v16.79c0 0.079 0.017 0.16 0.047 0.237 0.005 0.010 0.016 0.024 0.025 0.037 0.008 0.012 0.018 0.024 0.025 0.035 0.008 0.014 0.017 0.025 0.024 0.040 0.018 0.030 0.034 0.061 0.057 0.082 0.014 0.014 0.031 0.024 0.052 0.035 0.016 0.010 0.029 0.017 0.043 0.025 0.013 0.010 0.025 0.019 0.036 0.028 0.023 0.017 0.043 0.032 0.066 0.042 0.075 0.030 0.154 0.047 0.234 0.047h16.79v6.082c0 0.336 0.274 0.609 0.61 0.609s0.609-0.273 0.609-0.609v-6.082h6.082c0.336 0 0.61-0.273 0.61-0.609s-0.276-0.607-0.611-0.607zM7.908 7.908h15.322l-0.104 0.102-15.219 15.221v-15.323zM24.090 24.093h-15.32l15.32-15.322v15.322z"></path>
</svg>
