<!-- Generated by IcoMoon.io -->
<svg version="1.1" xmlns="http://www.w3.org/2000/svg" width="32" height="32" viewBox="0 0 32 32">
<title>crop_rotate</title>
<path d="M27.2 0.698c-0.093-0.405-0.458-0.698-0.873-0.698-0.224 0-0.435 0.088-0.597 0.248l-2.691 2.688-0.103-0.056c-2.133-1.131-4.533-1.731-6.937-1.731-8.161 0-14.801 6.64-14.801 14.802 0 1.162 0.136 2.317 0.402 3.432 0.062 0.261 0.299 0.448 0.563 0.448 0.038 0 0.081-0.004 0.144-0.017 0.305-0.074 0.497-0.39 0.423-0.7-0.242-1.027-0.366-2.092-0.366-3.163 0-7.519 6.116-13.636 13.636-13.636 2.057 0 4.126 0.478 5.98 1.383l0.199 0.098-0.156 0.155-2.325 2.327c-0.216 0.218-0.298 0.543-0.211 0.845 0.090 0.312 0.343 0.551 0.663 0.623l7.769 1.743c0.065 0.017 0.127 0.023 0.199 0.023 0.259 0 0.502-0.116 0.666-0.318 0.158-0.199 0.218-0.465 0.162-0.727l-1.745-7.771zM27.619 8.233l-6.715-1.511 0.203-0.201 5.068-5.071 0.021 0.094 1.506 6.708-0.082-0.019z"></path>
<path d="M30.41 12.555c-0.062-0.259-0.304-0.447-0.577-0.447-0.041 0-0.084 0.005-0.127 0.015-0.31 0.073-0.504 0.387-0.429 0.699 0.239 1.015 0.36 2.068 0.36 3.131 0 7.519-6.117 13.636-13.636 13.636-1.996 0-4.007-0.448-5.814-1.297l-0.202-0.095 2.476-2.477c0.221-0.22 0.301-0.543 0.21-0.842-0.090-0.316-0.343-0.554-0.66-0.627l-7.771-1.743c-0.065-0.017-0.129-0.024-0.198-0.024-0.259 0-0.502 0.115-0.664 0.316-0.161 0.205-0.222 0.47-0.164 0.727l1.745 7.775c0.093 0.405 0.458 0.698 0.87 0.698 0.228 0 0.442-0.088 0.599-0.248l2.695-2.696 0.103 0.052c2.090 1.078 4.434 1.647 6.774 1.647 8.161 0 14.803-6.639 14.803-14.801 0-1.137-0.134-2.28-0.392-3.398zM8.69 27.835c-0.090 0.052-0.162 0.119-0.201 0.189l-0.021 0.026-2.485 2.499-0.021-0.093-1.507-6.709 0.081 0.019 6.719 1.51-0.203 0.201-2.363 2.357z"></path>
<path d="M24.036 19.816h-2.557v-6.346c0-1.715-1.394-3.109-3.109-3.109h-6.599l-0.005-2.234c0-0.344-0.28-0.625-0.623-0.625s-0.623 0.281-0.623 0.625v2.234h-2.152l-0.097 0.017h-0.305c-0.344 0-0.623 0.281-0.623 0.625 0 0.343 0.28 0.622 0.623 0.622h2.555v6.347c0 1.714 1.395 3.108 3.111 3.108h6.598l0.006 2.795c0 0.343 0.28 0.622 0.622 0.622s0.622-0.28 0.622-0.622v-2.795h2.154l0.097-0.017h0.306c0.343 0 0.622-0.28 0.622-0.625-0.002-0.343-0.281-0.622-0.623-0.622zM20.228 19.827h-6.598c-1.026 0-1.86-0.832-1.86-1.856v-6.357h6.599c1.025 0 1.859 0.833 1.859 1.857v6.356z"></path>
</svg>
