<?xml version="1.0" encoding="utf-8"?>
<!-- Generator: Adobe Illustrator 16.0.0, SVG Export Plug-In . SVG Version: 6.00 Build 0)  -->
<!DOCTYPE svg PUBLIC "-//W3C//DTD SVG 1.1//EN" "http://www.w3.org/Graphics/SVG/1.1/DTD/svg11.dtd">
<svg version="1.1" id="Ebene_1" xmlns="http://www.w3.org/2000/svg" xmlns:xlink="http://www.w3.org/1999/xlink" x="0px" y="0px"
	 width="50px" height="50px" viewBox="0 0 50 50" enable-background="new 0 0 50 50" xml:space="preserve">
<g>
	<path fill="#3C3C3B" d="M35.221,15.497c-0.001-0.298-0.117-0.578-0.328-0.788c-0.419-0.417-1.148-0.421-1.573,0.001L14.905,33.127
		l-8.903-8.904c-0.419-0.419-1.152-0.418-1.571-0.001c-0.212,0.211-0.33,0.491-0.33,0.789c0,0.297,0.117,0.577,0.328,0.789
		l9.26,9.26l0.436,0.422c0.211,0.209,0.49,0.325,0.788,0.325c0.298,0,0.578-0.116,0.786-0.326l19.194-19.193
		C35.104,16.075,35.221,15.795,35.221,15.497z"/>
	<path fill="#3C3C3B" d="M46.281,14.709c-0.419-0.417-1.148-0.421-1.573,0.001L26.283,33.138l-3.242-3.054
		c-0.419-0.42-1.152-0.418-1.571-0.002c-0.212,0.211-0.33,0.491-0.33,0.789c0,0.297,0.117,0.577,0.339,0.8l3.599,3.388l0.436,0.422
		c0.21,0.209,0.49,0.325,0.787,0.325c0.299,0,0.578-0.116,0.786-0.326l19.194-19.193c0.211-0.211,0.327-0.491,0.327-0.79
		C46.608,15.199,46.492,14.919,46.281,14.709z"/>
</g>
</svg>
