<!-- Generated by IcoMoon.io -->
<svg version="1.1" xmlns="http://www.w3.org/2000/svg" width="32" height="32" viewBox="0 0 32 32">
<title>eye_invisible</title>
<path d="M31.657 15.008c-1.758-2.15-8.080-9.163-15.657-9.163-2.618 0-5.078 0.846-7.259 2.028l-3.309-3.309c-0.239-0.239-0.626-0.24-0.867 0s-0.24 0.627 0 0.868l3.077 3.077c-3.583 2.221-6.253 5.218-7.299 6.498-0.469 0.575-0.469 1.408 0 1.983 1.757 2.15 8.078 9.162 15.655 9.162 2.617 0 5.077-0.845 7.258-2.028l3.31 3.31c0.24 0.24 0.627 0.239 0.868-0.001 0.239-0.239 0.239-0.626 0-0.866l-3.079-3.079c3.583-2.221 6.255-5.217 7.301-6.497 0.468-0.575 0.468-1.408 0-1.983zM16 24.978c-7.061 0-13.072-6.684-14.745-8.732-0.117-0.143-0.117-0.352 0-0.493 1.028-1.259 3.697-4.262 7.236-6.395l3.218 3.218c-0.754 0.943-1.225 2.124-1.225 3.422 0 3.040 2.473 5.514 5.513 5.514 1.3 0 2.479-0.47 3.423-1.225l2.974 2.974c-1.948 1.013-4.115 1.715-6.396 1.715zM13.409 12.541c0.726-0.544 1.615-0.879 2.59-0.879 2.393 0 4.34 1.944 4.34 4.338 0 0.975-0.335 1.865-0.879 2.591l-6.050-6.049zM18.59 19.458c-0.725 0.544-1.616 0.879-2.592 0.879-2.391 0-4.337-1.945-4.337-4.338 0-0.976 0.335-1.866 0.879-2.592l6.049 6.050zM30.747 16.247c-1.029 1.259-3.698 4.262-7.237 6.394l-3.219-3.218c0.754-0.944 1.225-2.124 1.225-3.422 0-3.041-2.474-5.515-5.516-5.515-1.299 0-2.477 0.47-3.421 1.225l-2.973-2.973c1.95-1.013 4.117-1.714 6.397-1.714 7.060 0 13.069 6.684 14.745 8.732 0.117 0.141 0.117 0.351 0.001 0.493z"></path>
</svg>
