<!-- Generated by IcoMoon.io -->
<svg version="1.1" xmlns="http://www.w3.org/2000/svg" width="32" height="32" viewBox="0 0 32 32">
<title>eye_invisible_active</title>
<path d="M31.655 15.007c-1.756-2.149-8.078-9.163-15.656-9.163-2.198 0-4.284 0.6-6.189 1.489l3.746 3.746c0.74-0.369 1.561-0.597 2.444-0.597 3.040 0 5.513 2.474 5.513 5.516 0 0.88-0.227 1.703-0.595 2.443l4.413 4.413c3.089-2.127 5.375-4.703 6.324-5.864 0.47-0.575 0.47-1.407 0-1.983z"></path>
<path d="M18.765 20.742c-0.815 0.479-1.752 0.772-2.765 0.772-3.042 0-5.517-2.474-5.517-5.515 0-1.013 0.294-1.95 0.772-2.767l-4.293-4.293c-3.241 2.163-5.641 4.871-6.62 6.068-0.468 0.576-0.468 1.408 0 1.983 1.757 2.151 8.079 9.164 15.656 9.164 2.329 0 4.537-0.665 6.534-1.645l-3.768-3.768z"></path>
</svg>
