<!-- Generated by IcoMoon.io -->
<svg version="1.1" xmlns="http://www.w3.org/2000/svg" width="32" height="32" viewBox="0 0 32 32">
<title>favorite</title>
<path d="M31.507 13.957c0.455-0.441 0.614-1.091 0.42-1.692s-0.707-1.033-1.334-1.123l-8.844-1.286c-0.136-0.019-0.251-0.104-0.311-0.224l-3.957-8.016c-0.28-0.568-0.847-0.92-1.481-0.92-0.632 0-1.201 0.352-1.481 0.92l-3.956 8.016c-0.061 0.12-0.176 0.205-0.31 0.224l-8.846 1.286c-0.626 0.090-1.137 0.522-1.333 1.123-0.197 0.602-0.038 1.252 0.417 1.693l6.401 6.24c0.098 0.096 0.142 0.232 0.118 0.366l-1.511 8.809c-0.083 0.48 0.049 0.969 0.362 1.341 0.317 0.376 0.779 0.591 1.266 0.591 0.268 0 0.526-0.063 0.769-0.191l7.912-4.16c0.118-0.062 0.266-0.062 0.383 0l7.912 4.16c0.242 0.128 0.501 0.191 0.768 0.191 0.489 0 0.95-0.215 1.269-0.591 0.31-0.373 0.442-0.861 0.359-1.341l-1.51-8.809c-0.023-0.134 0.023-0.271 0.119-0.366l6.399-6.241zM23.768 20.77l1.511 8.812c0.027 0.156-0.032 0.266-0.087 0.331-0.123 0.147-0.334 0.199-0.513 0.102l-7.911-4.157c-0.237-0.125-0.503-0.19-0.769-0.19-0.267 0-0.533 0.066-0.769 0.19l-7.912 4.157c-0.177 0.097-0.387 0.045-0.511-0.102-0.055-0.064-0.114-0.175-0.087-0.331l1.51-8.812c0.093-0.535-0.085-1.082-0.474-1.461l-6.401-6.239c-0.166-0.161-0.128-0.35-0.104-0.424 0.023-0.073 0.104-0.246 0.333-0.28l8.845-1.285c0.538-0.078 1.003-0.417 1.245-0.904l3.955-8.016c0.102-0.207 0.293-0.23 0.37-0.23 0.076 0 0.267 0.023 0.369 0.23l3.957 8.016c0.239 0.488 0.704 0.826 1.242 0.904l8.845 1.285c0.229 0.034 0.31 0.207 0.334 0.28 0.025 0.073 0.062 0.262-0.105 0.424l-6.4 6.239c-0.389 0.379-0.566 0.927-0.474 1.461z"></path>
</svg>
