<!-- Generated by IcoMoon.io -->
<svg version="1.1" xmlns="http://www.w3.org/2000/svg" width="32" height="32" viewBox="0 0 32 32">
<title>favorite_active</title>
<path d="M31.508 13.959c0.453-0.441 0.613-1.091 0.418-1.693-0.196-0.603-0.705-1.034-1.333-1.123l-8.846-1.287c-0.134-0.021-0.249-0.104-0.311-0.224l-3.954-8.015c-0.281-0.569-0.847-0.922-1.481-0.922s-1.201 0.352-1.481 0.922l-3.955 8.015c-0.061 0.12-0.176 0.204-0.31 0.224l-8.847 1.287c-0.626 0.089-1.137 0.52-1.333 1.122-0.196 0.603-0.037 1.252 0.417 1.693l6.401 6.239c0.098 0.096 0.141 0.232 0.118 0.366l-1.512 8.81c-0.082 0.481 0.049 0.97 0.362 1.34 0.316 0.377 0.779 0.591 1.267 0.591 0.267 0 0.526-0.064 0.768-0.191l7.912-4.16c0.117-0.063 0.267-0.063 0.384 0l7.913 4.16c0.243 0.127 0.501 0.191 0.768 0.191 0.488 0 0.949-0.213 1.267-0.591 0.311-0.372 0.444-0.859 0.36-1.34l-1.51-8.81c-0.023-0.134 0.021-0.27 0.118-0.366l6.4-6.238z"></path>
</svg>
