<!-- Generated by IcoMoon.io -->
<svg version="1.1" xmlns="http://www.w3.org/2000/svg" width="32" height="32" viewBox="0 0 32 32">
<title>group_active</title>
<path d="M31.178 24.441l-4.359-2.568c-0.218-0.128-0.353-0.365-0.353-0.618v-0.169c0-0.231 0.114-0.452 0.307-0.588 1.249-0.887 1.994-2.331 1.994-3.861v-2.599c0-1.86-1.191-3.231-3.265-3.765-0.967-0.248-1.964-0.251-2.941 0.001-0.075 0.018-0.139 0.047-0.21 0.068v-1.322c0-2.454-1.578-4.266-4.33-4.972-0.65-0.167-1.31-0.252-1.962-0.252-0.654 0-1.315 0.086-1.969 0.253-2.751 0.708-4.331 2.52-4.331 4.971v1.356c-0.108-0.034-0.208-0.075-0.321-0.104-0.967-0.248-1.962-0.249-2.941 0.001-2.075 0.535-3.266 1.908-3.266 3.765v2.599c0 1.529 0.746 2.972 1.994 3.861 0.192 0.136 0.307 0.356 0.307 0.588v0.162c0 0.256-0.138 0.494-0.359 0.622l-4.345 2.5c-0.518 0.298-0.839 0.855-0.839 1.453v1.601c0 0.429 0.349 0.779 0.778 0.779h30.445c0.426 0 0.776-0.347 0.78-0.774l0.013-1.529c0.003-0.597-0.314-1.156-0.83-1.459zM0.95 25.822c0-0.256 0.138-0.494 0.359-0.622l4.344-2.5c0.519-0.299 0.84-0.855 0.84-1.453v-0.162c0-0.543-0.266-1.054-0.71-1.368-0.996-0.709-1.591-1.861-1.591-3.080v-2.599c0-1.897 1.595-2.59 2.546-2.833 0.816-0.21 1.644-0.211 2.463-0.001 0.169 0.044 0.362 0.108 0.56 0.184v1.184c0 1.726 0.721 3.365 1.951 4.544 0.218 0.209 0.448 0.409 0.699 0.587 0.052 0.037 0.093 0.082 0.137 0.125 0.224 0.219 0.357 0.513 0.357 0.825v0.221c0 0.413-0.222 0.798-0.581 1.004l-5.939 3.417c-0.652 0.376-1.059 1.078-1.059 1.832v2.112h-4.378v-1.419zM31.033 27.241h-4.275l0.017-2.008c0.006-0.752-0.393-1.457-1.041-1.838l-5.959-3.51c-0.351-0.207-0.571-0.59-0.571-1v-0.231c0-0.273 0.1-0.532 0.273-0.74 0.064-0.079 0.137-0.149 0.222-0.21 0.213-0.151 0.414-0.315 0.604-0.491 1.292-1.184 2.047-2.869 2.047-4.64v-1.227c0.158-0.057 0.311-0.105 0.45-0.141 0.816-0.21 1.643-0.211 2.463-0.001 0.949 0.244 2.543 0.935 2.543 2.833v2.599c0 1.218-0.596 2.37-1.59 3.080-0.445 0.314-0.71 0.825-0.71 1.368v0.169c0 0.593 0.316 1.146 0.825 1.445l4.359 2.567c0.22 0.13 0.355 0.369 0.353 0.625l-0.011 1.349z"></path>
</svg>
