<!-- Generated by IcoMoon.io -->
<svg version="1.1" xmlns="http://www.w3.org/2000/svg" width="32" height="32" viewBox="0 0 32 32">
<title>heart</title>
<path d="M29.444 4.623c-1.655-1.654-3.862-2.566-6.216-2.566s-4.562 0.914-6.216 2.566l-0.96 0.96c-0.026 0.025-0.069 0.025-0.094 0l-0.963-0.96c-1.653-1.654-3.86-2.565-6.215-2.565-2.357 0-4.565 0.911-6.216 2.565-3.428 3.426-3.428 9.004 0 12.433l12.502 12.501c0.251 0.252 0.584 0.387 0.94 0.387 0.354 0 0.688-0.135 0.939-0.387l12.501-12.501c1.654-1.654 2.564-3.863 2.564-6.218s-0.91-4.559-2.564-6.215zM28.552 16.163l-12.501 12.502c-0.026 0.025-0.069 0.025-0.094 0l-12.502-12.502c-2.935-2.936-2.935-7.713 0-10.648 1.415-1.416 3.306-2.196 5.324-2.196s3.908 0.78 5.323 2.196l0.963 0.96c0.251 0.252 0.584 0.388 0.94 0.388 0.354 0 0.686-0.135 0.936-0.388l0.963-0.96c1.416-1.416 3.308-2.196 5.324-2.196 2.019 0 3.908 0.78 5.324 2.196s2.196 3.308 2.196 5.323c0 2.019-0.78 3.908-2.196 5.325z"></path>
</svg>
