<!-- Generated by IcoMoon.io -->
<svg version="1.1" xmlns="http://www.w3.org/2000/svg" width="32" height="32" viewBox="0 0 32 32">
<title>heart_active</title>
<path d="M29.444 4.621c-1.655-1.654-3.862-2.565-6.216-2.565s-4.562 0.911-6.216 2.565l-0.96 0.962c-0.026 0.025-0.069 0.025-0.094 0l-0.963-0.962c-1.653-1.654-3.86-2.565-6.215-2.565-2.357 0-4.565 0.911-6.216 2.565-3.428 3.429-3.428 9.006 0 12.433l12.502 12.502c0.251 0.251 0.584 0.389 0.94 0.389 0.354 0 0.688-0.138 0.939-0.389l12.501-12.502c1.654-1.654 2.564-3.862 2.564-6.218 0-2.352-0.91-4.559-2.564-6.215z"></path>
</svg>
