<!-- Generated by IcoMoon.io -->
<svg version="1.1" xmlns="http://www.w3.org/2000/svg" width="32" height="32" viewBox="0 0 32 32">
<title>list</title>
<path d="M9.656 6.115h21.645c0.39 0 0.705-0.316 0.705-0.706s-0.315-0.705-0.705-0.705h-21.645c-0.39 0-0.706 0.315-0.706 0.705s0.315 0.706 0.706 0.706z"></path>
<path d="M31.301 15.393h-21.645c-0.39 0-0.706 0.317-0.706 0.707 0 0.389 0.317 0.705 0.706 0.705h21.645c0.391 0 0.707-0.316 0.707-0.705 0-0.391-0.316-0.707-0.707-0.707z"></path>
<path d="M31.301 25.885h-21.645c-0.39 0-0.706 0.316-0.706 0.707 0 0.389 0.317 0.703 0.706 0.703h21.645c0.391 0 0.707-0.314 0.707-0.703 0-0.391-0.316-0.707-0.707-0.707z"></path>
<path d="M3.5 1.902c-1.934 0-3.508 1.574-3.508 3.508s1.574 3.507 3.508 3.507 3.507-1.573 3.507-3.507-1.574-3.508-3.507-3.508zM3.5 7.628c-1.223 0-2.218-0.995-2.218-2.218s0.995-2.217 2.218-2.217 2.218 0.994 2.218 2.217-0.995 2.218-2.218 2.218z"></path>
<path d="M3.5 12.591c-1.934 0-3.508 1.574-3.508 3.508s1.574 3.507 3.508 3.507 3.507-1.573 3.507-3.507-1.574-3.508-3.507-3.508zM3.5 18.316c-1.223 0-2.218-0.995-2.218-2.218 0-1.222 0.995-2.217 2.218-2.217s2.218 0.995 2.218 2.217c0 1.223-0.995 2.218-2.218 2.218z"></path>
<path d="M3.5 23.083c-1.934 0-3.508 1.574-3.508 3.507 0 1.935 1.574 3.508 3.508 3.508s3.507-1.573 3.507-3.508c0-1.933-1.574-3.507-3.507-3.507zM3.5 28.808c-1.223 0-2.218-0.995-2.218-2.218s0.995-2.217 2.218-2.217 2.218 0.994 2.218 2.217-0.995 2.218-2.218 2.218z"></path>
</svg>
