<!-- Generated by IcoMoon.io -->
<svg version="1.1" xmlns="http://www.w3.org/2000/svg" width="32" height="32" viewBox="0 0 32 32">
<title>litter</title>
<path d="M31.379 4.314h-7.73v-1.527c0-0.923-0.75-1.674-1.674-1.674h-12.218c-0.922 0-1.673 0.751-1.673 1.674v1.527h-7.463c-0.347 0-0.628 0.28-0.628 0.627 0 0.346 0.281 0.627 0.628 0.627h3.767v22.6c0 1.502 1.221 2.72 2.72 2.72h17.518c1.5 0 2.721-1.218 2.721-2.72v-22.6h4.035c0.346 0 0.627-0.281 0.627-0.627-0.002-0.347-0.282-0.627-0.629-0.627zM9.338 2.786c0-0.23 0.186-0.419 0.418-0.419h12.218c0.231 0 0.418 0.188 0.418 0.419v1.527h-13.054v-1.527zM26.090 28.168c0 0.808-0.658 1.466-1.467 1.466h-17.518c-0.807 0-1.466-0.658-1.466-1.466v-22.6h20.451v22.6z"></path>
<path d="M10.411 9.828c-0.345 0-0.626 0.28-0.626 0.627v14.656c0 0.346 0.281 0.628 0.626 0.628 0.349 0 0.63-0.282 0.63-0.628v-14.656c0-0.347-0.281-0.627-0.63-0.627z"></path>
<path d="M15.894 9.828c-0.345 0-0.629 0.28-0.629 0.627v14.656c0 0.346 0.285 0.628 0.629 0.628 0.348 0 0.629-0.282 0.629-0.628v-14.656c0-0.347-0.281-0.627-0.629-0.627z"></path>
<path d="M21.336 9.828c-0.348 0-0.629 0.28-0.629 0.627v14.656c0 0.346 0.281 0.628 0.629 0.628 0.346 0 0.629-0.282 0.629-0.628v-14.656c0-0.347-0.284-0.627-0.629-0.627z"></path>
</svg>
