<!-- Generated by IcoMoon.io -->
<svg version="1.1" xmlns="http://www.w3.org/2000/svg" width="32" height="32" viewBox="0 0 32 32">
<title>location</title>
<path d="M15.999 0c-6.78 0-12.299 5.517-12.299 12.3 0 5.487 7.692 15.181 10.998 19.096 0.324 0.385 0.799 0.604 1.301 0.604 0.503 0 0.977-0.22 1.301-0.604 3.306-3.912 11-13.605 11-19.096 0-6.782-5.518-12.3-12.301-12.3zM15.999 30.63c-0.046 0-0.164-0.011-0.254-0.118-1.362-1.612-4.001-4.846-6.346-8.394-2.832-4.279-4.328-7.675-4.328-9.818 0-6.027 4.902-10.931 10.928-10.931 6.028 0 10.93 4.904 10.93 10.931 0 2.143-1.496 5.538-4.329 9.818-2.342 3.541-4.981 6.779-6.346 8.394-0.088 0.102-0.197 0.118-0.255 0.118z"></path>
<path d="M15.999 6.418c-2.845 0-5.16 2.315-5.16 5.161 0 2.845 2.315 5.16 5.16 5.16 2.847 0 5.162-2.314 5.162-5.16 0.001-2.846-2.315-5.161-5.162-5.161zM15.999 15.37c-2.089 0-3.789-1.701-3.789-3.791 0-2.091 1.7-3.792 3.789-3.792 2.091 0 3.791 1.701 3.791 3.792s-1.7 3.791-3.791 3.791z"></path>
</svg>
