<!-- Generated by IcoMoon.io -->
<svg version="1.1" xmlns="http://www.w3.org/2000/svg" width="32" height="32" viewBox="0 0 32 32">
<title>location_active</title>
<path d="M16 0c-6.772 0-12.281 5.51-12.281 12.282 0 5.487 7.714 15.209 11.030 19.136 0.312 0.369 0.768 0.581 1.251 0.581s0.938-0.212 1.25-0.581c3.318-3.927 11.032-13.649 11.032-19.136 0-6.772-5.509-12.282-12.281-12.282zM16 16.67c-2.818 0-5.111-2.293-5.111-5.11 0-2.82 2.293-5.112 5.111-5.112s5.111 2.293 5.111 5.112c0 2.817-2.293 5.11-5.111 5.11z"></path>
</svg>
