<!-- Generated by IcoMoon.io -->
<svg version="1.1" xmlns="http://www.w3.org/2000/svg" width="32" height="32" viewBox="0 0 32 32">
<title>Log_out</title>
<path d="M24.419 5.352c-0.277-0.194-0.658-0.128-0.851 0.149-0.198 0.277-0.128 0.657 0.148 0.851 3.577 2.515 5.713 6.626 5.713 10.992 0 7.405-6.023 13.43-13.427 13.43s-13.43-6.023-13.43-13.428c0-4.326 2.104-8.413 5.629-10.932 0.275-0.196 0.339-0.579 0.143-0.852-0.198-0.275-0.58-0.338-0.854-0.142-3.847 2.749-6.142 7.209-6.142 11.928 0 8.081 6.573 14.653 14.653 14.653 8.079 0 14.651-6.572 14.651-14.653 0-4.767-2.33-9.25-6.233-11.995z"></path>
<path d="M16 15.905c0.339 0 0.613-0.274 0.613-0.612v-14.68c0-0.337-0.274-0.613-0.613-0.613-0.337 0-0.612 0.275-0.612 0.613v14.68c0 0.337 0.275 0.612 0.612 0.612z"></path>
</svg>
