<!-- Generated by IcoMoon.io -->
<svg version="1.1" xmlns="http://www.w3.org/2000/svg" width="32" height="32" viewBox="0 0 32 32">
<title>message_sub</title>
<path d="M23.788 10.079h-9.702c-0.353 0-0.642 0.289-0.642 0.642 0 0.351 0.289 0.639 0.642 0.639h9.702c0.352 0 0.64-0.288 0.64-0.639 0.001-0.353-0.287-0.642-0.64-0.642z"></path>
<path d="M23.788 17.158h-9.702c-0.353 0-0.642 0.288-0.642 0.642 0 0.352 0.289 0.639 0.642 0.639h9.702c0.352 0 0.64-0.287 0.64-0.639 0.001-0.354-0.287-0.642-0.64-0.642z"></path>
<path d="M32.008 8.295c0-2.976-2.422-5.398-5.396-5.398h-3.088c-0.966-1.475-2.623-2.45-4.505-2.45h-13.631c-2.975 0-5.396 2.422-5.396 5.398v7.059c0.002 0.016 0.003 0.033 0.001 0.049l-0.001 10.692c0 0.211 0.105 0.406 0.28 0.523 0.172 0.115 0.398 0.137 0.588 0.056l5.518-2.312v0.715c0 2.976 2.42 2.982 5.395 2.982h6.583c0.025 0 0.054 0.007 0.076 0.016l4.135 1.783 8.568 4.097c0.19 0.081 0.417 0.059 0.588-0.056 0.174-0.116 0.281-0.31 0.281-0.522l-0.002-8.279c-0.002-0.017-0.002-0.032 0.002-0.048v-14.305zM1.52 22.59c-0.025 0.010-0.050 0.016-0.076 0.016-0.038 0-0.076-0.011-0.11-0.034-0.055-0.035-0.087-0.097-0.087-0.164v-11.339c0-0.005 0-0.010 0-0.015v-5.183c0-2.284 1.857-4.141 4.143-4.141h13.629c1.116 0 2.125 0.446 2.87 1.166h-10.114c-2.975 0-5.395 2.422-5.395 5.424v12.234l-4.859 2.035zM30.753 20.749c0 0.005 0 0.010 0 0.015v8.924c0 0.066-0.034 0.128-0.087 0.164-0.032 0.024-0.071 0.034-0.111 0.034-0.025 0-0.050-0.006-0.076-0.016l-11.742-5.426c-0.105-0.045-0.245-0.059-0.397-0.068-0.017 0-0.053-0.009-0.085-0.021h-6.481c-2.284 0-4.143 0.557-4.143-1.727v-14.305c0-2.284 1.858-4.14 4.143-4.14h14.838c2.284 0 4.141 1.856 4.141 4.14v12.429z"></path>
</svg>
