<!-- Generated by IcoMoon.io -->
<svg version="1.1" xmlns="http://www.w3.org/2000/svg" width="32" height="32" viewBox="0 0 32 32">
<title>message_sub_active</title>
<path d="M32.008 8.295c0-2.978-2.421-5.399-5.396-5.399h-3.089c-0.964-1.475-2.622-2.449-4.506-2.449h-13.629c-2.975 0-5.397 2.421-5.397 5.399v7.060c0.002 0.016 0.003 0.031 0.001 0.048l-0.001 10.693c0 0.212 0.105 0.405 0.28 0.523 0.172 0.115 0.399 0.136 0.588 0.055l5.518-2.312v0.714c0 2.978 2.42 2.982 5.396 2.982h6.584c0.026 0 0.055 0.006 0.078 0.016l4.134 1.783 8.569 4.097c0.189 0.081 0.416 0.060 0.588-0.055 0.175-0.117 0.28-0.311 0.28-0.523l-0.002-8.279c-0.002-0.017-0.001-0.033 0.002-0.048v-14.305zM6.378 8.32v12.233l-4.859 2.036c-0.025 0.011-0.051 0.016-0.077 0.016-0.038 0-0.077-0.011-0.109-0.033-0.054-0.035-0.088-0.098-0.088-0.164v-11.338c0-0.006 0-0.010 0-0.015v-5.185c0-2.284 1.857-4.141 4.142-4.141h13.629c1.116 0 2.126 0.446 2.871 1.166h-10.113c-2.975 0.002-5.396 2.424-5.396 5.426zM23.789 18.439h-9.703c-0.352 0-0.641-0.287-0.641-0.639 0-0.355 0.288-0.643 0.641-0.643h9.703c0.351 0 0.639 0.288 0.639 0.643 0 0.352-0.287 0.639-0.639 0.639zM23.789 11.359h-9.703c-0.352 0-0.641-0.287-0.641-0.639 0-0.352 0.288-0.642 0.641-0.642h9.703c0.351 0 0.639 0.289 0.639 0.642 0 0.351-0.287 0.639-0.639 0.639z"></path>
</svg>
