<!-- Generated by IcoMoon.io -->
<svg version="1.1" xmlns="http://www.w3.org/2000/svg" width="32" height="32" viewBox="0 0 32 32">
<title>message_main_active</title>
<path d="M26.617 0.836h-21.235c-2.972 0-5.391 2.419-5.391 5.393v13.814h0.002l-0.002 0.023v10.305c0 0.265 0.132 0.512 0.355 0.66 0.221 0.147 0.502 0.173 0.746 0.072l9.424-3.949 3.987-1.718h12.114c2.972 0 5.391-2.418 5.391-5.392v-13.815c0-2.975-2.419-5.393-5.391-5.393zM24.142 16.672h-16.285c-0.37 0-0.672-0.299-0.672-0.67 0-0.371 0.302-0.673 0.672-0.673h16.285c0.371 0 0.672 0.302 0.672 0.673 0 0.37-0.301 0.67-0.672 0.67zM24.142 9.851h-16.285c-0.37 0-0.672-0.301-0.672-0.671 0-0.372 0.302-0.673 0.672-0.673h16.285c0.371 0 0.672 0.301 0.672 0.673 0 0.37-0.301 0.671-0.672 0.671z"></path>
</svg>
