<!-- Generated by IcoMoon.io -->
<svg version="1.1" xmlns="http://www.w3.org/2000/svg" width="32" height="32" viewBox="0 0 32 32">
<title>message_main</title>
<path d="M32.007 5.777c0-3.035-2.448-5.483-5.455-5.483h-21.105c-3.008 0-5.456 2.448-5.456 5.457v14.463c0.002 0.016 0.003 0.031 0.001 0.049l-0.001 10.811c0 0.213 0.107 0.409 0.284 0.527 0.175 0.116 0.403 0.138 0.594 0.056l9.885-4.14 4.18-1.803c0.024-0.009 0.052-0.016 0.079-0.016h11.539c3.006 0 5.455-2.447 5.455-5.456v-14.464zM30.741 20.241c0 2.309-1.878 4.188-4.188 4.188h-11.438c-0.032 0.011-0.069 0.020-0.085 0.020-0.154 0.009-0.294 0.024-0.402 0.069l-13.092 5.485c-0.025 0.011-0.051 0.016-0.077 0.016-0.039 0-0.077-0.011-0.11-0.033-0.056-0.036-0.090-0.1-0.090-0.166v-11.464c0-0.005 0-0.010 0-0.015v-12.566c0-2.309 1.878-4.188 4.188-4.188h21.105c2.309 0 4.188 1.878 4.188 4.188v14.464z"></path>
<path d="M23.957 8.196h-15.913c-0.357 0-0.649 0.291-0.649 0.649 0 0.356 0.292 0.647 0.649 0.647h15.913c0.356 0 0.647-0.289 0.647-0.647 0-0.358-0.29-0.649-0.647-0.649z"></path>
<path d="M23.957 15.352h-15.913c-0.357 0-0.649 0.291-0.649 0.65 0 0.355 0.292 0.647 0.649 0.647h15.913c0.356 0 0.647-0.29 0.647-0.647 0-0.358-0.29-0.65-0.647-0.65z"></path>
</svg>
