<!-- Generated by IcoMoon.io -->
<svg version="1.1" xmlns="http://www.w3.org/2000/svg" width="32" height="32" viewBox="0 0 32 32">
<title>more</title>
<path d="M26.463 16c0-1.527 1.245-2.772 2.773-2.772 1.53 0 2.772 1.245 2.772 2.772 0 1.528-1.242 2.772-2.772 2.772s-2.773-1.243-2.773-2.772z"></path>
<path d="M13.104 16c0-1.527 1.243-2.772 2.773-2.772 1.528 0 2.772 1.245 2.772 2.772 0 1.528-1.243 2.772-2.772 2.772s-2.773-1.243-2.773-2.772z"></path>
<path d="M-0.008 16c0-1.527 1.243-2.772 2.773-2.772 1.527 0 2.769 1.245 2.769 2.772 0 1.528-1.242 2.772-2.769 2.772-1.53 0-2.773-1.243-2.773-2.772z"></path>
</svg>
