<!-- Generated by IcoMoon.io -->
<svg version="1.1" xmlns="http://www.w3.org/2000/svg" width="32" height="32" viewBox="0 0 32 32">
<title>notification_active</title>
<path d="M30.239 27.006l-2.215-5.795v-9.185c0-6.632-5.394-12.026-12.023-12.026-6.632 0-12.026 5.394-12.026 12.026l-0.005 9.21-2.211 5.769c-0.074 0.196-0.048 0.415 0.070 0.586 0.117 0.171 0.312 0.274 0.522 0.274h8.594l0.012 0.056c0.505 2.364 2.625 4.078 5.042 4.078s4.536-1.715 5.041-4.078l0.012-0.056h8.595c0.21 0 0.402-0.103 0.522-0.273 0.117-0.172 0.143-0.391 0.068-0.586zM19.731 27.955c-0.491 1.636-2.026 2.78-3.731 2.78-1.707 0-3.241-1.144-3.731-2.78l-0.026-0.090h7.514l-0.026 0.090z"></path>
</svg>
