<!-- Generated by IcoMoon.io -->
<svg version="1.1" xmlns="http://www.w3.org/2000/svg" width="32" height="32" viewBox="0 0 32 32">
<title>paper</title>
<path d="M29.112 8.498c-0.005 0.009-0.008-0.006-0.012-0.019-0.006-0.019-0.012-0.036-0.015-0.056l-0.006-0.040c-0.007-0.043-0.012-0.079-0.024-0.109-0.010-0.023-0.028-0.047-0.049-0.072l-0.024-0.031c-0.012-0.016-0.021-0.030-0.030-0.047-0.009-0.017-0.019-0.031-0.027-0.042l-7.91-7.904c-0.048-0.048-0.106-0.085-0.178-0.118-0.014-0.007-0.023-0.009-0.030-0.013l-0.033-0.012c-0.043-0.015-0.095-0.024-0.152-0.029l-16.065-0.007c-0.921 0-1.669 0.748-1.669 1.668v28.663c0 0.921 0.748 1.669 1.669 1.669h22.882c0.921 0 1.67-0.748 1.67-1.669l0.003-21.833zM21.194 2.083l5.829 5.823h-5.38c-0.247 0-0.449-0.201-0.449-0.449v-5.374zM27.887 30.331c0 0.248-0.203 0.45-0.449 0.45h-2.484c-0.024-0.002-0.041-0.007-0.057-0.012l-0.009-0.002c-0.027 0.007-0.042 0.012-0.058 0.013l-20.274 0.001c-0.247 0-0.448-0.203-0.448-0.45v-28.663c0-0.247 0.201-0.448 0.448-0.448h15.418v6.236c0 0.921 0.751 1.67 1.67 1.67h6.243v21.205z"></path>
<path d="M15.997 5.887h-8.644c-0.345 0-0.625 0.279-0.625 0.624s0.281 0.625 0.625 0.625h8.644c0.343 0 0.624-0.281 0.624-0.625s-0.279-0.624-0.624-0.624z"></path>
<path d="M20.585 12.381h-13.232c-0.338 0-0.611 0.272-0.611 0.609s0.274 0.61 0.611 0.61h13.232c0.336 0 0.61-0.274 0.61-0.61s-0.274-0.609-0.61-0.609z"></path>
</svg>
