<!-- Generated by IcoMoon.io -->
<svg version="1.1" xmlns="http://www.w3.org/2000/svg" width="32" height="32" viewBox="0 0 32 32">
<title>paper_active</title>
<path d="M29.1 8.479c-0.006-0.019-0.012-0.036-0.015-0.056l-0.006-0.040c-0.007-0.043-0.012-0.079-0.024-0.109-0.010-0.023-0.028-0.047-0.049-0.072l-0.024-0.031c-0.012-0.016-0.021-0.030-0.030-0.047-0.009-0.017-0.019-0.031-0.027-0.042l-7.91-7.904c-0.048-0.048-0.106-0.085-0.178-0.118-0.014-0.007-0.023-0.009-0.030-0.013l-0.033-0.012c-0.043-0.015-0.095-0.024-0.152-0.029l-16.065-0.007c-0.921 0-1.669 0.748-1.669 1.668v28.663c0 0.921 0.748 1.669 1.669 1.669h22.882c0.921 0 1.67-0.748 1.67-1.669l0.005-21.833c-0.006 0.008-0.009-0.006-0.013-0.019zM7.353 5.886h8.644c0.343 0 0.624 0.279 0.624 0.624s-0.279 0.625-0.624 0.625h-8.644c-0.345 0-0.625-0.281-0.625-0.625s0.281-0.624 0.625-0.624zM20.585 13.6h-13.232c-0.338 0-0.611-0.274-0.611-0.61s0.274-0.609 0.611-0.609h13.232c0.336 0 0.61 0.272 0.61 0.609s-0.274 0.61-0.61 0.61zM21.643 7.905c-0.247 0-0.449-0.201-0.449-0.449v-5.374l5.829 5.823h-5.38z"></path>
</svg>
