<!-- Generated by IcoMoon.io -->
<svg version="1.1" xmlns="http://www.w3.org/2000/svg" width="32" height="32" viewBox="0 0 32 32">
<title>photo_more</title>
<path fill="#3c3c3b" d="M13.124 8.411c-3.712 0-6.733 3.022-6.733 6.735s3.021 6.734 6.733 6.734c3.713 0 6.735-3.022 6.735-6.734 0-3.714-3.022-6.735-6.735-6.735zM13.124 20.751c-3.091 0-5.605-2.514-5.605-5.605s2.514-5.607 5.605-5.607c3.092 0 5.606 2.515 5.606 5.607 0.001 3.090-2.514 5.605-5.606 5.605z"></path>
<path fill="#3c3c3b" d="M17.095 25.059h-15.928c-0.286 0-0.225-0.073-0.225-0.359v-18.296c0-0.286-0.061-0.349 0.225-0.349h2.566c0.782 0 1.46-0.641 1.613-1.408l0.751-3.003c0.003-0.012 0.005 0.039 0.007 0.029 0.048-0.251 0.262-0.369 0.512-0.369h13.018c0.251 0 0.465-0.054 0.509 0.193l-0.079-0.193h0.087l0.749 3.187c0.154 0.772 0.833 1.564 1.615 1.564h2.566c0.286 0 0.563 0.063 0.563 0.349v10.103h0.95v-10.103c0-0.907-0.606-1.299-1.514-1.299h-2.566c-0.25 0-0.465-0.352-0.51-0.597-0.001-0.013-0.003-0.106-0.005-0.113l-0.752-2.84c-0.154-0.771-0.833-1.201-1.615-1.201h-13.018c-0.782 0-1.461 0.387-1.615 1.154l-0.758 3.085c-0.045 0.245-0.259 0.511-0.509 0.511h-2.566c-0.908 0-1.175 0.391-1.175 1.299v18.296c0 0.908 0.267 1.309 1.175 1.309h15.928v-0.95z"></path>
<path fill="#1d1d1b" d="M31.437 25.059h-4.84v-4.518c0-0.315-0.161-0.572-0.478-0.572-0.311 0.003-0.472 0.258-0.472 0.571v4.519h-5.13c-0.315 0-0.571 0.162-0.571 0.475 0 0.315 0.257 0.475 0.571 0.475h5.13v5.071c0 0.152 0.063 0.296 0.163 0.392 0.105 0.109 0.159 0.173 0.313 0.173 0.315 0 0.474-0.256 0.474-0.57v-5.066h4.84c0.315 0 0.571-0.162 0.571-0.475-0.001-0.315-0.257-0.475-0.571-0.475z"></path>
</svg>
