<!-- Generated by IcoMoon.io -->
<svg version="1.1" xmlns="http://www.w3.org/2000/svg" width="32" height="32" viewBox="0 0 32 32">
<title>photo</title>
<path d="M32.008 8.027c0-1.069-0.869-1.938-1.936-1.938h-3.020c-0.294 0-0.547-0.21-0.6-0.498-0.001-0.015-0.003-0.022-0.006-0.030l-0.884-3.492c-0.181-0.908-0.981-1.563-1.901-1.563h-15.319c-0.92 0-1.72 0.655-1.901 1.559l-0.892 3.527c-0.053 0.287-0.304 0.498-0.598 0.498h-3.020c-1.069 0-1.939 0.869-1.939 1.938v21.528c0 1.069 0.87 1.938 1.939 1.938h28.141c1.068 0 1.936-0.869 1.936-1.938v-21.529zM30.68 29.555c0 0.337-0.273 0.61-0.609 0.61h-28.141c-0.338 0-0.612-0.274-0.612-0.61v-21.528c0-0.337 0.274-0.609 0.612-0.609h3.020c0.92 0 1.718-0.655 1.898-1.559l0.883-3.485c0.003-0.013 0.006-0.026 0.008-0.037 0.056-0.294 0.307-0.504 0.601-0.504h15.318c0.295 0 0.547 0.21 0.599 0.5l-0.093 0.046h0.103l0.881 3.475c0.181 0.908 0.981 1.563 1.901 1.563h3.020c0.337 0 0.609 0.273 0.609 0.609v21.529z"></path>
<path d="M15.999 10.387c-4.368 0-7.922 3.555-7.922 7.925 0 4.368 3.554 7.924 7.922 7.924 4.369 0 7.925-3.555 7.925-7.924 0-4.369-3.555-7.925-7.925-7.925zM15.999 24.908c-3.637 0-6.595-2.958-6.595-6.595 0-3.638 2.958-6.598 6.595-6.598 3.638 0 6.597 2.96 6.597 6.598 0.001 3.636-2.958 6.595-6.596 6.595z"></path>
</svg>
