<!-- Generated by IcoMoon.io -->
<svg version="1.1" xmlns="http://www.w3.org/2000/svg" width="32" height="32" viewBox="0 0 32 32">
<title>photo_active</title>
<path d="M30.070 6.090h-3.020c-0.294 0-0.547-0.21-0.6-0.498-0.001-0.016-0.003-0.023-0.006-0.030l-0.884-3.492c-0.181-0.908-0.981-1.563-1.901-1.563h-15.318c-0.92 0-1.72 0.656-1.901 1.56l-0.892 3.526c-0.053 0.288-0.304 0.498-0.598 0.498h-3.020c-1.069 0-1.939 0.869-1.939 1.936v21.528c0 1.069 0.87 1.938 1.939 1.938h28.141c1.068 0 1.936-0.869 1.936-1.938v-21.528c0-1.068-0.87-1.938-1.938-1.938zM15.999 26.236c-4.368 0-7.922-3.555-7.922-7.924 0-4.369 3.554-7.925 7.922-7.925 4.369 0 7.925 3.555 7.925 7.925 0 4.368-3.555 7.924-7.925 7.924z"></path>
</svg>
