<!-- Generated by IcoMoon.io -->
<svg version="1.1" xmlns="http://www.w3.org/2000/svg" width="32" height="32" viewBox="0 0 32 32">
<title>plus</title>
<path d="M16.839 16.838h14.468c0.381 0 0.691-0.31 0.691-0.692 0-0.381-0.31-0.691-0.691-0.691h-14.468l0.001-14.761c0-0.382-0.311-0.694-0.694-0.694-0.381 0.001-0.69 0.31-0.691 0.691l0.001 14.764h-14.765c-0.379 0-0.689 0.309-0.69 0.69 0 0.193 0.077 0.365 0.203 0.491 0.124 0.125 0.298 0.203 0.491 0.203h14.761v14.468c0 0.189 0.078 0.363 0.204 0.488 0.125 0.125 0.299 0.204 0.488 0.204 0.382-0.001 0.694-0.311 0.692-0.691v-14.471z"></path>
</svg>
