<!-- Generated by IcoMoon.io -->
<svg version="1.1" xmlns="http://www.w3.org/2000/svg" width="32" height="32" viewBox="0 0 32 32">
<title>profile_active</title>
<path d="M28.697 25.698l-7.812-4.602c-0.461-0.272-0.749-0.775-0.749-1.312v-0.303c0-0.491 0.243-0.955 0.648-1.246 2.176-1.548 3.476-4.063 3.476-6.728v-4.658c0-3.217-2.070-5.592-5.676-6.517-0.853-0.219-1.72-0.331-2.574-0.331-0.857 0-1.724 0.113-2.58 0.332-3.608 0.93-5.678 3.305-5.678 6.519v4.656c0 2.665 1.298 5.18 3.475 6.728 0.406 0.291 0.648 0.754 0.648 1.246v0.288c0 0.543-0.292 1.047-0.761 1.319l-7.786 4.48c-0.856 0.492-1.39 1.413-1.39 2.403v2.869c0 0.64 0.521 1.161 1.162 1.161h25.778c0.635 0 1.156-0.515 1.162-1.152l0.024-2.742c0.008-0.985-0.515-1.91-1.366-2.409z"></path>
</svg>
