<!-- Generated by IcoMoon.io -->
<svg version="1.1" xmlns="http://www.w3.org/2000/svg" width="32" height="32" viewBox="0 0 32 32">
<title>profile</title>
<path d="M28.697 25.698l-7.812-4.603c-0.46-0.271-0.749-0.774-0.749-1.311v-0.303c0-0.49 0.243-0.955 0.648-1.245 2.176-1.546 3.476-4.062 3.476-6.728v-4.658c0-3.217-2.070-5.593-5.677-6.519-0.852-0.219-1.718-0.33-2.572-0.33-0.858 0-1.725 0.112-2.581 0.332-3.608 0.93-5.678 3.305-5.678 6.519v4.656c0 2.665 1.3 5.181 3.475 6.728 0.407 0.29 0.648 0.755 0.648 1.245v0.29c0 0.542-0.291 1.047-0.762 1.317l-7.787 4.48c-0.856 0.492-1.388 1.413-1.388 2.403v2.869c0 0.64 0.52 1.161 1.161 1.161h25.778c0.636 0 1.157-0.515 1.162-1.152l0.024-2.742c0.007-0.985-0.517-1.908-1.366-2.408zM28.788 30.749h-25.598v-2.778c0-0.543 0.292-1.048 0.762-1.317l7.786-4.481c0.857-0.494 1.389-1.413 1.389-2.402v-0.29c0-0.894-0.439-1.742-1.175-2.262-1.846-1.314-2.949-3.448-2.949-5.71v-4.656c0-3.557 2.971-4.851 4.739-5.307 0.754-0.194 1.519-0.292 2.27-0.292 0.75 0 1.511 0.097 2.262 0.291 1.769 0.454 4.736 1.747 4.736 5.306v4.658c0 2.262-1.103 4.397-2.948 5.71-0.735 0.521-1.174 1.367-1.174 2.262v0.303c0 0.978 0.522 1.893 1.364 2.388l7.813 4.603c0.465 0.275 0.752 0.782 0.748 1.323l-0.024 2.651z"></path>
</svg>
