<!-- Generated by IcoMoon.io -->
<svg version="1.1" xmlns="http://www.w3.org/2000/svg" width="32" height="32" viewBox="0 0 32 32">
<title>radar</title>
<path d="M15.999 32c-8.821 0-15.997-7.178-15.997-15.999 0-8.822 7.176-16.001 15.997-16.001 8.822 0 15.999 7.178 15.999 16.001 0.001 8.821-7.176 15.999-15.999 15.999zM15.999 1.346c-8.080 0-14.656 6.574-14.656 14.656 0 8.080 6.576 14.655 14.656 14.655 8.081 0 14.657-6.575 14.657-14.655 0-8.082-6.576-14.656-14.657-14.656z"></path>
<path d="M16.001 26.222c-5.635 0-10.223-4.586-10.223-10.22 0-5.637 4.587-10.223 10.223-10.223s10.22 4.585 10.22 10.223c0 5.634-4.585 10.22-10.22 10.22zM16.001 7.123c-4.895 0-8.877 3.983-8.877 8.879 0 4.892 3.982 8.876 8.877 8.876s8.877-3.983 8.877-8.876c0.001-4.896-3.981-8.879-8.877-8.879z"></path>
<path d="M16 20.171c-2.298 0-4.17-1.871-4.17-4.17s1.871-4.17 4.17-4.17 4.17 1.871 4.17 4.17c0 2.298-1.871 4.17-4.17 4.17zM16 13.175c-1.558 0-2.824 1.268-2.824 2.826s1.266 2.825 2.824 2.825 2.826-1.268 2.826-2.825c0.001-1.559-1.268-2.825-2.825-2.825z"></path>
</svg>
