<!-- Generated by IcoMoon.io -->
<svg version="1.1" xmlns="http://www.w3.org/2000/svg" width="32" height="32" viewBox="0 0 32 32">
<title>radar_active</title>
<path d="M18.825 15.999c0 1.56-1.265 2.825-2.825 2.825s-2.825-1.265-2.825-2.825c0-1.56 1.265-2.825 2.825-2.825s2.825 1.265 2.825 2.825z"></path>
<path d="M16.001 7.122c-4.894 0-8.878 3.983-8.878 8.878 0 4.893 3.983 8.877 8.878 8.877s8.878-3.983 8.878-8.877c0-4.894-3.983-8.878-8.878-8.878zM16 20.17c-2.299 0-4.17-1.871-4.17-4.17s1.873-4.17 4.17-4.17c2.3 0 4.17 1.871 4.17 4.17s-1.87 4.17-4.17 4.17z"></path>
<path d="M15.999 0c-8.822 0-15.998 7.177-15.998 16s7.176 16 15.998 16c8.824 0 16-7.177 16-16s-7.176-16-16-16zM16.001 26.22c-5.636 0-10.222-4.586-10.222-10.219 0-5.638 4.587-10.223 10.222-10.223s10.22 4.586 10.22 10.223c0 5.633-4.585 10.219-10.22 10.219z"></path>
</svg>
