<!-- Generated by IcoMoon.io -->
<svg version="1.1" xmlns="http://www.w3.org/2000/svg" width="32" height="32" viewBox="0 0 32 32">
<title>radiobutton_off</title>
<path d="M23.751 32h-15.501c-4.551 0-8.249-3.701-8.249-8.249v-15.501c0-4.549 3.698-8.249 8.249-8.249h15.501c4.546 0 8.249 3.701 8.249 8.249v15.501c0 4.549-3.703 8.249-8.249 8.249zM8.252 2.477c-3.187 0-5.775 2.59-5.775 5.775v15.501c0 3.185 2.588 5.775 5.775 5.775h15.501c3.182 0 5.775-2.59 5.775-5.775v-15.501c0-3.185-2.592-5.775-5.775-5.775h-15.501z"></path>
</svg>
