<!-- Generated by IcoMoon.io -->
<svg version="1.1" xmlns="http://www.w3.org/2000/svg" width="32" height="32" viewBox="0 0 32 32">
<title>radiobutton_on</title>
<path d="M23.751 32h-15.501c-4.546 0-8.249-3.701-8.249-8.249v-15.501c0-4.549 3.703-8.249 8.249-8.249h15.501c4.551 0 8.249 3.701 8.249 8.249v15.501c0 4.549-3.698 8.249-8.249 8.249zM8.252 2.477c-3.182 0-5.775 2.59-5.775 5.775v15.501c0 3.185 2.592 5.775 5.775 5.775h15.501c3.187 0 5.775-2.59 5.775-5.775v-15.501c0-3.185-2.588-5.775-5.775-5.775h-15.501z"></path>
<path d="M26.186 22.112c0 2.251-1.823 4.074-4.074 4.074h-12.224c-2.251 0-4.074-1.823-4.074-4.074v-12.222c0-2.249 1.823-4.074 4.074-4.074h12.224c2.251 0 4.074 1.825 4.074 4.074v12.222z"></path>
</svg>
