<!-- Generated by IcoMoon.io -->
<svg version="1.1" xmlns="http://www.w3.org/2000/svg" width="32" height="32" viewBox="0 0 32 32">
<title>return</title>
<path d="M13.009 19.961h14.491l-10.846 10.847c-0.272 0.272-0.272 0.714 0 0.988 0.273 0.272 0.717 0.272 0.99 0l11.986-11.985c0.142-0.145 0.212-0.334 0.203-0.523 0-0.009 0.002-0.018 0.002-0.026 0-0.276-0.161-0.513-0.393-0.628l-11.544-11.544c-0.135-0.135-0.316-0.205-0.495-0.205s-0.359 0.069-0.493 0.205c-0.273 0.273-0.273 0.716 0 0.989l10.483 10.483h-14.384c-5.209 0-9.446-4.238-9.446-9.446v-8.417c0-0.387-0.313-0.701-0.7-0.701-0.387 0-0.7 0.313-0.7 0.701v8.417c0.001 5.979 4.865 10.844 10.845 10.844z"></path>
</svg>
