<!-- Generated by IcoMoon.io -->
<svg version="1.1" xmlns="http://www.w3.org/2000/svg" width="32" height="32" viewBox="0 0 32 32">
<title>rotate</title>
<path d="M2.652 15.953c0-7.36 5.988-13.348 13.348-13.348 2.020 0 4.042 0.468 5.856 1.355l-2.302 2.303c-0.255 0.256-0.349 0.635-0.25 0.99 0.106 0.365 0.402 0.644 0.774 0.727l7.695 1.726c0.071 0.019 0.146 0.027 0.23 0.027 0.3 0 0.586-0.135 0.782-0.37 0.188-0.237 0.255-0.546 0.189-0.851l-1.729-7.699c-0.106-0.472-0.533-0.814-1.016-0.814-0.263 0-0.512 0.103-0.7 0.292l-2.583 2.58c-2.135-1.133-4.536-1.732-6.945-1.732-8.168 0-14.814 6.647-14.814 14.815 0 1.164 0.135 2.321 0.401 3.435 0.079 0.326 0.377 0.562 0.71 0.562 0.053 0 0.11-0.005 0.172-0.018 0.392-0.096 0.634-0.493 0.542-0.885-0.239-1.005-0.361-2.047-0.361-3.095zM21.169 6.722l4.82-4.821 1.395 6.218-6.214-1.397z"></path>
<path d="M30.423 12.553c-0.091-0.387-0.483-0.639-0.882-0.546-0.392 0.093-0.637 0.489-0.546 0.881 0.235 0.995 0.353 2.026 0.353 3.065 0 7.36-5.989 13.349-13.349 13.349-1.956 0-3.919-0.44-5.69-1.271l2.293-2.294c0.259-0.258 0.355-0.637 0.248-0.991-0.105-0.364-0.4-0.644-0.77-0.727l-7.696-1.726c-0.071-0.018-0.145-0.027-0.229-0.027-0.304 0-0.589 0.136-0.78 0.371-0.19 0.241-0.26 0.551-0.193 0.851l1.729 7.7c0.107 0.47 0.533 0.811 1.013 0.811 0.268 0 0.519-0.103 0.705-0.291l2.589-2.59c2.094 1.079 4.435 1.647 6.78 1.647 8.168 0 14.815-6.647 14.815-14.812 0.003-1.136-0.128-2.28-0.389-3.4zM10.991 25.277l-2.307 2.307c-0.12 0.069-0.207 0.154-0.259 0.245l-2.254 2.267-1.396-6.217 6.216 1.399z"></path>
</svg>
