<!-- Generated by IcoMoon.io -->
<svg version="1.1" xmlns="http://www.w3.org/2000/svg" width="32" height="32" viewBox="0 0 32 32">
<title>rule</title>
<path d="M31.435 6.986l-6.423-6.422c-0.365-0.363-0.85-0.564-1.367-0.564-0.513 0-0.999 0.201-1.367 0.566l-21.714 21.714c-0.365 0.365-0.566 0.85-0.566 1.368 0 0.514 0.201 1 0.566 1.367l6.422 6.42c0.363 0.365 0.849 0.566 1.367 0.566s1.002-0.201 1.367-0.566l21.716-21.714c0.363-0.365 0.564-0.85 0.564-1.368-0.001-0.517-0.201-1.002-0.566-1.367zM30.499 8.785l-2.847 2.846-2.191-2.192c-0.25-0.25-0.686-0.251-0.936 0-0.258 0.258-0.258 0.677 0 0.936l2.192 2.191-2.254 2.256-3.642-3.644c-0.25-0.249-0.686-0.246-0.935 0-0.125 0.125-0.195 0.291-0.195 0.468s0.070 0.343 0.195 0.468l3.643 3.642-2.080 2.080-2.192-2.194c-0.25-0.25-0.684-0.25-0.934 0-0.124 0.124-0.195 0.29-0.195 0.467s0.071 0.343 0.195 0.468l2.191 2.191-2.255 2.255-3.643-3.643c-0.25-0.247-0.686-0.247-0.935 0-0.257 0.259-0.257 0.679 0 0.938l3.643 3.64-2.032 2.032-2.309-2.308c-0.25-0.247-0.685-0.247-0.936 0-0.257 0.259-0.257 0.678 0 0.937l2.307 2.307-2.061 2.062-3.643-3.643c-0.25-0.25-0.686-0.25-0.935 0-0.124 0.124-0.194 0.291-0.194 0.468 0 0.175 0.070 0.343 0.194 0.467l3.643 3.643-2.576 2.576c-0.111 0.111-0.268 0.174-0.432 0.174s-0.322-0.064-0.432-0.174l-6.422-6.422c-0.116-0.116-0.179-0.268-0.179-0.43 0-0.163 0.064-0.316 0.179-0.432l21.714-21.714c0.23-0.232 0.635-0.23 0.863 0l6.422 6.42c0.24 0.236 0.24 0.624 0.002 0.862z"></path>
</svg>
