<!-- Generated by IcoMoon.io -->
<svg version="1.1" xmlns="http://www.w3.org/2000/svg" width="32" height="32" viewBox="0 0 32 32">
<title>rule_active</title>
<path d="M31.811 8.131l-3.105 3.103-2.39-2.389c-0.271-0.273-0.748-0.274-1.020 0-0.28 0.28-0.28 0.738 0 1.019l2.39 2.389-2.458 2.46-0.079-0.078-3.892-3.894c-0.273-0.271-0.748-0.269-1.020 0-0.135 0.137-0.211 0.317-0.211 0.509s0.074 0.374 0.211 0.511l3.972 3.971-2.266 2.268-2.39-2.392c-0.271-0.271-0.747-0.271-1.018 0-0.135 0.135-0.212 0.316-0.212 0.509s0.075 0.373 0.212 0.511l2.388 2.388-2.458 2.46-0.079-0.078-3.892-3.894c-0.272-0.269-0.748-0.269-1.019 0-0.28 0.281-0.28 0.741 0 1.023l3.972 3.97-2.215 2.215-2.518-2.518c-0.272-0.269-0.747-0.269-1.020 0-0.28 0.283-0.28 0.741 0 1.023l2.516 2.516-2.248 2.249-0.079-0.078-3.893-3.894c-0.273-0.271-0.748-0.271-1.020 0-0.135 0.135-0.211 0.317-0.211 0.509 0 0.191 0.075 0.373 0.211 0.509l3.973 3.972-2.809 2.809c-0.12 0.12-0.292 0.19-0.471 0.19s-0.351-0.071-0.47-0.19l-7.002-7.002c-0.126-0.126-0.196-0.294-0.196-0.469 0-0.177 0.070-0.346 0.196-0.471l23.678-23.679c0.251-0.252 0.694-0.25 0.941 0l7.002 7.002c0.259 0.256 0.259 0.68 0 0.94z"></path>
</svg>
