<!-- Generated by IcoMoon.io -->
<svg version="1.1" xmlns="http://www.w3.org/2000/svg" width="32" height="32" viewBox="0 0 32 32">
<title>Scroll_down</title>
<path d="M16.542 21.172l5.071-7.485c0.108-0.16 0.166-0.346 0.166-0.538 0-0.531-0.431-0.96-0.962-0.96h-10.139c-0.531 0-0.962 0.43-0.962 0.96 0 0.192 0.057 0.377 0.166 0.538l5.069 7.484c0.179 0.266 0.479 0.422 0.796 0.422 0.318 0.001 0.617-0.156 0.794-0.42zM11.243 13.449h9.008l-4.505 6.648-4.503-6.648z"></path>
<path d="M31.999 16.001c0-8.822-7.179-16.001-15.999-16.001s-15.998 7.179-15.998 16.001c0 8.821 7.177 15.999 15.998 15.999s15.999-7.179 15.999-15.999zM1.26 16.001c0-8.127 6.612-14.738 14.739-14.738 8.126 0 14.739 6.611 14.739 14.738 0 8.126-6.613 14.737-14.739 14.737-8.127 0-14.739-6.612-14.739-14.737z"></path>
</svg>
