<!-- Generated by IcoMoon.io -->
<svg version="1.1" xmlns="http://www.w3.org/2000/svg" width="32" height="32" viewBox="0 0 32 32">
<title>search</title>
<path d="M31.197 27.324l-7.579-7.579c3.238-5.042 2.53-11.734-1.723-15.989-2.424-2.422-5.644-3.755-9.070-3.755-3.425 0-6.646 1.334-9.067 3.755s-3.758 5.644-3.758 9.069c0 3.426 1.336 6.647 3.755 9.069 2.422 2.424 5.644 3.758 9.069 3.758 2.469 0 4.859-0.706 6.922-2.032l7.579 7.579c0.515 0.515 1.205 0.803 1.937 0.803s1.419-0.287 1.937-0.803c1.069-1.069 1.069-2.807-0.001-3.874zM4.709 20.94c-2.17-2.168-3.363-5.049-3.363-8.116 0.002-3.065 1.195-5.948 3.364-8.116 2.168-2.169 5.049-3.361 8.115-3.361 3.066 0 5.949 1.194 8.115 3.361 3.851 3.849 4.463 9.928 1.457 14.456-0.063 0.093-0.125 0.187-0.191 0.277-0.379 0.534-0.804 1.039-1.265 1.498-0.23 0.232-0.471 0.453-0.722 0.664-0.024 0.021-0.052 0.038-0.076 0.060-0.227 0.188-0.458 0.371-0.699 0.542-0.091 0.068-0.184 0.129-0.277 0.188-1.879 1.25-4.071 1.909-6.342 1.909-3.066 0-5.948-1.194-8.116-3.363zM30.246 30.246c-0.264 0.262-0.612 0.406-0.984 0.406-0.371 0-0.722-0.145-0.983-0.406l-7.421-7.42c0.031-0.026 0.062-0.059 0.093-0.085 0.328-0.269 0.645-0.549 0.946-0.847 0.296-0.296 0.575-0.612 0.843-0.94 0.028-0.032 0.061-0.062 0.086-0.095l7.42 7.418c0.542 0.544 0.542 1.425 0 1.97z"></path>
</svg>
