<!-- Generated by IcoMoon.io -->
<svg version="1.1" xmlns="http://www.w3.org/2000/svg" width="32" height="32" viewBox="0 0 32 32">
<title>search_active</title>
<path d="M31.197 27.325l-7.58-7.58c3.238-5.042 2.529-11.734-1.724-15.99-2.421-2.421-5.642-3.755-9.067-3.755s-6.646 1.334-9.067 3.755c-2.422 2.422-3.759 5.644-3.759 9.070s1.336 6.646 3.756 9.067c2.421 2.424 5.644 3.758 9.067 3.758 2.471 0 4.859-0.706 6.922-2.032l7.58 7.58c0.515 0.515 1.204 0.803 1.936 0.803s1.419-0.287 1.938-0.803c1.069-1.067 1.069-2.805-0.001-3.872zM30.245 30.247c-0.264 0.262-0.612 0.406-0.984 0.406-0.37 0-0.722-0.145-0.982-0.406l-7.422-7.42c0.031-0.026 0.063-0.059 0.094-0.085 0.327-0.269 0.645-0.549 0.946-0.847 0.296-0.296 0.574-0.612 0.843-0.94 0.026-0.032 0.061-0.062 0.085-0.095l7.42 7.418c0.543 0.544 0.543 1.426 0 1.97z"></path>
</svg>
