<!-- Generated by IcoMoon.io -->
<svg version="1.1" xmlns="http://www.w3.org/2000/svg" width="32" height="32" viewBox="0 0 32 32">
<title>send</title>
<path d="M29.159 0c-0.377 0-0.751 0.075-1.111 0.224l-26.286 10.867c-0.352 0.145-0.665 0.354-0.932 0.622-0.48 0.481-0.772 1.124-0.824 1.812-0.077 1.087 0.456 2.106 1.392 2.658l9.040 5.368c0.005 0.002 0.008 0.006 0.010 0.010l5.368 9.041c0.519 0.875 1.434 1.397 2.449 1.397 0.070 0 0.141-0.002 0.21-0.008 1.068-0.077 2.024-0.767 2.431-1.757l10.87-26.284c0.45-1.088 0.212-2.28-0.617-3.109-0.545-0.543-1.256-0.842-2.001-0.842zM30.55 3.444l-10.867 26.286c-0.083 0.197-0.197 0.366-0.334 0.503-0.257 0.257-0.593 0.406-0.97 0.434-0.041 0.002-0.082 0.005-0.123 0.005-0.543 0-1.016-0.272-1.298-0.745l-5.183-8.733c-0.007-0.011-0.005-0.025 0.005-0.034l6.848-6.848c0.125-0.125 0.194-0.29 0.194-0.468s-0.070-0.344-0.194-0.47c-0.126-0.126-0.294-0.195-0.471-0.195s-0.344 0.070-0.468 0.194l-6.848 6.845c-0.009 0.009-0.023 0.010-0.034 0.005l-8.73-5.179c-0.507-0.303-0.786-0.834-0.744-1.424 0.041-0.578 0.402-1.078 0.939-1.301l26.286-10.869c0.101-0.041 0.201-0.041 0.303-0.062 0.010-0.002 0.022-0.005 0.032-0.007 0.087-0.016 0.174-0.055 0.262-0.055 0.548 0 0.928 0.32 1.065 0.457 0.169 0.17 0.692 0.791 0.331 1.661z"></path>
</svg>
