<!-- Generated by IcoMoon.io -->
<svg version="1.1" xmlns="http://www.w3.org/2000/svg" width="32" height="32" viewBox="0 0 32 32">
<title>send_active</title>
<path d="M27.726 0.242l-25.818 10.674c-1.088 0.45-1.815 1.458-1.9 2.631-0.084 1.172 0.491 2.279 1.503 2.879l7.992 4.744 7.953-7.952c0.365-0.365 0.959-0.365 1.324-0.001 0.366 0.366 0.365 0.96 0 1.325l-7.951 7.952 4.746 7.993c0.597 1.012 1.704 1.588 2.876 1.504 1.176-0.086 2.183-0.815 2.632-1.9l10.673-25.818c0.488-1.175 0.231-2.463-0.67-3.364-0.896-0.896-2.185-1.155-3.361-0.668z"></path>
</svg>
