<!-- Generated by IcoMoon.io -->
<svg version="1.1" xmlns="http://www.w3.org/2000/svg" width="32" height="32" viewBox="0 0 32 32">
<title>settings</title>
<path d="M16.105 9.171c-3.882 0-7.044 3.161-7.044 7.045s3.161 7.044 7.044 7.044c3.885 0 7.046-3.16 7.046-7.044s-3.16-7.045-7.046-7.045zM16.105 21.972c-3.171 0-5.755-2.583-5.755-5.756 0-3.176 2.584-5.757 5.755-5.757 3.175 0 5.757 2.582 5.757 5.757 0.001 3.173-2.583 5.756-5.757 5.756z"></path>
<path d="M29.832 11.35h-0.481c-0.545 0-0.759-0.415-0.811-0.542-0.052-0.129-0.196-0.574 0.19-0.959l0.34-0.34c0.844-0.844 0.844-2.22 0-3.064l-3.513-3.514c-0.41-0.41-0.954-0.636-1.534-0.636-0.578 0-1.123 0.225-1.532 0.636l-0.342 0.342c-0.213 0.213-0.45 0.259-0.609 0.259-0.226 0-0.454-0.088-0.62-0.243-0.122-0.115-0.269-0.318-0.269-0.638v-0.48c0-1.196-0.973-2.168-2.167-2.168h-4.969c-1.194 0-2.166 0.973-2.166 2.168v0.602c0 0.552-0.454 0.88-0.89 0.88-0.159 0-0.396-0.045-0.609-0.26l-0.342-0.34c-0.409-0.41-0.954-0.636-1.532-0.636-0.579 0-1.124 0.225-1.532 0.636l-3.513 3.513c-0.41 0.41-0.636 0.954-0.636 1.531 0 0.582 0.225 1.125 0.635 1.534l0.22 0.218c0.382 0.385 0.241 0.83 0.189 0.959-0.052 0.126-0.268 0.542-0.812 0.542h-0.359c-1.197 0-2.168 0.971-2.168 2.167v4.968c0 1.196 0.972 2.167 2.168 2.167h0.481c0.546 0 0.759 0.415 0.811 0.544s0.196 0.571-0.19 0.958l-0.34 0.34c-0.41 0.409-0.636 0.954-0.636 1.532s0.225 1.124 0.636 1.532l3.513 3.513c0.409 0.409 0.953 0.634 1.532 0.634 0.578 0 1.124-0.224 1.532-0.634l0.342-0.34c0.215-0.216 0.451-0.262 0.609-0.262 0.437 0 0.89 0.33 0.89 0.883v0.481c0 1.196 0.972 2.168 2.166 2.168h4.969c1.194 0 2.167-0.973 2.167-2.168v-0.36c0-0.55 0.452-0.879 0.89-0.879 0.16 0 0.397 0.043 0.609 0.26l0.342 0.34c0.41 0.41 0.954 0.634 1.532 0.634 0.579 0 1.124-0.223 1.534-0.634l3.513-3.514c0.844-0.844 0.844-2.219 0-3.064l-0.463-0.462c-0.384-0.387-0.243-0.831-0.189-0.958 0.052-0.127 0.267-0.544 0.811-0.544h0.602c1.197 0 2.167-0.972 2.167-2.167v-4.968c0-1.197-0.971-2.167-2.167-2.167zM30.712 18.485c0 0.485-0.395 0.879-0.88 0.879h-0.602c-0.893 0-1.661 0.511-2.001 1.339-0.343 0.825-0.163 1.729 0.469 2.362l0.46 0.462c0.343 0.34 0.343 0.899 0 1.242l-3.513 3.514c-0.165 0.166-0.387 0.257-0.621 0.257s-0.455-0.091-0.621-0.257l-0.339-0.34c-0.413-0.412-0.953-0.64-1.523-0.64-1.201 0-2.179 0.974-2.179 2.171v0.36c0 0.485-0.395 0.879-0.878 0.879h-4.969c-0.485 0-0.878-0.395-0.878-0.879v-0.481c0-1.198-0.977-2.172-2.179-2.172-0.57 0-1.11 0.227-1.522 0.64l-0.34 0.34c-0.166 0.166-0.388 0.257-0.621 0.257-0.234 0-0.457-0.091-0.621-0.257l-3.514-3.514c-0.166-0.167-0.259-0.388-0.259-0.621 0-0.235 0.092-0.455 0.259-0.622l0.343-0.342c0.63-0.631 0.81-1.535 0.467-2.36-0.343-0.827-1.108-1.339-2.001-1.339h-0.481c-0.487 0-0.88-0.395-0.88-0.879v-4.968c0-0.485 0.394-0.879 0.88-0.879h0.359c0.893 0 1.661-0.512 2.002-1.339 0.343-0.825 0.163-1.729-0.47-2.361l-0.218-0.219c-0.166-0.165-0.259-0.385-0.259-0.622 0-0.233 0.092-0.454 0.259-0.62l3.514-3.514c0.165-0.166 0.387-0.257 0.621-0.257 0.233 0 0.456 0.091 0.621 0.257l0.34 0.342c0.412 0.411 0.952 0.639 1.522 0.637 1.201 0 2.179-0.974 2.179-2.169v-0.602c0-0.485 0.394-0.879 0.878-0.879h4.969c0.483 0 0.878 0.395 0.878 0.879v0.48c0 0.61 0.242 1.172 0.68 1.579 0.403 0.377 0.949 0.592 1.499 0.592 0.57 0 1.11-0.225 1.523-0.638l0.339-0.34c0.167-0.166 0.387-0.257 0.621-0.257s0.457 0.091 0.621 0.257l3.513 3.514c0.343 0.343 0.343 0.9 0 1.242l-0.34 0.342c-0.63 0.632-0.81 1.536-0.469 2.361 0.343 0.826 1.108 1.339 2.002 1.339h0.481c0.486 0 0.88 0.395 0.88 0.879v4.968z"></path>
</svg>
