<!-- Generated by IcoMoon.io -->
<svg version="1.1" xmlns="http://www.w3.org/2000/svg" width="32" height="32" viewBox="0 0 32 32">
<title>settings_active</title>
<path d="M29.833 11.349h-0.481c-0.545 0-0.759-0.415-0.811-0.542-0.052-0.129-0.196-0.574 0.19-0.959l0.34-0.34c0.844-0.844 0.844-2.22 0-3.064l-3.513-3.514c-0.41-0.41-0.954-0.636-1.534-0.636-0.578 0-1.123 0.225-1.532 0.636l-0.342 0.342c-0.213 0.213-0.45 0.259-0.609 0.259-0.226 0-0.454-0.088-0.62-0.243-0.122-0.115-0.269-0.318-0.269-0.638v-0.48c0-1.195-0.973-2.168-2.167-2.168h-4.969c-1.194 0-2.166 0.973-2.166 2.168v0.602c0 0.552-0.454 0.88-0.89 0.88-0.159 0-0.396-0.045-0.609-0.26l-0.343-0.339c-0.409-0.41-0.954-0.636-1.532-0.636-0.579 0-1.124 0.225-1.532 0.636l-3.513 3.513c-0.41 0.41-0.636 0.954-0.636 1.531 0 0.582 0.225 1.125 0.635 1.534l0.22 0.218c0.382 0.385 0.241 0.83 0.189 0.959-0.052 0.126-0.268 0.542-0.812 0.542h-0.359c-1.197 0-2.168 0.97-2.168 2.167v4.968c0 1.195 0.972 2.167 2.168 2.167h0.481c0.546 0 0.759 0.415 0.811 0.544s0.196 0.571-0.19 0.958l-0.34 0.34c-0.41 0.409-0.636 0.954-0.636 1.532s0.225 1.124 0.636 1.532l3.513 3.513c0.409 0.409 0.953 0.634 1.532 0.634 0.578 0 1.124-0.224 1.532-0.634l0.342-0.34c0.215-0.216 0.451-0.262 0.609-0.262 0.437 0 0.89 0.33 0.89 0.883v0.481c0 1.195 0.972 2.168 2.166 2.168h4.969c1.194 0 2.167-0.973 2.167-2.168v-0.36c0-0.55 0.452-0.879 0.89-0.879 0.16 0 0.397 0.043 0.609 0.26l0.342 0.34c0.41 0.41 0.954 0.634 1.532 0.634 0.579 0 1.124-0.223 1.534-0.634l3.513-3.514c0.844-0.844 0.844-2.219 0-3.064l-0.463-0.462c-0.384-0.387-0.243-0.831-0.189-0.958 0.052-0.127 0.267-0.544 0.811-0.544h0.602c1.197 0 2.167-0.972 2.167-2.167v-4.968c0.001-1.198-0.969-2.168-2.166-2.168zM16.106 23.26c-3.882 0-7.044-3.16-7.044-7.044s3.161-7.045 7.044-7.045c3.885 0 7.046 3.161 7.046 7.045s-3.16 7.044-7.046 7.044z"></path>
</svg>
