<!-- Generated by IcoMoon.io -->
<svg version="1.1" xmlns="http://www.w3.org/2000/svg" width="32" height="32" viewBox="0 0 32 32">
<title>tab</title>
<path d="M31.295 14.905l-1.73-1.728 0.724-0.722c0.069-0.068 0.118-0.152 0.146-0.246 0.568-0.985 0.41-2.201-0.372-2.985l-2.103-2.103h-0.067l-0.001-0.067-3.471-3.456 0.005-0.014-2.095-2.094c-0.461-0.461-1.075-0.716-1.728-0.716-0.654 0-1.268 0.255-1.728 0.717l-5.085 5.085-2.071-2.071c-0.461-0.462-1.075-0.716-1.728-0.716s-1.268 0.254-1.729 0.716l-4.457 4.455c-5.084 5.085-5.084 13.361 0 18.447 2.459 2.458 5.734 3.813 9.223 3.813s6.764-1.355 9.223-3.815l9.047-9.044c0.948-0.956 0.948-2.507-0.003-3.459zM30.476 17.542l-9.047 9.047c-2.241 2.242-5.225 3.476-8.405 3.476-3.178 0-6.162-1.234-8.404-3.476-2.241-2.241-3.476-5.225-3.476-8.405s1.234-6.164 3.476-8.405l4.455-4.455c0.242-0.242 0.565-0.376 0.91-0.376 0.344 0 0.668 0.134 0.91 0.376l2.073 2.072-6.249 6.25c-0.11 0.11-0.169 0.255-0.169 0.408s0.060 0.299 0.169 0.408c0.219 0.22 0.599 0.217 0.819 0.001l12.151-12.151c0.242-0.242 0.566-0.377 0.911-0.377 0.344 0 0.667 0.134 0.909 0.376l1.728 1.729-9.393 9.393c-0.11 0.11-0.17 0.256-0.169 0.41 0 0.154 0.060 0.299 0.169 0.408 0.221 0.221 0.6 0.22 0.822 0.001l9.391-9.392 2.638 2.638-9.394 9.394c-0.109 0.109-0.169 0.254-0.169 0.408s0.061 0.3 0.169 0.409c0.221 0.221 0.601 0.219 0.821 0.002l9.392-9.393 1.727 1.728c0.502 0.503 0.502 1.319 0.001 1.821l-8.483 8.483c-0.224 0.225-0.224 0.592 0 0.816 0.221 0.221 0.599 0.219 0.819 0.002l7.168-7.169 1.729 1.728c0.5 0.5 0.502 1.317-0.001 1.817z"></path>
</svg>
