<!-- Generated by IcoMoon.io -->
<svg version="1.1" xmlns="http://www.w3.org/2000/svg" width="32" height="32" viewBox="0 0 32 32">
<title>tile_active</title>
<path d="M12.383 11.548c0 0.506-0.412 0.916-0.918 0.916h-10.557c-0.504 0-0.916-0.409-0.916-0.916v-10.557c0-0.504 0.412-0.916 0.916-0.916h10.557c0.505 0 0.918 0.411 0.918 0.916v10.557z"></path>
<path d="M12.383 31.007c0 0.506-0.412 0.918-0.918 0.918h-10.557c-0.504 0-0.916-0.411-0.916-0.918v-10.554c0-0.506 0.412-0.918 0.916-0.918h10.557c0.505 0 0.918 0.411 0.918 0.918v10.554z"></path>
<path d="M32.008 11.548c0 0.506-0.411 0.916-0.918 0.916h-10.555c-0.505 0-0.918-0.409-0.918-0.916v-10.557c0-0.504 0.412-0.916 0.918-0.916h10.556c0.506 0 0.918 0.411 0.918 0.916v10.557z"></path>
<path d="M32.008 31.007c0 0.506-0.411 0.918-0.918 0.918h-10.555c-0.505 0-0.918-0.411-0.918-0.918v-10.554c0-0.506 0.412-0.918 0.918-0.918h10.556c0.506 0 0.918 0.411 0.918 0.918v10.554z"></path>
</svg>
