<!-- Generated by IcoMoon.io -->
<svg version="1.1" xmlns="http://www.w3.org/2000/svg" width="32" height="32" viewBox="0 0 32 32">
<title>tile</title>
<path d="M11.87 0.068h-9.614c-1.249 0-2.265 1.016-2.265 2.264v9.615c0 1.249 1.016 2.265 2.265 2.265h9.614c1.249 0 2.265-1.016 2.265-2.265v-9.615c0.001-1.248-1.016-2.264-2.265-2.264zM12.706 11.946c0 0.461-0.375 0.833-0.836 0.833h-9.614c-0.459 0-0.835-0.373-0.835-0.833v-9.615c0-0.458 0.375-0.833 0.835-0.833h9.614c0.459 0 0.836 0.375 0.836 0.833v9.615z"></path>
<path d="M11.87 17.789h-9.614c-1.249 0-2.265 1.016-2.265 2.267v9.611c0 1.249 1.016 2.265 2.265 2.265h9.614c1.249 0 2.265-1.016 2.265-2.265v-9.611c0.001-1.251-1.016-2.267-2.265-2.267zM12.706 29.667c0 0.459-0.375 0.835-0.836 0.835h-9.614c-0.459 0-0.835-0.374-0.835-0.835v-9.611c0-0.462 0.375-0.836 0.835-0.836h9.614c0.459 0 0.836 0.373 0.836 0.836v9.611z"></path>
<path d="M29.742 0.068h-9.612c-1.25 0-2.266 1.016-2.266 2.264v9.615c0 1.249 1.016 2.265 2.266 2.265h9.612c1.249 0 2.266-1.016 2.266-2.265v-9.615c0-1.248-1.017-2.264-2.266-2.264zM30.578 11.946c0 0.461-0.374 0.833-0.836 0.833h-9.612c-0.459 0-0.836-0.373-0.836-0.833v-9.615c0-0.458 0.375-0.833 0.836-0.833h9.612c0.461 0 0.836 0.375 0.836 0.833v9.615z"></path>
<path d="M29.742 17.789h-9.612c-1.25 0-2.266 1.016-2.266 2.267v9.611c0 1.249 1.016 2.265 2.266 2.265h9.612c1.249 0 2.266-1.016 2.266-2.265v-9.611c0-1.251-1.017-2.267-2.266-2.267zM30.578 29.667c0 0.459-0.374 0.835-0.836 0.835h-9.612c-0.459 0-0.836-0.374-0.836-0.835v-9.611c0-0.462 0.375-0.836 0.836-0.836h9.612c0.461 0 0.836 0.373 0.836 0.836v9.611z"></path>
</svg>
