<!-- Generated by IcoMoon.io -->
<svg version="1.1" xmlns="http://www.w3.org/2000/svg" width="32" height="32" viewBox="0 0 32 32">
<title>time</title>
<path d="M16-0c-8.823 0-16.001 7.178-16.001 16.001 0 8.822 7.178 15.999 16.001 15.999 8.822 0 16-7.177 16-15.999 0.001-8.823-7.177-16.001-16-16.001zM16 30.74c-8.127 0-14.74-6.613-14.74-14.739 0-8.129 6.613-14.741 14.74-14.741 8.126 0 14.74 6.613 14.74 14.741 0 8.126-6.614 14.739-14.74 14.739z"></path>
<path d="M16.427 15.613v-8.434c0-0.349-0.28-0.631-0.63-0.631-0.347 0-0.63 0.282-0.63 0.631v8.695c0 0.082 0.017 0.165 0.048 0.24 0.032 0.077 0.077 0.147 0.136 0.205l7.555 7.557c0.124 0.121 0.286 0.184 0.448 0.184 0.161 0 0.321-0.062 0.445-0.184 0.246-0.246 0.246-0.644 0-0.893l-7.373-7.37z"></path>
</svg>
