<!-- Generated by IcoMoon.io -->
<svg version="1.1" xmlns="http://www.w3.org/2000/svg" width="32" height="32" viewBox="0 0 32 32">
<title>variable_active</title>
<path d="M22.378 31.298v-17.343c-0.49 0.070-0.977 0.057-1.401-0.065v17.408c0 0.388 0.313 0.702 0.701 0.702s0.7-0.314 0.7-0.702z"></path>
<path d="M16.954 9.747c0-2.604 2.118-4.724 4.723-4.724 2.604 0 4.723 2.12 4.723 4.724 0 2.605-2.119 4.724-4.723 4.724-2.605 0-4.723-2.119-4.723-4.724z"></path>
<path d="M11.026 18.198v-17.497c0-0.386-0.315-0.701-0.702-0.701-0.386 0-0.702 0.315-0.702 0.701v17.799c0.421-0.202 0.895-0.31 1.404-0.302z"></path>
<path d="M5.599 22.254c0-2.607 2.118-4.726 4.724-4.726s4.722 2.119 4.722 4.726c0 2.604-2.116 4.723-4.722 4.723s-4.724-2.119-4.724-4.723z"></path>
</svg>
