<!-- Generated by IcoMoon.io -->
<svg version="1.1" xmlns="http://www.w3.org/2000/svg" width="32" height="32" viewBox="0 0 32 32">
<title>variable</title>
<path d="M22.378 31.298v-17.343c-0.49 0.068-0.977 0.057-1.401-0.065v17.408c0 0.388 0.313 0.702 0.701 0.702s0.7-0.314 0.7-0.702z"></path>
<path d="M16.954 9.747c0-2.605 2.118-4.724 4.723-4.724 2.604 0 4.723 2.12 4.723 4.724 0 2.605-2.119 4.724-4.723 4.724-2.605 0-4.723-2.119-4.723-4.724zM24.999 9.747c0-1.831-1.489-3.321-3.32-3.321s-3.321 1.49-3.321 3.321c0 1.831 1.49 3.321 3.321 3.321s3.32-1.491 3.32-3.321z"></path>
<path d="M11.026 18.199v-17.498c0-0.386-0.315-0.701-0.702-0.701-0.386 0-0.702 0.315-0.702 0.701v17.799c0.421-0.202 0.895-0.31 1.404-0.301z"></path>
<path d="M5.6 22.254c0-2.607 2.118-4.724 4.724-4.724s4.722 2.118 4.722 4.724c0 2.604-2.117 4.723-4.722 4.723-2.607 0-4.724-2.119-4.724-4.723zM13.644 22.254c0-1.831-1.49-3.321-3.32-3.321-1.832 0-3.321 1.49-3.321 3.321 0 1.83 1.489 3.32 3.321 3.32 1.831 0 3.32-1.49 3.32-3.32z"></path>
</svg>
