<!-- Generated by IcoMoon.io -->
<svg version="1.1" xmlns="http://www.w3.org/2000/svg" width="32" height="32" viewBox="0 0 32 32">
<title>video</title>
<path d="M31.663 7.671c-0.207-0.111-0.461-0.088-0.645 0.049l-6.28 4.271v-4.045c0-1.441-1.173-2.615-2.616-2.615h-19.514c-1.442 0-2.616 1.173-2.616 2.615v16.106c0 1.441 1.173 2.615 2.616 2.615h19.514c1.442 0 2.616-1.173 2.616-2.615v-4.051l6.273 4.267c0.183 0.143 0.412 0.178 0.658 0.062 0.209-0.108 0.34-0.323 0.34-0.558v-15.547c0-0.239-0.133-0.451-0.345-0.555zM30.764 22.556l-6.027-4.054v-5.001l6.024-4.051 0.003 13.106zM23.489 19.044v5.010c0 0.753-0.613 1.366-1.367 1.366h-19.515c-0.754 0-1.367-0.613-1.367-1.366v-16.106c0-0.753 0.613-1.366 1.367-1.366h19.514c0.754 0 1.367 0.613 1.367 1.366v11.096z"></path>
</svg>
