<?xml version="1.0" encoding="utf-8"?>
<!-- Generator: Adobe Illustrator 16.0.0, SVG Export Plug-In . SVG Version: 6.00 Build 0)  -->
<!DOCTYPE svg PUBLIC "-//W3C//DTD SVG 1.1//EN" "http://www.w3.org/Graphics/SVG/1.1/DTD/svg11.dtd">
<svg version="1.1" id="Ebene_1" xmlns="http://www.w3.org/2000/svg" xmlns:xlink="http://www.w3.org/1999/xlink" x="0px" y="0px"
	 width="50px" height="50px" viewBox="0 0 50 50" enable-background="new 0 0 50 50" xml:space="preserve">
<g>
	<path fill="#1D1D1B" d="M38.979,13.009c-0.715-1.43-2.244-3.134-5.474-3.134h-17.71c-0.062,0-6.254,0.071-6.254,6.254v17.709
		c0,0.064,0.009,1.579,0.779,3.119c0.715,1.43,2.245,3.134,5.475,3.134h17.71c0.062,0,6.253-0.071,6.253-6.253V16.129
		C39.758,16.065,39.749,14.549,38.979,13.009z M38.408,16.129v17.709c0,4.729-4.402,4.898-4.903,4.902h-17.71
		c-4.721,0-4.899-4.401-4.904-4.902V16.129c0-4.73,4.403-4.9,4.905-4.904h17.709C38.225,11.225,38.403,15.628,38.408,16.129z"/>
	<path fill="#1D1D1B" d="M36.437,20.503H12.863c-0.241,0-0.466,0.13-0.586,0.339c-0.119,0.209-0.118,0.468,0.004,0.676l6.41,10.958
		c0.115,0.197,0.321,0.322,0.562,0.334c0.229,0,0.44-0.105,0.566-0.279l4.805-6.645l4.422,6.824
		c0.125,0.191,0.337,0.307,0.566,0.307h0.008h0.001c0.233-0.003,0.446-0.124,0.567-0.323l6.823-11.165
		c0.127-0.208,0.132-0.469,0.013-0.682S36.681,20.503,36.437,20.503z M35.233,21.853l-5.637,9.224l-4.375-6.751
		c-0.121-0.188-0.327-0.302-0.553-0.308h-0.014c-0.216,0-0.42,0.104-0.547,0.279l-4.775,6.604l-5.293-9.049H35.233z"/>
</g>
</svg>
