<!-- Generated by IcoMoon.io -->
<svg version="1.1" xmlns="http://www.w3.org/2000/svg" width="32" height="32" viewBox="0 0 32 32">
<title>write</title>
<path d="M1.896 24.313c-0.009 0.013-0.019 0.025-0.022 0.032l-1.853 6.917c-0.054 0.202 0.003 0.417 0.151 0.565 0.144 0.145 0.337 0.21 0.565 0.151l6.916-1.854c0.009-0.002 0.023-0.013 0.032-0.019 0.021-0.015 0.040-0.027 0.063-0.039 0.018-0.013 0.031-0.021 0.043-0.025l0.034-0.019c0.041-0.023 0.077-0.041 0.101-0.068l22.857-22.849c0.785-0.783 1.215-1.83 1.215-2.944 0-1.117-0.431-2.162-1.215-2.944-0.785-0.784-1.831-1.216-2.944-1.216-1.117 0-2.162 0.432-2.944 1.216l-22.83 22.828c0.001 0 0.001-0.001 0.002-0.001 0.002 0-0.006 0.016-0.021 0.029-0.024 0.024-0.042 0.056-0.063 0.094l-0.040 0.069c-0.021 0.040-0.033 0.060-0.047 0.079zM25.721 2.043c0.562-0.562 1.315-0.873 2.119-0.873s1.555 0.31 2.119 0.873c1.168 1.168 1.168 3.068 0 4.236l-1.26 1.26-4.236-4.236 1.259-1.26zM3.386 24.379l20.248-20.25 4.237 4.236-20.329 20.329-4.237-4.235 0.081-0.080zM2.741 25.627l3.632 3.633-4.961 1.329 1.33-4.961z"></path>
</svg>
