<!-- Generated by IcoMoon.io -->
<svg version="1.1" xmlns="http://www.w3.org/2000/svg" width="32" height="32" viewBox="0 0 32 32">
<title>write_active</title>
<path d="M30.754 1.241c-0.801-0.8-1.866-1.241-3.004-1.241s-2.205 0.441-3.004 1.241l-1.66 1.663-21.007 21.004c-0.007 0.008-0.010 0.020-0.018 0.027-0.046 0.043-0.071 0.102-0.104 0.156-0.009 0.019-0.024 0.033-0.031 0.053-0.020 0.040-0.055 0.070-0.068 0.115l-1.839 6.866c-0.064 0.24 0.003 0.495 0.179 0.671 0.132 0.132 0.31 0.205 0.491 0.205 0.061 0 0.12-0.009 0.18-0.024l6.867-1.841c0.044-0.011 0.074-0.045 0.113-0.064 0.016-0.006 0.028-0.019 0.045-0.026 0.058-0.034 0.12-0.061 0.166-0.11 0.008-0.009 0.018-0.011 0.026-0.019l22.666-22.665c0.798-0.8 1.239-1.866 1.239-3.004 0-1.14-0.44-2.206-1.238-3.006zM1.672 30.322l1.218-4.546 3.326 3.328-4.544 1.218zM29.771 6.268l-1.169 1.171-4.045-4.046 1.171-1.169c0.537-0.538 1.254-0.832 2.022-0.832 0.767 0 1.485 0.295 2.022 0.832 1.115 1.115 1.115 2.93 0 4.045z"></path>
</svg>
