<svg xmlns="http://www.w3.org/2000/svg" fill="none" viewBox="0 0 116 147">
  <defs/>
  <path fill="#00F000" fill-rule="evenodd" d="M21.49 106.6c-19.7-21.02-19.7-53.52.52-73.82a311.63 311.63 0 0072.78 73.1c-20.22 16.25-52.56 24.38-73.3.72zm74-74.96c23.55 17.38 13.9 46.76 1.77 71.13-28.3-24.37-47.65-44.19-71.9-72.62C49.6 13.9 74.57 12.47 95.49 31.64zm3.2-3.17c-16.03-16-36.25-20.06-56.46-16C13.93 24.65-6.3 53.08 1.8 85.57c12.13 28.44 40.43 48.75 72.77 40.63C115 114 131.17 57.14 98.7 28.46zM49.5 6.04c6.53-1.76 13.35-1.85 20.06-1.77 6.17.07 12.76.9 17.07 6.05 1.71 2.04 4.55-.95 2.84-2.99C84.82 1.78 77.72.28 70.97.08 63.48-.15 55.74 0 48.44 1.97c-2.5.67-1.44 4.74 1.08 4.07z" clip-rule="evenodd"/>
  <path fill="#00F000" fill-rule="evenodd" d="M3.06 106.55c1.96 9.02 9.27 15.88 16.51 20.83a58.64 58.64 0 0025.53 9.6c2.54.33 2.52-3.75 0-4.07a54.35 54.35 0 01-22.95-8.68c-6.61-4.4-13.46-10.58-15.25-18.77-.56-2.56-4.4-1.47-3.84 1.09zM40.48 145.85a82.03 82.03 0 0018.49 1c1.1-.06 2.03-.86 2.03-1.97 0-1.02-.93-2.05-2.03-1.98-5.81.36-11.66.1-17.4-.86-1.09-.18-2.2.28-2.5 1.38-.27.95.32 2.25 1.41 2.43z" clip-rule="evenodd"/>
</svg>
