<svg xmlns="http://www.w3.org/2000/svg" fill="none" viewBox="0 0 139 130">
  <defs/>
  <path fill="#00F000" fill-rule="evenodd" d="M4.05 43.35c-6.72-.62-4.3-11.41 1.62-9 3.7 1.52 7.98 3.15 10.13 6.83.56.93-.15 1.93-1 2.23-3.39 1.2-7.29.26-10.75-.06zM40.14 14.51C37.93 11.18 34.4 7.71 34 3.45 33.76.7 37.78-1.26 39.61.97c1.5 1.8 2.2 4.33 2.67 6.62.41 2 1 4.07.57 6.11-.11.56-.59 1.1-1.15 1.22-.56.15-1.2.13-1.56-.41zM75.07 15.28c1.12-3.07 2.75-5.96 3.77-9.07 1.42-4.27 8.7-1.73 6.86 2.38-1.81 4.06-4.45 7.37-9.16 8.38-1 .21-1.78-.83-1.47-1.69z" clip-rule="evenodd"/>
  <mask id="a" width="117" height="108" x="22" y="21" maskUnits="userSpaceOnUse">
    <path fill="#fff" fill-rule="evenodd" d="M22.74 21.4h115.5V129H22.75V21.4z" clip-rule="evenodd"/>
  </mask>
  <g mask="url(#a)">
    <path fill="#00F000" fill-rule="evenodd" d="M130.55 124.2c-3.08.25-10.43-5.87-12.97-7.51a223.04 223.04 0 01-11.92-8.26c-8.29-6.16-15.82-13.13-23.74-19.7 3.35-2.9 6.3-6.3 8.7-10.03 3.2 3.73 7.76 6.5 11.49 9.7a232.1 232.1 0 0125.85 26.05c1 1.17 8.88 9.25 2.6 9.76zM28.15 71.47c-5.38-17.76 4.2-34.1 18.13-44.34.37.2.83.27 1.37.1 18.2-5.7 39.27 1.89 44.96 21.2 5.16 17.51-8.17 37.68-24.6 43.79-16.78 6.23-34.8-4.02-39.86-20.75zm107.87 45.86c-3.79-5.53-8.67-10.55-13.27-15.42-4.8-5.08-9.85-9.96-15.1-14.58-4.6-4.05-9.54-9.11-15.2-11.69C98.2 65.01 99.68 52.28 94 41.12c-8.81-17.35-29.5-23.4-47.38-17.57-.45.15-.77.4-.99.7-13.83 5.78-22.36 21.58-22.88 36.1-.53 14.98 8.13 29.47 22.12 35.42 12.56 5.35 25.43 2.08 35.3-5.61 7.92 9.94 18.04 18.27 28.3 25.67 5.55 4 11.35 8.08 17.46 11.2 3.18 1.61 7.37 3.23 10.42.5 3.22-2.89 1.78-7.12-.34-10.2z" clip-rule="evenodd"/>
  </g>
  <path fill="#00F000" fill-rule="evenodd" d="M67.96 83.24c-13.03 4.49-32.68-3.26-34.18-18.44-1.28-13 6.12-25.3 16.14-33.03.35.3.84.47 1.43.34C65.32 29 80.41 36.48 84.45 50.8c3.83 13.58-3.15 27.84-16.5 32.44zm19.86-33.38c-4.56-16.15-21.57-24.71-37.36-21-.76.18-1.13.72-1.18 1.31-13.4 6.78-22.2 23.42-18.38 38.59 3.92 15.57 24.92 22.7 38.76 17.61C84.41 80.95 92.1 65 87.82 49.87z" clip-rule="evenodd"/>
  <path fill="#00F000" fill-rule="evenodd" d="M61.1 74.77c-8.02 1.62-14.9-.05-20.11-7.09-.97-1.31-3.57-.64-2.87 1.26 3.43 9.43 15.87 15.28 24.74 10.16 2.37-1.36.69-4.82-1.76-4.33zM18.56 77.9c-3.26 2.5-6.57 6.4-10.86 7.07-2.77.42-5-3.69-2.83-5.76 1.74-1.66 4.25-2.56 6.55-3.18 2.01-.54 4.07-1.28 6.16-.95a1.7 1.7 0 011.3 1.14c.18.59.2 1.27-.32 1.67zM48.17 104.22c.31 4.1 1.7 8.98 0 13-1.09 2.6-5.5 2.32-6.03-.6-.42-2.37.17-5 .86-7.28.61-2 1.1-4.16 2.43-5.77a1.58 1.58 0 011.58-.52c.56.16 1.11.5 1.16 1.17z" clip-rule="evenodd"/>
</svg>
