<svg xmlns="http://www.w3.org/2000/svg" fill="none" viewBox="0 0 85 99">
  <defs/>
  <mask id="a" width="85" height="99" x="0" y="0" maskUnits="userSpaceOnUse">
    <path fill="#fff" fill-rule="evenodd" d="M0 0h85v99H0V0z" clip-rule="evenodd"/>
  </mask>
  <g mask="url(#a)">
    <path fill="#00F000" fill-rule="evenodd" d="M77.93 89.81c-.57 2.78-2.92 1.96-5.51 2.09-3 .15-6 .48-8.99.69-13.22.94-26.53 1.86-39.79 1.64-3.51-.06-9.28.1-11.79-1.14-6.82-3.34-5.72-11.22-1.69-16.16 3.33-4.1 8.85-5.97 13.62-7.88 2.68-1.07 6.57-1.83 8.8-3.78 3.34-2.9 3.16-7.63-.14-10.42a25.89 25.89 0 01-6.46-7.9c.97.28 1.97.5 3 .6 2.46.25 4.99-.01 7.36-.75 1.6-.5 5.69-3.6 6.54-3.5.27.04 2.29 1.95 2.8 2.23a16 16 0 003.77 1.49c2.33.6 4.78.66 7.16.29 1.33-.2 2.64-.56 3.9-1.05-1.43 3.52-3.84 6.46-7.07 9.3-3.32 2.93-3.55 7.31-.45 10.27.13.36.47.65 1.05.84l.09.03.18.06c.3.09.62.14.96.14 8.26.77 17.92 4.88 21.38 12.81 1.31 3 1.95 6.86 1.28 10.1zm-46.5-83.1c3.53-2.53 7.77-3.33 12.08-2.96 7.08.6 12.45 5 15.95 10.82H26.13c-.59 0-1.17.08-1.76.13a23.32 23.32 0 017.05-7.99zm6.34 29.96a10.19 10.19 0 01-6.02 1.88 10 10 0 01-9.91-9.57c-.05-.54.19-.98.66-1.3a10.1 10.1 0 0115.54 5.97c.15.65.18 1.33.25 1.99.06.45-.13.76-.52 1.03zm25.54-8.85c.4.28.59.65.57 1.14a10.1 10.1 0 01-9.63 9.6 9.94 9.94 0 01-6.48-2.03c-.38-.28-.5-.62-.46-1.07.39-4.2 2.53-7.16 6.42-8.85a9.25 9.25 0 013.63-.72c2.19.02 4.17.68 5.95 1.93zm21.4 54.54C82.87 70.15 69.93 63.6 58.55 62.3c-2.12-2.03-.18-4.1 1.51-5.6a27.09 27.09 0 004.64-5.2 24.69 24.69 0 004.02-11.3l.04-.05v-.32c.04-.42.12-.85.14-1.28.02-.3-.07-.5-.14-.73V24.64c0-3.27.37-6.24-.9-8.92l-.24-.08c.02-.15.07-.3 0-.45-2-4.1-4.8-7.97-8.47-10.74C54.74 1.12 49.32-.07 43.85 0 32.8.16 22.35 5.9 17.4 15.91a.7.7 0 00-.06.52 23.08 23.08 0 00-1.45 8.21l.94 14.98.09.09v.02c.34 5.3 2 10.32 5.45 14.47 1.65 2 4.6 3.58 5.69 5.86.1.23.6 2.49.7 2.3-.14.25-1.23.44-1.52.54-8.7 3.12-19.05 6.3-24.33 14.4-3.54 5.45-4.43 12.53.71 17.33 4.16 3.89 9.51 4.04 14.94 4.23 14.81.53 29.73-.52 44.5-1.58 4.07-.3 8.29-.32 12.33-.78 8.32-.94 10.48-6.63 9.34-14.14z" clip-rule="evenodd"/>
  </g>
</svg>
