<svg xmlns="http://www.w3.org/2000/svg" fill="none" viewBox="0 0 266 118">
  <defs/>
  <mask id="a" width="177" height="102" x="0" y="0" maskUnits="userSpaceOnUse">
    <path fill="#fff" fill-rule="evenodd" d="M0 .7h176.38v101.16H0V.7z" clip-rule="evenodd"/>
  </mask>
  <g mask="url(#a)">
    <path fill="#00F000" fill-rule="evenodd" d="M170.26 95.96c-3.27 3.43-7.27 1.3-9.7-1.47-5.43-6.18-6.08-15.64-8.37-23.15-.46-1.5-3.03-1.08-3.06.47-.11 5.8 1.78 11.75 3.92 17.1-4.92-.04-9.58-1.7-12.35-6.09-2.39-3.78-1.45-7.2-2.12-11.27-.21-1.3-1.97-1.78-2.77-.7-1.83 2.48-1.87 5.86-.99 9.05a8.43 8.43 0 01-4.48-2.27c-1.36-1.36-1.6-3.25-2.56-4.69 1.48-3.17 2.86-6.4 4.15-9.68 7.6-3.39 15.65-7.77 24.26-6.51 11.34 1.64 13.56 11.95 15.16 21.61.64 3.86 1.3 7.95.88 11.86-.2 1.87-.58 4.3-1.97 5.74zm-48.6-20.67c-1.58 3.25-3.37 6.85-6.98 7.92-.18-5.07-2.8-10.16-4.4-14.94-1.84-5.45-3.6-10.96-5.58-16.36 1.97-.68 3.9-1.38 5.84-2.14 7.95-3.13 17.49-6.96 24.15-12.61.52 1.09.7 2.42.35 4.13-.83 4.14-2.67 8.25-4.16 12.19a251.12 251.12 0 01-9.22 21.81zm-19.09 5.1l-46.64-18.8c-3.3-1.32-8.3-2.48-10.57-5.47 3.82-.75 7.78-2.13 11.56-3.28 6.57-1.99 13.25-3.77 19.73-6.08.37-.13.64-.35.83-.62a.5.5 0 01.07.09c2.58 3.22 5.5 7.7 9.6 9.1 3.53 1.21 7.4-.34 10.82-1.31 1.2-.35 2.41-.72 3.61-1.1 1.2 5.14 2.7 10.22 4.24 15.26 1.46 4.84 2.55 10.95 5.38 15.27-2.98-.38-5.97-2-8.63-3.06zm-58.4-28c.1-3.92 1.9-7.88 3.12-11.55l1.16-3.5.15-.11c.7-.6.81-1.4.58-2.06 2.36-7.06 4.73-14.11 6.85-21.25.44-.18.8-.52 1-1.04 3.2 7.44 7.2 14.55 11.68 21.3 1.99 3.01 4.11 5.96 6.32 8.83-10.4 2.48-20.76 5.93-30.85 9.5v-.11zm38.06-37.36a484.46 484.46 0 0145.74 17.4c1.23.53 2.43 1.05 3.5 1.66-6.33 3.12-12.24 7.18-18.78 10a132.7 132.7 0 01-11.09 4.2c-3.79 1.24-10.7 4.4-14.55 2-3.32-2.05-6.42-7.2-8.75-10.24-2.5-3.26-4.86-6.61-7.14-10.03a265 265 0 01-11.9-20.14c5.47-1.9 19.87 4.15 22.97 5.15zM27.99 33.69c3.66-1.04 8.24-3.9 8.55-7.88.08-1.17-1.46-2.34-2.44-1.36-2.46 2.49-3.64 4.93-7.25 6.11a11.89 11.89 0 01-9.56-.96c3.99-2.61 7.55-6.53 10.35-9.33 1.17-1.17.14-3.63-1.62-2.72-5.65 2.88-9.14 10.12-15.93 10.7-3.04.27-6.41-1.44-5.99-5.06.22-1.83 1.62-3.7 2.74-5.09 2.25-2.76 5.18-5.13 7.97-7.31C21.24 5.77 29.85 2.3 37.22 7.6c5.89 4.22 7.94 11.12 10.27 17.58.04.1.1.17.14.24a818.04 818.04 0 00-3.3 10c-5.28 2.8-11.65 2.02-16.34-1.74zm148.34 51.63c-.7-10.49-2.5-25.6-13.21-30.68-10.18-4.82-20.92-.4-29.84 5.13a613.4 613.4 0 003.03-8.23c2.25-6.22 6.43-14.74-.03-19.86-3.34-2.64-8.1-4.01-11.97-5.65A484.94 484.94 0 0071 6.97c-5.58-1.64-16.88-4.65-17.8 4.01-.38.2-.7.54-.9 1.07a539.82 539.82 0 00-3.24 9.14c-1.88-8.25-6.21-16.82-14.64-19.6C23.94-1.86 14.16 5.31 6.92 12.12 2.05 16.7-4.31 26.16 4.09 30.95c3.9 2.23 7.73 1.63 11.29-.22a12.17 12.17 0 009.78 3.46c3.74 5.71 11.17 7.97 17.6 6.15l-1.38 4.33C39.39 51 38.45 57.95 45 61.79c4.22 2.48 9.36 3.93 13.88 5.76 5.49 2.2 10.97 4.42 16.46 6.63 10.6 4.27 21.14 9.26 31.99 12.81 7.56 2.48 13.18-.4 16.95-7.15.4-.72.76-1.45 1.15-2.17a11.7 11.7 0 002.78 3c2.07 1.52 4.98 2.42 7.54 1.8a17.1 17.1 0 002.64 4.23 15.98 15.98 0 0015.84 4.99c1.76 3.8 4.16 7.46 8.1 9.16 10.63 4.58 14.54-7.35 14-15.53z" clip-rule="evenodd"/>
  </g>
  <path fill="#00F000" fill-rule="evenodd" d="M264.54 110.98c-25.98-4.38-51.9-14.07-76.75-22.73-1.34-.47-.86-2.6.55-2.2 25.46 7.14 52.12 12.95 76.79 22.54 1.44.56.98 2.65-.6 2.39zM245.91 118c-12.1-1.46-24.58-6.94-36.3-10.34-1.04-.3-.64-1.84.4-1.64 11.88 2.3 25.83 4.32 36.53 10.33.94.52.29 1.76-.63 1.64z" clip-rule="evenodd"/>
</svg>
