<svg xmlns="http://www.w3.org/2000/svg" fill="none" viewBox="0 0 227 115">
  <defs/>
  <mask id="a" width="116" height="108" x="26" y="7" maskUnits="userSpaceOnUse">
    <path fill="#fff" fill-rule="evenodd" d="M141.98 33.13L47.78 7.9 26 89.1l94.2 25.25 21.77-81.22z" clip-rule="evenodd"/>
  </mask>
  <g mask="url(#a)">
    <path fill="#00F000" fill-rule="evenodd" d="M61.24 85.85a5.4 5.4 0 004.58 6.1l48.64 6.88a5.4 5.4 0 006.1-4.59l3.37-23.78a5.4 5.4 0 00-4.57-6.1l-48.64-6.88a5.4 5.4 0 00-6.1 4.6l-3.38 23.77zm53.69-48.55a10.5 10.5 0 00-11 6.08c-.2.81-.46 1.6-.74 2.35-.03.17-.08.33-.1.5a10.48 10.48 0 008.89 11.85 10.5 10.5 0 002.95-20.78zm-15.37 3.47a15.4 15.4 0 00-13.05-17.4 15.4 15.4 0 00-4.33 30.5 15.4 15.4 0 0016.4-9.52c.19-.82.43-1.6.74-2.36.09-.4.18-.8.24-1.22zM99.04 52a18.75 18.75 0 01-5.1 3.9l7.88 1.12A14.29 14.29 0 0199.04 52zm-57.46.85c-.74.11-1.18.81-1.27 1.51l-4.38 30.78c-.1.7.13 1.5.8 1.81L57.24 80l2.1-14.8-17.75-12.33zm87.03 18.72l-3.37 23.79c-.8 5.57-6.5 8.92-12.05 8.13l-48.64-6.88c-5.56-.78-8.9-5.42-8.11-10.98l.04-.32L37.3 91.7a1.8 1.8 0 01-.95.12c-3.5-.49-5.68-3.7-5.16-7.34l4.37-30.78c.52-3.63 3.36-6.14 6.85-5.64.37.05.58.17.88.38l16.46 11.48c1.5-4.4 5.81-7.3 10.55-6.87A20.19 20.19 0 0187.19 18.6a20.2 20.2 0 0117.08 16.9 15.2 15.2 0 0111.34-2.95 15.28 15.28 0 0112.96 17.28c-.66 4.6-3 8.46-6.64 10.78 4.3 1.68 7.36 6.2 6.68 10.97z" clip-rule="evenodd"/>
  </g>
  <path fill="#00F000" fill-rule="evenodd" d="M10.31 82.9c-4.7 2.44-7.8-5.32-2.85-6.3 3.1-.61 6.62-1.4 9.65-.02.78.36.74 1.27.31 1.82-1.7 2.17-4.68 3.24-7.1 4.5z" clip-rule="evenodd"/>
  <mask id="b" width="14" height="10" x="4" y="59" maskUnits="userSpaceOnUse">
    <path fill="#fff" fill-rule="evenodd" d="M17.93 63.02l-11.61-3.1-1.5 5.58 11.62 3.11 1.5-5.59z" clip-rule="evenodd"/>
  </mask>
  <g mask="url(#b)">
    <path fill="#00F000" fill-rule="evenodd" d="M16.49 65.97c-3.09.23-6.8 1.34-9.77-.08-1.93-.91-1.61-4.53.6-4.95 1.8-.33 3.75.18 5.45.76 1.5.5 3.1.92 4.28 2.02.32.3.48.86.35 1.3-.14.46-.4.91-.91.95z" clip-rule="evenodd"/>
  </g>
  <path fill="#00F000" fill-rule="evenodd" d="M20.7 50.95c-2.35-1.18-4.5-2.68-6.89-3.8-3.28-1.54-.53-6.28 2.58-4.46 3.07 1.79 5.46 4.06 5.8 7.46.08.73-.83 1.13-1.49.8z" clip-rule="evenodd"/>
  <mask id="c" width="73" height="72" x="140" y="23" maskUnits="userSpaceOnUse">
    <path fill="#fff" fill-rule="evenodd" d="M166.22 23.17l46.67 26.95-25.86 44.77-46.66-26.94 25.85-44.78z" clip-rule="evenodd"/>
  </mask>
  <g mask="url(#c)">
    <path fill="#00F000" fill-rule="evenodd" d="M174.79 70.76a11.23 11.23 0 01-9.98-12.12c.58-6.02 6-10.37 12.08-9.7a11.23 11.23 0 019.98 12.13c-.58 6.01-6 10.37-12.08 9.7zm22.26-25.57l-4.2-.47a.87.87 0 01-.77-.78v-.04l-.78-4.94a2.76 2.76 0 00-2.44-2.45l-21.32-2.35a2.67 2.67 0 00-2.86 1.85l-1.7 4.72a.83.83 0 01-.9.6l-4.21-.47a2.66 2.66 0 00-2.96 2.37l-2.85 29.64a2.75 2.75 0 002.44 2.97l39.18 4.32c1.49.17 2.81-.9 2.95-2.37l2.86-29.64a2.74 2.74 0 00-2.44-2.96z" clip-rule="evenodd"/>
  </g>
  <path fill="#00F000" fill-rule="evenodd" d="M200.92 15.67c1.47.88 3.28 1.46 4.92 2a84.08 84.08 0 00-6.41 8.94c-.34-.18-.68-.34-1.02-.5.6-2.12 1.19-4.24 1.7-6.38.28-1.12.48-2.86.81-4.06zm-5.22 11.42c.1.8 2.95 1.58 3.49 1.93.5.34 1.18.19 1.53-.3 2.48-3.44 5.43-7.35 7.06-11.27.22-.54-2.7-1.89-3.66-2.38-.94-.49-2.92-1.82-3.96-1.6-1.3.27-5.1 13.06-4.46 13.62zM177.66 17.77c1.52-.78 2.96-2 4.27-3.1a82.8 82.8 0 004.57 9.98c-.33.18-.64.39-.96.59-1.54-1.6-3.1-3.17-4.72-4.7-.84-.8-2.27-1.87-3.16-2.77zm7.37 10.25c.74.33 2.88-1.66 3.47-1.94.55-.25.76-.89.5-1.44-1.74-3.85-3.66-8.33-6.27-11.7-.36-.48-3.03 1.3-3.96 1.84-.9.54-3.08 1.52-3.42 2.5-.42 1.23 8.86 10.98 9.68 10.74zM216.3 30.78a25.67 25.67 0 001.7 5.2c-3.67.08-7.58.26-11.13.83l-.29-1.13c2.04-.92 4.06-1.86 6.05-2.86 1.04-.52 2.53-1.5 3.68-2.04zm-12.26 3.4c-.55.6.73 3.37.8 4.04.08.62.64 1.05 1.25 1 4.3-.3 9.25-.55 13.35-1.84.57-.18-.32-3.38-.56-4.46-.25-1.07-.52-3.5-1.38-4.19-1.06-.84-13.44 4.58-13.46 5.45z" clip-rule="evenodd"/>
</svg>
