<svg xmlns="http://www.w3.org/2000/svg" fill="none" viewBox="0 0 177 122">
  <defs/>
  <mask id="a" width="177" height="122" x="0" y="0" maskUnits="userSpaceOnUse">
    <path fill="#fff" fill-rule="evenodd" d="M0 .01h176.63v121.56H0V0z" clip-rule="evenodd"/>
  </mask>
  <g mask="url(#a)">
    <path fill="#00F000" fill-rule="evenodd" d="M155.4 19.09c3.83 4.58 8.18 10.58 10.16 16.45-4.99 7.48-11.97 13.97-18.4 18.88-10.9 8.31-24.24 13.8-37.96 15.14-4.36-7.12-10-15.08-15.4-21.39C99.77 35.63 114.57 19.46 129 11.7a66.68 66.68 0 0111.17-4.78c6.12 2.17 11.17 7.3 15.24 12.18zm-65.02 41.4c1.12 1.85 2.27 3.68 3.44 5.5-3.44 2.35-6.72 4.73-10.65 6.4-4.16 1.78-8.52 2.94-12.74 4.54-.7.27-.37 1.4.36 1.26 7.71-1.57 18.29-4.63 23.74-11.1 1.25 1.91 2.52 3.83 3.8 5.74-2.87 2.06-5.4 4.6-8.2 6.76a106.21 106.21 0 01-11.73 7.83c-7.3 4.2-15.49 9.9-12.05 8.63-.22 6-2.8 12.55-8.48 15.6-3.72 1.99-9.5 4.34-15-1.87-.75-.83-2.55-.79-2.3.55.23 1.18.32 2.5 1.08 3.34-4.2 5.89-12.74 5.93-19.17 3.5-7.94-3-9.6-9.2-9.3-16.78.05-.88-1.07-1.4-1.63-.65a9.9 9.9 0 00-1.4 2.65c-4.36-.35-7.02-5.14-7.28-9.23-.12-2 .19-4.04.94-5.9a25.8 25.8 0 011.9-3.58c.43-.66.85-1.13 1.15-1.11.57.02 1.19-.36 1.22-1l.01-.14c.04-.74-.61-1.62-1.45-1.4-.85.23-1.61.66-2.29 1.22C.97 76.2 3.4 67.92 6.33 63.4c2.77-4.29 8.23-9.8 15.43-10.45 6.46-6.74 15.34-6.03 19.77-.48 4.29-4.69 7.65-4.58 14.43-1.93 6.06 2.38 8.77 8.72 11.1 14.38-1.18.06-9.37 3.25.2 2.45 6.78-.56 17.39-1.74 23.12-6.88zM157.48.02c-13.94-.18-27.23 5.06-38.37 13.21-3.3 2.42-6.75 5.21-10.04 8.29-2.94-.75-6.32.64-9 1.75-2.82 1.16-15.82 6.45-15.9 9.59-.02 1.37 5.82 4.33 11.17 6.5-.79 1.7-2.73 5.22-3.24 6.98-.5-.15-1.54-1-2.1-.58-1.63 1.26-4.93 2.97-5.43 5.55-.44 2.32 3.58 5.38 4.62 7.17l.4.69c-5.26 3.98-13.89 5.23-20.9 5.66-1.8-7.5-4.76-15.84-12.72-18.55-6-2.04-10.7-1.48-14.58 3.64-6.74-8.87-17.63-5.11-20.97 1.21-2.98.17-5.76 1.55-8.27 3.08C6.17 57.85 1.75 63.73.53 70.7c-.64 3.67-.85 9.59 2.27 12.24C.45 86.26-.38 91.45.16 94.66c.76 4.6 4.79 9.78 9.61 9.2-1.2 7.06 6.24 14.42 12.46 16.55 7.22 2.48 18.74 1.22 21.97-6.22 3.94 2.06 10.47 2 13.57.63 6.52-2.91 13.7-12.04 10.42-19.46a88.98 88.98 0 0012.83-6.38c6.23-3.72 13.8-8.6 18.24-14.74 1.18 1.79 2.2 2.85 3.38 4.64.5.77 1.85.92 2.52.3 1.82-1.67 3.77-2.65 5.59-4.31.72-.67.8-1.55.28-2.37l-.66-1.05a56.6 56.6 0 006.92-.3c-.18 1.93 1.67 12.13 2.36 12.23.29.2.61.35.98.34 3.22-.06 5.77-3.61 7.93-5.71 3.45-3.37 7.81-8.58 10.52-13.5a72.45 72.45 0 009.92-6.22c11.5-8.58 23.28-20.96 26.56-35.37 1.24-5.45 2.13-12.7-1.64-17.4C170.11.74 163.13.08 157.47.01z" clip-rule="evenodd"/>
  </g>
  <path fill="#00F000" fill-rule="evenodd" d="M149.22 29.35c1.83 5.25-.1 10.21-4.9 11.86-2.67.92-5.73-.09-8.28-1.85-4.99-3.45-7.77-10.06-2.23-14.37 2.78-2.17 6.28-3.83 9.75-2.38 2.84 1.18 4.7 3.95 5.66 6.74zm-5.3-9.9c-3.8-1.24-7.4.26-10.56 2.42-7.55 5.15-6.9 14.74.54 19.73 3.63 2.44 7.06 3.08 11.39 1.64 2.87-.95 6.43-5.01 7.16-7.15.87-2.5.61-5.4-.1-7.6-1.3-3.95-4.37-7.7-8.44-9.04zM123.26 50.35c-1.52 2.1-10.33 8.67-11.9 9.66-1.7 1.07-5.13 1.6-6.02-.14-1.83-3.62 4.2-8.21 6.97-10.4 2.1-1.65 7-6.62 10.73-5.23 2.85 1.07 2.3 3.54.22 6.1z" clip-rule="evenodd"/>
</svg>
