<svg xmlns="http://www.w3.org/2000/svg" fill="none" viewBox="0 0 191 64">
  <defs/>
  <mask id="a" width="93" height="44" x="0" y="20" maskUnits="userSpaceOnUse">
    <path fill="#fff" fill-rule="evenodd" d="M0 20.7h92.58v42.8H0V20.7z" clip-rule="evenodd"/>
  </mask>
  <g mask="url(#a)">
    <path fill="#00F000" fill-rule="evenodd" d="M53.82 58.45h-.09a8.46 8.46 0 001.7-1.38c3.92-4.21 3.88-11.15 3.19-16.5-.35-2.7-.9-5.41-1.72-8-.7-2.22-1.62-4.38-3.21-6.08a52.92 52.92 0 0119.5 8.2A52.22 52.22 0 0186.6 47.9a78.99 78.99 0 01-32.78 10.56zm-34.5-6.34A59 59 0 017 44.1a8.97 8.97 0 01-1.6-1.64c8.14-8.93 19.55-14.72 31.48-16.45a15.64 15.64 0 00-3.57 5.5 24.15 24.15 0 00-1.36 8.72c.01 2.55.15 5.15.6 7.67.7 3.99 2.44 7.82 5.78 10.05A66.23 66.23 0 0119.3 52.1zm66.1-13.26A58.41 58.41 0 0073.22 29a37.9 37.9 0 00-6.29-3.34 54.9 54.9 0 00-18.54-4.77l-4.51-.17c-4.67.01-9.32.6-13.86 1.75l-4.59 1.37a56.94 56.94 0 00-14.66 7.53L7.9 33.7c-.23.2-.49.36-.76.5a58.24 58.24 0 00-5.53 5.28c-1.03.35-1.84 1.3-1.53 2.67l.08.32c.01.09.04.18.07.28.88 2.92 3.33 4.88 5.68 6.7a61.51 61.51 0 007.88 5.22 68.48 68.48 0 0017.7 6.89 75.2 75.2 0 0038.42-1.21 86.11 86.11 0 0020.02-8.79 3 3 0 00.41-.3c.28-.02.57-.09.86-.23 1.08-.53 1.82-2.13 1.12-3.25a56.93 56.93 0 00-3.86-5.44l-3.03-3.49z" clip-rule="evenodd"/>
  </g>
  <path fill="#00F000" fill-rule="evenodd" d="M21.35 20.1c-2.62-2.33-6.4-4.49-7.68-8-.82-2.28 2.18-4.84 4.25-3.36 1.67 1.2 2.83 3.18 3.74 5.02.79 1.6 1.75 3.23 1.84 5.05.02.5-.27 1.06-.72 1.3-.45.24-1 .37-1.43-.01zM73.42 25.27c1.1-2.62 2.6-5.06 3.6-7.72 1.4-3.65 7.3-1.07 5.56 2.42-1.72 3.45-4.08 6.2-8.03 6.84-.85.13-1.43-.82-1.13-1.54zM44.38 16.29c-.59-3.46-2.19-7.5-.99-11.05.78-2.3 4.72-2.42 5.41.03.56 1.98.23 4.26-.21 6.26-.39 1.75-.66 3.61-1.72 5.09-.3.4-.87.66-1.37.56-.5-.09-1.02-.33-1.12-.9zM104.7 46.82a52.23 52.23 0 0112.7-13.88 52.9 52.9 0 0119.04-9.23c-1.5 1.78-2.3 3.98-2.88 6.24a47.27 47.27 0 00-1.3 8.08c-.4 5.38-.08 12.3 4.06 16.31a8.4 8.4 0 001.76 1.3H138a79 79 0 01-33.3-8.82zm48.73 7.5c3.22-2.4 4.74-6.3 5.25-10.33.31-2.54.31-5.14.19-7.7a24.15 24.15 0 00-1.82-8.63 15.66 15.66 0 00-3.85-5.3c12 1.1 23.7 6.28 32.3 14.77-.4.64-.97 1.22-1.51 1.72a59.2 59.2 0 01-11.87 8.63 66.31 66.31 0 01-18.69 6.85zm-50.87-12.95A57.15 57.15 0 0099 47.01c-.64 1.15.18 2.71 1.3 3.18.28.13.58.18.86.2.13.1.28.19.43.27a86 86 0 0020.45 7.72 75.19 75.19 0 0038.43-.82 68.62 68.62 0 0017.31-7.8 61.55 61.55 0 007.6-5.63c2.24-1.95 4.59-4.04 5.32-7l.06-.29.06-.3c.23-1.4-.63-2.3-1.68-2.6a58.13 58.13 0 00-5.8-4.99 3.45 3.45 0 01-.78-.45l-3-2.18a57.19 57.19 0 00-15.04-6.76l-4.65-1.12a57.21 57.21 0 00-13.93-1.02l-4.5.4a54.97 54.97 0 00-18.26 5.75c-2.7 1.38-4.1 2.2-6.1 3.67a58.53 58.53 0 00-11.67 10.49l-2.85 3.64z" clip-rule="evenodd"/>
  <mask id="b" width="7" height="15" x="140" y="0" maskUnits="userSpaceOnUse">
    <path fill="#fff" fill-rule="evenodd" d="M140.16.5h6.13v13.74h-6.13V.5z" clip-rule="evenodd"/>
  </mask>
  <g mask="url(#b)">
    <path fill="#00F000" fill-rule="evenodd" d="M141.83 13.36c-.69-3.45-2.4-7.44-1.31-11.02.71-2.31 4.65-2.55 5.41-.12.61 1.96.35 4.24-.03 6.26-.34 1.76-.56 3.63-1.58 5.14-.28.41-.85.68-1.35.6-.51-.08-1.03-.3-1.14-.86z" clip-rule="evenodd"/>
  </g>
  <path fill="#00F000" fill-rule="evenodd" d="M167.56 12.76c.58-2.78 1.6-5.46 2.09-8.26.68-3.85 6.96-2.42 5.91 1.33-1.04 3.7-2.84 6.86-6.6 8.23-.8.29-1.56-.53-1.4-1.3zM117.69 16.54c-1.71-2.27-3.77-4.25-5.42-6.57-2.26-3.2-7.33.78-4.78 3.73 2.53 2.9 5.5 4.98 9.49 4.62.85-.09 1.18-1.15.7-1.78z" clip-rule="evenodd"/>
</svg>
