<svg xmlns="http://www.w3.org/2000/svg" fill="none" viewBox="0 0 218 122">
  <defs/>
  <path fill="#00F000" fill-rule="evenodd" d="M191.3 2.77c5.23-7.53 16.37 2.08 9.55 7.55-4.27 3.4-9.05 7.43-14.85 7.68-1.48.06-2.18-1.4-1.96-2.59.85-4.73 4.56-8.75 7.25-12.64zM194.75 34.82c4.76-2.86 9.8-7.55 15.71-7.82 3.82-.17 6.27 5.6 3.05 8.02-2.6 1.95-6.13 2.78-9.33 3.27-2.8.44-5.7 1.12-8.5.39-.76-.2-1.47-.9-1.61-1.7-.16-.8-.1-1.7.68-2.16zM199.83 60c4.54.02 9.05.73 13.6.63 6.25-.15 6 9.8-.2 9.36-6.15-.44-11.66-2.2-15-7.47-.71-1.13.34-2.52 1.6-2.52zM175.35 61.02c-.67 3.02-2.1 5.58-3.99 6.63 2.72-9.2-1.1-19.67-5.67-27.72-1.54-2.73-4.51-6.85-7.73-8.94 1.95-1.07 4.13-1.57 5.7-1.01 3.28 1.18 5.76 3.86 7.65 7.13-.1.38-.07.81.2 1.24a30.28 30.28 0 013.84 22.67zm-8.06 6.16c-.04.12-.06.23-.08.34a9.42 9.42 0 01-2.5-2.17 48.4 48.4 0 01-10.67-23.3c-.33-1.86-.8-4-.54-5.88.05-.37.17-.74.33-1.1 5.8.26 9.78 10.12 11.31 13.94 2.26 5.63 4.2 12.18 2.15 18.17zm-99.3 33.77L56.5 76.71l21.73-10.14c23.3-11.68 46.74-23.06 70.17-34.5-1.22 6.69.64 15.4 2.35 20.09 1.56 4.29 7.1 15.64 13.47 20.89-24.43 4.32-72.86 19.4-96.23 27.9zm-26.61 8.14a261.7 261.7 0 01-14.97 4.96l-2.67.82c-1.95.6-3.95 1.24-5.96 1.7a13.18 13.18 0 01-4.14-11.58 479.93 479.93 0 0115.29-9.18 527.3 527.3 0 0123.93-12.9l8.42 17.88-19.9 8.3zm-30.24 8.1c-2.58-.23-4.34-1.22-4.96-2.79-.65-1.66.09-3.81 2.01-5.92.34-.37.8-.74 1.39-1.16.06.92.2 1.89.42 2.91.58 2.7 1.77 5.03 3.52 6.97-.86.05-1.64.05-2.38-.02zm148.37-94.13c-2-.18-3.66.04-5.07.56-.45-.1-.97-.04-1.53.24-32.8 16.34-66.26 31.87-98.54 49.38l-4.82 2.64 1.22 2.6c-3.73 1.92-7.57 3.92-11.32 5.95l-3.71 2.03a499.62 499.62 0 00-27.35 16.12l-.47.3c-4.2 2.68-9.46 6.01-7.5 12.02 1.79 5.46 7.67 7.47 12.71 7.04.51-.03 1.03-.1 1.56-.16 6.16-.78 12.37-3.03 18.39-5.21 1.5-.55 3-1.1 4.45-1.6a516.8 516.8 0 0015.17-5.53l5.15-1.94 5.6-2.1.84 1.75 6.78-2.54 14.7-5.55c27.03-10.13 54.64-16.61 82.54-23.64 2.34.74 4.72.37 6.97-1.73 5.79-5.4 6.6-13.94 5-22 .32-11.54-8.16-27.51-20.77-28.63z" clip-rule="evenodd"/>
</svg>
