<?xml version="1.0" standalone="no"?>
<!DOCTYPE svg PUBLIC "-//W3C//DTD SVG 20010904//EN"
 "http://www.w3.org/TR/2001/REC-SVG-20010904/DTD/svg10.dtd">
<svg version="1.0" xmlns="http://www.w3.org/2000/svg"
 width="512.000000pt" height="512.000000pt" viewBox="0 0 512.000000 512.000000"
 preserveAspectRatio="xMidYMid meet">
<metadata>
Created by potrace 1.14, written by Peter Selinger 2001-2017
</metadata>
<g transform="translate(0.000000,512.000000) scale(0.100000,-0.100000)"
fill="#000000" stroke="none">
<path d="M771 5105 c-98 -22 -158 -44 -251 -91 -232 -119 -405 -328 -487 -590
l-28 -89 0 -1775 0 -1775 28 -88 c103 -331 333 -561 664 -664 l88 -28 1775 0
1775 0 88 28 c331 103 561 333 664 664 l28 88 0 1775 0 1775 -28 89 c-101 324
-339 562 -663 663 l-89 28 -1750 2 c-1464 1 -1760 -1 -1814 -12z m1107 -1220
c314 -192 572 -353 572 -356 0 -4 -214 -146 -476 -315 -430 -279 -474 -309
-457 -322 10 -7 217 -157 460 -333 243 -176 444 -323 447 -327 2 -4 -282 -175
-632 -380 -351 -205 -656 -384 -679 -398 l-43 -25 0 1475 0 1475 118 -72 c65
-40 375 -229 690 -422z m2170 -2392 l-3 -740 -685 419 c-377 231 -685 423
-685 428 0 5 209 145 465 310 256 166 468 305 472 309 5 4 -201 157 -457 341
-255 184 -464 337 -464 340 0 3 304 183 677 400 l677 396 3 -732 c1 -403 1
-1065 0 -1471z"/>
</g>
</svg>
